999
FreeCAD v0.20 29177 +426 (Git)
  0
SECTION
  2
HEADER
  9
$ACADVER
  1
AC1014
  9
$ACADMAINTVER
 70
     9
  9
$DWGCODEPAGE
  3
ANSI_1252
  9
$TEXTSTYLE
  7
STANDARD
  9
$DIMSTYLE
  2
STANDARD
  9
$DIMTXSTY
  7
STANDARD
  9
$CMLSTYLE
  2
STANDARD
  9
$LUNITS
 70
2
  9
$INSUNITS
 70
4
  9
$PEXTMAX
 10
50
 20
50
 30
50
  9
$PEXTMIN
 10
0
 20
0
 30
0
  9
$HANDSEED
  5
FFFF
  0
ENDSEC
  0
SECTION
  2
CLASSES
  0
CLASS
  1
ACDBDICTIONARYWDFLT
  2
AcDbDictionaryWithDefault
  3
ObjectDBX Classes
 90
        0
280
     0
281
     0
  0
CLASS
  1
XRECORD
  2
AcDbXrecord
  3
ObjectDBX Classes
 90
        0
280
     0
281
     0
  0
CLASS
  1
LWPOLYLINE
  2
AcDbPolyline
  3
ObjectDBX Classes
 90
        0
280
     0
281
     1
  0
ENDSEC
  0
SECTION
  2
TABLES
  0
TABLE
  2
VPORT
  5
20
330
0
100
AcDbSymbolTable
 70
     1
  0
VPORT
  5
21
330
20
100
AcDbSymbolTableRecord
100
AcDbViewportTableRecord
  2
*ACTIVE
 70
     0
  0
ENDTAB
  0
TABLE
  2
LTYPE
  5
22
330
0
100
AcDbSymbolTable
 70
     1
  0
LTYPE
  5
23
330
21
100
AcDbSymbolTableRecord
100
AcDbLinetypeTableRecord
  2
BYBLOCK
 70
     0
  3

 72
    65
 73
     0
 40
0.0
  0
LTYPE
  5
24
330
21
100
AcDbSymbolTableRecord
100
AcDbLinetypeTableRecord
  2
BYLAYER
 70
     0
  3

 72
    65
 73
     0
 40
0.0
  0
LTYPE
  5
25
330
21
100
AcDbSymbolTableRecord
100
AcDbLinetypeTableRecord
  2
CONTINUOUS
 70
     0
  3
Solid line
 72
    65
 73
     0
 40
0.0
  0
ENDTAB
  0
TABLE
  2
LAYER
  5
CE0
330
0
100
AcDbSymbolTable
 70
3
  0
LAYER
  5
CE1
330
CE0
100
AcDbSymbolTableRecord
100
AcDbLayerTableRecord
  2
0
 70
   0
 62
   7
  6
CONTINUOUS
  0
LAYER
  5
CE2
330
CE0
100
AcDbSymbolTableRecord
100
AcDbLayerTableRecord
  2
none
 70
    0
 62
    7
  6
CONTINUOUS
  0
LAYER
  5
CE3
330
CE0
100
AcDbSymbolTableRecord
100
AcDbLayerTableRecord
  2
Shape2DView
 70
    0
 62
    7
  6
CONTINUOUS
  0
ENDTAB
  0
TABLE
  2
STYLE
  5
70
330
0
100
AcDbSymbolTable
 70
     2
  0
STYLE
  5
71
330
70
100
AcDbSymbolTableRecord
100
AcDbTextStyleTableRecord
  2
STANDARD
 70
     0
 40
0.0
 41
1.0
 50
0.0
 71
     0
 42
2.5
  3
arial.ttf
  4

  0
STYLE
  5
72
330
70
100
AcDbSymbolTableRecord
100
AcDbTextStyleTableRecord
  2
ANNOTATIVE
 70
     0
 40
0.0
 41
1.0
 50
0.0
 71
     0
 42
2.5
  3
arial.ttf
  4

  0
ENDTAB
  0
TABLE
  2
VIEW
  5
73
330
0
100
AcDbSymbolTable
 70
     0
  0
ENDTAB
  0
TABLE
  2
UCS
  5
74
330
0
100
AcDbSymbolTable
 70
     0
  0
ENDTAB
  0
TABLE
  2
APPID
  5
75
330
0
100
AcDbSymbolTable
 70
     2
  0
APPID
  5
76
330
75
100
AcDbSymbolTableRecord
100
AcDbRegAppTableRecord
  2
ACAD
 70
     0
  0
APPID
  5
77
330
75
100
AcDbSymbolTableRecord
100
AcDbRegAppTableRecord
  2
ACADANNOTATIVE
 70
     0
  0
ENDTAB
  0
TABLE
  2
DIMSTYLE
  5
78
330
0
100
AcDbSymbolTable
 70
     2
  0
DIMSTYLE
105
79
330
78
100
AcDbSymbolTableRecord
100
AcDbDimStyleTableRecord
  2
STANDARD
 70
     0
  3

  4

  5

  6

  7

 40
0.0
 41
2.5
 42
0.625
 43
3.75
 44
1.25
 45
0.0
 46
0.0
 47
0.0
 48
0.0
140
2.5
141
2.5
142
0.0
143
0.03937007874016
144
1.0
145
0.0
146
1.0
147
0.625
 71
     0
 72
     0
 73
     0
 74
     0
 75
     0
 76
     0
 77
     1
 78
     8
170
     0
171
     3
172
     1
173
     0
174
     0
175
     0
176
     0
177
     0
178
     0
270
     2
271
     2
272
     2
273
     2
274
     3
340
71
275
     0
280
     0
281
     0
282
     0
283
     0
284
     8
285
     0
286
     0
287
     3
288
     0
  0
ENDTAB
  0
TABLE
  2
BLOCK_RECORD
  5
A01
330
0
100
AcDbSymbolTable
  70
5
  0
BLOCK_RECORD
  5
A02
330
A01
100
AcDbSymbolTableRecord
100
AcDbBlockTableRecord
  2
*MODEL_SPACE
  0
BLOCK_RECORD
  5
A03
330
A01
100
AcDbSymbolTableRecord
100
AcDbBlockTableRecord
  2
*PAPER_SPACE
  0
ENDTAB
  0
ENDSEC
  0
SECTION
  2
BLOCKS
  0
BLOCK
  5
A04
330
A02
100
AcDbEntity
  8
0
100
AcDbBlockBegin
  2
*MODEL_SPACE
 70
   0
 10
0
 20
0
 30
0
  3
*MODEL_SPACE
  1
 
  0
ENDBLK
  5
A05
330
A02
100
AcDbEntity
  8
0
100
AcDbBlockEnd
  0
BLOCK
  5
A06
330
A03
100
AcDbEntity
 67
1
  8
0
100
AcDbBlockBegin
  2
*PAPER_SPACE
 70
   0
 10
0
 20
0
 30
0
  3
*PAPER_SPACE
  1
 
  0
ENDBLK
  5
A07
330
A03
100
AcDbEntity
 67
    1
  8
0
100
AcDbBlockEnd
  0
ENDSEC
  0
SECTION
  2
ENTITIES
  0
LINE
  5
A08
330
A02
100
AcDbEntity
  8
Shape2DView
100
AcDbLine
 10
0.608686
 20
-205.025
 30
0
 11
3.65669
 21
-205.025
 31
0
  0
SPLINE
  5
A09
330
A02
100
AcDbEntity
  8
Shape2DView
100
AcDbSpline
210
0
220
0
230
1
 70
8
 71
1
 72
17
 73
15
 74
0
 40
1.87266
 40
1.87266
 40
1.9633
 40
2.05393
 40
2.14457
 40
2.23521
 40
2.32585
 40
2.41649
 40
2.50712
 40
2.59776
 40
2.6884
 40
2.77904
 40
2.86968
 40
2.96032
 40
3.05095
 40
3.14159
 40
3.14159
 10
3.65669
 20
-205.025
 30
0
 10
3.65669
 20
-205.425
 30
0
 10
3.65669
 20
-205.811
 30
0
 10
3.65669
 20
-206.179
 30
0
 10
3.65669
 20
-206.525
 30
0
 10
3.65669
 20
-206.848
 30
0
 10
3.65669
 20
-207.145
 30
0
 10
3.65669
 20
-207.412
 30
0
 10
3.65669
 20
-207.649
 30
0
 10
3.65669
 20
-207.853
 30
0
 10
3.65669
 20
-208.021
 30
0
 10
3.65669
 20
-208.154
 30
0
 10
3.65669
 20
-208.25
 30
0
 10
3.65669
 20
-208.308
 30
0
 10
3.65669
 20
-208.327
 30
0
  0
LINE
  5
A0A
330
A02
100
AcDbEntity
  8
Shape2DView
100
AcDbLine
 10
3.65669
 20
-208.327
 30
0
 11
6.45069
 21
-208.327
 31
0
  0
SPLINE
  5
A0B
330
A02
100
AcDbEntity
  8
Shape2DView
100
AcDbSpline
210
0
220
0
230
1
 70
8
 71
1
 72
17
 73
15
 74
0
 40
3.14159
 40
3.14159
 40
3.36599
 40
3.59039
 40
3.81479
 40
4.03919
 40
4.26359
 40
4.48799
 40
4.71239
 40
4.93679
 40
5.16119
 40
5.38559
 40
5.60999
 40
5.83439
 40
6.05879
 40
6.28319
 40
6.28319
 10
6.45069
 20
-198.929
 30
0
 10
6.45069
 20
-199.047
 30
0
 10
6.45069
 20
-199.394
 30
0
 10
6.45069
 20
-199.954
 30
0
 10
6.45069
 20
-200.698
 30
0
 10
6.45069
 20
-201.589
 30
0
 10
6.45069
 20
-202.582
 30
0
 10
6.45069
 20
-203.628
 30
0
 10
6.45069
 20
-204.674
 30
0
 10
6.45069
 20
-205.667
 30
0
 10
6.45069
 20
-206.558
 30
0
 10
6.45069
 20
-207.302
 30
0
 10
6.45069
 20
-207.862
 30
0
 10
6.45069
 20
-208.209
 30
0
 10
6.45069
 20
-208.327
 30
0
  0
LINE
  5
A0C
330
A02
100
AcDbEntity
  8
Shape2DView
100
AcDbLine
 10
3.65669
 20
-198.929
 30
0
 11
6.45069
 21
-198.929
 31
0
  0
SPLINE
  5
A0D
330
A02
100
AcDbEntity
  8
Shape2DView
100
AcDbSpline
210
0
220
0
230
1
 70
8
 71
1
 72
17
 73
15
 74
0
 40
0
 40
0
 40
0.0906383
 40
0.181277
 40
0.271915
 40
0.362553
 40
0.453191
 40
0.54383
 40
0.634468
 40
0.725106
 40
0.815744
 40
0.906383
 40
0.997021
 40
1.08766
 40
1.1783
 40
1.26894
 40
1.26894
 10
3.65669
 20
-198.929
 30
0
 10
3.65669
 20
-198.948
 30
0
 10
3.65669
 20
-199.006
 30
0
 10
3.65669
 20
-199.102
 30
0
 10
3.65669
 20
-199.234
 30
0
 10
3.65669
 20
-199.403
 30
0
 10
3.65669
 20
-199.607
 30
0
 10
3.65669
 20
-199.843
 30
0
 10
3.65669
 20
-200.111
 30
0
 10
3.65669
 20
-200.408
 30
0
 10
3.65669
 20
-200.731
 30
0
 10
3.65669
 20
-201.077
 30
0
 10
3.65669
 20
-201.445
 30
0
 10
3.65669
 20
-201.831
 30
0
 10
3.65669
 20
-202.231
 30
0
  0
LINE
  5
A0E
330
A02
100
AcDbEntity
  8
Shape2DView
100
AcDbLine
 10
3.65669
 20
-202.231
 30
0
 11
0.608686
 21
-202.231
 31
0
  0
SPLINE
  5
A0F
330
A02
100
AcDbEntity
  8
Shape2DView
100
AcDbSpline
210
0
220
0
230
1
 70
8
 71
3
 72
41
 73
37
 74
0
 40
1.5708
 40
1.5708
 40
1.5708
 40
1.5708
 40
1.9074
 40
1.9074
 40
1.9074
 40
2.0196
 40
2.0196
 40
2.0196
 40
2.1318
 40
2.1318
 40
2.1318
 40
2.24399
 40
2.24399
 40
2.24399
 40
2.35619
 40
2.35619
 40
2.35619
 40
2.46839
 40
2.46839
 40
2.46839
 40
2.58059
 40
2.58059
 40
2.58059
 40
2.69279
 40
2.69279
 40
2.69279
 40
2.80499
 40
2.80499
 40
2.80499
 40
2.91719
 40
2.91719
 40
2.91719
 40
3.02939
 40
3.02939
 40
3.02939
 40
3.14159
 40
3.14159
 40
3.14159
 40
3.14159
 10
0.608686
 20
-218.868
 30
0
 10
0.608686
 20
-219.068
 30
0
 10
0.608686
 20
-219.266
 30
0
 10
0.608686
 20
-219.455
 30
0
 10
0.608686
 20
-219.517
 30
0
 10
0.608686
 20
-219.578
 30
0
 10
0.608686
 20
-219.639
 30
0
 10
0.608686
 20
-219.698
 30
0
 10
0.608686
 20
-219.756
 30
0
 10
0.608686
 20
-219.814
 30
0
 10
0.608686
 20
-219.868
 30
0
 10
0.608686
 20
-219.922
 30
0
 10
0.608686
 20
-219.976
 30
0
 10
0.608686
 20
-220.026
 30
0
 10
0.608686
 20
-220.076
 30
0
 10
0.608686
 20
-220.125
 30
0
 10
0.608686
 20
-220.169
 30
0
 10
0.608686
 20
-220.214
 30
0
 10
0.608686
 20
-220.258
 30
0
 10
0.608686
 20
-220.296
 30
0
 10
0.608686
 20
-220.335
 30
0
 10
0.608686
 20
-220.373
 30
0
 10
0.608686
 20
-220.406
 30
0
 10
0.608686
 20
-220.438
 30
0
 10
0.608686
 20
-220.47
 30
0
 10
0.608686
 20
-220.495
 30
0
 10
0.608686
 20
-220.521
 30
0
 10
0.608686
 20
-220.546
 30
0
 10
0.608686
 20
-220.565
 30
0
 10
0.608686
 20
-220.583
 30
0
 10
0.608686
 20
-220.601
 30
0
 10
0.608686
 20
-220.612
 30
0
 10
0.608686
 20
-220.624
 30
0
 10
0.608686
 20
-220.635
 30
0
 10
0.608686
 20
-220.638
 30
0
 10
0.608686
 20
-220.642
 30
0
 10
0.608686
 20
-220.646
 30
0
  0
LINE
  5
A10
330
A02
100
AcDbEntity
  8
Shape2DView
100
AcDbLine
 10
0.608686
 20
-186.229
 30
0
 11
0.608686
 21
-218.868
 31
0
  0
LINE
  5
A11
330
A02
100
AcDbEntity
  8
Shape2DView
100
AcDbLine
 10
-0.153314
 20
-221.408
 30
0
 11
-2.05831
 21
-221.408
 31
0
  0
LINE
  5
A12
330
A02
100
AcDbEntity
  8
Shape2DView
100
AcDbLine
 10
-2.82031
 20
-218.868
 30
0
 11
-2.82031
 21
-186.229
 31
0
  0
SPLINE
  5
A13
330
A02
100
AcDbEntity
  8
Shape2DView
100
AcDbSpline
210
0
220
0
230
1
 70
8
 71
2
 72
28
 73
25
 74
0
 40
0
 40
0
 40
0
 40
0.1122
 40
0.1122
 40
0.224399
 40
0.224399
 40
0.336599
 40
0.336599
 40
0.448799
 40
0.448799
 40
0.560999
 40
0.560999
 40
0.673198
 40
0.673198
 40
0.785398
 40
0.785398
 40
0.897598
 40
0.897598
 40
1.0098
 40
1.0098
 40
1.122
 40
1.122
 40
1.3464
 40
1.3464
 40
1.5708
 40
1.5708
 40
1.5708
 10
-2.82031
 20
-220.646
 30
0
 10
-2.82031
 20
-220.64
 30
0
 10
-2.82031
 20
-220.635
 30
0
 10
-2.82031
 20
-220.618
 30
0
 10
-2.82031
 20
-220.601
 30
0
 10
-2.82031
 20
-220.574
 30
0
 10
-2.82031
 20
-220.546
 30
0
 10
-2.82031
 20
-220.508
 30
0
 10
-2.82031
 20
-220.47
 30
0
 10
-2.82031
 20
-220.422
 30
0
 10
-2.82031
 20
-220.373
 30
0
 10
-2.82031
 20
-220.316
 30
0
 10
-2.82031
 20
-220.258
 30
0
 10
-2.82031
 20
-220.192
 30
0
 10
-2.82031
 20
-220.125
 30
0
 10
-2.82031
 20
-220.051
 30
0
 10
-2.82031
 20
-219.976
 30
0
 10
-2.82031
 20
-219.895
 30
0
 10
-2.82031
 20
-219.814
 30
0
 10
-2.82031
 20
-219.727
 30
0
 10
-2.82031
 20
-219.639
 30
0
 10
-2.82031
 20
-219.457
 30
0
 10
-2.82031
 20
-219.264
 30
0
 10
-2.82031
 20
-219.068
 30
0
 10
-2.82031
 20
-218.868
 30
0
  0
LINE
  5
A14
330
A02
100
AcDbEntity
  8
Shape2DView
100
AcDbLine
 10
-2.05831
 20
-185.467
 30
0
 11
-0.153314
 21
-185.467
 31
0
  0
ARC
  5
A15
330
A02
100
AcDbEntity
  8
Shape2DView
100
AcDbCircle
 10
-2.05831
 20
-220.646
 30
0
 40
0.762
100
AcDbArc
 50
180
 51
-90
  0
ARC
  5
A16
330
A02
100
AcDbEntity
  8
Shape2DView
100
AcDbCircle
 10
-2.05831
 20
-186.229
 30
0
 40
0.762
100
AcDbArc
 50
90
 51
180
  0
ARC
  5
A17
330
A02
100
AcDbEntity
  8
Shape2DView
100
AcDbCircle
 10
-0.153314
 20
-220.646
 30
0
 40
0.762
100
AcDbArc
 50
-90
 51
0
  0
ARC
  5
A18
330
A02
100
AcDbEntity
  8
Shape2DView
100
AcDbCircle
 10
-0.153314
 20
-186.229
 30
0
 40
0.762
100
AcDbArc
 50
0
 51
90
  0
ARC
  5
A19
330
A02
100
AcDbEntity
  8
Shape2DView
100
AcDbCircle
 10
-0.153314
 20
-220.646
 30
0
 40
0.762
100
AcDbArc
 50
-90
 51
0
  0
LINE
  5
A1A
330
A02
100
AcDbEntity
  8
Shape2DView
100
AcDbLine
 10
427.837
 20
-205.025
 30
0
 11
430.885
 21
-205.025
 31
0
  0
SPLINE
  5
A1B
330
A02
100
AcDbEntity
  8
Shape2DView
100
AcDbSpline
210
0
220
0
230
1
 70
8
 71
1
 72
17
 73
15
 74
0
 40
3.14159
 40
3.14159
 40
3.23223
 40
3.32287
 40
3.41351
 40
3.50415
 40
3.59478
 40
3.68542
 40
3.77606
 40
3.8667
 40
3.95734
 40
4.04798
 40
4.13861
 40
4.22925
 40
4.31989
 40
4.41053
 40
4.41053
 10
427.837
 20
-208.327
 30
0
 10
427.837
 20
-208.308
 30
0
 10
427.837
 20
-208.25
 30
0
 10
427.837
 20
-208.154
 30
0
 10
427.837
 20
-208.021
 30
0
 10
427.837
 20
-207.853
 30
0
 10
427.837
 20
-207.649
 30
0
 10
427.837
 20
-207.412
 30
0
 10
427.837
 20
-207.145
 30
0
 10
427.837
 20
-206.848
 30
0
 10
427.837
 20
-206.525
 30
0
 10
427.837
 20
-206.179
 30
0
 10
427.837
 20
-205.811
 30
0
 10
427.837
 20
-205.425
 30
0
 10
427.837
 20
-205.025
 30
0
  0
LINE
  5
A1C
330
A02
100
AcDbEntity
  8
Shape2DView
100
AcDbLine
 10
427.71
 20
-208.327
 30
0
 11
425.043
 21
-208.327
 31
0
  0
LINE
  5
A1D
330
A02
100
AcDbEntity
  8
Shape2DView
100
AcDbLine
 10
427.837
 20
-208.327
 30
0
 11
425.043
 21
-208.327
 31
0
  0
SPLINE
  5
A1E
330
A02
100
AcDbEntity
  8
Shape2DView
100
AcDbSpline
210
0
220
0
230
1
 70
8
 71
1
 72
17
 73
15
 74
0
 40
3.14159
 40
3.14159
 40
3.36599
 40
3.59039
 40
3.81479
 40
4.03919
 40
4.26359
 40
4.48799
 40
4.71239
 40
4.93679
 40
5.16119
 40
5.38559
 40
5.60999
 40
5.83439
 40
6.05879
 40
6.28319
 40
6.28319
 10
425.043
 20
-208.327
 30
0
 10
425.043
 20
-208.209
 30
0
 10
425.043
 20
-207.862
 30
0
 10
425.043
 20
-207.302
 30
0
 10
425.043
 20
-206.558
 30
0
 10
425.043
 20
-205.667
 30
0
 10
425.043
 20
-204.674
 30
0
 10
425.043
 20
-203.628
 30
0
 10
425.043
 20
-202.582
 30
0
 10
425.043
 20
-201.589
 30
0
 10
425.043
 20
-200.698
 30
0
 10
425.043
 20
-199.954
 30
0
 10
425.043
 20
-199.394
 30
0
 10
425.043
 20
-199.047
 30
0
 10
425.043
 20
-198.929
 30
0
  0
LINE
  5
A1F
330
A02
100
AcDbEntity
  8
Shape2DView
100
AcDbLine
 10
427.71
 20
-198.929
 30
0
 11
425.043
 21
-198.929
 31
0
  0
LINE
  5
A20
330
A02
100
AcDbEntity
  8
Shape2DView
100
AcDbLine
 10
427.837
 20
-198.929
 30
0
 11
425.043
 21
-198.929
 31
0
  0
SPLINE
  5
A21
330
A02
100
AcDbEntity
  8
Shape2DView
100
AcDbSpline
210
0
220
0
230
1
 70
8
 71
1
 72
17
 73
15
 74
0
 40
5.01425
 40
5.01425
 40
5.10489
 40
5.19553
 40
5.28616
 40
5.3768
 40
5.46744
 40
5.55808
 40
5.64872
 40
5.73936
 40
5.82999
 40
5.92063
 40
6.01127
 40
6.10191
 40
6.19255
 40
6.28319
 40
6.28319
 10
427.837
 20
-202.231
 30
0
 10
427.837
 20
-201.831
 30
0
 10
427.837
 20
-201.445
 30
0
 10
427.837
 20
-201.077
 30
0
 10
427.837
 20
-200.731
 30
0
 10
427.837
 20
-200.408
 30
0
 10
427.837
 20
-200.111
 30
0
 10
427.837
 20
-199.843
 30
0
 10
427.837
 20
-199.607
 30
0
 10
427.837
 20
-199.403
 30
0
 10
427.837
 20
-199.234
 30
0
 10
427.837
 20
-199.102
 30
0
 10
427.837
 20
-199.006
 30
0
 10
427.837
 20
-198.948
 30
0
 10
427.837
 20
-198.929
 30
0
  0
LINE
  5
A22
330
A02
100
AcDbEntity
  8
Shape2DView
100
AcDbLine
 10
430.885
 20
-202.231
 30
0
 11
427.837
 21
-202.231
 31
0
  0
SPLINE
  5
A23
330
A02
100
AcDbEntity
  8
Shape2DView
100
AcDbSpline
210
0
220
0
230
1
 70
8
 71
2
 72
28
 73
25
 74
0
 40
3.14159
 40
3.14159
 40
3.14159
 40
3.25379
 40
3.25379
 40
3.36599
 40
3.36599
 40
3.47819
 40
3.47819
 40
3.59039
 40
3.59039
 40
3.70259
 40
3.70259
 40
3.81479
 40
3.81479
 40
3.92699
 40
3.92699
 40
4.03919
 40
4.03919
 40
4.15139
 40
4.15139
 40
4.26359
 40
4.26359
 40
4.48799
 40
4.48799
 40
4.71239
 40
4.71239
 40
4.71239
 10
430.885
 20
-220.646
 30
0
 10
430.885
 20
-220.64
 30
0
 10
430.885
 20
-220.635
 30
0
 10
430.885
 20
-220.618
 30
0
 10
430.885
 20
-220.601
 30
0
 10
430.885
 20
-220.574
 30
0
 10
430.885
 20
-220.546
 30
0
 10
430.885
 20
-220.508
 30
0
 10
430.885
 20
-220.47
 30
0
 10
430.885
 20
-220.422
 30
0
 10
430.885
 20
-220.373
 30
0
 10
430.885
 20
-220.316
 30
0
 10
430.885
 20
-220.258
 30
0
 10
430.885
 20
-220.192
 30
0
 10
430.885
 20
-220.125
 30
0
 10
430.885
 20
-220.051
 30
0
 10
430.885
 20
-219.976
 30
0
 10
430.885
 20
-219.895
 30
0
 10
430.885
 20
-219.814
 30
0
 10
430.885
 20
-219.727
 30
0
 10
430.885
 20
-219.639
 30
0
 10
430.885
 20
-219.457
 30
0
 10
430.885
 20
-219.264
 30
0
 10
430.885
 20
-219.068
 30
0
 10
430.885
 20
-218.868
 30
0
  0
LINE
  5
A24
330
A02
100
AcDbEntity
  8
Shape2DView
100
AcDbLine
 10
430.885
 20
-218.868
 30
0
 11
430.885
 21
-186.229
 31
0
  0
LINE
  5
A25
330
A02
100
AcDbEntity
  8
Shape2DView
100
AcDbLine
 10
433.552
 20
-221.408
 30
0
 11
431.647
 21
-221.408
 31
0
  0
LINE
  5
A26
330
A02
100
AcDbEntity
  8
Shape2DView
100
AcDbLine
 10
434.314
 20
-218.868
 30
0
 11
434.314
 21
-186.229
 31
0
  0
LINE
  5
A27
330
A02
100
AcDbEntity
  8
Shape2DView
100
AcDbLine
 10
434.314
 20
-186.229
 30
0
 11
434.314
 21
-218.868
 31
0
  0
SPLINE
  5
A28
330
A02
100
AcDbEntity
  8
Shape2DView
100
AcDbSpline
210
0
220
0
230
1
 70
8
 71
3
 72
41
 73
37
 74
0
 40
4.71239
 40
4.71239
 40
4.71239
 40
4.71239
 40
5.04899
 40
5.04899
 40
5.04899
 40
5.16119
 40
5.16119
 40
5.16119
 40
5.27339
 40
5.27339
 40
5.27339
 40
5.38559
 40
5.38559
 40
5.38559
 40
5.49779
 40
5.49779
 40
5.49779
 40
5.60999
 40
5.60999
 40
5.60999
 40
5.72219
 40
5.72219
 40
5.72219
 40
5.83439
 40
5.83439
 40
5.83439
 40
5.94659
 40
5.94659
 40
5.94659
 40
6.05879
 40
6.05879
 40
6.05879
 40
6.17099
 40
6.17099
 40
6.17099
 40
6.28319
 40
6.28319
 40
6.28319
 40
6.28319
 10
434.314
 20
-218.868
 30
0
 10
434.314
 20
-219.068
 30
0
 10
434.314
 20
-219.266
 30
0
 10
434.314
 20
-219.455
 30
0
 10
434.314
 20
-219.517
 30
0
 10
434.314
 20
-219.578
 30
0
 10
434.314
 20
-219.639
 30
0
 10
434.314
 20
-219.698
 30
0
 10
434.314
 20
-219.756
 30
0
 10
434.314
 20
-219.814
 30
0
 10
434.314
 20
-219.868
 30
0
 10
434.314
 20
-219.922
 30
0
 10
434.314
 20
-219.976
 30
0
 10
434.314
 20
-220.026
 30
0
 10
434.314
 20
-220.076
 30
0
 10
434.314
 20
-220.125
 30
0
 10
434.314
 20
-220.169
 30
0
 10
434.314
 20
-220.214
 30
0
 10
434.314
 20
-220.258
 30
0
 10
434.314
 20
-220.296
 30
0
 10
434.314
 20
-220.335
 30
0
 10
434.314
 20
-220.373
 30
0
 10
434.314
 20
-220.406
 30
0
 10
434.314
 20
-220.438
 30
0
 10
434.314
 20
-220.47
 30
0
 10
434.314
 20
-220.495
 30
0
 10
434.314
 20
-220.521
 30
0
 10
434.314
 20
-220.546
 30
0
 10
434.314
 20
-220.565
 30
0
 10
434.314
 20
-220.583
 30
0
 10
434.314
 20
-220.601
 30
0
 10
434.314
 20
-220.612
 30
0
 10
434.314
 20
-220.624
 30
0
 10
434.314
 20
-220.635
 30
0
 10
434.314
 20
-220.638
 30
0
 10
434.314
 20
-220.642
 30
0
 10
434.314
 20
-220.646
 30
0
  0
SPLINE
  5
A29
330
A02
100
AcDbEntity
  8
Shape2DView
100
AcDbSpline
210
0
220
0
230
1
 70
8
 71
2
 72
28
 73
25
 74
0
 40
0
 40
0
 40
0
 40
0.1122
 40
0.1122
 40
0.224399
 40
0.224399
 40
0.336599
 40
0.336599
 40
0.448799
 40
0.448799
 40
0.560999
 40
0.560999
 40
0.673198
 40
0.673198
 40
0.785398
 40
0.785398
 40
0.897598
 40
0.897598
 40
1.0098
 40
1.0098
 40
1.122
 40
1.122
 40
1.3464
 40
1.3464
 40
1.5708
 40
1.5708
 40
1.5708
 10
434.314
 20
-220.646
 30
0
 10
434.314
 20
-220.64
 30
0
 10
434.314
 20
-220.635
 30
0
 10
434.314
 20
-220.618
 30
0
 10
434.314
 20
-220.601
 30
0
 10
434.314
 20
-220.574
 30
0
 10
434.314
 20
-220.546
 30
0
 10
434.314
 20
-220.508
 30
0
 10
434.314
 20
-220.47
 30
0
 10
434.314
 20
-220.422
 30
0
 10
434.314
 20
-220.373
 30
0
 10
434.314
 20
-220.316
 30
0
 10
434.314
 20
-220.258
 30
0
 10
434.314
 20
-220.192
 30
0
 10
434.314
 20
-220.125
 30
0
 10
434.314
 20
-220.051
 30
0
 10
434.314
 20
-219.976
 30
0
 10
434.314
 20
-219.895
 30
0
 10
434.314
 20
-219.814
 30
0
 10
434.314
 20
-219.727
 30
0
 10
434.314
 20
-219.639
 30
0
 10
434.314
 20
-219.457
 30
0
 10
434.314
 20
-219.264
 30
0
 10
434.314
 20
-219.068
 30
0
 10
434.314
 20
-218.868
 30
0
  0
LINE
  5
A2A
330
A02
100
AcDbEntity
  8
Shape2DView
100
AcDbLine
 10
431.647
 20
-185.467
 30
0
 11
433.552
 21
-185.467
 31
0
  0
ARC
  5
A2B
330
A02
100
AcDbEntity
  8
Shape2DView
100
AcDbCircle
 10
433.552
 20
-220.646
 30
0
 40
0.762
100
AcDbArc
 50
-90
 51
0
  0
ARC
  5
A2C
330
A02
100
AcDbEntity
  8
Shape2DView
100
AcDbCircle
 10
433.552
 20
-220.646
 30
0
 40
0.762
100
AcDbArc
 50
-90
 51
0
  0
ARC
  5
A2D
330
A02
100
AcDbEntity
  8
Shape2DView
100
AcDbCircle
 10
433.552
 20
-186.229
 30
0
 40
0.762
100
AcDbArc
 50
0
 51
90
  0
ARC
  5
A2E
330
A02
100
AcDbEntity
  8
Shape2DView
100
AcDbCircle
 10
433.552
 20
-186.229
 30
0
 40
0.762
100
AcDbArc
 50
0
 51
90
  0
ARC
  5
A2F
330
A02
100
AcDbEntity
  8
Shape2DView
100
AcDbCircle
 10
431.647
 20
-186.229
 30
0
 40
0.762
100
AcDbArc
 50
90
 51
91.334
  0
ARC
  5
A30
330
A02
100
AcDbEntity
  8
Shape2DView
100
AcDbCircle
 10
431.647
 20
-186.229
 30
0
 40
0.762
100
AcDbArc
 50
108.195
 51
180
  0
ARC
  5
A31
330
A02
100
AcDbEntity
  8
Shape2DView
100
AcDbCircle
 10
431.647
 20
-220.646
 30
0
 40
0.762
100
AcDbArc
 50
180
 51
-90
  0
ARC
  5
A32
330
A02
100
AcDbEntity
  8
Shape2DView
100
AcDbCircle
 10
431.647
 20
-186.229
 30
0
 40
0.762
100
AcDbArc
 50
90
 51
180
  0
LINE
  5
A33
330
A02
100
AcDbEntity
  8
Shape2DView
100
AcDbLine
 10
426.948
 20
-217.788
 30
0
 11
226.669
 21
-217.788
 31
0
  0
LINE
  5
A34
330
A02
100
AcDbEntity
  8
Shape2DView
100
AcDbLine
 10
426.948
 20
-220.176
 30
0
 11
226.669
 21
-220.176
 31
0
  0
SPLINE
  5
A35
330
A02
100
AcDbEntity
  8
Shape2DView
100
AcDbSpline
210
0
220
0
230
1
 70
8
 71
3
 72
26
 73
22
 74
0
 40
3.14159
 40
3.14159
 40
3.14159
 40
3.14159
 40
3.25379
 40
3.25379
 40
3.25379
 40
3.36599
 40
3.36599
 40
3.36599
 40
3.47819
 40
3.47819
 40
3.47819
 40
3.59039
 40
3.59039
 40
3.59039
 40
3.70259
 40
3.70259
 40
3.70259
 40
3.92699
 40
3.92699
 40
3.92699
 40
4.71239
 40
4.71239
 40
4.71239
 40
4.71239
 10
205.587
 20
-220.176
 30
0
 10
205.585
 20
-220.176
 30
0
 10
205.583
 20
-220.176
 30
0
 10
205.582
 20
-220.176
 30
0
 10
205.577
 20
-220.176
 30
0
 10
205.572
 20
-220.176
 30
0
 10
205.568
 20
-220.176
 30
0
 10
205.56
 20
-220.176
 30
0
 10
205.552
 20
-220.176
 30
0
 10
205.544
 20
-220.176
 30
0
 10
205.533
 20
-220.176
 30
0
 10
205.522
 20
-220.176
 30
0
 10
205.511
 20
-220.176
 30
0
 10
205.497
 20
-220.176
 30
0
 10
205.484
 20
-220.176
 30
0
 10
205.47
 20
-220.176
 30
0
 10
205.438
 20
-220.176
 30
0
 10
205.403
 20
-220.176
 30
0
 10
205.364
 20
-220.176
 30
0
 10
205.222
 20
-220.176
 30
0
 10
205.025
 20
-220.176
 30
0
 10
204.825
 20
-220.176
 30
0
  0
LINE
  5
A36
330
A02
100
AcDbEntity
  8
Shape2DView
100
AcDbLine
 10
204.825
 20
-220.176
 30
0
 11
4.54569
 21
-220.176
 31
0
  0
SPLINE
  5
A37
330
A02
100
AcDbEntity
  8
Shape2DView
100
AcDbSpline
210
0
220
0
230
1
 70
8
 71
3
 72
41
 73
37
 74
0
 40
1.5708
 40
1.5708
 40
1.5708
 40
1.5708
 40
1.9074
 40
1.9074
 40
1.9074
 40
2.0196
 40
2.0196
 40
2.0196
 40
2.1318
 40
2.1318
 40
2.1318
 40
2.24399
 40
2.24399
 40
2.24399
 40
2.35619
 40
2.35619
 40
2.35619
 40
2.46839
 40
2.46839
 40
2.46839
 40
2.58059
 40
2.58059
 40
2.58059
 40
2.69279
 40
2.69279
 40
2.69279
 40
2.80499
 40
2.80499
 40
2.80499
 40
2.91719
 40
2.91719
 40
2.91719
 40
3.02939
 40
3.02939
 40
3.02939
 40
3.14159
 40
3.14159
 40
3.14159
 40
3.14159
 10
4.54569
 20
-220.176
 30
0
 10
4.37447
 20
-220.176
 30
0
 10
4.20485
 20
-220.176
 30
0
 10
4.04234
 20
-220.176
 30
0
 10
3.98971
 20
-220.176
 30
0
 10
3.93708
 20
-220.176
 30
0
 10
3.88445
 20
-220.176
 30
0
 10
3.83459
 20
-220.176
 30
0
 10
3.78473
 20
-220.176
 30
0
 10
3.73487
 20
-220.176
 30
0
 10
3.68841
 20
-220.176
 30
0
 10
3.64195
 20
-220.176
 30
0
 10
3.59549
 20
-220.176
 30
0
 10
3.55301
 20
-220.176
 30
0
 10
3.51053
 20
-220.176
 30
0
 10
3.46806
 20
-220.176
 30
0
 10
3.43009
 20
-220.176
 30
0
 10
3.39213
 20
-220.176
 30
0
 10
3.35417
 20
-220.176
 30
0
 10
3.32121
 20
-220.176
 30
0
 10
3.28824
 20
-220.176
 30
0
 10
3.25528
 20
-220.176
 30
0
 10
3.22772
 20
-220.176
 30
0
 10
3.20017
 20
-220.176
 30
0
 10
3.17261
 20
-220.176
 30
0
 10
3.15081
 20
-220.176
 30
0
 10
3.12901
 20
-220.176
 30
0
 10
3.10721
 20
-220.176
 30
0
 10
3.09144
 20
-220.176
 30
0
 10
3.07567
 20
-220.176
 30
0
 10
3.0599
 20
-220.176
 30
0
 10
3.05035
 20
-220.176
 30
0
 10
3.04081
 20
-220.176
 30
0
 10
3.03127
 20
-220.176
 30
0
 10
3.02807
 20
-220.176
 30
0
 10
3.02488
 20
-220.176
 30
0
 10
3.02169
 20
-220.176
 30
0
  0
SPLINE
  5
A38
330
A02
100
AcDbEntity
  8
Shape2DView
100
AcDbSpline
210
0
220
0
230
1
 70
8
 71
2
 72
28
 73
25
 74
0
 40
0
 40
0
 40
0
 40
0.1122
 40
0.1122
 40
0.224399
 40
0.224399
 40
0.336599
 40
0.336599
 40
0.448799
 40
0.448799
 40
0.560999
 40
0.560999
 40
0.673198
 40
0.673198
 40
0.785398
 40
0.785398
 40
0.897598
 40
0.897598
 40
1.0098
 40
1.0098
 40
1.122
 40
1.122
 40
1.3464
 40
1.3464
 40
1.5708
 40
1.5708
 40
1.5708
 10
428.472
 20
-220.176
 30
0
 10
428.467
 20
-220.176
 30
0
 10
428.462
 20
-220.176
 30
0
 10
428.448
 20
-220.176
 30
0
 10
428.433
 20
-220.176
 30
0
 10
428.41
 20
-220.176
 30
0
 10
428.386
 20
-220.176
 30
0
 10
428.353
 20
-220.176
 30
0
 10
428.321
 20
-220.176
 30
0
 10
428.279
 20
-220.176
 30
0
 10
428.238
 20
-220.176
 30
0
 10
428.189
 20
-220.176
 30
0
 10
428.139
 20
-220.176
 30
0
 10
428.082
 20
-220.176
 30
0
 10
428.025
 20
-220.176
 30
0
 10
427.962
 20
-220.176
 30
0
 10
427.898
 20
-220.176
 30
0
 10
427.828
 20
-220.176
 30
0
 10
427.759
 20
-220.176
 30
0
 10
427.684
 20
-220.176
 30
0
 10
427.609
 20
-220.176
 30
0
 10
427.453
 20
-220.176
 30
0
 10
427.287
 20
-220.176
 30
0
 10
427.119
 20
-220.176
 30
0
 10
426.948
 20
-220.176
 30
0
  0
SPLINE
  5
A39
330
A02
100
AcDbEntity
  8
Shape2DView
100
AcDbSpline
210
0
220
0
230
1
 70
8
 71
3
 72
29
 73
25
 74
0
 40
4.71239
 40
4.71239
 40
4.71239
 40
4.71239
 40
5.49779
 40
5.49779
 40
5.49779
 40
5.60999
 40
5.60999
 40
5.60999
 40
5.72219
 40
5.72219
 40
5.72219
 40
5.83439
 40
5.83439
 40
5.83439
 40
5.94659
 40
5.94659
 40
5.94659
 40
6.05879
 40
6.05879
 40
6.05879
 40
6.17099
 40
6.17099
 40
6.17099
 40
6.28319
 40
6.28319
 40
6.28319
 40
6.28319
 10
226.669
 20
-220.176
 30
0
 10
226.469
 20
-220.176
 30
0
 10
226.272
 20
-220.176
 30
0
 10
226.13
 20
-220.176
 30
0
 10
226.111
 20
-220.176
 30
0
 10
226.092
 20
-220.176
 30
0
 10
226.073
 20
-220.176
 30
0
 10
226.056
 20
-220.176
 30
0
 10
226.04
 20
-220.176
 30
0
 10
226.023
 20
-220.176
 30
0
 10
226.01
 20
-220.176
 30
0
 10
225.996
 20
-220.176
 30
0
 10
225.982
 20
-220.176
 30
0
 10
225.971
 20
-220.176
 30
0
 10
225.96
 20
-220.176
 30
0
 10
225.949
 20
-220.176
 30
0
 10
225.942
 20
-220.176
 30
0
 10
225.934
 20
-220.176
 30
0
 10
225.926
 20
-220.176
 30
0
 10
225.921
 20
-220.176
 30
0
 10
225.916
 20
-220.176
 30
0
 10
225.911
 20
-220.176
 30
0
 10
225.91
 20
-220.176
 30
0
 10
225.908
 20
-220.176
 30
0
 10
225.907
 20
-220.176
 30
0
  0
LINE
  5
A3A
330
A02
100
AcDbEntity
  8
Shape2DView
100
AcDbLine
 10
205.587
 20
-220.176
 30
0
 11
225.907
 21
-220.176
 31
0
  0
LINE
  5
A3B
330
A02
100
AcDbEntity
  8
Shape2DView
100
AcDbLine
 10
3.02169
 20
-217.788
 30
0
 11
3.02169
 21
-220.176
 31
0
  0
SPLINE
  5
A3C
330
A02
100
AcDbEntity
  8
Shape2DView
100
AcDbSpline
210
0
220
0
230
1
 70
8
 71
3
 72
41
 73
37
 74
0
 40
1.5708
 40
1.5708
 40
1.5708
 40
1.5708
 40
1.9074
 40
1.9074
 40
1.9074
 40
2.0196
 40
2.0196
 40
2.0196
 40
2.1318
 40
2.1318
 40
2.1318
 40
2.24399
 40
2.24399
 40
2.24399
 40
2.35619
 40
2.35619
 40
2.35619
 40
2.46839
 40
2.46839
 40
2.46839
 40
2.58059
 40
2.58059
 40
2.58059
 40
2.69279
 40
2.69279
 40
2.69279
 40
2.80499
 40
2.80499
 40
2.80499
 40
2.91719
 40
2.91719
 40
2.91719
 40
3.02939
 40
3.02939
 40
3.02939
 40
3.14159
 40
3.14159
 40
3.14159
 40
3.14159
 10
4.54569
 20
-217.788
 30
0
 10
4.37447
 20
-217.788
 30
0
 10
4.20485
 20
-217.788
 30
0
 10
4.04234
 20
-217.788
 30
0
 10
3.98971
 20
-217.788
 30
0
 10
3.93708
 20
-217.788
 30
0
 10
3.88445
 20
-217.788
 30
0
 10
3.83459
 20
-217.788
 30
0
 10
3.78473
 20
-217.788
 30
0
 10
3.73487
 20
-217.788
 30
0
 10
3.68841
 20
-217.788
 30
0
 10
3.64195
 20
-217.788
 30
0
 10
3.59549
 20
-217.788
 30
0
 10
3.55301
 20
-217.788
 30
0
 10
3.51053
 20
-217.788
 30
0
 10
3.46806
 20
-217.788
 30
0
 10
3.43009
 20
-217.788
 30
0
 10
3.39213
 20
-217.788
 30
0
 10
3.35417
 20
-217.788
 30
0
 10
3.32121
 20
-217.788
 30
0
 10
3.28824
 20
-217.788
 30
0
 10
3.25528
 20
-217.788
 30
0
 10
3.22772
 20
-217.788
 30
0
 10
3.20017
 20
-217.788
 30
0
 10
3.17261
 20
-217.788
 30
0
 10
3.15081
 20
-217.788
 30
0
 10
3.12901
 20
-217.788
 30
0
 10
3.10721
 20
-217.788
 30
0
 10
3.09144
 20
-217.788
 30
0
 10
3.07567
 20
-217.788
 30
0
 10
3.0599
 20
-217.788
 30
0
 10
3.05035
 20
-217.788
 30
0
 10
3.04081
 20
-217.788
 30
0
 10
3.03127
 20
-217.788
 30
0
 10
3.02807
 20
-217.788
 30
0
 10
3.02488
 20
-217.788
 30
0
 10
3.02169
 20
-217.788
 30
0
  0
LINE
  5
A3D
330
A02
100
AcDbEntity
  8
Shape2DView
100
AcDbLine
 10
204.825
 20
-217.788
 30
0
 11
4.54569
 21
-217.788
 31
0
  0
LINE
  5
A3E
330
A02
100
AcDbEntity
  8
Shape2DView
100
AcDbLine
 10
428.472
 20
-217.788
 30
0
 11
428.472
 21
-220.176
 31
0
  0
SPLINE
  5
A3F
330
A02
100
AcDbEntity
  8
Shape2DView
100
AcDbSpline
210
0
220
0
230
1
 70
8
 71
2
 72
28
 73
25
 74
0
 40
0
 40
0
 40
0
 40
0.1122
 40
0.1122
 40
0.224399
 40
0.224399
 40
0.336599
 40
0.336599
 40
0.448799
 40
0.448799
 40
0.560999
 40
0.560999
 40
0.673198
 40
0.673198
 40
0.785398
 40
0.785398
 40
0.897598
 40
0.897598
 40
1.0098
 40
1.0098
 40
1.122
 40
1.122
 40
1.3464
 40
1.3464
 40
1.5708
 40
1.5708
 40
1.5708
 10
428.472
 20
-217.788
 30
0
 10
428.467
 20
-217.788
 30
0
 10
428.462
 20
-217.788
 30
0
 10
428.448
 20
-217.788
 30
0
 10
428.433
 20
-217.788
 30
0
 10
428.41
 20
-217.788
 30
0
 10
428.386
 20
-217.788
 30
0
 10
428.353
 20
-217.788
 30
0
 10
428.321
 20
-217.788
 30
0
 10
428.279
 20
-217.788
 30
0
 10
428.238
 20
-217.788
 30
0
 10
428.189
 20
-217.788
 30
0
 10
428.139
 20
-217.788
 30
0
 10
428.082
 20
-217.788
 30
0
 10
428.025
 20
-217.788
 30
0
 10
427.962
 20
-217.788
 30
0
 10
427.898
 20
-217.788
 30
0
 10
427.828
 20
-217.788
 30
0
 10
427.759
 20
-217.788
 30
0
 10
427.684
 20
-217.788
 30
0
 10
427.609
 20
-217.788
 30
0
 10
427.453
 20
-217.788
 30
0
 10
427.287
 20
-217.788
 30
0
 10
427.119
 20
-217.788
 30
0
 10
426.948
 20
-217.788
 30
0
  0
SPLINE
  5
A40
330
A02
100
AcDbEntity
  8
Shape2DView
100
AcDbSpline
210
0
220
0
230
1
 70
8
 71
3
 72
29
 73
25
 74
0
 40
1.5708
 40
1.5708
 40
1.5708
 40
1.5708
 40
2.35619
 40
2.35619
 40
2.35619
 40
2.46839
 40
2.46839
 40
2.46839
 40
2.58059
 40
2.58059
 40
2.58059
 40
2.69279
 40
2.69279
 40
2.69279
 40
2.80499
 40
2.80499
 40
2.80499
 40
2.91719
 40
2.91719
 40
2.91719
 40
3.02939
 40
3.02939
 40
3.02939
 40
3.14159
 40
3.14159
 40
3.14159
 40
3.14159
 10
204.825
 20
-217.788
 30
0
 10
205.025
 20
-217.788
 30
0
 10
205.222
 20
-217.788
 30
0
 10
205.364
 20
-217.788
 30
0
 10
205.382
 20
-217.788
 30
0
 10
205.401
 20
-217.788
 30
0
 10
205.42
 20
-217.788
 30
0
 10
205.437
 20
-217.788
 30
0
 10
205.453
 20
-217.788
 30
0
 10
205.47
 20
-217.788
 30
0
 10
205.484
 20
-217.788
 30
0
 10
205.497
 20
-217.788
 30
0
 10
205.511
 20
-217.788
 30
0
 10
205.522
 20
-217.788
 30
0
 10
205.533
 20
-217.788
 30
0
 10
205.544
 20
-217.788
 30
0
 10
205.552
 20
-217.788
 30
0
 10
205.56
 20
-217.788
 30
0
 10
205.568
 20
-217.788
 30
0
 10
205.572
 20
-217.788
 30
0
 10
205.577
 20
-217.788
 30
0
 10
205.582
 20
-217.788
 30
0
 10
205.583
 20
-217.788
 30
0
 10
205.585
 20
-217.788
 30
0
 10
205.587
 20
-217.788
 30
0
  0
LINE
  5
A41
330
A02
100
AcDbEntity
  8
Shape2DView
100
AcDbLine
 10
225.907
 20
-217.788
 30
0
 11
205.587
 21
-217.788
 31
0
  0
SPLINE
  5
A42
330
A02
100
AcDbEntity
  8
Shape2DView
100
AcDbSpline
210
0
220
0
230
1
 70
8
 71
3
 72
26
 73
22
 74
0
 40
0
 40
0
 40
0
 40
0
 40
0.1122
 40
0.1122
 40
0.1122
 40
0.224399
 40
0.224399
 40
0.224399
 40
0.336599
 40
0.336599
 40
0.336599
 40
0.448799
 40
0.448799
 40
0.448799
 40
0.560999
 40
0.560999
 40
0.560999
 40
0.785398
 40
0.785398
 40
0.785398
 40
1.5708
 40
1.5708
 40
1.5708
 40
1.5708
 10
225.907
 20
-217.788
 30
0
 10
225.908
 20
-217.788
 30
0
 10
225.91
 20
-217.788
 30
0
 10
225.911
 20
-217.788
 30
0
 10
225.916
 20
-217.788
 30
0
 10
225.921
 20
-217.788
 30
0
 10
225.926
 20
-217.788
 30
0
 10
225.934
 20
-217.788
 30
0
 10
225.942
 20
-217.788
 30
0
 10
225.949
 20
-217.788
 30
0
 10
225.96
 20
-217.788
 30
0
 10
225.971
 20
-217.788
 30
0
 10
225.982
 20
-217.788
 30
0
 10
225.996
 20
-217.788
 30
0
 10
226.01
 20
-217.788
 30
0
 10
226.023
 20
-217.788
 30
0
 10
226.055
 20
-217.788
 30
0
 10
226.091
 20
-217.788
 30
0
 10
226.13
 20
-217.788
 30
0
 10
226.272
 20
-217.788
 30
0
 10
226.469
 20
-217.788
 30
0
 10
226.669
 20
-217.788
 30
0
  0
LINE
  5
A43
330
A02
100
AcDbEntity
  8
Shape2DView
100
AcDbLine
 10
4.41869
 20
-221.446
 30
0
 11
4.41869
 21
-220.176
 31
0
  0
SPLINE
  5
A44
330
A02
100
AcDbEntity
  8
Shape2DView
100
AcDbSpline
210
0
220
0
230
1
 70
8
 71
3
 72
11
 73
7
 74
0
 40
1.5708
 40
1.5708
 40
1.5708
 40
1.5708
 40
2.35619
 40
2.35619
 40
2.35619
 40
3.14159
 40
3.14159
 40
3.14159
 40
3.14159
 10
4.92669
 20
-221.446
 30
0
 10
4.79338
 20
-221.446
 30
0
 10
4.66205
 20
-221.446
 30
0
 10
4.56748
 20
-221.446
 30
0
 10
4.47353
 20
-221.446
 30
0
 10
4.41913
 20
-221.446
 30
0
 10
4.41869
 20
-221.446
 30
0
  0
LINE
  5
A45
330
A02
100
AcDbEntity
  8
Shape2DView
100
AcDbLine
 10
427.075
 20
-221.446
 30
0
 11
427.075
 21
-220.176
 31
0
  0
LINE
  5
A46
330
A02
100
AcDbEntity
  8
Shape2DView
100
AcDbLine
 10
427.075
 20
-221.446
 30
0
 11
427.075
 21
-220.176
 31
0
  0
SPLINE
  5
A47
330
A02
100
AcDbEntity
  8
Shape2DView
100
AcDbSpline
210
0
220
0
230
1
 70
8
 71
3
 72
11
 73
7
 74
0
 40
0
 40
0
 40
0
 40
0
 40
0.785398
 40
0.785398
 40
0.785398
 40
1.5708
 40
1.5708
 40
1.5708
 40
1.5708
 10
427.075
 20
-221.446
 30
0
 10
427.074
 20
-221.446
 30
0
 10
427.02
 20
-221.446
 30
0
 10
426.926
 20
-221.446
 30
0
 10
426.831
 20
-221.446
 30
0
 10
426.7
 20
-221.446
 30
0
 10
426.567
 20
-221.446
 30
0
  0
LINE
  5
A48
330
A02
100
AcDbEntity
  8
Shape2DView
100
AcDbLine
 10
426.567
 20
-221.446
 30
0
 11
4.92669
 21
-221.446
 31
0
  0
LINE
  5
A49
330
A02
100
AcDbEntity
  8
Shape2DView
100
AcDbLine
 10
225.907
 20
-220.176
 30
0
 11
225.907
 21
-217.788
 31
0
  0
LINE
  5
A4A
330
A02
100
AcDbEntity
  8
Shape2DView
100
AcDbLine
 10
225.907
 20
-217.788
 30
0
 11
225.907
 21
-220.176
 31
0
  0
LINE
  5
A4B
330
A02
100
AcDbEntity
  8
Shape2DView
100
AcDbLine
 10
205.587
 20
-217.788
 30
0
 11
205.587
 21
-220.176
 31
0
  0
LINE
  5
A4C
330
A02
100
AcDbEntity
  8
Shape2DView
100
AcDbLine
 10
205.587
 20
-217.788
 30
0
 11
205.587
 21
-220.176
 31
0
  0
LINE
  5
A4D
330
A02
100
AcDbEntity
  8
Shape2DView
100
AcDbLine
 10
430.885
 20
-35.1751
 30
0
 11
427.837
 21
-35.1751
 31
0
  0
SPLINE
  5
A4E
330
A02
100
AcDbEntity
  8
Shape2DView
100
AcDbSpline
210
0
220
0
230
1
 70
8
 71
1
 72
17
 73
15
 74
0
 40
1.87266
 40
1.87266
 40
1.9633
 40
2.05393
 40
2.14457
 40
2.23521
 40
2.32585
 40
2.41649
 40
2.50712
 40
2.59776
 40
2.6884
 40
2.77904
 40
2.86968
 40
2.96032
 40
3.05095
 40
3.14159
 40
3.14159
 10
427.837
 20
-35.1751
 30
0
 10
427.837
 20
-34.7747
 30
0
 10
427.837
 20
-34.3891
 30
0
 10
427.837
 20
-34.0215
 30
0
 10
427.837
 20
-33.6747
 30
0
 10
427.837
 20
-33.3518
 30
0
 10
427.837
 20
-33.0552
 30
0
 10
427.837
 20
-32.7876
 30
0
 10
427.837
 20
-32.551
 30
0
 10
427.837
 20
-32.3474
 30
0
 10
427.837
 20
-32.1786
 30
0
 10
427.837
 20
-32.0457
 30
0
 10
427.837
 20
-31.9501
 30
0
 10
427.837
 20
-31.8924
 30
0
 10
427.837
 20
-31.8731
 30
0
  0
LINE
  5
A4F
330
A02
100
AcDbEntity
  8
Shape2DView
100
AcDbLine
 10
427.837
 20
-31.8731
 30
0
 11
425.043
 21
-31.8731
 31
0
  0
SPLINE
  5
A50
330
A02
100
AcDbEntity
  8
Shape2DView
100
AcDbSpline
210
0
220
0
230
1
 70
8
 71
1
 72
17
 73
15
 74
0
 40
3.14159
 40
3.14159
 40
3.36599
 40
3.59039
 40
3.81479
 40
4.03919
 40
4.26359
 40
4.48799
 40
4.71239
 40
4.93679
 40
5.16119
 40
5.38559
 40
5.60999
 40
5.83439
 40
6.05879
 40
6.28319
 40
6.28319
 10
425.043
 20
-41.2711
 30
0
 10
425.043
 20
-41.1533
 30
0
 10
425.043
 20
-40.8058
 30
0
 10
425.043
 20
-40.2459
 30
0
 10
425.043
 20
-39.5019
 30
0
 10
425.043
 20
-38.6109
 30
0
 10
425.043
 20
-37.6177
 30
0
 10
425.043
 20
-36.5721
 30
0
 10
425.043
 20
-35.5265
 30
0
 10
425.043
 20
-34.5333
 30
0
 10
425.043
 20
-33.6423
 30
0
 10
425.043
 20
-32.8983
 30
0
 10
425.043
 20
-32.3384
 30
0
 10
425.043
 20
-31.9909
 30
0
 10
425.043
 20
-31.8731
 30
0
  0
LINE
  5
A51
330
A02
100
AcDbEntity
  8
Shape2DView
100
AcDbLine
 10
427.837
 20
-41.2711
 30
0
 11
425.043
 21
-41.2711
 31
0
  0
SPLINE
  5
A52
330
A02
100
AcDbEntity
  8
Shape2DView
100
AcDbSpline
210
0
220
0
230
1
 70
8
 71
1
 72
17
 73
15
 74
0
 40
0
 40
0
 40
0.0906383
 40
0.181277
 40
0.271915
 40
0.362553
 40
0.453191
 40
0.54383
 40
0.634468
 40
0.725106
 40
0.815744
 40
0.906383
 40
0.997021
 40
1.08766
 40
1.1783
 40
1.26894
 40
1.26894
 10
427.837
 20
-41.2711
 30
0
 10
427.837
 20
-41.2518
 30
0
 10
427.837
 20
-41.1941
 30
0
 10
427.837
 20
-41.0985
 30
0
 10
427.837
 20
-40.9656
 30
0
 10
427.837
 20
-40.7968
 30
0
 10
427.837
 20
-40.5932
 30
0
 10
427.837
 20
-40.3566
 30
0
 10
427.837
 20
-40.089
 30
0
 10
427.837
 20
-39.7924
 30
0
 10
427.837
 20
-39.4695
 30
0
 10
427.837
 20
-39.1227
 30
0
 10
427.837
 20
-38.7551
 30
0
 10
427.837
 20
-38.3695
 30
0
 10
427.837
 20
-37.9691
 30
0
  0
LINE
  5
A53
330
A02
100
AcDbEntity
  8
Shape2DView
100
AcDbLine
 10
427.837
 20
-37.9691
 30
0
 11
430.885
 21
-37.9691
 31
0
  0
SPLINE
  5
A54
330
A02
100
AcDbEntity
  8
Shape2DView
100
AcDbSpline
210
0
220
0
230
1
 70
8
 71
3
 72
41
 73
37
 74
0
 40
1.5708
 40
1.5708
 40
1.5708
 40
1.5708
 40
1.9074
 40
1.9074
 40
1.9074
 40
2.0196
 40
2.0196
 40
2.0196
 40
2.1318
 40
2.1318
 40
2.1318
 40
2.24399
 40
2.24399
 40
2.24399
 40
2.35619
 40
2.35619
 40
2.35619
 40
2.46839
 40
2.46839
 40
2.46839
 40
2.58059
 40
2.58059
 40
2.58059
 40
2.69279
 40
2.69279
 40
2.69279
 40
2.80499
 40
2.80499
 40
2.80499
 40
2.91719
 40
2.91719
 40
2.91719
 40
3.02939
 40
3.02939
 40
3.02939
 40
3.14159
 40
3.14159
 40
3.14159
 40
3.14159
 10
430.885
 20
-21.3321
 30
0
 10
430.885
 20
-21.1323
 30
0
 10
430.885
 20
-20.9345
 30
0
 10
430.885
 20
-20.7449
 30
0
 10
430.885
 20
-20.6835
 30
0
 10
430.885
 20
-20.6221
 30
0
 10
430.885
 20
-20.5607
 30
0
 10
430.885
 20
-20.5025
 30
0
 10
430.885
 20
-20.4443
 30
0
 10
430.885
 20
-20.3861
 30
0
 10
430.885
 20
-20.3319
 30
0
 10
430.885
 20
-20.2777
 30
0
 10
430.885
 20
-20.2235
 30
0
 10
430.885
 20
-20.174
 30
0
 10
430.885
 20
-20.1244
 30
0
 10
430.885
 20
-20.0749
 30
0
 10
430.885
 20
-20.0306
 30
0
 10
430.885
 20
-19.9863
 30
0
 10
430.885
 20
-19.942
 30
0
 10
430.885
 20
-19.9035
 30
0
 10
430.885
 20
-19.8651
 30
0
 10
430.885
 20
-19.8266
 30
0
 10
430.885
 20
-19.7945
 30
0
 10
430.885
 20
-19.7623
 30
0
 10
430.885
 20
-19.7302
 30
0
 10
430.885
 20
-19.7047
 30
0
 10
430.885
 20
-19.6793
 30
0
 10
430.885
 20
-19.6539
 30
0
 10
430.885
 20
-19.6355
 30
0
 10
430.885
 20
-19.6171
 30
0
 10
430.885
 20
-19.5987
 30
0
 10
430.885
 20
-19.5875
 30
0
 10
430.885
 20
-19.5764
 30
0
 10
430.885
 20
-19.5653
 30
0
 10
430.885
 20
-19.5616
 30
0
 10
430.885
 20
-19.5578
 30
0
 10
430.885
 20
-19.5541
 30
0
  0
LINE
  5
A55
330
A02
100
AcDbEntity
  8
Shape2DView
100
AcDbLine
 10
430.885
 20
-53.9711
 30
0
 11
430.885
 21
-21.3321
 31
0
  0
LINE
  5
A56
330
A02
100
AcDbEntity
  8
Shape2DView
100
AcDbLine
 10
431.647
 20
-18.7921
 30
0
 11
433.552
 21
-18.7921
 31
0
  0
LINE
  5
A57
330
A02
100
AcDbEntity
  8
Shape2DView
100
AcDbLine
 10
434.314
 20
-21.3321
 30
0
 11
434.314
 21
-53.9711
 31
0
  0
SPLINE
  5
A58
330
A02
100
AcDbEntity
  8
Shape2DView
100
AcDbSpline
210
0
220
0
230
1
 70
8
 71
2
 72
28
 73
25
 74
0
 40
0
 40
0
 40
0
 40
0.1122
 40
0.1122
 40
0.224399
 40
0.224399
 40
0.336599
 40
0.336599
 40
0.448799
 40
0.448799
 40
0.560999
 40
0.560999
 40
0.673198
 40
0.673198
 40
0.785398
 40
0.785398
 40
0.897598
 40
0.897598
 40
1.0098
 40
1.0098
 40
1.122
 40
1.122
 40
1.3464
 40
1.3464
 40
1.5708
 40
1.5708
 40
1.5708
 10
434.314
 20
-19.5541
 30
0
 10
434.314
 20
-19.5597
 30
0
 10
434.314
 20
-19.5653
 30
0
 10
434.314
 20
-19.582
 30
0
 10
434.314
 20
-19.5987
 30
0
 10
434.314
 20
-19.6263
 30
0
 10
434.314
 20
-19.6539
 30
0
 10
434.314
 20
-19.692
 30
0
 10
434.314
 20
-19.7302
 30
0
 10
434.314
 20
-19.7784
 30
0
 10
434.314
 20
-19.8266
 30
0
 10
434.314
 20
-19.8843
 30
0
 10
434.314
 20
-19.942
 30
0
 10
434.314
 20
-20.0084
 30
0
 10
434.314
 20
-20.0749
 30
0
 10
434.314
 20
-20.1492
 30
0
 10
434.314
 20
-20.2235
 30
0
 10
434.314
 20
-20.3048
 30
0
 10
434.314
 20
-20.3861
 30
0
 10
434.314
 20
-20.4734
 30
0
 10
434.314
 20
-20.5607
 30
0
 10
434.314
 20
-20.7428
 30
0
 10
434.314
 20
-20.9365
 30
0
 10
434.314
 20
-21.1323
 30
0
 10
434.314
 20
-21.3321
 30
0
  0
LINE
  5
A59
330
A02
100
AcDbEntity
  8
Shape2DView
100
AcDbLine
 10
433.552
 20
-54.7331
 30
0
 11
431.647
 21
-54.7331
 31
0
  0
ARC
  5
A5A
330
A02
100
AcDbEntity
  8
Shape2DView
100
AcDbCircle
 10
433.552
 20
-19.5541
 30
0
 40
0.762
100
AcDbArc
 50
0
 51
90
  0
ARC
  5
A5B
330
A02
100
AcDbEntity
  8
Shape2DView
100
AcDbCircle
 10
433.552
 20
-53.9711
 30
0
 40
0.762
100
AcDbArc
 50
-90
 51
0
  0
ARC
  5
A5C
330
A02
100
AcDbEntity
  8
Shape2DView
100
AcDbCircle
 10
433.552
 20
-53.9711
 30
0
 40
0.762
100
AcDbArc
 50
-90
 51
0
  0
ARC
  5
A5D
330
A02
100
AcDbEntity
  8
Shape2DView
100
AcDbCircle
 10
431.647
 20
-19.5541
 30
0
 40
0.762
100
AcDbArc
 50
90
 51
180
  0
ARC
  5
A5E
330
A02
100
AcDbEntity
  8
Shape2DView
100
AcDbCircle
 10
431.647
 20
-53.9711
 30
0
 40
0.762
100
AcDbArc
 50
180
 51
-90
  0
ARC
  5
A5F
330
A02
100
AcDbEntity
  8
Shape2DView
100
AcDbCircle
 10
431.647
 20
-19.5541
 30
0
 40
0.762
100
AcDbArc
 50
90
 51
180
  0
ARC
  5
A60
330
A02
100
AcDbEntity
  8
Shape2DView
100
AcDbCircle
 10
431.647
 20
-53.9711
 30
0
 40
0.762
100
AcDbArc
 50
-91.334
 51
-90
  0
ARC
  5
A61
330
A02
100
AcDbEntity
  8
Shape2DView
100
AcDbCircle
 10
431.647
 20
-53.9711
 30
0
 40
0.762
100
AcDbArc
 50
180
 51
-108.195
  0
LINE
  5
A62
330
A02
100
AcDbEntity
  8
Shape2DView
100
AcDbLine
 10
3.65669
 20
-35.1751
 30
0
 11
0.608686
 21
-35.1751
 31
0
  0
SPLINE
  5
A63
330
A02
100
AcDbEntity
  8
Shape2DView
100
AcDbSpline
210
0
220
0
230
1
 70
8
 71
1
 72
17
 73
15
 74
0
 40
3.14159
 40
3.14159
 40
3.23223
 40
3.32287
 40
3.41351
 40
3.50415
 40
3.59478
 40
3.68542
 40
3.77606
 40
3.8667
 40
3.95734
 40
4.04798
 40
4.13861
 40
4.22925
 40
4.31989
 40
4.41053
 40
4.41053
 10
3.65669
 20
-31.8731
 30
0
 10
3.65669
 20
-31.8924
 30
0
 10
3.65669
 20
-31.9501
 30
0
 10
3.65669
 20
-32.0457
 30
0
 10
3.65669
 20
-32.1786
 30
0
 10
3.65669
 20
-32.3474
 30
0
 10
3.65669
 20
-32.551
 30
0
 10
3.65669
 20
-32.7876
 30
0
 10
3.65669
 20
-33.0552
 30
0
 10
3.65669
 20
-33.3518
 30
0
 10
3.65669
 20
-33.6747
 30
0
 10
3.65669
 20
-34.0215
 30
0
 10
3.65669
 20
-34.3891
 30
0
 10
3.65669
 20
-34.7747
 30
0
 10
3.65669
 20
-35.1751
 30
0
  0
LINE
  5
A64
330
A02
100
AcDbEntity
  8
Shape2DView
100
AcDbLine
 10
3.65669
 20
-31.8731
 30
0
 11
6.45069
 21
-31.8731
 31
0
  0
SPLINE
  5
A65
330
A02
100
AcDbEntity
  8
Shape2DView
100
AcDbSpline
210
0
220
0
230
1
 70
8
 71
1
 72
17
 73
15
 74
0
 40
3.14159
 40
3.14159
 40
3.36599
 40
3.59039
 40
3.81479
 40
4.03919
 40
4.26359
 40
4.48799
 40
4.71239
 40
4.93679
 40
5.16119
 40
5.38559
 40
5.60999
 40
5.83439
 40
6.05879
 40
6.28319
 40
6.28319
 10
6.45069
 20
-31.8731
 30
0
 10
6.45069
 20
-31.9909
 30
0
 10
6.45069
 20
-32.3384
 30
0
 10
6.45069
 20
-32.8983
 30
0
 10
6.45069
 20
-33.6423
 30
0
 10
6.45069
 20
-34.5333
 30
0
 10
6.45069
 20
-35.5265
 30
0
 10
6.45069
 20
-36.5721
 30
0
 10
6.45069
 20
-37.6177
 30
0
 10
6.45069
 20
-38.6109
 30
0
 10
6.45069
 20
-39.5019
 30
0
 10
6.45069
 20
-40.2459
 30
0
 10
6.45069
 20
-40.8058
 30
0
 10
6.45069
 20
-41.1533
 30
0
 10
6.45069
 20
-41.2711
 30
0
  0
LINE
  5
A66
330
A02
100
AcDbEntity
  8
Shape2DView
100
AcDbLine
 10
3.65669
 20
-41.2711
 30
0
 11
6.45069
 21
-41.2711
 31
0
  0
SPLINE
  5
A67
330
A02
100
AcDbEntity
  8
Shape2DView
100
AcDbSpline
210
0
220
0
230
1
 70
8
 71
1
 72
17
 73
15
 74
0
 40
5.01425
 40
5.01425
 40
5.10489
 40
5.19553
 40
5.28616
 40
5.3768
 40
5.46744
 40
5.55808
 40
5.64872
 40
5.73936
 40
5.82999
 40
5.92063
 40
6.01127
 40
6.10191
 40
6.19255
 40
6.28319
 40
6.28319
 10
3.65669
 20
-37.9691
 30
0
 10
3.65669
 20
-38.3695
 30
0
 10
3.65669
 20
-38.7551
 30
0
 10
3.65669
 20
-39.1227
 30
0
 10
3.65669
 20
-39.4695
 30
0
 10
3.65669
 20
-39.7924
 30
0
 10
3.65669
 20
-40.089
 30
0
 10
3.65669
 20
-40.3566
 30
0
 10
3.65669
 20
-40.5932
 30
0
 10
3.65669
 20
-40.7968
 30
0
 10
3.65669
 20
-40.9656
 30
0
 10
3.65669
 20
-41.0985
 30
0
 10
3.65669
 20
-41.1941
 30
0
 10
3.65669
 20
-41.2518
 30
0
 10
3.65669
 20
-41.2711
 30
0
  0
LINE
  5
A68
330
A02
100
AcDbEntity
  8
Shape2DView
100
AcDbLine
 10
0.608686
 20
-37.9691
 30
0
 11
3.65669
 21
-37.9691
 31
0
  0
SPLINE
  5
A69
330
A02
100
AcDbEntity
  8
Shape2DView
100
AcDbSpline
210
0
220
0
230
1
 70
8
 71
2
 72
28
 73
25
 74
0
 40
3.14159
 40
3.14159
 40
3.14159
 40
3.25379
 40
3.25379
 40
3.36599
 40
3.36599
 40
3.47819
 40
3.47819
 40
3.59039
 40
3.59039
 40
3.70259
 40
3.70259
 40
3.81479
 40
3.81479
 40
3.92699
 40
3.92699
 40
4.03919
 40
4.03919
 40
4.15139
 40
4.15139
 40
4.26359
 40
4.26359
 40
4.48799
 40
4.48799
 40
4.71239
 40
4.71239
 40
4.71239
 10
0.608686
 20
-19.5541
 30
0
 10
0.608686
 20
-19.5597
 30
0
 10
0.608686
 20
-19.5653
 30
0
 10
0.608686
 20
-19.582
 30
0
 10
0.608686
 20
-19.5987
 30
0
 10
0.608686
 20
-19.6263
 30
0
 10
0.608686
 20
-19.6539
 30
0
 10
0.608686
 20
-19.692
 30
0
 10
0.608686
 20
-19.7302
 30
0
 10
0.608686
 20
-19.7784
 30
0
 10
0.608686
 20
-19.8266
 30
0
 10
0.608686
 20
-19.8843
 30
0
 10
0.608686
 20
-19.942
 30
0
 10
0.608686
 20
-20.0084
 30
0
 10
0.608686
 20
-20.0749
 30
0
 10
0.608686
 20
-20.1492
 30
0
 10
0.608686
 20
-20.2235
 30
0
 10
0.608686
 20
-20.3048
 30
0
 10
0.608686
 20
-20.3861
 30
0
 10
0.608686
 20
-20.4734
 30
0
 10
0.608686
 20
-20.5607
 30
0
 10
0.608686
 20
-20.7428
 30
0
 10
0.608686
 20
-20.9365
 30
0
 10
0.608686
 20
-21.1323
 30
0
 10
0.608686
 20
-21.3321
 30
0
  0
LINE
  5
A6A
330
A02
100
AcDbEntity
  8
Shape2DView
100
AcDbLine
 10
0.608686
 20
-21.3321
 30
0
 11
0.608686
 21
-53.9711
 31
0
  0
LINE
  5
A6B
330
A02
100
AcDbEntity
  8
Shape2DView
100
AcDbLine
 10
-2.05831
 20
-18.7921
 30
0
 11
-0.153314
 21
-18.7921
 31
0
  0
LINE
  5
A6C
330
A02
100
AcDbEntity
  8
Shape2DView
100
AcDbLine
 10
-2.82031
 20
-53.9711
 30
0
 11
-2.82031
 21
-21.3321
 31
0
  0
SPLINE
  5
A6D
330
A02
100
AcDbEntity
  8
Shape2DView
100
AcDbSpline
210
0
220
0
230
1
 70
8
 71
3
 72
41
 73
37
 74
0
 40
4.71239
 40
4.71239
 40
4.71239
 40
4.71239
 40
5.04899
 40
5.04899
 40
5.04899
 40
5.16119
 40
5.16119
 40
5.16119
 40
5.27339
 40
5.27339
 40
5.27339
 40
5.38559
 40
5.38559
 40
5.38559
 40
5.49779
 40
5.49779
 40
5.49779
 40
5.60999
 40
5.60999
 40
5.60999
 40
5.72219
 40
5.72219
 40
5.72219
 40
5.83439
 40
5.83439
 40
5.83439
 40
5.94659
 40
5.94659
 40
5.94659
 40
6.05879
 40
6.05879
 40
6.05879
 40
6.17099
 40
6.17099
 40
6.17099
 40
6.28319
 40
6.28319
 40
6.28319
 40
6.28319
 10
-2.82031
 20
-21.3321
 30
0
 10
-2.82031
 20
-21.1323
 30
0
 10
-2.82031
 20
-20.9345
 30
0
 10
-2.82031
 20
-20.7449
 30
0
 10
-2.82031
 20
-20.6835
 30
0
 10
-2.82031
 20
-20.6221
 30
0
 10
-2.82031
 20
-20.5607
 30
0
 10
-2.82031
 20
-20.5025
 30
0
 10
-2.82031
 20
-20.4443
 30
0
 10
-2.82031
 20
-20.3861
 30
0
 10
-2.82031
 20
-20.3319
 30
0
 10
-2.82031
 20
-20.2777
 30
0
 10
-2.82031
 20
-20.2235
 30
0
 10
-2.82031
 20
-20.174
 30
0
 10
-2.82031
 20
-20.1244
 30
0
 10
-2.82031
 20
-20.0749
 30
0
 10
-2.82031
 20
-20.0306
 30
0
 10
-2.82031
 20
-19.9863
 30
0
 10
-2.82031
 20
-19.942
 30
0
 10
-2.82031
 20
-19.9035
 30
0
 10
-2.82031
 20
-19.8651
 30
0
 10
-2.82031
 20
-19.8266
 30
0
 10
-2.82031
 20
-19.7945
 30
0
 10
-2.82031
 20
-19.7623
 30
0
 10
-2.82031
 20
-19.7302
 30
0
 10
-2.82031
 20
-19.7047
 30
0
 10
-2.82031
 20
-19.6793
 30
0
 10
-2.82031
 20
-19.6539
 30
0
 10
-2.82031
 20
-19.6355
 30
0
 10
-2.82031
 20
-19.6171
 30
0
 10
-2.82031
 20
-19.5987
 30
0
 10
-2.82031
 20
-19.5875
 30
0
 10
-2.82031
 20
-19.5764
 30
0
 10
-2.82031
 20
-19.5653
 30
0
 10
-2.82031
 20
-19.5616
 30
0
 10
-2.82031
 20
-19.5578
 30
0
 10
-2.82031
 20
-19.5541
 30
0
  0
SPLINE
  5
A6E
330
A02
100
AcDbEntity
  8
Shape2DView
100
AcDbSpline
210
0
220
0
230
1
 70
8
 71
2
 72
28
 73
25
 74
0
 40
0
 40
0
 40
0
 40
0.1122
 40
0.1122
 40
0.224399
 40
0.224399
 40
0.336599
 40
0.336599
 40
0.448799
 40
0.448799
 40
0.560999
 40
0.560999
 40
0.673198
 40
0.673198
 40
0.785398
 40
0.785398
 40
0.897598
 40
0.897598
 40
1.0098
 40
1.0098
 40
1.122
 40
1.122
 40
1.3464
 40
1.3464
 40
1.5708
 40
1.5708
 40
1.5708
 10
-2.82031
 20
-19.5541
 30
0
 10
-2.82031
 20
-19.5597
 30
0
 10
-2.82031
 20
-19.5653
 30
0
 10
-2.82031
 20
-19.582
 30
0
 10
-2.82031
 20
-19.5987
 30
0
 10
-2.82031
 20
-19.6263
 30
0
 10
-2.82031
 20
-19.6539
 30
0
 10
-2.82031
 20
-19.692
 30
0
 10
-2.82031
 20
-19.7302
 30
0
 10
-2.82031
 20
-19.7784
 30
0
 10
-2.82031
 20
-19.8266
 30
0
 10
-2.82031
 20
-19.8843
 30
0
 10
-2.82031
 20
-19.942
 30
0
 10
-2.82031
 20
-20.0084
 30
0
 10
-2.82031
 20
-20.0749
 30
0
 10
-2.82031
 20
-20.1492
 30
0
 10
-2.82031
 20
-20.2235
 30
0
 10
-2.82031
 20
-20.3048
 30
0
 10
-2.82031
 20
-20.3861
 30
0
 10
-2.82031
 20
-20.4734
 30
0
 10
-2.82031
 20
-20.5607
 30
0
 10
-2.82031
 20
-20.7428
 30
0
 10
-2.82031
 20
-20.9365
 30
0
 10
-2.82031
 20
-21.1323
 30
0
 10
-2.82031
 20
-21.3321
 30
0
  0
LINE
  5
A6F
330
A02
100
AcDbEntity
  8
Shape2DView
100
AcDbLine
 10
-0.153314
 20
-54.7331
 30
0
 11
-2.05831
 21
-54.7331
 31
0
  0
LINE
  5
A70
330
A02
100
AcDbEntity
  8
Shape2DView
100
AcDbLine
 10
-2.05831
 20
-54.7331
 30
0
 11
-0.153314
 21
-54.7331
 31
0
  0
ARC
  5
A71
330
A02
100
AcDbEntity
  8
Shape2DView
100
AcDbCircle
 10
-2.05831
 20
-19.5541
 30
0
 40
0.762
100
AcDbArc
 50
90
 51
180
  0
ARC
  5
A72
330
A02
100
AcDbEntity
  8
Shape2DView
100
AcDbCircle
 10
-2.05831
 20
-19.5541
 30
0
 40
0.762
100
AcDbArc
 50
90
 51
180
  0
ARC
  5
A73
330
A02
100
AcDbEntity
  8
Shape2DView
100
AcDbCircle
 10
-2.05831
 20
-53.9711
 30
0
 40
0.762
100
AcDbArc
 50
180
 51
-90
  0
ARC
  5
A74
330
A02
100
AcDbEntity
  8
Shape2DView
100
AcDbCircle
 10
-0.153314
 20
-19.5541
 30
0
 40
0.762
100
AcDbArc
 50
0
 51
90
  0
ARC
  5
A75
330
A02
100
AcDbEntity
  8
Shape2DView
100
AcDbCircle
 10
-0.153314
 20
-53.9711
 30
0
 40
0.762
100
AcDbArc
 50
-90
 51
0
  0
LINE
  5
A76
330
A02
100
AcDbEntity
  8
Shape2DView
100
AcDbLine
 10
4.54569
 20
-22.4116
 30
0
 11
204.825
 21
-22.4116
 31
0
  0
LINE
  5
A77
330
A02
100
AcDbEntity
  8
Shape2DView
100
AcDbLine
 10
4.54569
 20
-20.024
 30
0
 11
204.825
 21
-20.024
 31
0
  0
SPLINE
  5
A78
330
A02
100
AcDbEntity
  8
Shape2DView
100
AcDbSpline
210
0
220
0
230
1
 70
8
 71
3
 72
26
 73
22
 74
0
 40
3.14159
 40
3.14159
 40
3.14159
 40
3.14159
 40
3.25379
 40
3.25379
 40
3.25379
 40
3.36599
 40
3.36599
 40
3.36599
 40
3.47819
 40
3.47819
 40
3.47819
 40
3.59039
 40
3.59039
 40
3.59039
 40
3.70259
 40
3.70259
 40
3.70259
 40
3.92699
 40
3.92699
 40
3.92699
 40
4.71239
 40
4.71239
 40
4.71239
 40
4.71239
 10
225.907
 20
-20.024
 30
0
 10
225.908
 20
-20.024
 30
0
 10
225.91
 20
-20.024
 30
0
 10
225.911
 20
-20.024
 30
0
 10
225.916
 20
-20.024
 30
0
 10
225.921
 20
-20.024
 30
0
 10
225.926
 20
-20.024
 30
0
 10
225.934
 20
-20.024
 30
0
 10
225.942
 20
-20.024
 30
0
 10
225.949
 20
-20.024
 30
0
 10
225.96
 20
-20.024
 30
0
 10
225.971
 20
-20.024
 30
0
 10
225.982
 20
-20.024
 30
0
 10
225.996
 20
-20.024
 30
0
 10
226.01
 20
-20.024
 30
0
 10
226.023
 20
-20.024
 30
0
 10
226.055
 20
-20.024
 30
0
 10
226.091
 20
-20.024
 30
0
 10
226.13
 20
-20.024
 30
0
 10
226.272
 20
-20.024
 30
0
 10
226.469
 20
-20.024
 30
0
 10
226.669
 20
-20.024
 30
0
  0
LINE
  5
A79
330
A02
100
AcDbEntity
  8
Shape2DView
100
AcDbLine
 10
226.669
 20
-20.024
 30
0
 11
426.948
 21
-20.024
 31
0
  0
SPLINE
  5
A7A
330
A02
100
AcDbEntity
  8
Shape2DView
100
AcDbSpline
210
0
220
0
230
1
 70
8
 71
3
 72
41
 73
37
 74
0
 40
1.5708
 40
1.5708
 40
1.5708
 40
1.5708
 40
1.9074
 40
1.9074
 40
1.9074
 40
2.0196
 40
2.0196
 40
2.0196
 40
2.1318
 40
2.1318
 40
2.1318
 40
2.24399
 40
2.24399
 40
2.24399
 40
2.35619
 40
2.35619
 40
2.35619
 40
2.46839
 40
2.46839
 40
2.46839
 40
2.58059
 40
2.58059
 40
2.58059
 40
2.69279
 40
2.69279
 40
2.69279
 40
2.80499
 40
2.80499
 40
2.80499
 40
2.91719
 40
2.91719
 40
2.91719
 40
3.02939
 40
3.02939
 40
3.02939
 40
3.14159
 40
3.14159
 40
3.14159
 40
3.14159
 10
426.948
 20
-20.024
 30
0
 10
427.119
 20
-20.024
 30
0
 10
427.289
 20
-20.024
 30
0
 10
427.451
 20
-20.024
 30
0
 10
427.504
 20
-20.024
 30
0
 10
427.556
 20
-20.024
 30
0
 10
427.609
 20
-20.024
 30
0
 10
427.659
 20
-20.024
 30
0
 10
427.709
 20
-20.024
 30
0
 10
427.759
 20
-20.024
 30
0
 10
427.805
 20
-20.024
 30
0
 10
427.851
 20
-20.024
 30
0
 10
427.898
 20
-20.024
 30
0
 10
427.94
 20
-20.024
 30
0
 10
427.983
 20
-20.024
 30
0
 10
428.025
 20
-20.024
 30
0
 10
428.063
 20
-20.024
 30
0
 10
428.101
 20
-20.024
 30
0
 10
428.139
 20
-20.024
 30
0
 10
428.172
 20
-20.024
 30
0
 10
428.205
 20
-20.024
 30
0
 10
428.238
 20
-20.024
 30
0
 10
428.266
 20
-20.024
 30
0
 10
428.293
 20
-20.024
 30
0
 10
428.321
 20
-20.024
 30
0
 10
428.343
 20
-20.024
 30
0
 10
428.364
 20
-20.024
 30
0
 10
428.386
 20
-20.024
 30
0
 10
428.402
 20
-20.024
 30
0
 10
428.418
 20
-20.024
 30
0
 10
428.433
 20
-20.024
 30
0
 10
428.443
 20
-20.024
 30
0
 10
428.453
 20
-20.024
 30
0
 10
428.462
 20
-20.024
 30
0
 10
428.465
 20
-20.024
 30
0
 10
428.468
 20
-20.024
 30
0
 10
428.472
 20
-20.024
 30
0
  0
SPLINE
  5
A7B
330
A02
100
AcDbEntity
  8
Shape2DView
100
AcDbSpline
210
0
220
0
230
1
 70
8
 71
2
 72
28
 73
25
 74
0
 40
0
 40
0
 40
0
 40
0.1122
 40
0.1122
 40
0.224399
 40
0.224399
 40
0.336599
 40
0.336599
 40
0.448799
 40
0.448799
 40
0.560999
 40
0.560999
 40
0.673198
 40
0.673198
 40
0.785398
 40
0.785398
 40
0.897598
 40
0.897598
 40
1.0098
 40
1.0098
 40
1.122
 40
1.122
 40
1.3464
 40
1.3464
 40
1.5708
 40
1.5708
 40
1.5708
 10
3.02169
 20
-20.024
 30
0
 10
3.02648
 20
-20.024
 30
0
 10
3.03127
 20
-20.024
 30
0
 10
3.04558
 20
-20.024
 30
0
 10
3.0599
 20
-20.024
 30
0
 10
3.08355
 20
-20.024
 30
0
 10
3.10721
 20
-20.024
 30
0
 10
3.13991
 20
-20.024
 30
0
 10
3.17261
 20
-20.024
 30
0
 10
3.21394
 20
-20.024
 30
0
 10
3.25528
 20
-20.024
 30
0
 10
3.30473
 20
-20.024
 30
0
 10
3.35417
 20
-20.024
 30
0
 10
3.41111
 20
-20.024
 30
0
 10
3.46806
 20
-20.024
 30
0
 10
3.53177
 20
-20.024
 30
0
 10
3.59549
 20
-20.024
 30
0
 10
3.66518
 20
-20.024
 30
0
 10
3.73487
 20
-20.024
 30
0
 10
3.80966
 20
-20.024
 30
0
 10
3.88445
 20
-20.024
 30
0
 10
4.04057
 20
-20.024
 30
0
 10
4.20656
 20
-20.024
 30
0
 10
4.37445
 20
-20.024
 30
0
 10
4.54569
 20
-20.024
 30
0
  0
SPLINE
  5
A7C
330
A02
100
AcDbEntity
  8
Shape2DView
100
AcDbSpline
210
0
220
0
230
1
 70
8
 71
3
 72
29
 73
25
 74
0
 40
4.71239
 40
4.71239
 40
4.71239
 40
4.71239
 40
5.49779
 40
5.49779
 40
5.49779
 40
5.60999
 40
5.60999
 40
5.60999
 40
5.72219
 40
5.72219
 40
5.72219
 40
5.83439
 40
5.83439
 40
5.83439
 40
5.94659
 40
5.94659
 40
5.94659
 40
6.05879
 40
6.05879
 40
6.05879
 40
6.17099
 40
6.17099
 40
6.17099
 40
6.28319
 40
6.28319
 40
6.28319
 40
6.28319
 10
204.825
 20
-20.024
 30
0
 10
205.025
 20
-20.024
 30
0
 10
205.222
 20
-20.024
 30
0
 10
205.364
 20
-20.024
 30
0
 10
205.382
 20
-20.024
 30
0
 10
205.401
 20
-20.024
 30
0
 10
205.42
 20
-20.024
 30
0
 10
205.437
 20
-20.024
 30
0
 10
205.453
 20
-20.024
 30
0
 10
205.47
 20
-20.024
 30
0
 10
205.484
 20
-20.024
 30
0
 10
205.497
 20
-20.024
 30
0
 10
205.511
 20
-20.024
 30
0
 10
205.522
 20
-20.024
 30
0
 10
205.533
 20
-20.024
 30
0
 10
205.544
 20
-20.024
 30
0
 10
205.552
 20
-20.024
 30
0
 10
205.56
 20
-20.024
 30
0
 10
205.568
 20
-20.024
 30
0
 10
205.572
 20
-20.024
 30
0
 10
205.577
 20
-20.024
 30
0
 10
205.582
 20
-20.024
 30
0
 10
205.583
 20
-20.024
 30
0
 10
205.585
 20
-20.024
 30
0
 10
205.587
 20
-20.024
 30
0
  0
LINE
  5
A7D
330
A02
100
AcDbEntity
  8
Shape2DView
100
AcDbLine
 10
225.907
 20
-20.024
 30
0
 11
205.587
 21
-20.024
 31
0
  0
LINE
  5
A7E
330
A02
100
AcDbEntity
  8
Shape2DView
100
AcDbLine
 10
428.472
 20
-22.4116
 30
0
 11
428.472
 21
-20.024
 31
0
  0
SPLINE
  5
A7F
330
A02
100
AcDbEntity
  8
Shape2DView
100
AcDbSpline
210
0
220
0
230
1
 70
8
 71
3
 72
41
 73
37
 74
0
 40
1.5708
 40
1.5708
 40
1.5708
 40
1.5708
 40
1.9074
 40
1.9074
 40
1.9074
 40
2.0196
 40
2.0196
 40
2.0196
 40
2.1318
 40
2.1318
 40
2.1318
 40
2.24399
 40
2.24399
 40
2.24399
 40
2.35619
 40
2.35619
 40
2.35619
 40
2.46839
 40
2.46839
 40
2.46839
 40
2.58059
 40
2.58059
 40
2.58059
 40
2.69279
 40
2.69279
 40
2.69279
 40
2.80499
 40
2.80499
 40
2.80499
 40
2.91719
 40
2.91719
 40
2.91719
 40
3.02939
 40
3.02939
 40
3.02939
 40
3.14159
 40
3.14159
 40
3.14159
 40
3.14159
 10
426.948
 20
-22.4116
 30
0
 10
427.119
 20
-22.4116
 30
0
 10
427.289
 20
-22.4116
 30
0
 10
427.451
 20
-22.4116
 30
0
 10
427.504
 20
-22.4116
 30
0
 10
427.556
 20
-22.4116
 30
0
 10
427.609
 20
-22.4116
 30
0
 10
427.659
 20
-22.4116
 30
0
 10
427.709
 20
-22.4116
 30
0
 10
427.759
 20
-22.4116
 30
0
 10
427.805
 20
-22.4116
 30
0
 10
427.851
 20
-22.4116
 30
0
 10
427.898
 20
-22.4116
 30
0
 10
427.94
 20
-22.4116
 30
0
 10
427.983
 20
-22.4116
 30
0
 10
428.025
 20
-22.4116
 30
0
 10
428.063
 20
-22.4116
 30
0
 10
428.101
 20
-22.4116
 30
0
 10
428.139
 20
-22.4116
 30
0
 10
428.172
 20
-22.4116
 30
0
 10
428.205
 20
-22.4116
 30
0
 10
428.238
 20
-22.4116
 30
0
 10
428.266
 20
-22.4116
 30
0
 10
428.293
 20
-22.4116
 30
0
 10
428.321
 20
-22.4116
 30
0
 10
428.343
 20
-22.4116
 30
0
 10
428.364
 20
-22.4116
 30
0
 10
428.386
 20
-22.4116
 30
0
 10
428.402
 20
-22.4116
 30
0
 10
428.418
 20
-22.4116
 30
0
 10
428.433
 20
-22.4116
 30
0
 10
428.443
 20
-22.4116
 30
0
 10
428.453
 20
-22.4116
 30
0
 10
428.462
 20
-22.4116
 30
0
 10
428.465
 20
-22.4116
 30
0
 10
428.468
 20
-22.4116
 30
0
 10
428.472
 20
-22.4116
 30
0
  0
LINE
  5
A80
330
A02
100
AcDbEntity
  8
Shape2DView
100
AcDbLine
 10
226.669
 20
-22.4116
 30
0
 11
426.948
 21
-22.4116
 31
0
  0
LINE
  5
A81
330
A02
100
AcDbEntity
  8
Shape2DView
100
AcDbLine
 10
3.02169
 20
-22.4116
 30
0
 11
3.02169
 21
-20.024
 31
0
  0
SPLINE
  5
A82
330
A02
100
AcDbEntity
  8
Shape2DView
100
AcDbSpline
210
0
220
0
230
1
 70
8
 71
2
 72
28
 73
25
 74
0
 40
0
 40
0
 40
0
 40
0.1122
 40
0.1122
 40
0.224399
 40
0.224399
 40
0.336599
 40
0.336599
 40
0.448799
 40
0.448799
 40
0.560999
 40
0.560999
 40
0.673198
 40
0.673198
 40
0.785398
 40
0.785398
 40
0.897598
 40
0.897598
 40
1.0098
 40
1.0098
 40
1.122
 40
1.122
 40
1.3464
 40
1.3464
 40
1.5708
 40
1.5708
 40
1.5708
 10
3.02169
 20
-22.4116
 30
0
 10
3.02648
 20
-22.4116
 30
0
 10
3.03127
 20
-22.4116
 30
0
 10
3.04558
 20
-22.4116
 30
0
 10
3.0599
 20
-22.4116
 30
0
 10
3.08355
 20
-22.4116
 30
0
 10
3.10721
 20
-22.4116
 30
0
 10
3.13991
 20
-22.4116
 30
0
 10
3.17261
 20
-22.4116
 30
0
 10
3.21394
 20
-22.4116
 30
0
 10
3.25528
 20
-22.4116
 30
0
 10
3.30473
 20
-22.4116
 30
0
 10
3.35417
 20
-22.4116
 30
0
 10
3.41111
 20
-22.4116
 30
0
 10
3.46806
 20
-22.4116
 30
0
 10
3.53177
 20
-22.4116
 30
0
 10
3.59549
 20
-22.4116
 30
0
 10
3.66518
 20
-22.4116
 30
0
 10
3.73487
 20
-22.4116
 30
0
 10
3.80966
 20
-22.4116
 30
0
 10
3.88445
 20
-22.4116
 30
0
 10
4.04057
 20
-22.4116
 30
0
 10
4.20656
 20
-22.4116
 30
0
 10
4.37445
 20
-22.4116
 30
0
 10
4.54569
 20
-22.4116
 30
0
  0
SPLINE
  5
A83
330
A02
100
AcDbEntity
  8
Shape2DView
100
AcDbSpline
210
0
220
0
230
1
 70
8
 71
3
 72
29
 73
25
 74
0
 40
1.5708
 40
1.5708
 40
1.5708
 40
1.5708
 40
2.35619
 40
2.35619
 40
2.35619
 40
2.46839
 40
2.46839
 40
2.46839
 40
2.58059
 40
2.58059
 40
2.58059
 40
2.69279
 40
2.69279
 40
2.69279
 40
2.80499
 40
2.80499
 40
2.80499
 40
2.91719
 40
2.91719
 40
2.91719
 40
3.02939
 40
3.02939
 40
3.02939
 40
3.14159
 40
3.14159
 40
3.14159
 40
3.14159
 10
226.669
 20
-22.4116
 30
0
 10
226.469
 20
-22.4116
 30
0
 10
226.272
 20
-22.4116
 30
0
 10
226.13
 20
-22.4116
 30
0
 10
226.111
 20
-22.4116
 30
0
 10
226.092
 20
-22.4116
 30
0
 10
226.073
 20
-22.4116
 30
0
 10
226.056
 20
-22.4116
 30
0
 10
226.04
 20
-22.4116
 30
0
 10
226.023
 20
-22.4116
 30
0
 10
226.01
 20
-22.4116
 30
0
 10
225.996
 20
-22.4116
 30
0
 10
225.982
 20
-22.4116
 30
0
 10
225.971
 20
-22.4116
 30
0
 10
225.96
 20
-22.4116
 30
0
 10
225.949
 20
-22.4116
 30
0
 10
225.942
 20
-22.4116
 30
0
 10
225.934
 20
-22.4116
 30
0
 10
225.926
 20
-22.4116
 30
0
 10
225.921
 20
-22.4116
 30
0
 10
225.916
 20
-22.4116
 30
0
 10
225.911
 20
-22.4116
 30
0
 10
225.91
 20
-22.4116
 30
0
 10
225.908
 20
-22.4116
 30
0
 10
225.907
 20
-22.4116
 30
0
  0
LINE
  5
A84
330
A02
100
AcDbEntity
  8
Shape2DView
100
AcDbLine
 10
205.587
 20
-22.4116
 30
0
 11
225.907
 21
-22.4116
 31
0
  0
SPLINE
  5
A85
330
A02
100
AcDbEntity
  8
Shape2DView
100
AcDbSpline
210
0
220
0
230
1
 70
8
 71
3
 72
26
 73
22
 74
0
 40
0
 40
0
 40
0
 40
0
 40
0.1122
 40
0.1122
 40
0.1122
 40
0.224399
 40
0.224399
 40
0.224399
 40
0.336599
 40
0.336599
 40
0.336599
 40
0.448799
 40
0.448799
 40
0.448799
 40
0.560999
 40
0.560999
 40
0.560999
 40
0.785398
 40
0.785398
 40
0.785398
 40
1.5708
 40
1.5708
 40
1.5708
 40
1.5708
 10
205.587
 20
-22.4116
 30
0
 10
205.585
 20
-22.4116
 30
0
 10
205.583
 20
-22.4116
 30
0
 10
205.582
 20
-22.4116
 30
0
 10
205.577
 20
-22.4116
 30
0
 10
205.572
 20
-22.4116
 30
0
 10
205.568
 20
-22.4116
 30
0
 10
205.56
 20
-22.4116
 30
0
 10
205.552
 20
-22.4116
 30
0
 10
205.544
 20
-22.4116
 30
0
 10
205.533
 20
-22.4116
 30
0
 10
205.522
 20
-22.4116
 30
0
 10
205.511
 20
-22.4116
 30
0
 10
205.497
 20
-22.4116
 30
0
 10
205.484
 20
-22.4116
 30
0
 10
205.47
 20
-22.4116
 30
0
 10
205.438
 20
-22.4116
 30
0
 10
205.403
 20
-22.4116
 30
0
 10
205.364
 20
-22.4116
 30
0
 10
205.222
 20
-22.4116
 30
0
 10
205.025
 20
-22.4116
 30
0
 10
204.825
 20
-22.4116
 30
0
  0
LINE
  5
A86
330
A02
100
AcDbEntity
  8
Shape2DView
100
AcDbLine
 10
427.075
 20
-18.754
 30
0
 11
427.075
 21
-20.024
 31
0
  0
SPLINE
  5
A87
330
A02
100
AcDbEntity
  8
Shape2DView
100
AcDbSpline
210
0
220
0
230
1
 70
8
 71
3
 72
11
 73
7
 74
0
 40
1.5708
 40
1.5708
 40
1.5708
 40
1.5708
 40
2.35619
 40
2.35619
 40
2.35619
 40
3.14159
 40
3.14159
 40
3.14159
 40
3.14159
 10
426.567
 20
-18.754
 30
0
 10
426.7
 20
-18.754
 30
0
 10
426.831
 20
-18.754
 30
0
 10
426.926
 20
-18.754
 30
0
 10
427.02
 20
-18.754
 30
0
 10
427.074
 20
-18.754
 30
0
 10
427.075
 20
-18.754
 30
0
  0
LINE
  5
A88
330
A02
100
AcDbEntity
  8
Shape2DView
100
AcDbLine
 10
427.075
 20
-18.754
 30
0
 11
427.075
 21
-20.024
 31
0
  0
LINE
  5
A89
330
A02
100
AcDbEntity
  8
Shape2DView
100
AcDbLine
 10
4.41869
 20
-18.754
 30
0
 11
4.41869
 21
-20.024
 31
0
  0
SPLINE
  5
A8A
330
A02
100
AcDbEntity
  8
Shape2DView
100
AcDbSpline
210
0
220
0
230
1
 70
8
 71
3
 72
11
 73
7
 74
0
 40
0
 40
0
 40
0
 40
0
 40
0.785398
 40
0.785398
 40
0.785398
 40
1.5708
 40
1.5708
 40
1.5708
 40
1.5708
 10
4.41869
 20
-18.754
 30
0
 10
4.41913
 20
-18.754
 30
0
 10
4.47353
 20
-18.754
 30
0
 10
4.56748
 20
-18.754
 30
0
 10
4.66205
 20
-18.754
 30
0
 10
4.79338
 20
-18.754
 30
0
 10
4.92669
 20
-18.754
 30
0
  0
LINE
  5
A8B
330
A02
100
AcDbEntity
  8
Shape2DView
100
AcDbLine
 10
4.92669
 20
-18.754
 30
0
 11
426.567
 21
-18.754
 31
0
  0
LINE
  5
A8C
330
A02
100
AcDbEntity
  8
Shape2DView
100
AcDbLine
 10
205.587
 20
-20.024
 30
0
 11
205.587
 21
-22.4116
 31
0
  0
LINE
  5
A8D
330
A02
100
AcDbEntity
  8
Shape2DView
100
AcDbLine
 10
205.587
 20
-22.4116
 30
0
 11
205.587
 21
-20.024
 31
0
  0
LINE
  5
A8E
330
A02
100
AcDbEntity
  8
Shape2DView
100
AcDbLine
 10
225.907
 20
-22.4116
 30
0
 11
225.907
 21
-20.024
 31
0
  0
LINE
  5
A8F
330
A02
100
AcDbEntity
  8
Shape2DView
100
AcDbLine
 10
225.907
 20
-22.4116
 30
0
 11
225.907
 21
-20.024
 31
0
  0
ARC
  5
A90
330
A02
100
AcDbEntity
  8
Shape2DView
100
AcDbCircle
 10
104.223
 20
-56.6
 30
0
 40
1.143
100
AcDbArc
 50
-90
 51
90
  0
ARC
  5
A91
330
A02
100
AcDbEntity
  8
Shape2DView
100
AcDbCircle
 10
327.235
 20
-56.6
 30
0
 40
1.143
100
AcDbArc
 50
-90
 51
90
  0
ARC
  5
A92
330
A02
100
AcDbEntity
  8
Shape2DView
100
AcDbCircle
 10
104.223
 20
-183.6
 30
0
 40
1.143
100
AcDbArc
 50
-90
 51
90
  0
ARC
  5
A93
330
A02
100
AcDbEntity
  8
Shape2DView
100
AcDbCircle
 10
327.235
 20
-183.6
 30
0
 40
1.143
100
AcDbArc
 50
-90
 51
90
  0
ARC
  5
A94
330
A02
100
AcDbEntity
  8
Shape2DView
100
AcDbCircle
 10
104.223
 20
-56.6
 30
0
 40
2.47035
100
AcDbArc
 50
-90
 51
90
  0
ARC
  5
A95
330
A02
100
AcDbEntity
  8
Shape2DView
100
AcDbCircle
 10
104.223
 20
-56.6
 30
0
 40
2.55459
100
AcDbArc
 50
-90
 51
-78.1958
  0
SPLINE
  5
A96
330
A02
100
AcDbEntity
  8
Shape2DView
100
AcDbSpline
210
0
220
0
230
1
 70
8
 71
2
 72
6
 73
3
 74
0
 40
0
 40
0
 40
0
 40
0.0137194
 40
0.0137194
 40
0.0137194
 10
104.746
 20
-59.1006
 30
0
 10
104.865
 20
-59.1977
 30
0
 10
104.985
 20
-59.2881
 30
0
  0
ARC
  5
A97
330
A02
100
AcDbEntity
  8
Shape2DView
100
AcDbCircle
 10
104.223
 20
-56.6
 30
0
 40
2.794
100
AcDbArc
 50
-74.1734
 51
-15.8266
  0
SPLINE
  5
A98
330
A02
100
AcDbEntity
  8
Shape2DView
100
AcDbSpline
210
0
220
0
230
1
 70
8
 71
2
 72
6
 73
3
 74
0
 40
0
 40
0
 40
0
 40
0.0137194
 40
0.0137194
 40
0.0137194
 10
106.724
 20
-57.1226
 30
0
 10
106.821
 20
-57.2423
 30
0
 10
106.911
 20
-57.362
 30
0
  0
ARC
  5
A99
330
A02
100
AcDbEntity
  8
Shape2DView
100
AcDbCircle
 10
104.223
 20
-56.6
 30
0
 40
2.55459
100
AcDbArc
 50
-11.8042
 51
11.8042
  0
SPLINE
  5
A9A
330
A02
100
AcDbEntity
  8
Shape2DView
100
AcDbSpline
210
0
220
0
230
1
 70
8
 71
2
 72
6
 73
3
 74
0
 40
0
 40
0
 40
0
 40
0.0137194
 40
0.0137194
 40
0.0137194
 10
106.724
 20
-56.0774
 30
0
 10
106.821
 20
-55.9577
 30
0
 10
106.911
 20
-55.838
 30
0
  0
ARC
  5
A9B
330
A02
100
AcDbEntity
  8
Shape2DView
100
AcDbCircle
 10
104.223
 20
-56.6
 30
0
 40
2.794
100
AcDbArc
 50
15.8266
 51
74.1734
  0
SPLINE
  5
A9C
330
A02
100
AcDbEntity
  8
Shape2DView
100
AcDbSpline
210
0
220
0
230
1
 70
8
 71
2
 72
6
 73
3
 74
0
 40
0
 40
0
 40
0
 40
0.0137194
 40
0.0137194
 40
0.0137194
 10
104.746
 20
-54.0994
 30
0
 10
104.865
 20
-54.0023
 30
0
 10
104.985
 20
-53.9119
 30
0
  0
ARC
  5
A9D
330
A02
100
AcDbEntity
  8
Shape2DView
100
AcDbCircle
 10
104.223
 20
-56.6
 30
0
 40
2.55459
100
AcDbArc
 50
78.1958
 51
90
  0
ARC
  5
A9E
330
A02
100
AcDbEntity
  8
Shape2DView
100
AcDbCircle
 10
327.235
 20
-56.6
 30
0
 40
2.47035
100
AcDbArc
 50
-90
 51
90
  0
ARC
  5
A9F
330
A02
100
AcDbEntity
  8
Shape2DView
100
AcDbCircle
 10
327.235
 20
-56.6
 30
0
 40
2.55459
100
AcDbArc
 50
-90
 51
-78.1958
  0
SPLINE
  5
AA0
330
A02
100
AcDbEntity
  8
Shape2DView
100
AcDbSpline
210
0
220
0
230
1
 70
8
 71
2
 72
6
 73
3
 74
0
 40
0
 40
0
 40
0
 40
0.0137194
 40
0.0137194
 40
0.0137194
 10
327.758
 20
-59.1006
 30
0
 10
327.877
 20
-59.1977
 30
0
 10
327.997
 20
-59.2881
 30
0
  0
ARC
  5
AA1
330
A02
100
AcDbEntity
  8
Shape2DView
100
AcDbCircle
 10
327.235
 20
-56.6
 30
0
 40
2.794
100
AcDbArc
 50
-74.1734
 51
-15.8266
  0
SPLINE
  5
AA2
330
A02
100
AcDbEntity
  8
Shape2DView
100
AcDbSpline
210
0
220
0
230
1
 70
8
 71
2
 72
6
 73
3
 74
0
 40
0
 40
0
 40
0
 40
0.0137194
 40
0.0137194
 40
0.0137194
 10
329.736
 20
-57.1226
 30
0
 10
329.833
 20
-57.2423
 30
0
 10
329.923
 20
-57.362
 30
0
  0
ARC
  5
AA3
330
A02
100
AcDbEntity
  8
Shape2DView
100
AcDbCircle
 10
327.235
 20
-56.6
 30
0
 40
2.55459
100
AcDbArc
 50
-11.8042
 51
11.8042
  0
SPLINE
  5
AA4
330
A02
100
AcDbEntity
  8
Shape2DView
100
AcDbSpline
210
0
220
0
230
1
 70
8
 71
2
 72
6
 73
3
 74
0
 40
0
 40
0
 40
0
 40
0.0137194
 40
0.0137194
 40
0.0137194
 10
329.736
 20
-56.0774
 30
0
 10
329.833
 20
-55.9577
 30
0
 10
329.923
 20
-55.838
 30
0
  0
ARC
  5
AA5
330
A02
100
AcDbEntity
  8
Shape2DView
100
AcDbCircle
 10
327.235
 20
-56.6
 30
0
 40
2.794
100
AcDbArc
 50
15.8266
 51
74.1734
  0
SPLINE
  5
AA6
330
A02
100
AcDbEntity
  8
Shape2DView
100
AcDbSpline
210
0
220
0
230
1
 70
8
 71
2
 72
6
 73
3
 74
0
 40
0
 40
0
 40
0
 40
0.0137194
 40
0.0137194
 40
0.0137194
 10
327.758
 20
-54.0994
 30
0
 10
327.877
 20
-54.0023
 30
0
 10
327.997
 20
-53.9119
 30
0
  0
ARC
  5
AA7
330
A02
100
AcDbEntity
  8
Shape2DView
100
AcDbCircle
 10
327.235
 20
-56.6
 30
0
 40
2.55459
100
AcDbArc
 50
78.1958
 51
90
  0
ARC
  5
AA8
330
A02
100
AcDbEntity
  8
Shape2DView
100
AcDbCircle
 10
327.235
 20
-183.6
 30
0
 40
2.47035
100
AcDbArc
 50
-90
 51
90
  0
ARC
  5
AA9
330
A02
100
AcDbEntity
  8
Shape2DView
100
AcDbCircle
 10
327.235
 20
-183.6
 30
0
 40
2.55459
100
AcDbArc
 50
-90
 51
-78.1958
  0
SPLINE
  5
AAA
330
A02
100
AcDbEntity
  8
Shape2DView
100
AcDbSpline
210
0
220
0
230
1
 70
8
 71
2
 72
6
 73
3
 74
0
 40
0
 40
0
 40
0
 40
0.0137194
 40
0.0137194
 40
0.0137194
 10
327.758
 20
-186.101
 30
0
 10
327.877
 20
-186.198
 30
0
 10
327.997
 20
-186.288
 30
0
  0
ARC
  5
AAB
330
A02
100
AcDbEntity
  8
Shape2DView
100
AcDbCircle
 10
327.235
 20
-183.6
 30
0
 40
2.794
100
AcDbArc
 50
-74.1734
 51
-15.8266
  0
SPLINE
  5
AAC
330
A02
100
AcDbEntity
  8
Shape2DView
100
AcDbSpline
210
0
220
0
230
1
 70
8
 71
2
 72
6
 73
3
 74
0
 40
0
 40
0
 40
0
 40
0.0137194
 40
0.0137194
 40
0.0137194
 10
329.736
 20
-184.123
 30
0
 10
329.833
 20
-184.242
 30
0
 10
329.923
 20
-184.362
 30
0
  0
ARC
  5
AAD
330
A02
100
AcDbEntity
  8
Shape2DView
100
AcDbCircle
 10
327.235
 20
-183.6
 30
0
 40
2.55459
100
AcDbArc
 50
-11.8042
 51
11.8042
  0
SPLINE
  5
AAE
330
A02
100
AcDbEntity
  8
Shape2DView
100
AcDbSpline
210
0
220
0
230
1
 70
8
 71
2
 72
6
 73
3
 74
0
 40
0
 40
0
 40
0
 40
0.0137194
 40
0.0137194
 40
0.0137194
 10
329.736
 20
-183.077
 30
0
 10
329.833
 20
-182.958
 30
0
 10
329.923
 20
-182.838
 30
0
  0
ARC
  5
AAF
330
A02
100
AcDbEntity
  8
Shape2DView
100
AcDbCircle
 10
327.235
 20
-183.6
 30
0
 40
2.794
100
AcDbArc
 50
15.8266
 51
74.1734
  0
SPLINE
  5
AB0
330
A02
100
AcDbEntity
  8
Shape2DView
100
AcDbSpline
210
0
220
0
230
1
 70
8
 71
2
 72
6
 73
3
 74
0
 40
0
 40
0
 40
0
 40
0.0137194
 40
0.0137194
 40
0.0137194
 10
327.758
 20
-181.099
 30
0
 10
327.877
 20
-181.002
 30
0
 10
327.997
 20
-180.912
 30
0
  0
ARC
  5
AB1
330
A02
100
AcDbEntity
  8
Shape2DView
100
AcDbCircle
 10
327.235
 20
-183.6
 30
0
 40
2.55459
100
AcDbArc
 50
78.1958
 51
90
  0
ARC
  5
AB2
330
A02
100
AcDbEntity
  8
Shape2DView
100
AcDbCircle
 10
104.223
 20
-183.6
 30
0
 40
2.47035
100
AcDbArc
 50
-90
 51
90
  0
ARC
  5
AB3
330
A02
100
AcDbEntity
  8
Shape2DView
100
AcDbCircle
 10
104.223
 20
-183.6
 30
0
 40
2.55459
100
AcDbArc
 50
-90
 51
-78.1958
  0
SPLINE
  5
AB4
330
A02
100
AcDbEntity
  8
Shape2DView
100
AcDbSpline
210
0
220
0
230
1
 70
8
 71
2
 72
6
 73
3
 74
0
 40
0
 40
0
 40
0
 40
0.0137194
 40
0.0137194
 40
0.0137194
 10
104.746
 20
-186.101
 30
0
 10
104.865
 20
-186.198
 30
0
 10
104.985
 20
-186.288
 30
0
  0
ARC
  5
AB5
330
A02
100
AcDbEntity
  8
Shape2DView
100
AcDbCircle
 10
104.223
 20
-183.6
 30
0
 40
2.794
100
AcDbArc
 50
-74.1734
 51
-15.8266
  0
SPLINE
  5
AB6
330
A02
100
AcDbEntity
  8
Shape2DView
100
AcDbSpline
210
0
220
0
230
1
 70
8
 71
2
 72
6
 73
3
 74
0
 40
0
 40
0
 40
0
 40
0.0137194
 40
0.0137194
 40
0.0137194
 10
106.724
 20
-184.123
 30
0
 10
106.821
 20
-184.242
 30
0
 10
106.911
 20
-184.362
 30
0
  0
ARC
  5
AB7
330
A02
100
AcDbEntity
  8
Shape2DView
100
AcDbCircle
 10
104.223
 20
-183.6
 30
0
 40
2.55459
100
AcDbArc
 50
-11.8042
 51
11.8042
  0
SPLINE
  5
AB8
330
A02
100
AcDbEntity
  8
Shape2DView
100
AcDbSpline
210
0
220
0
230
1
 70
8
 71
2
 72
6
 73
3
 74
0
 40
0
 40
0
 40
0
 40
0.0137194
 40
0.0137194
 40
0.0137194
 10
106.724
 20
-183.077
 30
0
 10
106.821
 20
-182.958
 30
0
 10
106.911
 20
-182.838
 30
0
  0
ARC
  5
AB9
330
A02
100
AcDbEntity
  8
Shape2DView
100
AcDbCircle
 10
104.223
 20
-183.6
 30
0
 40
2.794
100
AcDbArc
 50
15.8266
 51
74.1734
  0
SPLINE
  5
ABA
330
A02
100
AcDbEntity
  8
Shape2DView
100
AcDbSpline
210
0
220
0
230
1
 70
8
 71
2
 72
6
 73
3
 74
0
 40
0
 40
0
 40
0
 40
0.0137194
 40
0.0137194
 40
0.0137194
 10
104.746
 20
-181.099
 30
0
 10
104.865
 20
-181.002
 30
0
 10
104.985
 20
-180.912
 30
0
  0
ARC
  5
ABB
330
A02
100
AcDbEntity
  8
Shape2DView
100
AcDbCircle
 10
104.223
 20
-183.6
 30
0
 40
2.55459
100
AcDbArc
 50
78.1958
 51
90
  0
ARC
  5
ABC
330
A02
100
AcDbEntity
  8
Shape2DView
100
AcDbCircle
 10
24.599
 20
-56.3841
 30
0
 40
1.0795
100
AcDbArc
 50
-90
 51
90
  0
ARC
  5
ABD
330
A02
100
AcDbEntity
  8
Shape2DView
100
AcDbCircle
 10
152.031
 20
-56.3841
 30
0
 40
1.0795
100
AcDbArc
 50
-90
 51
90
  0
ARC
  5
ABE
330
A02
100
AcDbEntity
  8
Shape2DView
100
AcDbCircle
 10
279.463
 20
-56.3841
 30
0
 40
1.0795
100
AcDbArc
 50
-90
 51
90
  0
ARC
  5
ABF
330
A02
100
AcDbEntity
  8
Shape2DView
100
AcDbCircle
 10
406.894
 20
-56.3841
 30
0
 40
1.0795
100
AcDbArc
 50
-90
 51
90
  0
ARC
  5
AC0
330
A02
100
AcDbEntity
  8
Shape2DView
100
AcDbCircle
 10
24.599
 20
-183.816
 30
0
 40
1.0795
100
AcDbArc
 50
-90
 51
90
  0
ARC
  5
AC1
330
A02
100
AcDbEntity
  8
Shape2DView
100
AcDbCircle
 10
152.031
 20
-183.816
 30
0
 40
1.0795
100
AcDbArc
 50
-90
 51
90
  0
ARC
  5
AC2
330
A02
100
AcDbEntity
  8
Shape2DView
100
AcDbCircle
 10
279.463
 20
-183.816
 30
0
 40
1.0795
100
AcDbArc
 50
-90
 51
90
  0
ARC
  5
AC3
330
A02
100
AcDbEntity
  8
Shape2DView
100
AcDbCircle
 10
406.894
 20
-183.816
 30
0
 40
1.0795
100
AcDbArc
 50
-90
 51
90
  0
ARC
  5
AC4
330
A02
100
AcDbEntity
  8
Shape2DView
100
AcDbCircle
 10
24.599
 20
-183.816
 30
0
 40
3.27061
100
AcDbArc
 50
90
 51
-90
  0
ARC
  5
AC5
330
A02
100
AcDbEntity
  8
Shape2DView
100
AcDbCircle
 10
24.599
 20
-183.816
 30
0
 40
3.6195
100
AcDbArc
 50
90
 51
-90
  0
ARC
  5
AC6
330
A02
100
AcDbEntity
  8
Shape2DView
100
AcDbCircle
 10
24.599
 20
-56.3841
 30
0
 40
3.27061
100
AcDbArc
 50
90
 51
-90
  0
ARC
  5
AC7
330
A02
100
AcDbEntity
  8
Shape2DView
100
AcDbCircle
 10
24.599
 20
-56.3841
 30
0
 40
3.6195
100
AcDbArc
 50
90
 51
-90
  0
ARC
  5
AC8
330
A02
100
AcDbEntity
  8
Shape2DView
100
AcDbCircle
 10
152.031
 20
-56.3841
 30
0
 40
3.27061
100
AcDbArc
 50
90
 51
-90
  0
ARC
  5
AC9
330
A02
100
AcDbEntity
  8
Shape2DView
100
AcDbCircle
 10
152.031
 20
-56.3841
 30
0
 40
3.6195
100
AcDbArc
 50
90
 51
-90
  0
ARC
  5
ACA
330
A02
100
AcDbEntity
  8
Shape2DView
100
AcDbCircle
 10
152.031
 20
-183.816
 30
0
 40
3.27061
100
AcDbArc
 50
90
 51
-90
  0
ARC
  5
ACB
330
A02
100
AcDbEntity
  8
Shape2DView
100
AcDbCircle
 10
152.031
 20
-183.816
 30
0
 40
3.6195
100
AcDbArc
 50
90
 51
-90
  0
ARC
  5
ACC
330
A02
100
AcDbEntity
  8
Shape2DView
100
AcDbCircle
 10
279.463
 20
-183.816
 30
0
 40
3.27061
100
AcDbArc
 50
-90
 51
90
  0
ARC
  5
ACD
330
A02
100
AcDbEntity
  8
Shape2DView
100
AcDbCircle
 10
279.463
 20
-183.816
 30
0
 40
3.6195
100
AcDbArc
 50
-90
 51
90
  0
ARC
  5
ACE
330
A02
100
AcDbEntity
  8
Shape2DView
100
AcDbCircle
 10
279.463
 20
-56.3841
 30
0
 40
3.27061
100
AcDbArc
 50
-90
 51
90
  0
ARC
  5
ACF
330
A02
100
AcDbEntity
  8
Shape2DView
100
AcDbCircle
 10
279.463
 20
-56.3841
 30
0
 40
3.6195
100
AcDbArc
 50
-90
 51
90
  0
ARC
  5
AD0
330
A02
100
AcDbEntity
  8
Shape2DView
100
AcDbCircle
 10
406.894
 20
-56.3841
 30
0
 40
3.27061
100
AcDbArc
 50
-90
 51
90
  0
ARC
  5
AD1
330
A02
100
AcDbEntity
  8
Shape2DView
100
AcDbCircle
 10
406.894
 20
-56.3841
 30
0
 40
3.6195
100
AcDbArc
 50
-90
 51
90
  0
ARC
  5
AD2
330
A02
100
AcDbEntity
  8
Shape2DView
100
AcDbCircle
 10
406.894
 20
-183.816
 30
0
 40
3.27061
100
AcDbArc
 50
-90
 51
90
  0
ARC
  5
AD3
330
A02
100
AcDbEntity
  8
Shape2DView
100
AcDbCircle
 10
406.894
 20
-183.816
 30
0
 40
3.6195
100
AcDbArc
 50
-90
 51
90
  0
ARC
  5
AD4
330
A02
100
AcDbEntity
  8
Shape2DView
100
AcDbCircle
 10
104.223
 20
-56.6
 30
0
 40
2.55459
100
AcDbArc
 50
168.196
 51
-168.196
  0
LINE
  5
AD5
330
A02
100
AcDbEntity
  8
Shape2DView
100
AcDbLine
 10
101.722
 20
-56.0774
 30
0
 11
100.144
 21
-56.0774
 31
0
  0
LINE
  5
AD6
330
A02
100
AcDbEntity
  8
Shape2DView
100
AcDbLine
 10
100.144
 20
-56.0774
 30
0
 11
100.144
 21
-57.1226
 31
0
  0
LINE
  5
AD7
330
A02
100
AcDbEntity
  8
Shape2DView
100
AcDbLine
 10
100.144
 20
-57.1226
 30
0
 11
101.722
 21
-57.1226
 31
0
  0
ARC
  5
AD8
330
A02
100
AcDbEntity
  8
Shape2DView
100
AcDbCircle
 10
104.223
 20
-56.6
 30
0
 40
2.55459
100
AcDbArc
 50
-101.804
 51
-90
  0
LINE
  5
AD9
330
A02
100
AcDbEntity
  8
Shape2DView
100
AcDbLine
 10
103.7
 20
-59.1006
 30
0
 11
103.7
 21
-60.6786
 31
0
  0
LINE
  5
ADA
330
A02
100
AcDbEntity
  8
Shape2DView
100
AcDbLine
 10
103.7
 20
-60.6786
 30
0
 11
104.746
 21
-60.6786
 31
0
  0
LINE
  5
ADB
330
A02
100
AcDbEntity
  8
Shape2DView
100
AcDbLine
 10
104.746
 20
-60.6786
 30
0
 11
104.746
 21
-59.1006
 31
0
  0
LINE
  5
ADC
330
A02
100
AcDbEntity
  8
Shape2DView
100
AcDbLine
 10
106.724
 20
-57.1226
 30
0
 11
108.302
 21
-57.1226
 31
0
  0
LINE
  5
ADD
330
A02
100
AcDbEntity
  8
Shape2DView
100
AcDbLine
 10
108.302
 20
-57.1226
 30
0
 11
108.302
 21
-56.0774
 31
0
  0
LINE
  5
ADE
330
A02
100
AcDbEntity
  8
Shape2DView
100
AcDbLine
 10
108.302
 20
-56.0774
 30
0
 11
106.724
 21
-56.0774
 31
0
  0
ARC
  5
ADF
330
A02
100
AcDbEntity
  8
Shape2DView
100
AcDbCircle
 10
327.235
 20
-56.6
 30
0
 40
2.55459
100
AcDbArc
 50
168.196
 51
-168.196
  0
LINE
  5
AE0
330
A02
100
AcDbEntity
  8
Shape2DView
100
AcDbLine
 10
324.734
 20
-56.0774
 30
0
 11
323.156
 21
-56.0774
 31
0
  0
LINE
  5
AE1
330
A02
100
AcDbEntity
  8
Shape2DView
100
AcDbLine
 10
323.156
 20
-56.0774
 30
0
 11
323.156
 21
-57.1226
 31
0
  0
LINE
  5
AE2
330
A02
100
AcDbEntity
  8
Shape2DView
100
AcDbLine
 10
323.156
 20
-57.1226
 30
0
 11
324.734
 21
-57.1226
 31
0
  0
ARC
  5
AE3
330
A02
100
AcDbEntity
  8
Shape2DView
100
AcDbCircle
 10
327.235
 20
-56.6
 30
0
 40
2.55459
100
AcDbArc
 50
-101.804
 51
-90
  0
LINE
  5
AE4
330
A02
100
AcDbEntity
  8
Shape2DView
100
AcDbLine
 10
326.712
 20
-59.1006
 30
0
 11
326.712
 21
-60.6786
 31
0
  0
LINE
  5
AE5
330
A02
100
AcDbEntity
  8
Shape2DView
100
AcDbLine
 10
326.712
 20
-60.6786
 30
0
 11
327.758
 21
-60.6786
 31
0
  0
LINE
  5
AE6
330
A02
100
AcDbEntity
  8
Shape2DView
100
AcDbLine
 10
327.758
 20
-60.6786
 30
0
 11
327.758
 21
-59.1006
 31
0
  0
LINE
  5
AE7
330
A02
100
AcDbEntity
  8
Shape2DView
100
AcDbLine
 10
329.736
 20
-57.1226
 30
0
 11
331.314
 21
-57.1226
 31
0
  0
LINE
  5
AE8
330
A02
100
AcDbEntity
  8
Shape2DView
100
AcDbLine
 10
331.314
 20
-57.1226
 30
0
 11
331.314
 21
-56.0774
 31
0
  0
LINE
  5
AE9
330
A02
100
AcDbEntity
  8
Shape2DView
100
AcDbLine
 10
331.314
 20
-56.0774
 30
0
 11
329.736
 21
-56.0774
 31
0
  0
ARC
  5
AEA
330
A02
100
AcDbEntity
  8
Shape2DView
100
AcDbCircle
 10
104.223
 20
-183.6
 30
0
 40
2.55459
100
AcDbArc
 50
168.196
 51
-168.196
  0
LINE
  5
AEB
330
A02
100
AcDbEntity
  8
Shape2DView
100
AcDbLine
 10
101.722
 20
-183.077
 30
0
 11
100.144
 21
-183.077
 31
0
  0
LINE
  5
AEC
330
A02
100
AcDbEntity
  8
Shape2DView
100
AcDbLine
 10
100.144
 20
-183.077
 30
0
 11
100.144
 21
-184.123
 31
0
  0
LINE
  5
AED
330
A02
100
AcDbEntity
  8
Shape2DView
100
AcDbLine
 10
100.144
 20
-184.123
 30
0
 11
101.722
 21
-184.123
 31
0
  0
ARC
  5
AEE
330
A02
100
AcDbEntity
  8
Shape2DView
100
AcDbCircle
 10
104.223
 20
-183.6
 30
0
 40
2.55459
100
AcDbArc
 50
-101.804
 51
-90
  0
LINE
  5
AEF
330
A02
100
AcDbEntity
  8
Shape2DView
100
AcDbLine
 10
103.7
 20
-186.101
 30
0
 11
103.7
 21
-187.679
 31
0
  0
LINE
  5
AF0
330
A02
100
AcDbEntity
  8
Shape2DView
100
AcDbLine
 10
103.7
 20
-187.679
 30
0
 11
104.746
 21
-187.679
 31
0
  0
LINE
  5
AF1
330
A02
100
AcDbEntity
  8
Shape2DView
100
AcDbLine
 10
104.746
 20
-187.679
 30
0
 11
104.746
 21
-186.101
 31
0
  0
LINE
  5
AF2
330
A02
100
AcDbEntity
  8
Shape2DView
100
AcDbLine
 10
106.724
 20
-184.123
 30
0
 11
108.302
 21
-184.123
 31
0
  0
LINE
  5
AF3
330
A02
100
AcDbEntity
  8
Shape2DView
100
AcDbLine
 10
108.302
 20
-184.123
 30
0
 11
108.302
 21
-183.077
 31
0
  0
LINE
  5
AF4
330
A02
100
AcDbEntity
  8
Shape2DView
100
AcDbLine
 10
108.302
 20
-183.077
 30
0
 11
106.724
 21
-183.077
 31
0
  0
ARC
  5
AF5
330
A02
100
AcDbEntity
  8
Shape2DView
100
AcDbCircle
 10
327.235
 20
-183.6
 30
0
 40
2.55459
100
AcDbArc
 50
168.196
 51
-168.196
  0
LINE
  5
AF6
330
A02
100
AcDbEntity
  8
Shape2DView
100
AcDbLine
 10
324.734
 20
-183.077
 30
0
 11
323.156
 21
-183.077
 31
0
  0
LINE
  5
AF7
330
A02
100
AcDbEntity
  8
Shape2DView
100
AcDbLine
 10
323.156
 20
-183.077
 30
0
 11
323.156
 21
-184.123
 31
0
  0
LINE
  5
AF8
330
A02
100
AcDbEntity
  8
Shape2DView
100
AcDbLine
 10
323.156
 20
-184.123
 30
0
 11
324.734
 21
-184.123
 31
0
  0
ARC
  5
AF9
330
A02
100
AcDbEntity
  8
Shape2DView
100
AcDbCircle
 10
327.235
 20
-183.6
 30
0
 40
2.55459
100
AcDbArc
 50
-101.804
 51
-90
  0
LINE
  5
AFA
330
A02
100
AcDbEntity
  8
Shape2DView
100
AcDbLine
 10
326.712
 20
-186.101
 30
0
 11
326.712
 21
-187.679
 31
0
  0
LINE
  5
AFB
330
A02
100
AcDbEntity
  8
Shape2DView
100
AcDbLine
 10
326.712
 20
-187.679
 30
0
 11
327.758
 21
-187.679
 31
0
  0
LINE
  5
AFC
330
A02
100
AcDbEntity
  8
Shape2DView
100
AcDbLine
 10
327.758
 20
-187.679
 30
0
 11
327.758
 21
-186.101
 31
0
  0
LINE
  5
AFD
330
A02
100
AcDbEntity
  8
Shape2DView
100
AcDbLine
 10
329.736
 20
-184.123
 30
0
 11
331.314
 21
-184.123
 31
0
  0
LINE
  5
AFE
330
A02
100
AcDbEntity
  8
Shape2DView
100
AcDbLine
 10
331.314
 20
-184.123
 30
0
 11
331.314
 21
-183.077
 31
0
  0
LINE
  5
AFF
330
A02
100
AcDbEntity
  8
Shape2DView
100
AcDbLine
 10
331.314
 20
-183.077
 30
0
 11
329.736
 21
-183.077
 31
0
  0
LINE
  5
B00
330
A02
100
AcDbEntity
  8
Shape2DView
100
AcDbLine
 10
331.553
 20
-57.362
 30
0
 11
331.553
 21
-55.838
 31
0
  0
LINE
  5
B01
330
A02
100
AcDbEntity
  8
Shape2DView
100
AcDbLine
 10
329.923
 20
-57.362
 30
0
 11
331.553
 21
-57.362
 31
0
  0
LINE
  5
B02
330
A02
100
AcDbEntity
  8
Shape2DView
100
AcDbLine
 10
327.997
 20
-60.918
 30
0
 11
327.997
 21
-59.2881
 31
0
  0
LINE
  5
B03
330
A02
100
AcDbEntity
  8
Shape2DView
100
AcDbLine
 10
326.473
 20
-60.918
 30
0
 11
327.997
 21
-60.918
 31
0
  0
LINE
  5
B04
330
A02
100
AcDbEntity
  8
Shape2DView
100
AcDbLine
 10
326.473
 20
-59.2881
 30
0
 11
326.473
 21
-60.918
 31
0
  0
ARC
  5
B05
330
A02
100
AcDbEntity
  8
Shape2DView
100
AcDbCircle
 10
327.235
 20
-56.6
 30
0
 40
2.794
100
AcDbArc
 50
-164.173
 51
-105.827
  0
LINE
  5
B06
330
A02
100
AcDbEntity
  8
Shape2DView
100
AcDbLine
 10
322.917
 20
-57.362
 30
0
 11
324.547
 21
-57.362
 31
0
  0
LINE
  5
B07
330
A02
100
AcDbEntity
  8
Shape2DView
100
AcDbLine
 10
322.917
 20
-55.838
 30
0
 11
322.917
 21
-57.362
 31
0
  0
LINE
  5
B08
330
A02
100
AcDbEntity
  8
Shape2DView
100
AcDbLine
 10
324.547
 20
-55.838
 30
0
 11
322.917
 21
-55.838
 31
0
  0
ARC
  5
B09
330
A02
100
AcDbEntity
  8
Shape2DView
100
AcDbCircle
 10
327.235
 20
-56.6
 30
0
 40
2.794
100
AcDbArc
 50
105.827
 51
164.173
  0
LINE
  5
B0A
330
A02
100
AcDbEntity
  8
Shape2DView
100
AcDbLine
 10
326.473
 20
-52.282
 30
0
 11
326.473
 21
-53.9119
 31
0
  0
LINE
  5
B0B
330
A02
100
AcDbEntity
  8
Shape2DView
100
AcDbLine
 10
327.997
 20
-52.282
 30
0
 11
326.473
 21
-52.282
 31
0
  0
LINE
  5
B0C
330
A02
100
AcDbEntity
  8
Shape2DView
100
AcDbLine
 10
327.997
 20
-53.9119
 30
0
 11
327.997
 21
-52.282
 31
0
  0
LINE
  5
B0D
330
A02
100
AcDbEntity
  8
Shape2DView
100
AcDbLine
 10
331.553
 20
-55.838
 30
0
 11
329.923
 21
-55.838
 31
0
  0
LINE
  5
B0E
330
A02
100
AcDbEntity
  8
Shape2DView
100
AcDbLine
 10
108.541
 20
-184.362
 30
0
 11
108.541
 21
-182.838
 31
0
  0
LINE
  5
B0F
330
A02
100
AcDbEntity
  8
Shape2DView
100
AcDbLine
 10
106.911
 20
-184.362
 30
0
 11
108.541
 21
-184.362
 31
0
  0
LINE
  5
B10
330
A02
100
AcDbEntity
  8
Shape2DView
100
AcDbLine
 10
104.985
 20
-187.918
 30
0
 11
104.985
 21
-186.288
 31
0
  0
LINE
  5
B11
330
A02
100
AcDbEntity
  8
Shape2DView
100
AcDbLine
 10
103.461
 20
-187.918
 30
0
 11
104.985
 21
-187.918
 31
0
  0
LINE
  5
B12
330
A02
100
AcDbEntity
  8
Shape2DView
100
AcDbLine
 10
103.461
 20
-186.288
 30
0
 11
103.461
 21
-187.918
 31
0
  0
ARC
  5
B13
330
A02
100
AcDbEntity
  8
Shape2DView
100
AcDbCircle
 10
104.223
 20
-183.6
 30
0
 40
2.794
100
AcDbArc
 50
-164.173
 51
-105.827
  0
LINE
  5
B14
330
A02
100
AcDbEntity
  8
Shape2DView
100
AcDbLine
 10
99.9049
 20
-184.362
 30
0
 11
101.535
 21
-184.362
 31
0
  0
LINE
  5
B15
330
A02
100
AcDbEntity
  8
Shape2DView
100
AcDbLine
 10
99.9049
 20
-182.838
 30
0
 11
99.9049
 21
-184.362
 31
0
  0
LINE
  5
B16
330
A02
100
AcDbEntity
  8
Shape2DView
100
AcDbLine
 10
101.535
 20
-182.838
 30
0
 11
99.9049
 21
-182.838
 31
0
  0
ARC
  5
B17
330
A02
100
AcDbEntity
  8
Shape2DView
100
AcDbCircle
 10
104.223
 20
-183.6
 30
0
 40
2.794
100
AcDbArc
 50
105.827
 51
164.173
  0
LINE
  5
B18
330
A02
100
AcDbEntity
  8
Shape2DView
100
AcDbLine
 10
103.461
 20
-179.282
 30
0
 11
103.461
 21
-180.912
 31
0
  0
LINE
  5
B19
330
A02
100
AcDbEntity
  8
Shape2DView
100
AcDbLine
 10
104.985
 20
-179.282
 30
0
 11
103.461
 21
-179.282
 31
0
  0
LINE
  5
B1A
330
A02
100
AcDbEntity
  8
Shape2DView
100
AcDbLine
 10
104.985
 20
-180.912
 30
0
 11
104.985
 21
-179.282
 31
0
  0
LINE
  5
B1B
330
A02
100
AcDbEntity
  8
Shape2DView
100
AcDbLine
 10
108.541
 20
-182.838
 30
0
 11
106.911
 21
-182.838
 31
0
  0
ARC
  5
B1C
330
A02
100
AcDbEntity
  8
Shape2DView
100
AcDbCircle
 10
24.599
 20
-56.3841
 30
0
 40
3.6195
100
AcDbArc
 50
-90
 51
90
  0
ARC
  5
B1D
330
A02
100
AcDbEntity
  8
Shape2DView
100
AcDbCircle
 10
152.031
 20
-183.816
 30
0
 40
3.6195
100
AcDbArc
 50
-90
 51
90
  0
ARC
  5
B1E
330
A02
100
AcDbEntity
  8
Shape2DView
100
AcDbCircle
 10
279.463
 20
-56.3841
 30
0
 40
3.6195
100
AcDbArc
 50
90
 51
-90
  0
ARC
  5
B1F
330
A02
100
AcDbEntity
  8
Shape2DView
100
AcDbCircle
 10
406.894
 20
-183.816
 30
0
 40
3.6195
100
AcDbArc
 50
90
 51
-90
  0
LINE
  5
B20
330
A02
100
AcDbEntity
  8
Shape2DView
100
AcDbLine
 10
3.78369
 20
-217.636
 30
0
 11
427.71
 21
-217.636
 31
0
  0
LINE
  5
B21
330
A02
100
AcDbEntity
  8
Shape2DView
100
AcDbLine
 10
416.66
 20
-182.622
 30
0
 11
427.71
 21
-182.622
 31
0
  0
LINE
  5
B22
330
A02
100
AcDbEntity
  8
Shape2DView
100
AcDbLine
 10
416.66
 20
-178.685
 30
0
 11
416.66
 21
-182.622
 31
0
  0
LINE
  5
B23
330
A02
100
AcDbEntity
  8
Shape2DView
100
AcDbLine
 10
427.71
 20
-178.685
 30
0
 11
416.66
 21
-178.685
 31
0
  0
LINE
  5
B24
330
A02
100
AcDbEntity
  8
Shape2DView
100
AcDbLine
 10
416.66
 20
-175.053
 30
0
 11
427.71
 21
-175.053
 31
0
  0
LINE
  5
B25
330
A02
100
AcDbEntity
  8
Shape2DView
100
AcDbLine
 10
416.66
 20
-171.116
 30
0
 11
416.66
 21
-175.053
 31
0
  0
LINE
  5
B26
330
A02
100
AcDbEntity
  8
Shape2DView
100
AcDbLine
 10
427.71
 20
-171.116
 30
0
 11
416.66
 21
-171.116
 31
0
  0
LINE
  5
B27
330
A02
100
AcDbEntity
  8
Shape2DView
100
AcDbLine
 10
416.66
 20
-167.484
 30
0
 11
427.71
 21
-167.484
 31
0
  0
LINE
  5
B28
330
A02
100
AcDbEntity
  8
Shape2DView
100
AcDbLine
 10
416.66
 20
-163.547
 30
0
 11
416.66
 21
-167.484
 31
0
  0
LINE
  5
B29
330
A02
100
AcDbEntity
  8
Shape2DView
100
AcDbLine
 10
427.71
 20
-163.547
 30
0
 11
416.66
 21
-163.547
 31
0
  0
LINE
  5
B2A
330
A02
100
AcDbEntity
  8
Shape2DView
100
AcDbLine
 10
416.66
 20
-159.914
 30
0
 11
427.71
 21
-159.914
 31
0
  0
LINE
  5
B2B
330
A02
100
AcDbEntity
  8
Shape2DView
100
AcDbLine
 10
416.66
 20
-155.977
 30
0
 11
416.66
 21
-159.914
 31
0
  0
LINE
  5
B2C
330
A02
100
AcDbEntity
  8
Shape2DView
100
AcDbLine
 10
427.71
 20
-155.977
 30
0
 11
416.66
 21
-155.977
 31
0
  0
LINE
  5
B2D
330
A02
100
AcDbEntity
  8
Shape2DView
100
AcDbLine
 10
416.66
 20
-152.345
 30
0
 11
427.71
 21
-152.345
 31
0
  0
LINE
  5
B2E
330
A02
100
AcDbEntity
  8
Shape2DView
100
AcDbLine
 10
416.66
 20
-148.408
 30
0
 11
416.66
 21
-152.345
 31
0
  0
LINE
  5
B2F
330
A02
100
AcDbEntity
  8
Shape2DView
100
AcDbLine
 10
427.71
 20
-148.408
 30
0
 11
416.66
 21
-148.408
 31
0
  0
LINE
  5
B30
330
A02
100
AcDbEntity
  8
Shape2DView
100
AcDbLine
 10
416.66
 20
-144.776
 30
0
 11
427.71
 21
-144.776
 31
0
  0
LINE
  5
B31
330
A02
100
AcDbEntity
  8
Shape2DView
100
AcDbLine
 10
416.66
 20
-140.839
 30
0
 11
416.66
 21
-144.776
 31
0
  0
LINE
  5
B32
330
A02
100
AcDbEntity
  8
Shape2DView
100
AcDbLine
 10
427.71
 20
-140.839
 30
0
 11
416.66
 21
-140.839
 31
0
  0
LINE
  5
B33
330
A02
100
AcDbEntity
  8
Shape2DView
100
AcDbLine
 10
416.66
 20
-137.207
 30
0
 11
427.71
 21
-137.207
 31
0
  0
LINE
  5
B34
330
A02
100
AcDbEntity
  8
Shape2DView
100
AcDbLine
 10
416.66
 20
-133.27
 30
0
 11
416.66
 21
-137.207
 31
0
  0
LINE
  5
B35
330
A02
100
AcDbEntity
  8
Shape2DView
100
AcDbLine
 10
427.71
 20
-133.27
 30
0
 11
416.66
 21
-133.27
 31
0
  0
LINE
  5
B36
330
A02
100
AcDbEntity
  8
Shape2DView
100
AcDbLine
 10
416.66
 20
-129.638
 30
0
 11
427.71
 21
-129.638
 31
0
  0
LINE
  5
B37
330
A02
100
AcDbEntity
  8
Shape2DView
100
AcDbLine
 10
416.66
 20
-125.701
 30
0
 11
416.66
 21
-129.638
 31
0
  0
LINE
  5
B38
330
A02
100
AcDbEntity
  8
Shape2DView
100
AcDbLine
 10
427.71
 20
-125.701
 30
0
 11
416.66
 21
-125.701
 31
0
  0
LINE
  5
B39
330
A02
100
AcDbEntity
  8
Shape2DView
100
AcDbLine
 10
416.66
 20
-122.068
 30
0
 11
427.71
 21
-122.068
 31
0
  0
LINE
  5
B3A
330
A02
100
AcDbEntity
  8
Shape2DView
100
AcDbLine
 10
416.66
 20
-118.132
 30
0
 11
416.66
 21
-122.068
 31
0
  0
LINE
  5
B3B
330
A02
100
AcDbEntity
  8
Shape2DView
100
AcDbLine
 10
427.71
 20
-118.131
 30
0
 11
416.66
 21
-118.131
 31
0
  0
LINE
  5
B3C
330
A02
100
AcDbEntity
  8
Shape2DView
100
AcDbLine
 10
416.66
 20
-114.499
 30
0
 11
427.71
 21
-114.499
 31
0
  0
LINE
  5
B3D
330
A02
100
AcDbEntity
  8
Shape2DView
100
AcDbLine
 10
416.66
 20
-110.562
 30
0
 11
416.66
 21
-114.499
 31
0
  0
LINE
  5
B3E
330
A02
100
AcDbEntity
  8
Shape2DView
100
AcDbLine
 10
427.71
 20
-110.562
 30
0
 11
416.66
 21
-110.562
 31
0
  0
LINE
  5
B3F
330
A02
100
AcDbEntity
  8
Shape2DView
100
AcDbLine
 10
416.66
 20
-106.93
 30
0
 11
427.71
 21
-106.93
 31
0
  0
LINE
  5
B40
330
A02
100
AcDbEntity
  8
Shape2DView
100
AcDbLine
 10
416.66
 20
-102.993
 30
0
 11
416.66
 21
-106.93
 31
0
  0
LINE
  5
B41
330
A02
100
AcDbEntity
  8
Shape2DView
100
AcDbLine
 10
427.71
 20
-102.993
 30
0
 11
416.66
 21
-102.993
 31
0
  0
LINE
  5
B42
330
A02
100
AcDbEntity
  8
Shape2DView
100
AcDbLine
 10
416.66
 20
-99.3609
 30
0
 11
427.71
 21
-99.3609
 31
0
  0
LINE
  5
B43
330
A02
100
AcDbEntity
  8
Shape2DView
100
AcDbLine
 10
416.66
 20
-95.4239
 30
0
 11
416.66
 21
-99.3609
 31
0
  0
LINE
  5
B44
330
A02
100
AcDbEntity
  8
Shape2DView
100
AcDbLine
 10
427.71
 20
-95.4239
 30
0
 11
416.66
 21
-95.4239
 31
0
  0
LINE
  5
B45
330
A02
100
AcDbEntity
  8
Shape2DView
100
AcDbLine
 10
416.66
 20
-91.7917
 30
0
 11
427.71
 21
-91.7917
 31
0
  0
LINE
  5
B46
330
A02
100
AcDbEntity
  8
Shape2DView
100
AcDbLine
 10
416.66
 20
-87.8547
 30
0
 11
416.66
 21
-91.7917
 31
0
  0
LINE
  5
B47
330
A02
100
AcDbEntity
  8
Shape2DView
100
AcDbLine
 10
427.71
 20
-87.8547
 30
0
 11
416.66
 21
-87.8547
 31
0
  0
LINE
  5
B48
330
A02
100
AcDbEntity
  8
Shape2DView
100
AcDbLine
 10
416.66
 20
-84.2225
 30
0
 11
427.71
 21
-84.2225
 31
0
  0
LINE
  5
B49
330
A02
100
AcDbEntity
  8
Shape2DView
100
AcDbLine
 10
416.66
 20
-80.2855
 30
0
 11
416.66
 21
-84.2225
 31
0
  0
LINE
  5
B4A
330
A02
100
AcDbEntity
  8
Shape2DView
100
AcDbLine
 10
427.71
 20
-80.2855
 30
0
 11
416.66
 21
-80.2855
 31
0
  0
LINE
  5
B4B
330
A02
100
AcDbEntity
  8
Shape2DView
100
AcDbLine
 10
416.66
 20
-76.6533
 30
0
 11
427.71
 21
-76.6533
 31
0
  0
LINE
  5
B4C
330
A02
100
AcDbEntity
  8
Shape2DView
100
AcDbLine
 10
416.66
 20
-72.7163
 30
0
 11
416.66
 21
-76.6533
 31
0
  0
LINE
  5
B4D
330
A02
100
AcDbEntity
  8
Shape2DView
100
AcDbLine
 10
427.71
 20
-72.7163
 30
0
 11
416.66
 21
-72.7163
 31
0
  0
LINE
  5
B4E
330
A02
100
AcDbEntity
  8
Shape2DView
100
AcDbLine
 10
416.66
 20
-69.0841
 30
0
 11
427.71
 21
-69.0841
 31
0
  0
LINE
  5
B4F
330
A02
100
AcDbEntity
  8
Shape2DView
100
AcDbLine
 10
416.66
 20
-65.1471
 30
0
 11
416.66
 21
-69.0841
 31
0
  0
LINE
  5
B50
330
A02
100
AcDbEntity
  8
Shape2DView
100
AcDbLine
 10
427.71
 20
-65.1471
 30
0
 11
416.66
 21
-65.1471
 31
0
  0
LINE
  5
B51
330
A02
100
AcDbEntity
  8
Shape2DView
100
AcDbLine
 10
416.66
 20
-61.5149
 30
0
 11
427.71
 21
-61.5149
 31
0
  0
LINE
  5
B52
330
A02
100
AcDbEntity
  8
Shape2DView
100
AcDbLine
 10
416.66
 20
-57.5779
 30
0
 11
416.66
 21
-61.5149
 31
0
  0
LINE
  5
B53
330
A02
100
AcDbEntity
  8
Shape2DView
100
AcDbLine
 10
427.71
 20
-57.5779
 30
0
 11
416.66
 21
-57.5779
 31
0
  0
LINE
  5
B54
330
A02
100
AcDbEntity
  8
Shape2DView
100
AcDbLine
 10
427.71
 20
-22.564
 30
0
 11
3.78369
 21
-22.564
 31
0
  0
LINE
  5
B55
330
A02
100
AcDbEntity
  8
Shape2DView
100
AcDbLine
 10
3.78369
 20
-57.5779
 30
0
 11
14.8335
 21
-57.5779
 31
0
  0
LINE
  5
B56
330
A02
100
AcDbEntity
  8
Shape2DView
100
AcDbLine
 10
14.8335
 20
-57.5779
 30
0
 11
14.8335
 21
-61.5149
 31
0
  0
LINE
  5
B57
330
A02
100
AcDbEntity
  8
Shape2DView
100
AcDbLine
 10
14.8335
 20
-61.5149
 30
0
 11
3.78369
 21
-61.5149
 31
0
  0
LINE
  5
B58
330
A02
100
AcDbEntity
  8
Shape2DView
100
AcDbLine
 10
3.78369
 20
-65.1471
 30
0
 11
14.8335
 21
-65.1471
 31
0
  0
LINE
  5
B59
330
A02
100
AcDbEntity
  8
Shape2DView
100
AcDbLine
 10
14.8335
 20
-65.1471
 30
0
 11
14.8335
 21
-69.0841
 31
0
  0
LINE
  5
B5A
330
A02
100
AcDbEntity
  8
Shape2DView
100
AcDbLine
 10
14.8335
 20
-69.0841
 30
0
 11
3.78369
 21
-69.0841
 31
0
  0
LINE
  5
B5B
330
A02
100
AcDbEntity
  8
Shape2DView
100
AcDbLine
 10
3.78369
 20
-72.7163
 30
0
 11
14.8335
 21
-72.7163
 31
0
  0
LINE
  5
B5C
330
A02
100
AcDbEntity
  8
Shape2DView
100
AcDbLine
 10
14.8335
 20
-72.7163
 30
0
 11
14.8335
 21
-76.6533
 31
0
  0
LINE
  5
B5D
330
A02
100
AcDbEntity
  8
Shape2DView
100
AcDbLine
 10
14.8335
 20
-76.6533
 30
0
 11
3.78369
 21
-76.6533
 31
0
  0
LINE
  5
B5E
330
A02
100
AcDbEntity
  8
Shape2DView
100
AcDbLine
 10
3.78369
 20
-80.2855
 30
0
 11
14.8335
 21
-80.2855
 31
0
  0
LINE
  5
B5F
330
A02
100
AcDbEntity
  8
Shape2DView
100
AcDbLine
 10
14.8335
 20
-80.2855
 30
0
 11
14.8335
 21
-84.2225
 31
0
  0
LINE
  5
B60
330
A02
100
AcDbEntity
  8
Shape2DView
100
AcDbLine
 10
14.8335
 20
-84.2225
 30
0
 11
3.78369
 21
-84.2225
 31
0
  0
LINE
  5
B61
330
A02
100
AcDbEntity
  8
Shape2DView
100
AcDbLine
 10
3.78369
 20
-87.8547
 30
0
 11
14.8335
 21
-87.8547
 31
0
  0
LINE
  5
B62
330
A02
100
AcDbEntity
  8
Shape2DView
100
AcDbLine
 10
14.8335
 20
-87.8547
 30
0
 11
14.8335
 21
-91.7917
 31
0
  0
LINE
  5
B63
330
A02
100
AcDbEntity
  8
Shape2DView
100
AcDbLine
 10
14.8335
 20
-91.7917
 30
0
 11
3.78369
 21
-91.7917
 31
0
  0
LINE
  5
B64
330
A02
100
AcDbEntity
  8
Shape2DView
100
AcDbLine
 10
3.78369
 20
-95.4239
 30
0
 11
14.8335
 21
-95.4239
 31
0
  0
LINE
  5
B65
330
A02
100
AcDbEntity
  8
Shape2DView
100
AcDbLine
 10
14.8335
 20
-95.4239
 30
0
 11
14.8335
 21
-99.3609
 31
0
  0
LINE
  5
B66
330
A02
100
AcDbEntity
  8
Shape2DView
100
AcDbLine
 10
14.8335
 20
-99.3609
 30
0
 11
3.78369
 21
-99.3609
 31
0
  0
LINE
  5
B67
330
A02
100
AcDbEntity
  8
Shape2DView
100
AcDbLine
 10
3.78369
 20
-102.993
 30
0
 11
14.8335
 21
-102.993
 31
0
  0
LINE
  5
B68
330
A02
100
AcDbEntity
  8
Shape2DView
100
AcDbLine
 10
14.8335
 20
-102.993
 30
0
 11
14.8335
 21
-106.93
 31
0
  0
LINE
  5
B69
330
A02
100
AcDbEntity
  8
Shape2DView
100
AcDbLine
 10
14.8335
 20
-106.93
 30
0
 11
3.78369
 21
-106.93
 31
0
  0
LINE
  5
B6A
330
A02
100
AcDbEntity
  8
Shape2DView
100
AcDbLine
 10
3.78369
 20
-110.562
 30
0
 11
14.8335
 21
-110.562
 31
0
  0
LINE
  5
B6B
330
A02
100
AcDbEntity
  8
Shape2DView
100
AcDbLine
 10
14.8335
 20
-110.562
 30
0
 11
14.8335
 21
-114.499
 31
0
  0
LINE
  5
B6C
330
A02
100
AcDbEntity
  8
Shape2DView
100
AcDbLine
 10
14.8335
 20
-114.499
 30
0
 11
3.78369
 21
-114.499
 31
0
  0
LINE
  5
B6D
330
A02
100
AcDbEntity
  8
Shape2DView
100
AcDbLine
 10
3.78369
 20
-118.131
 30
0
 11
14.8335
 21
-118.131
 31
0
  0
LINE
  5
B6E
330
A02
100
AcDbEntity
  8
Shape2DView
100
AcDbLine
 10
14.8335
 20
-118.131
 30
0
 11
14.8335
 21
-122.068
 31
0
  0
LINE
  5
B6F
330
A02
100
AcDbEntity
  8
Shape2DView
100
AcDbLine
 10
14.8335
 20
-122.068
 30
0
 11
3.78369
 21
-122.068
 31
0
  0
LINE
  5
B70
330
A02
100
AcDbEntity
  8
Shape2DView
100
AcDbLine
 10
3.78369
 20
-125.701
 30
0
 11
14.8335
 21
-125.701
 31
0
  0
LINE
  5
B71
330
A02
100
AcDbEntity
  8
Shape2DView
100
AcDbLine
 10
14.8335
 20
-125.701
 30
0
 11
14.8335
 21
-129.638
 31
0
  0
LINE
  5
B72
330
A02
100
AcDbEntity
  8
Shape2DView
100
AcDbLine
 10
14.8335
 20
-129.638
 30
0
 11
3.78369
 21
-129.638
 31
0
  0
LINE
  5
B73
330
A02
100
AcDbEntity
  8
Shape2DView
100
AcDbLine
 10
3.78369
 20
-133.27
 30
0
 11
14.8335
 21
-133.27
 31
0
  0
LINE
  5
B74
330
A02
100
AcDbEntity
  8
Shape2DView
100
AcDbLine
 10
14.8335
 20
-133.27
 30
0
 11
14.8335
 21
-137.207
 31
0
  0
LINE
  5
B75
330
A02
100
AcDbEntity
  8
Shape2DView
100
AcDbLine
 10
14.8335
 20
-137.207
 30
0
 11
3.78369
 21
-137.207
 31
0
  0
LINE
  5
B76
330
A02
100
AcDbEntity
  8
Shape2DView
100
AcDbLine
 10
3.78369
 20
-140.839
 30
0
 11
14.8335
 21
-140.839
 31
0
  0
LINE
  5
B77
330
A02
100
AcDbEntity
  8
Shape2DView
100
AcDbLine
 10
14.8335
 20
-140.839
 30
0
 11
14.8335
 21
-144.776
 31
0
  0
LINE
  5
B78
330
A02
100
AcDbEntity
  8
Shape2DView
100
AcDbLine
 10
14.8335
 20
-144.776
 30
0
 11
3.78369
 21
-144.776
 31
0
  0
LINE
  5
B79
330
A02
100
AcDbEntity
  8
Shape2DView
100
AcDbLine
 10
3.78369
 20
-148.408
 30
0
 11
14.8335
 21
-148.408
 31
0
  0
LINE
  5
B7A
330
A02
100
AcDbEntity
  8
Shape2DView
100
AcDbLine
 10
14.8335
 20
-148.408
 30
0
 11
14.8335
 21
-152.345
 31
0
  0
LINE
  5
B7B
330
A02
100
AcDbEntity
  8
Shape2DView
100
AcDbLine
 10
14.8335
 20
-152.345
 30
0
 11
3.78369
 21
-152.345
 31
0
  0
LINE
  5
B7C
330
A02
100
AcDbEntity
  8
Shape2DView
100
AcDbLine
 10
3.78369
 20
-155.977
 30
0
 11
14.8335
 21
-155.977
 31
0
  0
LINE
  5
B7D
330
A02
100
AcDbEntity
  8
Shape2DView
100
AcDbLine
 10
14.8335
 20
-155.977
 30
0
 11
14.8335
 21
-159.914
 31
0
  0
LINE
  5
B7E
330
A02
100
AcDbEntity
  8
Shape2DView
100
AcDbLine
 10
14.8335
 20
-159.914
 30
0
 11
3.78369
 21
-159.914
 31
0
  0
LINE
  5
B7F
330
A02
100
AcDbEntity
  8
Shape2DView
100
AcDbLine
 10
3.78369
 20
-163.547
 30
0
 11
14.8335
 21
-163.547
 31
0
  0
LINE
  5
B80
330
A02
100
AcDbEntity
  8
Shape2DView
100
AcDbLine
 10
14.8335
 20
-163.547
 30
0
 11
14.8335
 21
-167.484
 31
0
  0
LINE
  5
B81
330
A02
100
AcDbEntity
  8
Shape2DView
100
AcDbLine
 10
14.8335
 20
-167.484
 30
0
 11
3.78369
 21
-167.484
 31
0
  0
LINE
  5
B82
330
A02
100
AcDbEntity
  8
Shape2DView
100
AcDbLine
 10
3.78369
 20
-171.116
 30
0
 11
14.8335
 21
-171.116
 31
0
  0
LINE
  5
B83
330
A02
100
AcDbEntity
  8
Shape2DView
100
AcDbLine
 10
14.8335
 20
-171.116
 30
0
 11
14.8335
 21
-175.053
 31
0
  0
LINE
  5
B84
330
A02
100
AcDbEntity
  8
Shape2DView
100
AcDbLine
 10
14.8335
 20
-175.053
 30
0
 11
3.78369
 21
-175.053
 31
0
  0
LINE
  5
B85
330
A02
100
AcDbEntity
  8
Shape2DView
100
AcDbLine
 10
3.78369
 20
-178.685
 30
0
 11
14.8335
 21
-178.685
 31
0
  0
LINE
  5
B86
330
A02
100
AcDbEntity
  8
Shape2DView
100
AcDbLine
 10
14.8335
 20
-178.685
 30
0
 11
14.8335
 21
-182.622
 31
0
  0
LINE
  5
B87
330
A02
100
AcDbEntity
  8
Shape2DView
100
AcDbLine
 10
14.8335
 20
-182.622
 30
0
 11
3.78369
 21
-182.622
 31
0
  0
ARC
  5
B88
330
A02
100
AcDbEntity
  8
Shape2DView
100
AcDbCircle
 10
406.894
 20
-56.3841
 30
0
 40
3.6195
100
AcDbArc
 50
90
 51
-90
  0
ARC
  5
B89
330
A02
100
AcDbEntity
  8
Shape2DView
100
AcDbCircle
 10
279.463
 20
-183.816
 30
0
 40
3.6195
100
AcDbArc
 50
90
 51
-90
  0
ARC
  5
B8A
330
A02
100
AcDbEntity
  8
Shape2DView
100
AcDbCircle
 10
152.031
 20
-56.3841
 30
0
 40
3.6195
100
AcDbArc
 50
-90
 51
90
  0
ARC
  5
B8B
330
A02
100
AcDbEntity
  8
Shape2DView
100
AcDbCircle
 10
24.599
 20
-183.816
 30
0
 40
3.6195
100
AcDbArc
 50
-90
 51
90
  0
LINE
  5
B8C
330
A02
100
AcDbEntity
  8
Shape2DView
100
AcDbLine
 10
331.553
 20
-184.362
 30
0
 11
331.553
 21
-182.838
 31
0
  0
LINE
  5
B8D
330
A02
100
AcDbEntity
  8
Shape2DView
100
AcDbLine
 10
329.923
 20
-184.362
 30
0
 11
331.553
 21
-184.362
 31
0
  0
LINE
  5
B8E
330
A02
100
AcDbEntity
  8
Shape2DView
100
AcDbLine
 10
327.997
 20
-187.918
 30
0
 11
327.997
 21
-186.288
 31
0
  0
LINE
  5
B8F
330
A02
100
AcDbEntity
  8
Shape2DView
100
AcDbLine
 10
326.473
 20
-187.918
 30
0
 11
327.997
 21
-187.918
 31
0
  0
LINE
  5
B90
330
A02
100
AcDbEntity
  8
Shape2DView
100
AcDbLine
 10
326.473
 20
-186.288
 30
0
 11
326.473
 21
-187.918
 31
0
  0
ARC
  5
B91
330
A02
100
AcDbEntity
  8
Shape2DView
100
AcDbCircle
 10
327.235
 20
-183.6
 30
0
 40
2.794
100
AcDbArc
 50
-164.173
 51
-105.827
  0
LINE
  5
B92
330
A02
100
AcDbEntity
  8
Shape2DView
100
AcDbLine
 10
322.917
 20
-184.362
 30
0
 11
324.547
 21
-184.362
 31
0
  0
LINE
  5
B93
330
A02
100
AcDbEntity
  8
Shape2DView
100
AcDbLine
 10
322.917
 20
-182.838
 30
0
 11
322.917
 21
-184.362
 31
0
  0
LINE
  5
B94
330
A02
100
AcDbEntity
  8
Shape2DView
100
AcDbLine
 10
324.547
 20
-182.838
 30
0
 11
322.917
 21
-182.838
 31
0
  0
ARC
  5
B95
330
A02
100
AcDbEntity
  8
Shape2DView
100
AcDbCircle
 10
327.235
 20
-183.6
 30
0
 40
2.794
100
AcDbArc
 50
105.827
 51
164.173
  0
LINE
  5
B96
330
A02
100
AcDbEntity
  8
Shape2DView
100
AcDbLine
 10
326.473
 20
-179.282
 30
0
 11
326.473
 21
-180.912
 31
0
  0
LINE
  5
B97
330
A02
100
AcDbEntity
  8
Shape2DView
100
AcDbLine
 10
327.997
 20
-179.282
 30
0
 11
326.473
 21
-179.282
 31
0
  0
LINE
  5
B98
330
A02
100
AcDbEntity
  8
Shape2DView
100
AcDbLine
 10
327.997
 20
-180.912
 30
0
 11
327.997
 21
-179.282
 31
0
  0
LINE
  5
B99
330
A02
100
AcDbEntity
  8
Shape2DView
100
AcDbLine
 10
331.553
 20
-182.838
 30
0
 11
329.923
 21
-182.838
 31
0
  0
LINE
  5
B9A
330
A02
100
AcDbEntity
  8
Shape2DView
100
AcDbLine
 10
108.541
 20
-57.362
 30
0
 11
108.541
 21
-55.838
 31
0
  0
LINE
  5
B9B
330
A02
100
AcDbEntity
  8
Shape2DView
100
AcDbLine
 10
106.911
 20
-57.362
 30
0
 11
108.541
 21
-57.362
 31
0
  0
LINE
  5
B9C
330
A02
100
AcDbEntity
  8
Shape2DView
100
AcDbLine
 10
104.985
 20
-60.918
 30
0
 11
104.985
 21
-59.2881
 31
0
  0
LINE
  5
B9D
330
A02
100
AcDbEntity
  8
Shape2DView
100
AcDbLine
 10
103.461
 20
-60.918
 30
0
 11
104.985
 21
-60.918
 31
0
  0
LINE
  5
B9E
330
A02
100
AcDbEntity
  8
Shape2DView
100
AcDbLine
 10
103.461
 20
-59.2881
 30
0
 11
103.461
 21
-60.918
 31
0
  0
ARC
  5
B9F
330
A02
100
AcDbEntity
  8
Shape2DView
100
AcDbCircle
 10
104.223
 20
-56.6
 30
0
 40
2.794
100
AcDbArc
 50
-164.173
 51
-105.827
  0
LINE
  5
BA0
330
A02
100
AcDbEntity
  8
Shape2DView
100
AcDbLine
 10
99.9049
 20
-57.362
 30
0
 11
101.535
 21
-57.362
 31
0
  0
LINE
  5
BA1
330
A02
100
AcDbEntity
  8
Shape2DView
100
AcDbLine
 10
99.9049
 20
-55.838
 30
0
 11
99.9049
 21
-57.362
 31
0
  0
LINE
  5
BA2
330
A02
100
AcDbEntity
  8
Shape2DView
100
AcDbLine
 10
101.535
 20
-55.838
 30
0
 11
99.9049
 21
-55.838
 31
0
  0
ARC
  5
BA3
330
A02
100
AcDbEntity
  8
Shape2DView
100
AcDbCircle
 10
104.223
 20
-56.6
 30
0
 40
2.794
100
AcDbArc
 50
105.827
 51
164.173
  0
LINE
  5
BA4
330
A02
100
AcDbEntity
  8
Shape2DView
100
AcDbLine
 10
103.461
 20
-52.282
 30
0
 11
103.461
 21
-53.9119
 31
0
  0
LINE
  5
BA5
330
A02
100
AcDbEntity
  8
Shape2DView
100
AcDbLine
 10
104.985
 20
-52.282
 30
0
 11
103.461
 21
-52.282
 31
0
  0
LINE
  5
BA6
330
A02
100
AcDbEntity
  8
Shape2DView
100
AcDbLine
 10
104.985
 20
-53.9119
 30
0
 11
104.985
 21
-52.282
 31
0
  0
LINE
  5
BA7
330
A02
100
AcDbEntity
  8
Shape2DView
100
AcDbLine
 10
108.541
 20
-55.838
 30
0
 11
106.911
 21
-55.838
 31
0
  0
LINE
  5
BA8
330
A02
100
AcDbEntity
  8
Shape2DView
100
AcDbLine
 10
427.71
 20
-217.636
 30
0
 11
427.71
 21
-210.651
 31
0
  0
LINE
  5
BA9
330
A02
100
AcDbEntity
  8
Shape2DView
100
AcDbLine
 10
3.78369
 20
-217.636
 30
0
 11
3.78369
 21
-210.651
 31
0
  0
LINE
  5
BAA
330
A02
100
AcDbEntity
  8
Shape2DView
100
AcDbLine
 10
427.71
 20
-18.5
 30
0
 11
3.78369
 21
-18.5
 31
0
  0
LINE
  5
BAB
330
A02
100
AcDbEntity
  8
Shape2DView
100
AcDbLine
 10
427.71
 20
-20.024
 30
0
 11
427.71
 21
-18.754
 31
0
  0
LINE
  5
BAC
330
A02
100
AcDbEntity
  8
Shape2DView
100
AcDbLine
 10
427.71
 20
-18.754
 30
0
 11
427.71
 21
-18.5
 31
0
  0
LINE
  5
BAD
330
A02
100
AcDbEntity
  8
Shape2DView
100
AcDbLine
 10
3.78369
 20
-20.024
 30
0
 11
3.78369
 21
-18.754
 31
0
  0
LINE
  5
BAE
330
A02
100
AcDbEntity
  8
Shape2DView
100
AcDbLine
 10
3.78369
 20
-18.754
 30
0
 11
3.78369
 21
-18.5
 31
0
  0
LINE
  5
BAF
330
A02
100
AcDbEntity
  8
Shape2DView
100
AcDbLine
 10
429.31
 20
-217.636
 30
0
 11
427.71
 21
-217.636
 31
0
  0
LINE
  5
BB0
330
A02
100
AcDbEntity
  8
Shape2DView
100
AcDbLine
 10
429.31
 20
-220.176
 30
0
 11
429.31
 21
-217.636
 31
0
  0
LINE
  5
BB1
330
A02
100
AcDbEntity
  8
Shape2DView
100
AcDbLine
 10
428.472
 20
-220.176
 30
0
 11
429.31
 21
-220.176
 31
0
  0
LINE
  5
BB2
330
A02
100
AcDbEntity
  8
Shape2DView
100
AcDbLine
 10
427.71
 20
-221.446
 30
0
 11
427.71
 21
-220.176
 31
0
  0
LINE
  5
BB3
330
A02
100
AcDbEntity
  8
Shape2DView
100
AcDbLine
 10
427.71
 20
-221.446
 30
0
 11
430.631
 21
-221.446
 31
0
  0
LINE
  5
BB4
330
A02
100
AcDbEntity
  8
Shape2DView
100
AcDbLine
 10
430.631
 20
-221.446
 30
0
 11
430.631
 21
-205.152
 31
0
  0
LINE
  5
BB5
330
A02
100
AcDbEntity
  8
Shape2DView
100
AcDbLine
 10
427.837
 20
-205.152
 30
0
 11
430.631
 21
-205.152
 31
0
  0
LINE
  5
BB6
330
A02
100
AcDbEntity
  8
Shape2DView
100
AcDbLine
 10
427.71
 20
-208.327
 30
0
 11
427.71
 21
-209.127
 31
0
  0
LINE
  5
BB7
330
A02
100
AcDbEntity
  8
Shape2DView
100
AcDbLine
 10
427.71
 20
-209.127
 30
0
 11
423.392
 21
-209.127
 31
0
  0
LINE
  5
BB8
330
A02
100
AcDbEntity
  8
Shape2DView
100
AcDbLine
 10
423.392
 20
-209.127
 30
0
 11
423.392
 21
-198.205
 31
0
  0
LINE
  5
BB9
330
A02
100
AcDbEntity
  8
Shape2DView
100
AcDbLine
 10
423.392
 20
-198.205
 30
0
 11
427.71
 21
-198.205
 31
0
  0
LINE
  5
BBA
330
A02
100
AcDbEntity
  8
Shape2DView
100
AcDbLine
 10
427.71
 20
-198.205
 30
0
 11
427.71
 21
-198.929
 31
0
  0
LINE
  5
BBB
330
A02
100
AcDbEntity
  8
Shape2DView
100
AcDbLine
 10
427.837
 20
-202.18
 30
0
 11
430.631
 21
-202.18
 31
0
  0
LINE
  5
BBC
330
A02
100
AcDbEntity
  8
Shape2DView
100
AcDbLine
 10
430.631
 20
-202.18
 30
0
 11
430.631
 21
-185.251
 31
0
  0
LINE
  5
BBD
330
A02
100
AcDbEntity
  8
Shape2DView
100
AcDbLine
 10
430.631
 20
-185.251
 30
0
 11
431.393
 21
-185.251
 31
0
  0
LINE
  5
BBE
330
A02
100
AcDbEntity
  8
Shape2DView
100
AcDbLine
 10
431.393
 20
-185.251
 30
0
 11
431.393
 21
-54.949
 31
0
  0
LINE
  5
BBF
330
A02
100
AcDbEntity
  8
Shape2DView
100
AcDbLine
 10
431.393
 20
-54.949
 30
0
 11
430.631
 21
-54.949
 31
0
  0
LINE
  5
BC0
330
A02
100
AcDbEntity
  8
Shape2DView
100
AcDbLine
 10
430.631
 20
-54.949
 30
0
 11
430.631
 21
-38.0199
 31
0
  0
LINE
  5
BC1
330
A02
100
AcDbEntity
  8
Shape2DView
100
AcDbLine
 10
427.837
 20
-38.0199
 30
0
 11
430.631
 21
-38.0199
 31
0
  0
LINE
  5
BC2
330
A02
100
AcDbEntity
  8
Shape2DView
100
AcDbLine
 10
427.71
 20
-41.2711
 30
0
 11
427.71
 21
-41.995
 31
0
  0
LINE
  5
BC3
330
A02
100
AcDbEntity
  8
Shape2DView
100
AcDbLine
 10
427.71
 20
-41.995
 30
0
 11
423.392
 21
-41.995
 31
0
  0
LINE
  5
BC4
330
A02
100
AcDbEntity
  8
Shape2DView
100
AcDbLine
 10
423.392
 20
-41.995
 30
0
 11
423.392
 21
-31.073
 31
0
  0
LINE
  5
BC5
330
A02
100
AcDbEntity
  8
Shape2DView
100
AcDbLine
 10
423.392
 20
-31.073
 30
0
 11
427.71
 21
-31.073
 31
0
  0
LINE
  5
BC6
330
A02
100
AcDbEntity
  8
Shape2DView
100
AcDbLine
 10
427.71
 20
-31.073
 30
0
 11
427.71
 21
-31.8731
 31
0
  0
LINE
  5
BC7
330
A02
100
AcDbEntity
  8
Shape2DView
100
AcDbLine
 10
427.837
 20
-35.0481
 30
0
 11
430.631
 21
-35.0481
 31
0
  0
LINE
  5
BC8
330
A02
100
AcDbEntity
  8
Shape2DView
100
AcDbLine
 10
430.631
 20
-35.0481
 30
0
 11
430.631
 21
-18.754
 31
0
  0
LINE
  5
BC9
330
A02
100
AcDbEntity
  8
Shape2DView
100
AcDbLine
 10
430.631
 20
-18.754
 30
0
 11
427.71
 21
-18.754
 31
0
  0
LINE
  5
BCA
330
A02
100
AcDbEntity
  8
Shape2DView
100
AcDbLine
 10
429.31
 20
-20.024
 30
0
 11
428.472
 21
-20.024
 31
0
  0
LINE
  5
BCB
330
A02
100
AcDbEntity
  8
Shape2DView
100
AcDbLine
 10
429.31
 20
-22.564
 30
0
 11
429.31
 21
-20.024
 31
0
  0
LINE
  5
BCC
330
A02
100
AcDbEntity
  8
Shape2DView
100
AcDbLine
 10
427.71
 20
-22.564
 30
0
 11
429.31
 21
-22.564
 31
0
  0
LINE
  5
BCD
330
A02
100
AcDbEntity
  8
Shape2DView
100
AcDbLine
 10
427.71
 20
-29.549
 30
0
 11
427.71
 21
-22.564
 31
0
  0
LINE
  5
BCE
330
A02
100
AcDbEntity
  8
Shape2DView
100
AcDbLine
 10
427.71
 20
-29.549
 30
0
 11
421.741
 21
-29.549
 31
0
  0
LINE
  5
BCF
330
A02
100
AcDbEntity
  8
Shape2DView
100
AcDbLine
 10
421.741
 20
-29.549
 30
0
 11
421.741
 21
-43.519
 31
0
  0
LINE
  5
BD0
330
A02
100
AcDbEntity
  8
Shape2DView
100
AcDbLine
 10
421.741
 20
-43.519
 30
0
 11
427.71
 21
-43.519
 31
0
  0
LINE
  5
BD1
330
A02
100
AcDbEntity
  8
Shape2DView
100
AcDbLine
 10
427.71
 20
-196.681
 30
0
 11
427.71
 21
-43.519
 31
0
  0
LINE
  5
BD2
330
A02
100
AcDbEntity
  8
Shape2DView
100
AcDbLine
 10
427.71
 20
-196.681
 30
0
 11
421.741
 21
-196.681
 31
0
  0
LINE
  5
BD3
330
A02
100
AcDbEntity
  8
Shape2DView
100
AcDbLine
 10
421.741
 20
-196.681
 30
0
 11
421.741
 21
-210.651
 31
0
  0
LINE
  5
BD4
330
A02
100
AcDbEntity
  8
Shape2DView
100
AcDbLine
 10
421.741
 20
-210.651
 30
0
 11
427.71
 21
-210.651
 31
0
  0
LINE
  5
BD5
330
A02
100
AcDbEntity
  8
Shape2DView
100
AcDbLine
 10
430.377
 20
-120.075
 30
0
 11
430.275
 21
-120.075
 31
0
  0
LINE
  5
BD6
330
A02
100
AcDbEntity
  8
Shape2DView
100
AcDbLine
 10
430.377
 20
-179.892
 30
0
 11
430.377
 21
-120.075
 31
0
  0
LINE
  5
BD7
330
A02
100
AcDbEntity
  8
Shape2DView
100
AcDbLine
 10
428.98
 20
-179.892
 30
0
 11
430.377
 21
-179.892
 31
0
  0
LINE
  5
BD8
330
A02
100
AcDbEntity
  8
Shape2DView
100
AcDbLine
 10
428.98
 20
-120.075
 30
0
 11
428.98
 21
-179.892
 31
0
  0
LINE
  5
BD9
330
A02
100
AcDbEntity
  8
Shape2DView
100
AcDbLine
 10
429.081
 20
-120.075
 30
0
 11
428.98
 21
-120.075
 31
0
  0
LINE
  5
BDA
330
A02
100
AcDbEntity
  8
Shape2DView
100
AcDbLine
 10
430.885
 20
-221.7
 30
0
 11
427.71
 21
-221.7
 31
0
  0
LINE
  5
BDB
330
A02
100
AcDbEntity
  8
Shape2DView
100
AcDbLine
 10
427.71
 20
-221.7
 30
0
 11
3.78369
 21
-221.7
 31
0
  0
LINE
  5
BDC
330
A02
100
AcDbEntity
  8
Shape2DView
100
AcDbLine
 10
0.608686
 20
-221.7
 30
0
 11
3.78369
 21
-221.7
 31
0
  0
LINE
  5
BDD
330
A02
100
AcDbEntity
  8
Shape2DView
100
AcDbLine
 10
3.78369
 20
-18.5
 30
0
 11
0.608686
 21
-18.5
 31
0
  0
LINE
  5
BDE
330
A02
100
AcDbEntity
  8
Shape2DView
100
AcDbLine
 10
427.71
 20
-18.5
 30
0
 11
430.885
 21
-18.5
 31
0
  0
LINE
  5
BDF
330
A02
100
AcDbEntity
  8
Shape2DView
100
AcDbLine
 10
431.629
 20
-185.467
 30
0
 11
431.629
 21
-54.7329
 31
0
  0
LINE
  5
BE0
330
A02
100
AcDbEntity
  8
Shape2DView
100
AcDbLine
 10
430.885
 20
-218.868
 30
0
 11
430.885
 21
-221.7
 31
0
  0
LINE
  5
BE1
330
A02
100
AcDbEntity
  8
Shape2DView
100
AcDbLine
 10
430.885
 20
-185.505
 30
0
 11
430.885
 21
-202.18
 31
0
  0
LINE
  5
BE2
330
A02
100
AcDbEntity
  8
Shape2DView
100
AcDbLine
 10
427.71
 20
-221.7
 30
0
 11
427.71
 21
-221.446
 31
0
  0
LINE
  5
BE3
330
A02
100
AcDbEntity
  8
Shape2DView
100
AcDbLine
 10
430.631
 20
-205.152
 30
0
 11
430.885
 21
-205.152
 31
0
  0
LINE
  5
BE4
330
A02
100
AcDbEntity
  8
Shape2DView
100
AcDbLine
 10
430.885
 20
-38.0199
 30
0
 11
430.885
 21
-54.695
 31
0
  0
LINE
  5
BE5
330
A02
100
AcDbEntity
  8
Shape2DView
100
AcDbLine
 10
430.885
 20
-18.5
 30
0
 11
430.885
 21
-35.0481
 31
0
  0
LINE
  5
BE6
330
A02
100
AcDbEntity
  8
Shape2DView
100
AcDbLine
 10
430.885
 20
-35.0481
 30
0
 11
430.885
 21
-35.1751
 31
0
  0
LINE
  5
BE7
330
A02
100
AcDbEntity
  8
Shape2DView
100
AcDbLine
 10
430.885
 20
-37.9691
 30
0
 11
430.885
 21
-38.0199
 31
0
  0
LINE
  5
BE8
330
A02
100
AcDbEntity
  8
Shape2DView
100
AcDbLine
 10
431.409
 20
-185.505
 30
0
 11
430.885
 21
-185.505
 31
0
  0
LINE
  5
BE9
330
A02
100
AcDbEntity
  8
Shape2DView
100
AcDbLine
 10
430.885
 20
-54.695
 30
0
 11
431.409
 21
-54.695
 31
0
  0
LINE
  5
BEA
330
A02
100
AcDbEntity
  8
Shape2DView
100
AcDbLine
 10
430.885
 20
-202.18
 30
0
 11
430.631
 21
-202.18
 31
0
  0
LINE
  5
BEB
330
A02
100
AcDbEntity
  8
Shape2DView
100
AcDbLine
 10
430.631
 20
-38.0199
 30
0
 11
430.885
 21
-38.0199
 31
0
  0
LINE
  5
BEC
330
A02
100
AcDbEntity
  8
Shape2DView
100
AcDbLine
 10
430.885
 20
-35.0481
 30
0
 11
430.631
 21
-35.0481
 31
0
  0
LINE
  5
BED
330
A02
100
AcDbEntity
  8
Shape2DView
100
AcDbLine
 10
2.18349
 20
-217.636
 30
0
 11
2.18349
 21
-220.176
 31
0
  0
LINE
  5
BEE
330
A02
100
AcDbEntity
  8
Shape2DView
100
AcDbLine
 10
3.78369
 20
-217.636
 30
0
 11
2.18349
 21
-217.636
 31
0
  0
LINE
  5
BEF
330
A02
100
AcDbEntity
  8
Shape2DView
100
AcDbLine
 10
9.75269
 20
-210.651
 30
0
 11
3.78369
 21
-210.651
 31
0
  0
LINE
  5
BF0
330
A02
100
AcDbEntity
  8
Shape2DView
100
AcDbLine
 10
9.75269
 20
-196.681
 30
0
 11
9.75269
 21
-210.651
 31
0
  0
LINE
  5
BF1
330
A02
100
AcDbEntity
  8
Shape2DView
100
AcDbLine
 10
3.78369
 20
-196.681
 30
0
 11
9.75269
 21
-196.681
 31
0
  0
LINE
  5
BF2
330
A02
100
AcDbEntity
  8
Shape2DView
100
AcDbLine
 10
3.78369
 20
-196.681
 30
0
 11
3.78369
 21
-43.519
 31
0
  0
LINE
  5
BF3
330
A02
100
AcDbEntity
  8
Shape2DView
100
AcDbLine
 10
9.75269
 20
-43.519
 30
0
 11
3.78369
 21
-43.519
 31
0
  0
LINE
  5
BF4
330
A02
100
AcDbEntity
  8
Shape2DView
100
AcDbLine
 10
9.75269
 20
-29.549
 30
0
 11
9.75269
 21
-43.519
 31
0
  0
LINE
  5
BF5
330
A02
100
AcDbEntity
  8
Shape2DView
100
AcDbLine
 10
3.78369
 20
-29.549
 30
0
 11
9.75269
 21
-29.549
 31
0
  0
LINE
  5
BF6
330
A02
100
AcDbEntity
  8
Shape2DView
100
AcDbLine
 10
3.78369
 20
-29.549
 30
0
 11
3.78369
 21
-22.564
 31
0
  0
LINE
  5
BF7
330
A02
100
AcDbEntity
  8
Shape2DView
100
AcDbLine
 10
2.18349
 20
-22.564
 30
0
 11
3.78369
 21
-22.564
 31
0
  0
LINE
  5
BF8
330
A02
100
AcDbEntity
  8
Shape2DView
100
AcDbLine
 10
2.18349
 20
-20.024
 30
0
 11
2.18349
 21
-22.564
 31
0
  0
LINE
  5
BF9
330
A02
100
AcDbEntity
  8
Shape2DView
100
AcDbLine
 10
3.02169
 20
-20.024
 30
0
 11
2.18349
 21
-20.024
 31
0
  0
LINE
  5
BFA
330
A02
100
AcDbEntity
  8
Shape2DView
100
AcDbLine
 10
0.862686
 20
-18.754
 30
0
 11
3.78369
 21
-18.754
 31
0
  0
LINE
  5
BFB
330
A02
100
AcDbEntity
  8
Shape2DView
100
AcDbLine
 10
0.862686
 20
-35.0481
 30
0
 11
0.862686
 21
-18.754
 31
0
  0
LINE
  5
BFC
330
A02
100
AcDbEntity
  8
Shape2DView
100
AcDbLine
 10
3.65669
 20
-35.0481
 30
0
 11
0.862686
 21
-35.0481
 31
0
  0
LINE
  5
BFD
330
A02
100
AcDbEntity
  8
Shape2DView
100
AcDbLine
 10
3.78369
 20
-31.073
 30
0
 11
3.78369
 21
-31.8731
 31
0
  0
LINE
  5
BFE
330
A02
100
AcDbEntity
  8
Shape2DView
100
AcDbLine
 10
8.10169
 20
-31.073
 30
0
 11
3.78369
 21
-31.073
 31
0
  0
LINE
  5
BFF
330
A02
100
AcDbEntity
  8
Shape2DView
100
AcDbLine
 10
8.10169
 20
-41.995
 30
0
 11
8.10169
 21
-31.073
 31
0
  0
LINE
  5
C00
330
A02
100
AcDbEntity
  8
Shape2DView
100
AcDbLine
 10
3.78369
 20
-41.995
 30
0
 11
8.10169
 21
-41.995
 31
0
  0
LINE
  5
C01
330
A02
100
AcDbEntity
  8
Shape2DView
100
AcDbLine
 10
3.78369
 20
-41.2711
 30
0
 11
3.78369
 21
-41.995
 31
0
  0
LINE
  5
C02
330
A02
100
AcDbEntity
  8
Shape2DView
100
AcDbLine
 10
3.65669
 20
-38.0199
 30
0
 11
0.862686
 21
-38.0199
 31
0
  0
LINE
  5
C03
330
A02
100
AcDbEntity
  8
Shape2DView
100
AcDbLine
 10
0.862686
 20
-54.949
 30
0
 11
0.862686
 21
-38.0199
 31
0
  0
LINE
  5
C04
330
A02
100
AcDbEntity
  8
Shape2DView
100
AcDbLine
 10
0.100686
 20
-54.949
 30
0
 11
0.862686
 21
-54.949
 31
0
  0
LINE
  5
C05
330
A02
100
AcDbEntity
  8
Shape2DView
100
AcDbLine
 10
0.100686
 20
-185.251
 30
0
 11
0.100686
 21
-54.949
 31
0
  0
LINE
  5
C06
330
A02
100
AcDbEntity
  8
Shape2DView
100
AcDbLine
 10
0.862686
 20
-185.251
 30
0
 11
0.100686
 21
-185.251
 31
0
  0
LINE
  5
C07
330
A02
100
AcDbEntity
  8
Shape2DView
100
AcDbLine
 10
0.862686
 20
-202.18
 30
0
 11
0.862686
 21
-185.251
 31
0
  0
LINE
  5
C08
330
A02
100
AcDbEntity
  8
Shape2DView
100
AcDbLine
 10
3.65669
 20
-202.18
 30
0
 11
0.862686
 21
-202.18
 31
0
  0
LINE
  5
C09
330
A02
100
AcDbEntity
  8
Shape2DView
100
AcDbLine
 10
3.78369
 20
-198.205
 30
0
 11
3.78369
 21
-198.929
 31
0
  0
LINE
  5
C0A
330
A02
100
AcDbEntity
  8
Shape2DView
100
AcDbLine
 10
8.10169
 20
-198.205
 30
0
 11
3.78369
 21
-198.205
 31
0
  0
LINE
  5
C0B
330
A02
100
AcDbEntity
  8
Shape2DView
100
AcDbLine
 10
8.10169
 20
-209.127
 30
0
 11
8.10169
 21
-198.205
 31
0
  0
LINE
  5
C0C
330
A02
100
AcDbEntity
  8
Shape2DView
100
AcDbLine
 10
3.78369
 20
-209.127
 30
0
 11
8.10169
 21
-209.127
 31
0
  0
LINE
  5
C0D
330
A02
100
AcDbEntity
  8
Shape2DView
100
AcDbLine
 10
3.78369
 20
-208.327
 30
0
 11
3.78369
 21
-209.127
 31
0
  0
LINE
  5
C0E
330
A02
100
AcDbEntity
  8
Shape2DView
100
AcDbLine
 10
3.65669
 20
-205.152
 30
0
 11
0.862686
 21
-205.152
 31
0
  0
LINE
  5
C0F
330
A02
100
AcDbEntity
  8
Shape2DView
100
AcDbLine
 10
0.862686
 20
-221.446
 30
0
 11
0.862686
 21
-205.152
 31
0
  0
LINE
  5
C10
330
A02
100
AcDbEntity
  8
Shape2DView
100
AcDbLine
 10
3.78369
 20
-221.446
 30
0
 11
0.862686
 21
-221.446
 31
0
  0
LINE
  5
C11
330
A02
100
AcDbEntity
  8
Shape2DView
100
AcDbLine
 10
3.78369
 20
-221.446
 30
0
 11
3.78369
 21
-220.176
 31
0
  0
LINE
  5
C12
330
A02
100
AcDbEntity
  8
Shape2DView
100
AcDbLine
 10
2.18349
 20
-220.176
 30
0
 11
3.02169
 21
-220.176
 31
0
  0
LINE
  5
C13
330
A02
100
AcDbEntity
  8
Shape2DView
100
AcDbLine
 10
1.11669
 20
-120.125
 30
0
 11
1.21829
 21
-120.125
 31
0
  0
LINE
  5
C14
330
A02
100
AcDbEntity
  8
Shape2DView
100
AcDbLine
 10
1.11669
 20
-60.3084
 30
0
 11
1.11669
 21
-120.125
 31
0
  0
LINE
  5
C15
330
A02
100
AcDbEntity
  8
Shape2DView
100
AcDbLine
 10
2.51369
 20
-60.3084
 30
0
 11
1.11669
 21
-60.3084
 31
0
  0
LINE
  5
C16
330
A02
100
AcDbEntity
  8
Shape2DView
100
AcDbLine
 10
2.51369
 20
-120.125
 30
0
 11
2.51369
 21
-60.3084
 31
0
  0
LINE
  5
C17
330
A02
100
AcDbEntity
  8
Shape2DView
100
AcDbLine
 10
2.41209
 20
-120.125
 30
0
 11
2.51369
 21
-120.125
 31
0
  0
LINE
  5
C18
330
A02
100
AcDbEntity
  8
Shape2DView
100
AcDbLine
 10
0.608686
 20
-218.868
 30
0
 11
0.608686
 21
-221.7
 31
0
  0
LINE
  5
C19
330
A02
100
AcDbEntity
  8
Shape2DView
100
AcDbLine
 10
0.608686
 20
-185.505
 30
0
 11
0.608686
 21
-186.229
 31
0
  0
LINE
  5
C1A
330
A02
100
AcDbEntity
  8
Shape2DView
100
AcDbLine
 10
0.608686
 20
-53.9711
 30
0
 11
0.608686
 21
-54.695
 31
0
  0
LINE
  5
C1B
330
A02
100
AcDbEntity
  8
Shape2DView
100
AcDbLine
 10
0.608686
 20
-18.5
 30
0
 11
0.608686
 21
-21.3321
 31
0
  0
LINE
  5
C1C
330
A02
100
AcDbEntity
  8
Shape2DView
100
AcDbLine
 10
-0.135574
 20
-54.7329
 30
0
 11
-0.135574
 21
-185.467
 31
0
  0
LINE
  5
C1D
330
A02
100
AcDbEntity
  8
Shape2DView
100
AcDbLine
 10
0.0846203
 20
-185.505
 30
0
 11
0.608686
 21
-185.505
 31
0
  0
LINE
  5
C1E
330
A02
100
AcDbEntity
  8
Shape2DView
100
AcDbLine
 10
0.608686
 20
-54.695
 30
0
 11
0.0846203
 21
-54.695
 31
0
  0
LINE
  5
C1F
330
A02
100
AcDbEntity
  8
Shape2DView
100
AcDbLine
 10
3.78369
 20
-221.7
 30
0
 11
3.78369
 21
-221.446
 31
0
  0
LINE
  5
C20
330
A02
100
AcDbEntity
  8
Shape2DView
100
AcDbLine
 10
0.608686
 20
-202.18
 30
0
 11
0.862686
 21
-202.18
 31
0
  0
LINE
  5
C21
330
A02
100
AcDbEntity
  8
Shape2DView
100
AcDbLine
 10
0.862686
 20
-205.152
 30
0
 11
0.608686
 21
-205.152
 31
0
  0
LINE
  5
C22
330
A02
100
AcDbEntity
  8
Shape2DView
100
AcDbLine
 10
0.608686
 20
-35.0481
 30
0
 11
0.862686
 21
-35.0481
 31
0
  0
LINE
  5
C23
330
A02
100
AcDbEntity
  8
Shape2DView
100
AcDbLine
 10
0.862686
 20
-38.0199
 30
0
 11
0.608686
 21
-38.0199
 31
0
  0
LINE
  5
C24
330
A02
100
AcDbEntity
  8
Shape2DView
100
AcDbLine
 10
2.41209
 20
-120.125
 30
0
 11
1.21829
 21
-120.125
 31
0
  0
LINE
  5
C25
330
A02
100
AcDbEntity
  8
Shape2DView
100
AcDbLine
 10
2.41209
 20
-179.003
 30
0
 11
2.41209
 21
-120.125
 31
0
  0
LINE
  5
C26
330
A02
100
AcDbEntity
  8
Shape2DView
100
AcDbLine
 10
1.21829
 20
-120.125
 30
0
 11
1.21829
 21
-179.003
 31
0
  0
LINE
  5
C27
330
A02
100
AcDbEntity
  8
Shape2DView
100
AcDbLine
 10
1.21829
 20
-179.003
 30
0
 11
2.41209
 21
-179.003
 31
0
  0
LINE
  5
C28
330
A02
100
AcDbEntity
  8
Shape2DView
100
AcDbLine
 10
429.081
 20
-120.075
 30
0
 11
430.275
 21
-120.075
 31
0
  0
LINE
  5
C29
330
A02
100
AcDbEntity
  8
Shape2DView
100
AcDbLine
 10
429.081
 20
-61.1974
 30
0
 11
429.081
 21
-120.075
 31
0
  0
LINE
  5
C2A
330
A02
100
AcDbEntity
  8
Shape2DView
100
AcDbLine
 10
430.275
 20
-120.075
 30
0
 11
430.275
 21
-61.1974
 31
0
  0
LINE
  5
C2B
330
A02
100
AcDbEntity
  8
Shape2DView
100
AcDbLine
 10
430.275
 20
-61.1974
 30
0
 11
429.081
 21
-61.1974
 31
0
  0
ARC
  5
C2C
330
A02
100
AcDbEntity
  8
Shape2DView
100
AcDbCircle
 10
406.894
 20
-183.816
 30
0
 40
3.27061
100
AcDbArc
 50
90
 51
-90
  0
ARC
  5
C2D
330
A02
100
AcDbEntity
  8
Shape2DView
100
AcDbCircle
 10
406.894
 20
-183.816
 30
0
 40
1.0795
100
AcDbArc
 50
90
 51
-90
  0
ARC
  5
C2E
330
A02
100
AcDbEntity
  8
Shape2DView
100
AcDbCircle
 10
406.894
 20
-56.3841
 30
0
 40
3.27061
100
AcDbArc
 50
90
 51
-90
  0
ARC
  5
C2F
330
A02
100
AcDbEntity
  8
Shape2DView
100
AcDbCircle
 10
406.894
 20
-56.3841
 30
0
 40
1.0795
100
AcDbArc
 50
90
 51
-90
  0
ARC
  5
C30
330
A02
100
AcDbEntity
  8
Shape2DView
100
AcDbCircle
 10
279.463
 20
-56.3841
 30
0
 40
3.27061
100
AcDbArc
 50
90
 51
-90
  0
ARC
  5
C31
330
A02
100
AcDbEntity
  8
Shape2DView
100
AcDbCircle
 10
279.463
 20
-56.3841
 30
0
 40
1.0795
100
AcDbArc
 50
90
 51
-90
  0
ARC
  5
C32
330
A02
100
AcDbEntity
  8
Shape2DView
100
AcDbCircle
 10
279.463
 20
-183.816
 30
0
 40
3.27061
100
AcDbArc
 50
90
 51
-90
  0
ARC
  5
C33
330
A02
100
AcDbEntity
  8
Shape2DView
100
AcDbCircle
 10
279.463
 20
-183.816
 30
0
 40
1.0795
100
AcDbArc
 50
90
 51
-90
  0
ARC
  5
C34
330
A02
100
AcDbEntity
  8
Shape2DView
100
AcDbCircle
 10
152.031
 20
-183.816
 30
0
 40
3.27061
100
AcDbArc
 50
-90
 51
90
  0
ARC
  5
C35
330
A02
100
AcDbEntity
  8
Shape2DView
100
AcDbCircle
 10
152.031
 20
-183.816
 30
0
 40
1.0795
100
AcDbArc
 50
90
 51
-90
  0
ARC
  5
C36
330
A02
100
AcDbEntity
  8
Shape2DView
100
AcDbCircle
 10
152.031
 20
-56.3841
 30
0
 40
3.27061
100
AcDbArc
 50
-90
 51
90
  0
ARC
  5
C37
330
A02
100
AcDbEntity
  8
Shape2DView
100
AcDbCircle
 10
152.031
 20
-56.3841
 30
0
 40
1.0795
100
AcDbArc
 50
90
 51
-90
  0
ARC
  5
C38
330
A02
100
AcDbEntity
  8
Shape2DView
100
AcDbCircle
 10
24.599
 20
-56.3841
 30
0
 40
3.27061
100
AcDbArc
 50
-90
 51
90
  0
ARC
  5
C39
330
A02
100
AcDbEntity
  8
Shape2DView
100
AcDbCircle
 10
24.599
 20
-56.3841
 30
0
 40
1.0795
100
AcDbArc
 50
90
 51
-90
  0
ARC
  5
C3A
330
A02
100
AcDbEntity
  8
Shape2DView
100
AcDbCircle
 10
24.599
 20
-183.816
 30
0
 40
3.27061
100
AcDbArc
 50
-90
 51
90
  0
ARC
  5
C3B
330
A02
100
AcDbEntity
  8
Shape2DView
100
AcDbCircle
 10
24.599
 20
-183.816
 30
0
 40
1.0795
100
AcDbArc
 50
90
 51
-90
  0
LINE
  5
C3C
330
A02
100
AcDbEntity
  8
Shape2DView
100
AcDbLine
 10
108.302
 20
-183.077
 30
0
 11
108.541
 21
-182.838
 31
0
  0
LINE
  5
C3D
330
A02
100
AcDbEntity
  8
Shape2DView
100
AcDbLine
 10
108.302
 20
-184.123
 30
0
 11
108.541
 21
-184.362
 31
0
  0
ARC
  5
C3E
330
A02
100
AcDbEntity
  8
Shape2DView
100
AcDbCircle
 10
104.223
 20
-183.6
 30
0
 40
2.47035
100
AcDbArc
 50
90
 51
-90
  0
ARC
  5
C3F
330
A02
100
AcDbEntity
  8
Shape2DView
100
AcDbCircle
 10
104.223
 20
-183.6
 30
0
 40
2.55459
100
AcDbArc
 50
90
 51
101.804
  0
SPLINE
  5
C40
330
A02
100
AcDbEntity
  8
Shape2DView
100
AcDbSpline
210
0
220
0
230
1
 70
8
 71
2
 72
6
 73
3
 74
0
 40
0
 40
0
 40
0
 40
0.0137194
 40
0.0137194
 40
0.0137194
 10
103.7
 20
-181.099
 30
0
 10
103.581
 20
-181.002
 30
0
 10
103.461
 20
-180.912
 30
0
  0
SPLINE
  5
C41
330
A02
100
AcDbEntity
  8
Shape2DView
100
AcDbSpline
210
0
220
0
230
1
 70
8
 71
2
 72
6
 73
3
 74
0
 40
0
 40
0
 40
0
 40
0.0137194
 40
0.0137194
 40
0.0137194
 10
101.722
 20
-183.077
 30
0
 10
101.625
 20
-182.958
 30
0
 10
101.535
 20
-182.838
 30
0
  0
SPLINE
  5
C42
330
A02
100
AcDbEntity
  8
Shape2DView
100
AcDbSpline
210
0
220
0
230
1
 70
8
 71
2
 72
6
 73
3
 74
0
 40
0
 40
0
 40
0
 40
0.0137194
 40
0.0137194
 40
0.0137194
 10
101.722
 20
-184.123
 30
0
 10
101.625
 20
-184.242
 30
0
 10
101.535
 20
-184.362
 30
0
  0
SPLINE
  5
C43
330
A02
100
AcDbEntity
  8
Shape2DView
100
AcDbSpline
210
0
220
0
230
1
 70
8
 71
2
 72
6
 73
3
 74
0
 40
0
 40
0
 40
0
 40
0.0137194
 40
0.0137194
 40
0.0137194
 10
103.7
 20
-186.101
 30
0
 10
103.581
 20
-186.198
 30
0
 10
103.461
 20
-186.288
 30
0
  0
LINE
  5
C44
330
A02
100
AcDbEntity
  8
Shape2DView
100
AcDbLine
 10
104.746
 20
-179.521
 30
0
 11
104.985
 21
-179.282
 31
0
  0
LINE
  5
C45
330
A02
100
AcDbEntity
  8
Shape2DView
100
AcDbLine
 10
104.746
 20
-181.099
 30
0
 11
104.746
 21
-179.521
 31
0
  0
LINE
  5
C46
330
A02
100
AcDbEntity
  8
Shape2DView
100
AcDbLine
 10
103.7
 20
-179.521
 30
0
 11
103.461
 21
-179.282
 31
0
  0
LINE
  5
C47
330
A02
100
AcDbEntity
  8
Shape2DView
100
AcDbLine
 10
104.746
 20
-179.521
 30
0
 11
103.7
 21
-179.521
 31
0
  0
LINE
  5
C48
330
A02
100
AcDbEntity
  8
Shape2DView
100
AcDbLine
 10
103.7
 20
-179.521
 30
0
 11
103.7
 21
-181.099
 31
0
  0
LINE
  5
C49
330
A02
100
AcDbEntity
  8
Shape2DView
100
AcDbLine
 10
100.144
 20
-183.077
 30
0
 11
99.9049
 21
-182.838
 31
0
  0
LINE
  5
C4A
330
A02
100
AcDbEntity
  8
Shape2DView
100
AcDbLine
 10
100.144
 20
-184.123
 30
0
 11
99.9049
 21
-184.362
 31
0
  0
LINE
  5
C4B
330
A02
100
AcDbEntity
  8
Shape2DView
100
AcDbLine
 10
103.7
 20
-187.679
 30
0
 11
103.461
 21
-187.918
 31
0
  0
LINE
  5
C4C
330
A02
100
AcDbEntity
  8
Shape2DView
100
AcDbLine
 10
104.746
 20
-187.679
 30
0
 11
104.985
 21
-187.918
 31
0
  0
LINE
  5
C4D
330
A02
100
AcDbEntity
  8
Shape2DView
100
AcDbLine
 10
331.314
 20
-183.077
 30
0
 11
331.553
 21
-182.838
 31
0
  0
LINE
  5
C4E
330
A02
100
AcDbEntity
  8
Shape2DView
100
AcDbLine
 10
331.314
 20
-184.123
 30
0
 11
331.553
 21
-184.362
 31
0
  0
ARC
  5
C4F
330
A02
100
AcDbEntity
  8
Shape2DView
100
AcDbCircle
 10
327.235
 20
-183.6
 30
0
 40
2.47035
100
AcDbArc
 50
90
 51
-90
  0
ARC
  5
C50
330
A02
100
AcDbEntity
  8
Shape2DView
100
AcDbCircle
 10
327.235
 20
-183.6
 30
0
 40
2.55459
100
AcDbArc
 50
90
 51
101.804
  0
SPLINE
  5
C51
330
A02
100
AcDbEntity
  8
Shape2DView
100
AcDbSpline
210
0
220
0
230
1
 70
8
 71
2
 72
6
 73
3
 74
0
 40
0
 40
0
 40
0
 40
0.0137194
 40
0.0137194
 40
0.0137194
 10
326.712
 20
-181.099
 30
0
 10
326.593
 20
-181.002
 30
0
 10
326.473
 20
-180.912
 30
0
  0
SPLINE
  5
C52
330
A02
100
AcDbEntity
  8
Shape2DView
100
AcDbSpline
210
0
220
0
230
1
 70
8
 71
2
 72
6
 73
3
 74
0
 40
0
 40
0
 40
0
 40
0.0137194
 40
0.0137194
 40
0.0137194
 10
324.734
 20
-183.077
 30
0
 10
324.637
 20
-182.958
 30
0
 10
324.547
 20
-182.838
 30
0
  0
SPLINE
  5
C53
330
A02
100
AcDbEntity
  8
Shape2DView
100
AcDbSpline
210
0
220
0
230
1
 70
8
 71
2
 72
6
 73
3
 74
0
 40
0
 40
0
 40
0
 40
0.0137194
 40
0.0137194
 40
0.0137194
 10
324.734
 20
-184.123
 30
0
 10
324.637
 20
-184.242
 30
0
 10
324.547
 20
-184.362
 30
0
  0
SPLINE
  5
C54
330
A02
100
AcDbEntity
  8
Shape2DView
100
AcDbSpline
210
0
220
0
230
1
 70
8
 71
2
 72
6
 73
3
 74
0
 40
0
 40
0
 40
0
 40
0.0137194
 40
0.0137194
 40
0.0137194
 10
326.712
 20
-186.101
 30
0
 10
326.593
 20
-186.198
 30
0
 10
326.473
 20
-186.288
 30
0
  0
LINE
  5
C55
330
A02
100
AcDbEntity
  8
Shape2DView
100
AcDbLine
 10
327.758
 20
-179.521
 30
0
 11
327.997
 21
-179.282
 31
0
  0
LINE
  5
C56
330
A02
100
AcDbEntity
  8
Shape2DView
100
AcDbLine
 10
327.758
 20
-181.099
 30
0
 11
327.758
 21
-179.521
 31
0
  0
LINE
  5
C57
330
A02
100
AcDbEntity
  8
Shape2DView
100
AcDbLine
 10
326.712
 20
-179.521
 30
0
 11
326.473
 21
-179.282
 31
0
  0
LINE
  5
C58
330
A02
100
AcDbEntity
  8
Shape2DView
100
AcDbLine
 10
327.758
 20
-179.521
 30
0
 11
326.712
 21
-179.521
 31
0
  0
LINE
  5
C59
330
A02
100
AcDbEntity
  8
Shape2DView
100
AcDbLine
 10
326.712
 20
-179.521
 30
0
 11
326.712
 21
-181.099
 31
0
  0
LINE
  5
C5A
330
A02
100
AcDbEntity
  8
Shape2DView
100
AcDbLine
 10
323.156
 20
-183.077
 30
0
 11
322.917
 21
-182.838
 31
0
  0
LINE
  5
C5B
330
A02
100
AcDbEntity
  8
Shape2DView
100
AcDbLine
 10
323.156
 20
-184.123
 30
0
 11
322.917
 21
-184.362
 31
0
  0
LINE
  5
C5C
330
A02
100
AcDbEntity
  8
Shape2DView
100
AcDbLine
 10
326.712
 20
-187.679
 30
0
 11
326.473
 21
-187.918
 31
0
  0
LINE
  5
C5D
330
A02
100
AcDbEntity
  8
Shape2DView
100
AcDbLine
 10
327.758
 20
-187.679
 30
0
 11
327.997
 21
-187.918
 31
0
  0
LINE
  5
C5E
330
A02
100
AcDbEntity
  8
Shape2DView
100
AcDbLine
 10
331.314
 20
-56.0774
 30
0
 11
331.553
 21
-55.838
 31
0
  0
LINE
  5
C5F
330
A02
100
AcDbEntity
  8
Shape2DView
100
AcDbLine
 10
331.314
 20
-57.1226
 30
0
 11
331.553
 21
-57.362
 31
0
  0
ARC
  5
C60
330
A02
100
AcDbEntity
  8
Shape2DView
100
AcDbCircle
 10
327.235
 20
-56.6
 30
0
 40
2.47035
100
AcDbArc
 50
90
 51
-90
  0
ARC
  5
C61
330
A02
100
AcDbEntity
  8
Shape2DView
100
AcDbCircle
 10
327.235
 20
-56.6
 30
0
 40
2.55459
100
AcDbArc
 50
90
 51
101.804
  0
SPLINE
  5
C62
330
A02
100
AcDbEntity
  8
Shape2DView
100
AcDbSpline
210
0
220
0
230
1
 70
8
 71
2
 72
6
 73
3
 74
0
 40
0
 40
0
 40
0
 40
0.0137194
 40
0.0137194
 40
0.0137194
 10
326.712
 20
-54.0994
 30
0
 10
326.593
 20
-54.0023
 30
0
 10
326.473
 20
-53.9119
 30
0
  0
SPLINE
  5
C63
330
A02
100
AcDbEntity
  8
Shape2DView
100
AcDbSpline
210
0
220
0
230
1
 70
8
 71
2
 72
6
 73
3
 74
0
 40
0
 40
0
 40
0
 40
0.0137194
 40
0.0137194
 40
0.0137194
 10
324.734
 20
-56.0774
 30
0
 10
324.637
 20
-55.9577
 30
0
 10
324.547
 20
-55.838
 30
0
  0
SPLINE
  5
C64
330
A02
100
AcDbEntity
  8
Shape2DView
100
AcDbSpline
210
0
220
0
230
1
 70
8
 71
2
 72
6
 73
3
 74
0
 40
0
 40
0
 40
0
 40
0.0137194
 40
0.0137194
 40
0.0137194
 10
324.734
 20
-57.1226
 30
0
 10
324.637
 20
-57.2423
 30
0
 10
324.547
 20
-57.362
 30
0
  0
SPLINE
  5
C65
330
A02
100
AcDbEntity
  8
Shape2DView
100
AcDbSpline
210
0
220
0
230
1
 70
8
 71
2
 72
6
 73
3
 74
0
 40
0
 40
0
 40
0
 40
0.0137194
 40
0.0137194
 40
0.0137194
 10
326.712
 20
-59.1006
 30
0
 10
326.593
 20
-59.1977
 30
0
 10
326.473
 20
-59.2881
 30
0
  0
LINE
  5
C66
330
A02
100
AcDbEntity
  8
Shape2DView
100
AcDbLine
 10
327.758
 20
-52.5214
 30
0
 11
327.997
 21
-52.282
 31
0
  0
LINE
  5
C67
330
A02
100
AcDbEntity
  8
Shape2DView
100
AcDbLine
 10
327.758
 20
-54.0994
 30
0
 11
327.758
 21
-52.5214
 31
0
  0
LINE
  5
C68
330
A02
100
AcDbEntity
  8
Shape2DView
100
AcDbLine
 10
326.712
 20
-52.5214
 30
0
 11
326.473
 21
-52.282
 31
0
  0
LINE
  5
C69
330
A02
100
AcDbEntity
  8
Shape2DView
100
AcDbLine
 10
327.758
 20
-52.5214
 30
0
 11
326.712
 21
-52.5214
 31
0
  0
LINE
  5
C6A
330
A02
100
AcDbEntity
  8
Shape2DView
100
AcDbLine
 10
326.712
 20
-52.5214
 30
0
 11
326.712
 21
-54.0994
 31
0
  0
LINE
  5
C6B
330
A02
100
AcDbEntity
  8
Shape2DView
100
AcDbLine
 10
323.156
 20
-56.0774
 30
0
 11
322.917
 21
-55.838
 31
0
  0
LINE
  5
C6C
330
A02
100
AcDbEntity
  8
Shape2DView
100
AcDbLine
 10
323.156
 20
-57.1226
 30
0
 11
322.917
 21
-57.362
 31
0
  0
LINE
  5
C6D
330
A02
100
AcDbEntity
  8
Shape2DView
100
AcDbLine
 10
326.712
 20
-60.6786
 30
0
 11
326.473
 21
-60.918
 31
0
  0
LINE
  5
C6E
330
A02
100
AcDbEntity
  8
Shape2DView
100
AcDbLine
 10
327.758
 20
-60.6786
 30
0
 11
327.997
 21
-60.918
 31
0
  0
LINE
  5
C6F
330
A02
100
AcDbEntity
  8
Shape2DView
100
AcDbLine
 10
108.302
 20
-56.0774
 30
0
 11
108.541
 21
-55.838
 31
0
  0
LINE
  5
C70
330
A02
100
AcDbEntity
  8
Shape2DView
100
AcDbLine
 10
108.302
 20
-57.1226
 30
0
 11
108.541
 21
-57.362
 31
0
  0
ARC
  5
C71
330
A02
100
AcDbEntity
  8
Shape2DView
100
AcDbCircle
 10
104.223
 20
-56.6
 30
0
 40
2.47035
100
AcDbArc
 50
90
 51
-90
  0
ARC
  5
C72
330
A02
100
AcDbEntity
  8
Shape2DView
100
AcDbCircle
 10
104.223
 20
-56.6
 30
0
 40
2.55459
100
AcDbArc
 50
90
 51
101.804
  0
SPLINE
  5
C73
330
A02
100
AcDbEntity
  8
Shape2DView
100
AcDbSpline
210
0
220
0
230
1
 70
8
 71
2
 72
6
 73
3
 74
0
 40
0
 40
0
 40
0
 40
0.0137194
 40
0.0137194
 40
0.0137194
 10
103.7
 20
-54.0994
 30
0
 10
103.581
 20
-54.0023
 30
0
 10
103.461
 20
-53.9119
 30
0
  0
SPLINE
  5
C74
330
A02
100
AcDbEntity
  8
Shape2DView
100
AcDbSpline
210
0
220
0
230
1
 70
8
 71
2
 72
6
 73
3
 74
0
 40
0
 40
0
 40
0
 40
0.0137194
 40
0.0137194
 40
0.0137194
 10
101.722
 20
-56.0774
 30
0
 10
101.625
 20
-55.9577
 30
0
 10
101.535
 20
-55.838
 30
0
  0
SPLINE
  5
C75
330
A02
100
AcDbEntity
  8
Shape2DView
100
AcDbSpline
210
0
220
0
230
1
 70
8
 71
2
 72
6
 73
3
 74
0
 40
0
 40
0
 40
0
 40
0.0137194
 40
0.0137194
 40
0.0137194
 10
101.722
 20
-57.1226
 30
0
 10
101.625
 20
-57.2423
 30
0
 10
101.535
 20
-57.362
 30
0
  0
SPLINE
  5
C76
330
A02
100
AcDbEntity
  8
Shape2DView
100
AcDbSpline
210
0
220
0
230
1
 70
8
 71
2
 72
6
 73
3
 74
0
 40
0
 40
0
 40
0
 40
0.0137194
 40
0.0137194
 40
0.0137194
 10
103.7
 20
-59.1006
 30
0
 10
103.581
 20
-59.1977
 30
0
 10
103.461
 20
-59.2881
 30
0
  0
LINE
  5
C77
330
A02
100
AcDbEntity
  8
Shape2DView
100
AcDbLine
 10
104.746
 20
-52.5214
 30
0
 11
104.985
 21
-52.282
 31
0
  0
LINE
  5
C78
330
A02
100
AcDbEntity
  8
Shape2DView
100
AcDbLine
 10
104.746
 20
-54.0994
 30
0
 11
104.746
 21
-52.5214
 31
0
  0
LINE
  5
C79
330
A02
100
AcDbEntity
  8
Shape2DView
100
AcDbLine
 10
103.7
 20
-52.5214
 30
0
 11
103.461
 21
-52.282
 31
0
  0
LINE
  5
C7A
330
A02
100
AcDbEntity
  8
Shape2DView
100
AcDbLine
 10
104.746
 20
-52.5214
 30
0
 11
103.7
 21
-52.5214
 31
0
  0
LINE
  5
C7B
330
A02
100
AcDbEntity
  8
Shape2DView
100
AcDbLine
 10
103.7
 20
-52.5214
 30
0
 11
103.7
 21
-54.0994
 31
0
  0
LINE
  5
C7C
330
A02
100
AcDbEntity
  8
Shape2DView
100
AcDbLine
 10
100.144
 20
-56.0774
 30
0
 11
99.9049
 21
-55.838
 31
0
  0
LINE
  5
C7D
330
A02
100
AcDbEntity
  8
Shape2DView
100
AcDbLine
 10
100.144
 20
-57.1226
 30
0
 11
99.9049
 21
-57.362
 31
0
  0
LINE
  5
C7E
330
A02
100
AcDbEntity
  8
Shape2DView
100
AcDbLine
 10
103.7
 20
-60.6786
 30
0
 11
103.461
 21
-60.918
 31
0
  0
LINE
  5
C7F
330
A02
100
AcDbEntity
  8
Shape2DView
100
AcDbLine
 10
104.746
 20
-60.6786
 30
0
 11
104.985
 21
-60.918
 31
0
  0
ARC
  5
C80
330
A02
100
AcDbEntity
  8
Shape2DView
100
AcDbCircle
 10
327.235
 20
-183.6
 30
0
 40
1.143
100
AcDbArc
 50
90
 51
-90
  0
ARC
  5
C81
330
A02
100
AcDbEntity
  8
Shape2DView
100
AcDbCircle
 10
104.223
 20
-183.6
 30
0
 40
1.143
100
AcDbArc
 50
90
 51
-90
  0
ARC
  5
C82
330
A02
100
AcDbEntity
  8
Shape2DView
100
AcDbCircle
 10
327.235
 20
-56.6
 30
0
 40
1.143
100
AcDbArc
 50
90
 51
-90
  0
ARC
  5
C83
330
A02
100
AcDbEntity
  8
Shape2DView
100
AcDbCircle
 10
104.223
 20
-56.6
 30
0
 40
1.143
100
AcDbArc
 50
90
 51
-90
  0
LINE
  5
C84
330
A02
100
AcDbEntity
  8
Shape2DView
100
AcDbLine
 10
-0.153314
 20
-186.229
 30
0
 11
-2.05831
 21
-186.229
 31
0
  0
LINE
  5
C85
330
A02
100
AcDbEntity
  8
Shape2DView
100
AcDbLine
 10
-2.05831
 20
-186.229
 30
0
 11
-2.05831
 21
-218.868
 31
0
  0
LINE
  5
C86
330
A02
100
AcDbEntity
  8
Shape2DView
100
AcDbLine
 10
-2.05831
 20
-218.868
 30
0
 11
-0.153314
 21
-218.868
 31
0
  0
LINE
  5
C87
330
A02
100
AcDbEntity
  8
Shape2DView
100
AcDbLine
 10
-0.153314
 20
-218.868
 30
0
 11
-0.153314
 21
-186.229
 31
0
  0
SPLINE
  5
C88
330
A02
100
AcDbEntity
  8
Shape2DView
100
AcDbSpline
210
0
220
0
230
1
 70
8
 71
2
 72
30
 73
27
 74
0
 40
4.71239
 40
4.71239
 40
4.71239
 40
4.82459
 40
4.82459
 40
5.04899
 40
5.04899
 40
5.16119
 40
5.16119
 40
5.27339
 40
5.27339
 40
5.38559
 40
5.38559
 40
5.49779
 40
5.49779
 40
5.60999
 40
5.60999
 40
5.72219
 40
5.72219
 40
5.83439
 40
5.83439
 40
5.94659
 40
5.94659
 40
6.05879
 40
6.05879
 40
6.17099
 40
6.17099
 40
6.28319
 40
6.28319
 40
6.28319
 10
-2.05831
 20
-218.868
 30
0
 10
-2.05831
 20
-219.01
 30
0
 10
-2.05831
 20
-219.152
 30
0
 10
-2.05831
 20
-219.435
 30
0
 10
-2.05831
 20
-219.707
 30
0
 10
-2.05831
 20
-219.838
 30
0
 10
-2.05831
 20
-219.97
 30
0
 10
-2.05831
 20
-220.095
 30
0
 10
-2.05831
 20
-220.219
 30
0
 10
-2.05831
 20
-220.335
 30
0
 10
-2.05831
 20
-220.452
 30
0
 10
-2.05831
 20
-220.558
 30
0
 10
-2.05831
 20
-220.664
 30
0
 10
-2.05831
 20
-220.759
 30
0
 10
-2.05831
 20
-220.854
 30
0
 10
-2.05831
 20
-220.936
 30
0
 10
-2.05831
 20
-221.019
 30
0
 10
-2.05831
 20
-221.087
 30
0
 10
-2.05831
 20
-221.156
 30
0
 10
-2.05831
 20
-221.211
 30
0
 10
-2.05831
 20
-221.265
 30
0
 10
-2.05831
 20
-221.305
 30
0
 10
-2.05831
 20
-221.344
 30
0
 10
-2.05831
 20
-221.368
 30
0
 10
-2.05831
 20
-221.392
 30
0
 10
-2.05831
 20
-221.4
 30
0
 10
-2.05831
 20
-221.408
 30
0
  0
SPLINE
  5
C89
330
A02
100
AcDbEntity
  8
Shape2DView
100
AcDbSpline
210
0
220
0
230
1
 70
8
 71
2
 72
30
 73
27
 74
0
 40
3.14159
 40
3.14159
 40
3.14159
 40
3.25379
 40
3.25379
 40
3.36599
 40
3.36599
 40
3.47819
 40
3.47819
 40
3.59039
 40
3.59039
 40
3.70259
 40
3.70259
 40
3.81479
 40
3.81479
 40
3.92699
 40
3.92699
 40
4.03919
 40
4.03919
 40
4.15139
 40
4.15139
 40
4.26359
 40
4.26359
 40
4.37579
 40
4.37579
 40
4.48799
 40
4.48799
 40
4.71239
 40
4.71239
 40
4.71239
 10
-0.153314
 20
-221.408
 30
0
 10
-0.153314
 20
-221.4
 30
0
 10
-0.153314
 20
-221.392
 30
0
 10
-0.153314
 20
-221.368
 30
0
 10
-0.153314
 20
-221.344
 30
0
 10
-0.153314
 20
-221.305
 30
0
 10
-0.153314
 20
-221.265
 30
0
 10
-0.153314
 20
-221.211
 30
0
 10
-0.153314
 20
-221.156
 30
0
 10
-0.153314
 20
-221.087
 30
0
 10
-0.153314
 20
-221.019
 30
0
 10
-0.153314
 20
-220.936
 30
0
 10
-0.153314
 20
-220.854
 30
0
 10
-0.153314
 20
-220.759
 30
0
 10
-0.153314
 20
-220.664
 30
0
 10
-0.153314
 20
-220.558
 30
0
 10
-0.153314
 20
-220.452
 30
0
 10
-0.153314
 20
-220.335
 30
0
 10
-0.153314
 20
-220.219
 30
0
 10
-0.153314
 20
-220.095
 30
0
 10
-0.153314
 20
-219.97
 30
0
 10
-0.153314
 20
-219.838
 30
0
 10
-0.153314
 20
-219.707
 30
0
 10
-0.153314
 20
-219.57
 30
0
 10
-0.153314
 20
-219.433
 30
0
 10
-0.153314
 20
-219.153
 30
0
 10
-0.153314
 20
-218.868
 30
0
  0
SPLINE
  5
C8A
330
A02
100
AcDbEntity
  8
Shape2DView
100
AcDbSpline
210
0
220
0
230
1
 70
8
 71
3
 72
26
 73
22
 74
0
 40
0
 40
0
 40
0
 40
0
 40
0.1122
 40
0.1122
 40
0.1122
 40
0.224399
 40
0.224399
 40
0.224399
 40
0.336599
 40
0.336599
 40
0.336599
 40
0.448799
 40
0.448799
 40
0.448799
 40
0.560999
 40
0.560999
 40
0.560999
 40
0.785398
 40
0.785398
 40
0.785398
 40
1.5708
 40
1.5708
 40
1.5708
 40
1.5708
 10
-2.05831
 20
-185.467
 30
0
 10
-2.05831
 20
-185.468
 30
0
 10
-2.05831
 20
-185.47
 30
0
 10
-2.05831
 20
-185.472
 30
0
 10
-2.05831
 20
-185.476
 30
0
 10
-2.05831
 20
-185.481
 30
0
 10
-2.05831
 20
-185.486
 30
0
 10
-2.05831
 20
-185.494
 30
0
 10
-2.05831
 20
-185.502
 30
0
 10
-2.05831
 20
-185.51
 30
0
 10
-2.05831
 20
-185.521
 30
0
 10
-2.05831
 20
-185.531
 30
0
 10
-2.05831
 20
-185.542
 30
0
 10
-2.05831
 20
-185.556
 30
0
 10
-2.05831
 20
-185.57
 30
0
 10
-2.05831
 20
-185.584
 30
0
 10
-2.05831
 20
-185.615
 30
0
 10
-2.05831
 20
-185.651
 30
0
 10
-2.05831
 20
-185.69
 30
0
 10
-2.05831
 20
-185.832
 30
0
 10
-2.05831
 20
-186.029
 30
0
 10
-2.05831
 20
-186.229
 30
0
  0
SPLINE
  5
C8B
330
A02
100
AcDbEntity
  8
Shape2DView
100
AcDbSpline
210
0
220
0
230
1
 70
8
 71
3
 72
29
 73
25
 74
0
 40
4.71239
 40
4.71239
 40
4.71239
 40
4.71239
 40
5.49779
 40
5.49779
 40
5.49779
 40
5.60999
 40
5.60999
 40
5.60999
 40
5.72219
 40
5.72219
 40
5.72219
 40
5.83439
 40
5.83439
 40
5.83439
 40
5.94659
 40
5.94659
 40
5.94659
 40
6.05879
 40
6.05879
 40
6.05879
 40
6.17099
 40
6.17099
 40
6.17099
 40
6.28319
 40
6.28319
 40
6.28319
 40
6.28319
 10
-0.153314
 20
-186.229
 30
0
 10
-0.153314
 20
-186.029
 30
0
 10
-0.153314
 20
-185.832
 30
0
 10
-0.153314
 20
-185.69
 30
0
 10
-0.153314
 20
-185.671
 30
0
 10
-0.153314
 20
-185.652
 30
0
 10
-0.153314
 20
-185.633
 30
0
 10
-0.153314
 20
-185.617
 30
0
 10
-0.153314
 20
-185.6
 30
0
 10
-0.153314
 20
-185.584
 30
0
 10
-0.153314
 20
-185.57
 30
0
 10
-0.153314
 20
-185.556
 30
0
 10
-0.153314
 20
-185.542
 30
0
 10
-0.153314
 20
-185.531
 30
0
 10
-0.153314
 20
-185.521
 30
0
 10
-0.153314
 20
-185.51
 30
0
 10
-0.153314
 20
-185.502
 30
0
 10
-0.153314
 20
-185.494
 30
0
 10
-0.153314
 20
-185.486
 30
0
 10
-0.153314
 20
-185.481
 30
0
 10
-0.153314
 20
-185.476
 30
0
 10
-0.153314
 20
-185.472
 30
0
 10
-0.153314
 20
-185.47
 30
0
 10
-0.153314
 20
-185.468
 30
0
 10
-0.153314
 20
-185.467
 30
0
  0
SPLINE
  5
C8C
330
A02
100
AcDbEntity
  8
Shape2DView
100
AcDbSpline
210
0
220
0
230
1
 70
8
 71
3
 72
26
 73
22
 74
0
 40
0
 40
0
 40
0
 40
0
 40
0.1122
 40
0.1122
 40
0.1122
 40
0.224399
 40
0.224399
 40
0.224399
 40
0.336599
 40
0.336599
 40
0.336599
 40
0.448799
 40
0.448799
 40
0.448799
 40
0.560999
 40
0.560999
 40
0.560999
 40
0.785398
 40
0.785398
 40
0.785398
 40
1.5708
 40
1.5708
 40
1.5708
 40
1.5708
 10
-2.82031
 20
-218.868
 30
0
 10
-2.81872
 20
-218.868
 30
0
 10
-2.81712
 20
-218.868
 30
0
 10
-2.81552
 20
-218.868
 30
0
 10
-2.81075
 20
-218.868
 30
0
 10
-2.80598
 20
-218.868
 30
0
 10
-2.80121
 20
-218.868
 30
0
 10
-2.79332
 20
-218.868
 30
0
 10
-2.78544
 20
-218.868
 30
0
 10
-2.77755
 20
-218.868
 30
0
 10
-2.76665
 20
-218.868
 30
0
 10
-2.75575
 20
-218.868
 30
0
 10
-2.74485
 20
-218.868
 30
0
 10
-2.73107
 20
-218.868
 30
0
 10
-2.7173
 20
-218.868
 30
0
 10
-2.70352
 20
-218.868
 30
0
 10
-2.67195
 20
-218.868
 30
0
 10
-2.63649
 20
-218.868
 30
0
 10
-2.59713
 20
-218.868
 30
0
 10
-2.45527
 20
-218.868
 30
0
 10
-2.25827
 20
-218.868
 30
0
 10
-2.05831
 20
-218.868
 30
0
  0
SPLINE
  5
C8D
330
A02
100
AcDbEntity
  8
Shape2DView
100
AcDbSpline
210
0
220
0
230
1
 70
8
 71
3
 72
26
 73
22
 74
0
 40
0
 40
0
 40
0
 40
0
 40
0.1122
 40
0.1122
 40
0.1122
 40
0.224399
 40
0.224399
 40
0.224399
 40
0.336599
 40
0.336599
 40
0.336599
 40
0.448799
 40
0.448799
 40
0.448799
 40
0.560999
 40
0.560999
 40
0.560999
 40
0.785398
 40
0.785398
 40
0.785398
 40
1.5708
 40
1.5708
 40
1.5708
 40
1.5708
 10
-2.82031
 20
-186.229
 30
0
 10
-2.81872
 20
-186.229
 30
0
 10
-2.81712
 20
-186.229
 30
0
 10
-2.81552
 20
-186.229
 30
0
 10
-2.81075
 20
-186.229
 30
0
 10
-2.80598
 20
-186.229
 30
0
 10
-2.80121
 20
-186.229
 30
0
 10
-2.79332
 20
-186.229
 30
0
 10
-2.78544
 20
-186.229
 30
0
 10
-2.77755
 20
-186.229
 30
0
 10
-2.76665
 20
-186.229
 30
0
 10
-2.75575
 20
-186.229
 30
0
 10
-2.74485
 20
-186.229
 30
0
 10
-2.73107
 20
-186.229
 30
0
 10
-2.7173
 20
-186.229
 30
0
 10
-2.70352
 20
-186.229
 30
0
 10
-2.67195
 20
-186.229
 30
0
 10
-2.63649
 20
-186.229
 30
0
 10
-2.59713
 20
-186.229
 30
0
 10
-2.45527
 20
-186.229
 30
0
 10
-2.25827
 20
-186.229
 30
0
 10
-2.05831
 20
-186.229
 30
0
  0
SPLINE
  5
C8E
330
A02
100
AcDbEntity
  8
Shape2DView
100
AcDbSpline
210
0
220
0
230
1
 70
8
 71
3
 72
29
 73
25
 74
0
 40
1.5708
 40
1.5708
 40
1.5708
 40
1.5708
 40
2.35619
 40
2.35619
 40
2.35619
 40
2.46839
 40
2.46839
 40
2.46839
 40
2.58059
 40
2.58059
 40
2.58059
 40
2.69279
 40
2.69279
 40
2.69279
 40
2.80499
 40
2.80499
 40
2.80499
 40
2.91719
 40
2.91719
 40
2.91719
 40
3.02939
 40
3.02939
 40
3.02939
 40
3.14159
 40
3.14159
 40
3.14159
 40
3.14159
 10
-0.153314
 20
-186.229
 30
0
 10
0.046642
 20
-186.229
 30
0
 10
0.243644
 20
-186.229
 30
0
 10
0.385501
 20
-186.229
 30
0
 10
0.404481
 20
-186.229
 30
0
 10
0.423461
 20
-186.229
 30
0
 10
0.442441
 20
-186.229
 30
0
 10
0.458924
 20
-186.229
 30
0
 10
0.475407
 20
-186.229
 30
0
 10
0.49189
 20
-186.229
 30
0
 10
0.505668
 20
-186.229
 30
0
 10
0.519446
 20
-186.229
 30
0
 10
0.533224
 20
-186.229
 30
0
 10
0.544124
 20
-186.229
 30
0
 10
0.555025
 20
-186.229
 30
0
 10
0.565925
 20
-186.229
 30
0
 10
0.57381
 20
-186.229
 30
0
 10
0.581696
 20
-186.229
 30
0
 10
0.589581
 20
-186.229
 30
0
 10
0.594352
 20
-186.229
 30
0
 10
0.599123
 20
-186.229
 30
0
 10
0.603895
 20
-186.229
 30
0
 10
0.605492
 20
-186.229
 30
0
 10
0.607089
 20
-186.229
 30
0
 10
0.608686
 20
-186.229
 30
0
  0
SPLINE
  5
C8F
330
A02
100
AcDbEntity
  8
Shape2DView
100
AcDbSpline
210
0
220
0
230
1
 70
8
 71
3
 72
26
 73
22
 74
0
 40
0
 40
0
 40
0
 40
0
 40
0.1122
 40
0.1122
 40
0.1122
 40
0.224399
 40
0.224399
 40
0.224399
 40
0.336599
 40
0.336599
 40
0.336599
 40
0.448799
 40
0.448799
 40
0.448799
 40
0.560999
 40
0.560999
 40
0.560999
 40
0.785398
 40
0.785398
 40
0.785398
 40
1.5708
 40
1.5708
 40
1.5708
 40
1.5708
 10
0.608686
 20
-218.868
 30
0
 10
0.607089
 20
-218.868
 30
0
 10
0.605492
 20
-218.868
 30
0
 10
0.603895
 20
-218.868
 30
0
 10
0.599123
 20
-218.868
 30
0
 10
0.594352
 20
-218.868
 30
0
 10
0.589581
 20
-218.868
 30
0
 10
0.581696
 20
-218.868
 30
0
 10
0.57381
 20
-218.868
 30
0
 10
0.565925
 20
-218.868
 30
0
 10
0.555025
 20
-218.868
 30
0
 10
0.544124
 20
-218.868
 30
0
 10
0.533224
 20
-218.868
 30
0
 10
0.519446
 20
-218.868
 30
0
 10
0.505668
 20
-218.868
 30
0
 10
0.49189
 20
-218.868
 30
0
 10
0.460325
 20
-218.868
 30
0
 10
0.424862
 20
-218.868
 30
0
 10
0.385501
 20
-218.868
 30
0
 10
0.243644
 20
-218.868
 30
0
 10
0.046642
 20
-218.868
 30
0
 10
-0.153314
 20
-218.868
 30
0
  0
LINE
  5
C90
330
A02
100
AcDbEntity
  8
Shape2DView
100
AcDbLine
 10
431.647
 20
-218.868
 30
0
 11
433.552
 21
-218.868
 31
0
  0
LINE
  5
C91
330
A02
100
AcDbEntity
  8
Shape2DView
100
AcDbLine
 10
433.552
 20
-218.868
 30
0
 11
433.552
 21
-186.229
 31
0
  0
LINE
  5
C92
330
A02
100
AcDbEntity
  8
Shape2DView
100
AcDbLine
 10
433.552
 20
-186.229
 30
0
 11
431.647
 21
-186.229
 31
0
  0
LINE
  5
C93
330
A02
100
AcDbEntity
  8
Shape2DView
100
AcDbLine
 10
431.647
 20
-186.229
 30
0
 11
431.647
 21
-218.868
 31
0
  0
SPLINE
  5
C94
330
A02
100
AcDbEntity
  8
Shape2DView
100
AcDbSpline
210
0
220
0
230
1
 70
8
 71
2
 72
30
 73
27
 74
0
 40
0
 40
0
 40
0
 40
0.1122
 40
0.1122
 40
0.224399
 40
0.224399
 40
0.336599
 40
0.336599
 40
0.448799
 40
0.448799
 40
0.560999
 40
0.560999
 40
0.673198
 40
0.673198
 40
0.785398
 40
0.785398
 40
0.897598
 40
0.897598
 40
1.0098
 40
1.0098
 40
1.122
 40
1.122
 40
1.2342
 40
1.2342
 40
1.3464
 40
1.3464
 40
1.5708
 40
1.5708
 40
1.5708
 10
433.552
 20
-221.408
 30
0
 10
433.552
 20
-221.4
 30
0
 10
433.552
 20
-221.392
 30
0
 10
433.552
 20
-221.368
 30
0
 10
433.552
 20
-221.344
 30
0
 10
433.552
 20
-221.305
 30
0
 10
433.552
 20
-221.265
 30
0
 10
433.552
 20
-221.211
 30
0
 10
433.552
 20
-221.156
 30
0
 10
433.552
 20
-221.087
 30
0
 10
433.552
 20
-221.019
 30
0
 10
433.552
 20
-220.936
 30
0
 10
433.552
 20
-220.854
 30
0
 10
433.552
 20
-220.759
 30
0
 10
433.552
 20
-220.664
 30
0
 10
433.552
 20
-220.558
 30
0
 10
433.552
 20
-220.452
 30
0
 10
433.552
 20
-220.335
 30
0
 10
433.552
 20
-220.219
 30
0
 10
433.552
 20
-220.095
 30
0
 10
433.552
 20
-219.97
 30
0
 10
433.552
 20
-219.838
 30
0
 10
433.552
 20
-219.707
 30
0
 10
433.552
 20
-219.57
 30
0
 10
433.552
 20
-219.433
 30
0
 10
433.552
 20
-219.153
 30
0
 10
433.552
 20
-218.868
 30
0
  0
SPLINE
  5
C95
330
A02
100
AcDbEntity
  8
Shape2DView
100
AcDbSpline
210
0
220
0
230
1
 70
8
 71
2
 72
30
 73
27
 74
0
 40
1.5708
 40
1.5708
 40
1.5708
 40
1.683
 40
1.683
 40
1.9074
 40
1.9074
 40
2.0196
 40
2.0196
 40
2.1318
 40
2.1318
 40
2.24399
 40
2.24399
 40
2.35619
 40
2.35619
 40
2.46839
 40
2.46839
 40
2.58059
 40
2.58059
 40
2.69279
 40
2.69279
 40
2.80499
 40
2.80499
 40
2.91719
 40
2.91719
 40
3.02939
 40
3.02939
 40
3.14159
 40
3.14159
 40
3.14159
 10
431.647
 20
-218.868
 30
0
 10
431.647
 20
-219.01
 30
0
 10
431.647
 20
-219.152
 30
0
 10
431.647
 20
-219.435
 30
0
 10
431.647
 20
-219.707
 30
0
 10
431.647
 20
-219.838
 30
0
 10
431.647
 20
-219.97
 30
0
 10
431.647
 20
-220.095
 30
0
 10
431.647
 20
-220.219
 30
0
 10
431.647
 20
-220.335
 30
0
 10
431.647
 20
-220.452
 30
0
 10
431.647
 20
-220.558
 30
0
 10
431.647
 20
-220.664
 30
0
 10
431.647
 20
-220.759
 30
0
 10
431.647
 20
-220.854
 30
0
 10
431.647
 20
-220.936
 30
0
 10
431.647
 20
-221.019
 30
0
 10
431.647
 20
-221.087
 30
0
 10
431.647
 20
-221.156
 30
0
 10
431.647
 20
-221.211
 30
0
 10
431.647
 20
-221.265
 30
0
 10
431.647
 20
-221.305
 30
0
 10
431.647
 20
-221.344
 30
0
 10
431.647
 20
-221.368
 30
0
 10
431.647
 20
-221.392
 30
0
 10
431.647
 20
-221.4
 30
0
 10
431.647
 20
-221.408
 30
0
  0
SPLINE
  5
C96
330
A02
100
AcDbEntity
  8
Shape2DView
100
AcDbSpline
210
0
220
0
230
1
 70
8
 71
3
 72
29
 73
25
 74
0
 40
1.5708
 40
1.5708
 40
1.5708
 40
1.5708
 40
2.35619
 40
2.35619
 40
2.35619
 40
2.46839
 40
2.46839
 40
2.46839
 40
2.58059
 40
2.58059
 40
2.58059
 40
2.69279
 40
2.69279
 40
2.69279
 40
2.80499
 40
2.80499
 40
2.80499
 40
2.91719
 40
2.91719
 40
2.91719
 40
3.02939
 40
3.02939
 40
3.02939
 40
3.14159
 40
3.14159
 40
3.14159
 40
3.14159
 10
433.552
 20
-186.229
 30
0
 10
433.552
 20
-186.029
 30
0
 10
433.552
 20
-185.832
 30
0
 10
433.552
 20
-185.69
 30
0
 10
433.552
 20
-185.671
 30
0
 10
433.552
 20
-185.652
 30
0
 10
433.552
 20
-185.633
 30
0
 10
433.552
 20
-185.617
 30
0
 10
433.552
 20
-185.6
 30
0
 10
433.552
 20
-185.584
 30
0
 10
433.552
 20
-185.57
 30
0
 10
433.552
 20
-185.556
 30
0
 10
433.552
 20
-185.542
 30
0
 10
433.552
 20
-185.531
 30
0
 10
433.552
 20
-185.521
 30
0
 10
433.552
 20
-185.51
 30
0
 10
433.552
 20
-185.502
 30
0
 10
433.552
 20
-185.494
 30
0
 10
433.552
 20
-185.486
 30
0
 10
433.552
 20
-185.481
 30
0
 10
433.552
 20
-185.476
 30
0
 10
433.552
 20
-185.472
 30
0
 10
433.552
 20
-185.47
 30
0
 10
433.552
 20
-185.468
 30
0
 10
433.552
 20
-185.467
 30
0
  0
SPLINE
  5
C97
330
A02
100
AcDbEntity
  8
Shape2DView
100
AcDbSpline
210
0
220
0
230
1
 70
8
 71
3
 72
26
 73
22
 74
0
 40
3.14159
 40
3.14159
 40
3.14159
 40
3.14159
 40
3.25379
 40
3.25379
 40
3.25379
 40
3.36599
 40
3.36599
 40
3.36599
 40
3.47819
 40
3.47819
 40
3.47819
 40
3.59039
 40
3.59039
 40
3.59039
 40
3.70259
 40
3.70259
 40
3.70259
 40
3.92699
 40
3.92699
 40
3.92699
 40
4.71239
 40
4.71239
 40
4.71239
 40
4.71239
 10
431.647
 20
-185.467
 30
0
 10
431.647
 20
-185.468
 30
0
 10
431.647
 20
-185.47
 30
0
 10
431.647
 20
-185.472
 30
0
 10
431.647
 20
-185.476
 30
0
 10
431.647
 20
-185.481
 30
0
 10
431.647
 20
-185.486
 30
0
 10
431.647
 20
-185.494
 30
0
 10
431.647
 20
-185.502
 30
0
 10
431.647
 20
-185.51
 30
0
 10
431.647
 20
-185.521
 30
0
 10
431.647
 20
-185.531
 30
0
 10
431.647
 20
-185.542
 30
0
 10
431.647
 20
-185.556
 30
0
 10
431.647
 20
-185.57
 30
0
 10
431.647
 20
-185.584
 30
0
 10
431.647
 20
-185.615
 30
0
 10
431.647
 20
-185.651
 30
0
 10
431.647
 20
-185.69
 30
0
 10
431.647
 20
-185.832
 30
0
 10
431.647
 20
-186.029
 30
0
 10
431.647
 20
-186.229
 30
0
  0
SPLINE
  5
C98
330
A02
100
AcDbEntity
  8
Shape2DView
100
AcDbSpline
210
0
220
0
230
1
 70
8
 71
3
 72
29
 73
25
 74
0
 40
4.71239
 40
4.71239
 40
4.71239
 40
4.71239
 40
5.49779
 40
5.49779
 40
5.49779
 40
5.60999
 40
5.60999
 40
5.60999
 40
5.72219
 40
5.72219
 40
5.72219
 40
5.83439
 40
5.83439
 40
5.83439
 40
5.94659
 40
5.94659
 40
5.94659
 40
6.05879
 40
6.05879
 40
6.05879
 40
6.17099
 40
6.17099
 40
6.17099
 40
6.28319
 40
6.28319
 40
6.28319
 40
6.28319
 10
433.552
 20
-218.868
 30
0
 10
433.752
 20
-218.868
 30
0
 10
433.949
 20
-218.868
 30
0
 10
434.091
 20
-218.868
 30
0
 10
434.109
 20
-218.868
 30
0
 10
434.128
 20
-218.868
 30
0
 10
434.147
 20
-218.868
 30
0
 10
434.164
 20
-218.868
 30
0
 10
434.18
 20
-218.868
 30
0
 10
434.197
 20
-218.868
 30
0
 10
434.211
 20
-218.868
 30
0
 10
434.224
 20
-218.868
 30
0
 10
434.238
 20
-218.868
 30
0
 10
434.249
 20
-218.868
 30
0
 10
434.26
 20
-218.868
 30
0
 10
434.271
 20
-218.868
 30
0
 10
434.279
 20
-218.868
 30
0
 10
434.287
 20
-218.868
 30
0
 10
434.295
 20
-218.868
 30
0
 10
434.299
 20
-218.868
 30
0
 10
434.304
 20
-218.868
 30
0
 10
434.309
 20
-218.868
 30
0
 10
434.31
 20
-218.868
 30
0
 10
434.312
 20
-218.868
 30
0
 10
434.314
 20
-218.868
 30
0
  0
SPLINE
  5
C99
330
A02
100
AcDbEntity
  8
Shape2DView
100
AcDbSpline
210
0
220
0
230
1
 70
8
 71
3
 72
29
 73
25
 74
0
 40
4.71239
 40
4.71239
 40
4.71239
 40
4.71239
 40
5.49779
 40
5.49779
 40
5.49779
 40
5.60999
 40
5.60999
 40
5.60999
 40
5.72219
 40
5.72219
 40
5.72219
 40
5.83439
 40
5.83439
 40
5.83439
 40
5.94659
 40
5.94659
 40
5.94659
 40
6.05879
 40
6.05879
 40
6.05879
 40
6.17099
 40
6.17099
 40
6.17099
 40
6.28319
 40
6.28319
 40
6.28319
 40
6.28319
 10
433.552
 20
-186.229
 30
0
 10
433.752
 20
-186.229
 30
0
 10
433.949
 20
-186.229
 30
0
 10
434.091
 20
-186.229
 30
0
 10
434.109
 20
-186.229
 30
0
 10
434.128
 20
-186.229
 30
0
 10
434.147
 20
-186.229
 30
0
 10
434.164
 20
-186.229
 30
0
 10
434.18
 20
-186.229
 30
0
 10
434.197
 20
-186.229
 30
0
 10
434.211
 20
-186.229
 30
0
 10
434.224
 20
-186.229
 30
0
 10
434.238
 20
-186.229
 30
0
 10
434.249
 20
-186.229
 30
0
 10
434.26
 20
-186.229
 30
0
 10
434.271
 20
-186.229
 30
0
 10
434.279
 20
-186.229
 30
0
 10
434.287
 20
-186.229
 30
0
 10
434.295
 20
-186.229
 30
0
 10
434.299
 20
-186.229
 30
0
 10
434.304
 20
-186.229
 30
0
 10
434.309
 20
-186.229
 30
0
 10
434.31
 20
-186.229
 30
0
 10
434.312
 20
-186.229
 30
0
 10
434.314
 20
-186.229
 30
0
  0
SPLINE
  5
C9A
330
A02
100
AcDbEntity
  8
Shape2DView
100
AcDbSpline
210
0
220
0
230
1
 70
8
 71
3
 72
26
 73
22
 74
0
 40
3.14159
 40
3.14159
 40
3.14159
 40
3.14159
 40
3.25379
 40
3.25379
 40
3.25379
 40
3.36599
 40
3.36599
 40
3.36599
 40
3.47819
 40
3.47819
 40
3.47819
 40
3.59039
 40
3.59039
 40
3.59039
 40
3.70259
 40
3.70259
 40
3.70259
 40
3.92699
 40
3.92699
 40
3.92699
 40
4.71239
 40
4.71239
 40
4.71239
 40
4.71239
 10
430.885
 20
-218.868
 30
0
 10
430.886
 20
-218.868
 30
0
 10
430.888
 20
-218.868
 30
0
 10
430.889
 20
-218.868
 30
0
 10
430.894
 20
-218.868
 30
0
 10
430.899
 20
-218.868
 30
0
 10
430.904
 20
-218.868
 30
0
 10
430.912
 20
-218.868
 30
0
 10
430.92
 20
-218.868
 30
0
 10
430.927
 20
-218.868
 30
0
 10
430.938
 20
-218.868
 30
0
 10
430.949
 20
-218.868
 30
0
 10
430.96
 20
-218.868
 30
0
 10
430.974
 20
-218.868
 30
0
 10
430.988
 20
-218.868
 30
0
 10
431.001
 20
-218.868
 30
0
 10
431.033
 20
-218.868
 30
0
 10
431.069
 20
-218.868
 30
0
 10
431.108
 20
-218.868
 30
0
 10
431.25
 20
-218.868
 30
0
 10
431.447
 20
-218.868
 30
0
 10
431.647
 20
-218.868
 30
0
  0
SPLINE
  5
C9B
330
A02
100
AcDbEntity
  8
Shape2DView
100
AcDbSpline
210
0
220
0
230
1
 70
8
 71
3
 72
29
 73
25
 74
0
 40
3.14159
 40
3.14159
 40
3.14159
 40
3.14159
 40
3.92699
 40
3.92699
 40
3.92699
 40
4.03919
 40
4.03919
 40
4.03919
 40
4.15139
 40
4.15139
 40
4.15139
 40
4.26359
 40
4.26359
 40
4.26359
 40
4.37579
 40
4.37579
 40
4.37579
 40
4.48799
 40
4.48799
 40
4.48799
 40
4.60019
 40
4.60019
 40
4.60019
 40
4.71239
 40
4.71239
 40
4.71239
 40
4.71239
 10
431.647
 20
-186.229
 30
0
 10
431.447
 20
-186.229
 30
0
 10
431.25
 20
-186.229
 30
0
 10
431.108
 20
-186.229
 30
0
 10
431.089
 20
-186.229
 30
0
 10
431.07
 20
-186.229
 30
0
 10
431.051
 20
-186.229
 30
0
 10
431.034
 20
-186.229
 30
0
 10
431.018
 20
-186.229
 30
0
 10
431.001
 20
-186.229
 30
0
 10
430.988
 20
-186.229
 30
0
 10
430.974
 20
-186.229
 30
0
 10
430.96
 20
-186.229
 30
0
 10
430.949
 20
-186.229
 30
0
 10
430.938
 20
-186.229
 30
0
 10
430.927
 20
-186.229
 30
0
 10
430.92
 20
-186.229
 30
0
 10
430.912
 20
-186.229
 30
0
 10
430.904
 20
-186.229
 30
0
 10
430.899
 20
-186.229
 30
0
 10
430.894
 20
-186.229
 30
0
 10
430.889
 20
-186.229
 30
0
 10
430.888
 20
-186.229
 30
0
 10
430.886
 20
-186.229
 30
0
 10
430.885
 20
-186.229
 30
0
  0
LINE
  5
C9C
330
A02
100
AcDbEntity
  8
Shape2DView
100
AcDbLine
 10
226.669
 20
-217.788
 30
0
 11
226.669
 21
-220.176
 31
0
  0
LINE
  5
C9D
330
A02
100
AcDbEntity
  8
Shape2DView
100
AcDbLine
 10
426.948
 20
-217.788
 30
0
 11
426.948
 21
-220.176
 31
0
  0
LINE
  5
C9E
330
A02
100
AcDbEntity
  8
Shape2DView
100
AcDbLine
 10
4.54569
 20
-217.788
 30
0
 11
4.54569
 21
-220.176
 31
0
  0
LINE
  5
C9F
330
A02
100
AcDbEntity
  8
Shape2DView
100
AcDbLine
 10
204.825
 20
-220.176
 30
0
 11
204.825
 21
-217.788
 31
0
  0
LINE
  5
CA0
330
A02
100
AcDbEntity
  8
Shape2DView
100
AcDbLine
 10
4.92669
 20
-221.446
 30
0
 11
4.92669
 21
-220.176
 31
0
  0
LINE
  5
CA1
330
A02
100
AcDbEntity
  8
Shape2DView
100
AcDbLine
 10
426.567
 20
-221.446
 30
0
 11
426.567
 21
-220.176
 31
0
  0
LINE
  5
CA2
330
A02
100
AcDbEntity
  8
Shape2DView
100
AcDbLine
 10
431.647
 20
-53.9711
 30
0
 11
433.552
 21
-53.9711
 31
0
  0
LINE
  5
CA3
330
A02
100
AcDbEntity
  8
Shape2DView
100
AcDbLine
 10
433.552
 20
-53.9711
 30
0
 11
433.552
 21
-21.3321
 31
0
  0
LINE
  5
CA4
330
A02
100
AcDbEntity
  8
Shape2DView
100
AcDbLine
 10
433.552
 20
-21.3321
 30
0
 11
431.647
 21
-21.3321
 31
0
  0
LINE
  5
CA5
330
A02
100
AcDbEntity
  8
Shape2DView
100
AcDbLine
 10
431.647
 20
-21.3321
 30
0
 11
431.647
 21
-53.9711
 31
0
  0
SPLINE
  5
CA6
330
A02
100
AcDbEntity
  8
Shape2DView
100
AcDbSpline
210
0
220
0
230
1
 70
8
 71
2
 72
30
 73
27
 74
0
 40
4.71239
 40
4.71239
 40
4.71239
 40
4.82459
 40
4.82459
 40
5.04899
 40
5.04899
 40
5.16119
 40
5.16119
 40
5.27339
 40
5.27339
 40
5.38559
 40
5.38559
 40
5.49779
 40
5.49779
 40
5.60999
 40
5.60999
 40
5.72219
 40
5.72219
 40
5.83439
 40
5.83439
 40
5.94659
 40
5.94659
 40
6.05879
 40
6.05879
 40
6.17099
 40
6.17099
 40
6.28319
 40
6.28319
 40
6.28319
 10
433.552
 20
-21.3321
 30
0
 10
433.552
 20
-21.1899
 30
0
 10
433.552
 20
-21.0477
 30
0
 10
433.552
 20
-20.7649
 30
0
 10
433.552
 20
-20.4932
 30
0
 10
433.552
 20
-20.3616
 30
0
 10
433.552
 20
-20.23
 30
0
 10
433.552
 20
-20.1054
 30
0
 10
433.552
 20
-19.9807
 30
0
 10
433.552
 20
-19.8646
 30
0
 10
433.552
 20
-19.7484
 30
0
 10
433.552
 20
-19.6422
 30
0
 10
433.552
 20
-19.536
 30
0
 10
433.552
 20
-19.4411
 30
0
 10
433.552
 20
-19.3462
 30
0
 10
433.552
 20
-19.2638
 30
0
 10
433.552
 20
-19.1814
 30
0
 10
433.552
 20
-19.1125
 30
0
 10
433.552
 20
-19.0436
 30
0
 10
433.552
 20
-18.9891
 30
0
 10
433.552
 20
-18.9346
 30
0
 10
433.552
 20
-18.8952
 30
0
 10
433.552
 20
-18.8558
 30
0
 10
433.552
 20
-18.8319
 30
0
 10
433.552
 20
-18.8081
 30
0
 10
433.552
 20
-18.8001
 30
0
 10
433.552
 20
-18.7921
 30
0
  0
SPLINE
  5
CA7
330
A02
100
AcDbEntity
  8
Shape2DView
100
AcDbSpline
210
0
220
0
230
1
 70
8
 71
2
 72
30
 73
27
 74
0
 40
3.14159
 40
3.14159
 40
3.14159
 40
3.25379
 40
3.25379
 40
3.36599
 40
3.36599
 40
3.47819
 40
3.47819
 40
3.59039
 40
3.59039
 40
3.70259
 40
3.70259
 40
3.81479
 40
3.81479
 40
3.92699
 40
3.92699
 40
4.03919
 40
4.03919
 40
4.15139
 40
4.15139
 40
4.26359
 40
4.26359
 40
4.37579
 40
4.37579
 40
4.48799
 40
4.48799
 40
4.71239
 40
4.71239
 40
4.71239
 10
431.647
 20
-18.7921
 30
0
 10
431.647
 20
-18.8001
 30
0
 10
431.647
 20
-18.8081
 30
0
 10
431.647
 20
-18.8319
 30
0
 10
431.647
 20
-18.8558
 30
0
 10
431.647
 20
-18.8952
 30
0
 10
431.647
 20
-18.9346
 30
0
 10
431.647
 20
-18.9891
 30
0
 10
431.647
 20
-19.0436
 30
0
 10
431.647
 20
-19.1125
 30
0
 10
431.647
 20
-19.1814
 30
0
 10
431.647
 20
-19.2638
 30
0
 10
431.647
 20
-19.3462
 30
0
 10
431.647
 20
-19.4411
 30
0
 10
431.647
 20
-19.536
 30
0
 10
431.647
 20
-19.6422
 30
0
 10
431.647
 20
-19.7484
 30
0
 10
431.647
 20
-19.8646
 30
0
 10
431.647
 20
-19.9807
 30
0
 10
431.647
 20
-20.1054
 30
0
 10
431.647
 20
-20.23
 30
0
 10
431.647
 20
-20.3616
 30
0
 10
431.647
 20
-20.4932
 30
0
 10
431.647
 20
-20.63
 30
0
 10
431.647
 20
-20.7669
 30
0
 10
431.647
 20
-21.0467
 30
0
 10
431.647
 20
-21.3321
 30
0
  0
SPLINE
  5
CA8
330
A02
100
AcDbEntity
  8
Shape2DView
100
AcDbSpline
210
0
220
0
230
1
 70
8
 71
3
 72
26
 73
22
 74
0
 40
0
 40
0
 40
0
 40
0
 40
0.1122
 40
0.1122
 40
0.1122
 40
0.224399
 40
0.224399
 40
0.224399
 40
0.336599
 40
0.336599
 40
0.336599
 40
0.448799
 40
0.448799
 40
0.448799
 40
0.560999
 40
0.560999
 40
0.560999
 40
0.785398
 40
0.785398
 40
0.785398
 40
1.5708
 40
1.5708
 40
1.5708
 40
1.5708
 10
433.552
 20
-54.7331
 30
0
 10
433.552
 20
-54.7315
 30
0
 10
433.552
 20
-54.7299
 30
0
 10
433.552
 20
-54.7283
 30
0
 10
433.552
 20
-54.7235
 30
0
 10
433.552
 20
-54.7188
 30
0
 10
433.552
 20
-54.714
 30
0
 10
433.552
 20
-54.7061
 30
0
 10
433.552
 20
-54.6982
 30
0
 10
433.552
 20
-54.6903
 30
0
 10
433.552
 20
-54.6794
 30
0
 10
433.552
 20
-54.6685
 30
0
 10
433.552
 20
-54.6576
 30
0
 10
433.552
 20
-54.6439
 30
0
 10
433.552
 20
-54.6301
 30
0
 10
433.552
 20
-54.6163
 30
0
 10
433.552
 20
-54.5847
 30
0
 10
433.552
 20
-54.5493
 30
0
 10
433.552
 20
-54.5099
 30
0
 10
433.552
 20
-54.3681
 30
0
 10
433.552
 20
-54.1711
 30
0
 10
433.552
 20
-53.9711
 30
0
  0
SPLINE
  5
CA9
330
A02
100
AcDbEntity
  8
Shape2DView
100
AcDbSpline
210
0
220
0
230
1
 70
8
 71
3
 72
29
 73
25
 74
0
 40
4.71239
 40
4.71239
 40
4.71239
 40
4.71239
 40
5.49779
 40
5.49779
 40
5.49779
 40
5.60999
 40
5.60999
 40
5.60999
 40
5.72219
 40
5.72219
 40
5.72219
 40
5.83439
 40
5.83439
 40
5.83439
 40
5.94659
 40
5.94659
 40
5.94659
 40
6.05879
 40
6.05879
 40
6.05879
 40
6.17099
 40
6.17099
 40
6.17099
 40
6.28319
 40
6.28319
 40
6.28319
 40
6.28319
 10
431.647
 20
-53.9711
 30
0
 10
431.647
 20
-54.1711
 30
0
 10
431.647
 20
-54.3681
 30
0
 10
431.647
 20
-54.5099
 30
0
 10
431.647
 20
-54.5289
 30
0
 10
431.647
 20
-54.5479
 30
0
 10
431.647
 20
-54.5669
 30
0
 10
431.647
 20
-54.5833
 30
0
 10
431.647
 20
-54.5998
 30
0
 10
431.647
 20
-54.6163
 30
0
 10
431.647
 20
-54.6301
 30
0
 10
431.647
 20
-54.6439
 30
0
 10
431.647
 20
-54.6576
 30
0
 10
431.647
 20
-54.6685
 30
0
 10
431.647
 20
-54.6794
 30
0
 10
431.647
 20
-54.6903
 30
0
 10
431.647
 20
-54.6982
 30
0
 10
431.647
 20
-54.7061
 30
0
 10
431.647
 20
-54.714
 30
0
 10
431.647
 20
-54.7188
 30
0
 10
431.647
 20
-54.7235
 30
0
 10
431.647
 20
-54.7283
 30
0
 10
431.647
 20
-54.7299
 30
0
 10
431.647
 20
-54.7315
 30
0
 10
431.647
 20
-54.7331
 30
0
  0
ARC
  5
CAA
330
A02
100
AcDbEntity
  8
Shape2DView
100
AcDbCircle
 10
433.552
 20
-19.5541
 30
0
 40
0.762
100
AcDbArc
 50
0
 51
90
  0
SPLINE
  5
CAB
330
A02
100
AcDbEntity
  8
Shape2DView
100
AcDbSpline
210
0
220
0
230
1
 70
8
 71
3
 72
26
 73
22
 74
0
 40
0
 40
0
 40
0
 40
0
 40
0.1122
 40
0.1122
 40
0.1122
 40
0.224399
 40
0.224399
 40
0.224399
 40
0.336599
 40
0.336599
 40
0.336599
 40
0.448799
 40
0.448799
 40
0.448799
 40
0.560999
 40
0.560999
 40
0.560999
 40
0.785398
 40
0.785398
 40
0.785398
 40
1.5708
 40
1.5708
 40
1.5708
 40
1.5708
 10
434.314
 20
-21.3321
 30
0
 10
434.312
 20
-21.3321
 30
0
 10
434.31
 20
-21.3321
 30
0
 10
434.309
 20
-21.3321
 30
0
 10
434.304
 20
-21.3321
 30
0
 10
434.299
 20
-21.3321
 30
0
 10
434.295
 20
-21.3321
 30
0
 10
434.287
 20
-21.3321
 30
0
 10
434.279
 20
-21.3321
 30
0
 10
434.271
 20
-21.3321
 30
0
 10
434.26
 20
-21.3321
 30
0
 10
434.249
 20
-21.3321
 30
0
 10
434.238
 20
-21.3321
 30
0
 10
434.224
 20
-21.3321
 30
0
 10
434.211
 20
-21.3321
 30
0
 10
434.197
 20
-21.3321
 30
0
 10
434.165
 20
-21.3321
 30
0
 10
434.13
 20
-21.3321
 30
0
 10
434.091
 20
-21.3321
 30
0
 10
433.949
 20
-21.3321
 30
0
 10
433.752
 20
-21.3321
 30
0
 10
433.552
 20
-21.3321
 30
0
  0
SPLINE
  5
CAC
330
A02
100
AcDbEntity
  8
Shape2DView
100
AcDbSpline
210
0
220
0
230
1
 70
8
 71
3
 72
26
 73
22
 74
0
 40
0
 40
0
 40
0
 40
0
 40
0.1122
 40
0.1122
 40
0.1122
 40
0.224399
 40
0.224399
 40
0.224399
 40
0.336599
 40
0.336599
 40
0.336599
 40
0.448799
 40
0.448799
 40
0.448799
 40
0.560999
 40
0.560999
 40
0.560999
 40
0.785398
 40
0.785398
 40
0.785398
 40
1.5708
 40
1.5708
 40
1.5708
 40
1.5708
 10
434.314
 20
-53.9711
 30
0
 10
434.312
 20
-53.9711
 30
0
 10
434.31
 20
-53.9711
 30
0
 10
434.309
 20
-53.9711
 30
0
 10
434.304
 20
-53.9711
 30
0
 10
434.299
 20
-53.9711
 30
0
 10
434.295
 20
-53.9711
 30
0
 10
434.287
 20
-53.9711
 30
0
 10
434.279
 20
-53.9711
 30
0
 10
434.271
 20
-53.9711
 30
0
 10
434.26
 20
-53.9711
 30
0
 10
434.249
 20
-53.9711
 30
0
 10
434.238
 20
-53.9711
 30
0
 10
434.224
 20
-53.9711
 30
0
 10
434.211
 20
-53.9711
 30
0
 10
434.197
 20
-53.9711
 30
0
 10
434.165
 20
-53.9711
 30
0
 10
434.13
 20
-53.9711
 30
0
 10
434.091
 20
-53.9711
 30
0
 10
433.949
 20
-53.9711
 30
0
 10
433.752
 20
-53.9711
 30
0
 10
433.552
 20
-53.9711
 30
0
  0
SPLINE
  5
CAD
330
A02
100
AcDbEntity
  8
Shape2DView
100
AcDbSpline
210
0
220
0
230
1
 70
8
 71
3
 72
29
 73
25
 74
0
 40
1.5708
 40
1.5708
 40
1.5708
 40
1.5708
 40
2.35619
 40
2.35619
 40
2.35619
 40
2.46839
 40
2.46839
 40
2.46839
 40
2.58059
 40
2.58059
 40
2.58059
 40
2.69279
 40
2.69279
 40
2.69279
 40
2.80499
 40
2.80499
 40
2.80499
 40
2.91719
 40
2.91719
 40
2.91719
 40
3.02939
 40
3.02939
 40
3.02939
 40
3.14159
 40
3.14159
 40
3.14159
 40
3.14159
 10
431.647
 20
-53.9711
 30
0
 10
431.447
 20
-53.9711
 30
0
 10
431.25
 20
-53.9711
 30
0
 10
431.108
 20
-53.9711
 30
0
 10
431.089
 20
-53.9711
 30
0
 10
431.07
 20
-53.9711
 30
0
 10
431.051
 20
-53.9711
 30
0
 10
431.034
 20
-53.9711
 30
0
 10
431.018
 20
-53.9711
 30
0
 10
431.001
 20
-53.9711
 30
0
 10
430.988
 20
-53.9711
 30
0
 10
430.974
 20
-53.9711
 30
0
 10
430.96
 20
-53.9711
 30
0
 10
430.949
 20
-53.9711
 30
0
 10
430.938
 20
-53.9711
 30
0
 10
430.927
 20
-53.9711
 30
0
 10
430.92
 20
-53.9711
 30
0
 10
430.912
 20
-53.9711
 30
0
 10
430.904
 20
-53.9711
 30
0
 10
430.899
 20
-53.9711
 30
0
 10
430.894
 20
-53.9711
 30
0
 10
430.889
 20
-53.9711
 30
0
 10
430.888
 20
-53.9711
 30
0
 10
430.886
 20
-53.9711
 30
0
 10
430.885
 20
-53.9711
 30
0
  0
SPLINE
  5
CAE
330
A02
100
AcDbEntity
  8
Shape2DView
100
AcDbSpline
210
0
220
0
230
1
 70
8
 71
3
 72
26
 73
22
 74
0
 40
0
 40
0
 40
0
 40
0
 40
0.1122
 40
0.1122
 40
0.1122
 40
0.224399
 40
0.224399
 40
0.224399
 40
0.336599
 40
0.336599
 40
0.336599
 40
0.448799
 40
0.448799
 40
0.448799
 40
0.560999
 40
0.560999
 40
0.560999
 40
0.785398
 40
0.785398
 40
0.785398
 40
1.5708
 40
1.5708
 40
1.5708
 40
1.5708
 10
430.885
 20
-21.3321
 30
0
 10
430.886
 20
-21.3321
 30
0
 10
430.888
 20
-21.3321
 30
0
 10
430.889
 20
-21.3321
 30
0
 10
430.894
 20
-21.3321
 30
0
 10
430.899
 20
-21.3321
 30
0
 10
430.904
 20
-21.3321
 30
0
 10
430.912
 20
-21.3321
 30
0
 10
430.92
 20
-21.3321
 30
0
 10
430.927
 20
-21.3321
 30
0
 10
430.938
 20
-21.3321
 30
0
 10
430.949
 20
-21.3321
 30
0
 10
430.96
 20
-21.3321
 30
0
 10
430.974
 20
-21.3321
 30
0
 10
430.988
 20
-21.3321
 30
0
 10
431.001
 20
-21.3321
 30
0
 10
431.033
 20
-21.3321
 30
0
 10
431.069
 20
-21.3321
 30
0
 10
431.108
 20
-21.3321
 30
0
 10
431.25
 20
-21.3321
 30
0
 10
431.447
 20
-21.3321
 30
0
 10
431.647
 20
-21.3321
 30
0
  0
ARC
  5
CAF
330
A02
100
AcDbEntity
  8
Shape2DView
100
AcDbCircle
 10
431.647
 20
-19.5541
 30
0
 40
0.762
100
AcDbArc
 50
90
 51
180
  0
ARC
  5
CB0
330
A02
100
AcDbEntity
  8
Shape2DView
100
AcDbCircle
 10
431.647
 20
-53.9711
 30
0
 40
0.762
100
AcDbArc
 50
-91.334
 51
-90
  0
ARC
  5
CB1
330
A02
100
AcDbEntity
  8
Shape2DView
100
AcDbCircle
 10
431.647
 20
-53.9711
 30
0
 40
0.762
100
AcDbArc
 50
180
 51
-108.195
  0
LINE
  5
CB2
330
A02
100
AcDbEntity
  8
Shape2DView
100
AcDbLine
 10
-0.153314
 20
-21.3321
 30
0
 11
-2.05831
 21
-21.3321
 31
0
  0
LINE
  5
CB3
330
A02
100
AcDbEntity
  8
Shape2DView
100
AcDbLine
 10
-2.05831
 20
-21.3321
 30
0
 11
-2.05831
 21
-53.9711
 31
0
  0
LINE
  5
CB4
330
A02
100
AcDbEntity
  8
Shape2DView
100
AcDbLine
 10
-2.05831
 20
-53.9711
 30
0
 11
-0.153314
 21
-53.9711
 31
0
  0
LINE
  5
CB5
330
A02
100
AcDbEntity
  8
Shape2DView
100
AcDbLine
 10
-0.153314
 20
-53.9711
 30
0
 11
-0.153314
 21
-21.3321
 31
0
  0
SPLINE
  5
CB6
330
A02
100
AcDbEntity
  8
Shape2DView
100
AcDbSpline
210
0
220
0
230
1
 70
8
 71
2
 72
30
 73
27
 74
0
 40
0
 40
0
 40
0
 40
0.1122
 40
0.1122
 40
0.224399
 40
0.224399
 40
0.336599
 40
0.336599
 40
0.448799
 40
0.448799
 40
0.560999
 40
0.560999
 40
0.673198
 40
0.673198
 40
0.785398
 40
0.785398
 40
0.897598
 40
0.897598
 40
1.0098
 40
1.0098
 40
1.122
 40
1.122
 40
1.2342
 40
1.2342
 40
1.3464
 40
1.3464
 40
1.5708
 40
1.5708
 40
1.5708
 10
-2.05831
 20
-18.7921
 30
0
 10
-2.05831
 20
-18.8001
 30
0
 10
-2.05831
 20
-18.8081
 30
0
 10
-2.05831
 20
-18.8319
 30
0
 10
-2.05831
 20
-18.8558
 30
0
 10
-2.05831
 20
-18.8952
 30
0
 10
-2.05831
 20
-18.9346
 30
0
 10
-2.05831
 20
-18.9891
 30
0
 10
-2.05831
 20
-19.0436
 30
0
 10
-2.05831
 20
-19.1125
 30
0
 10
-2.05831
 20
-19.1814
 30
0
 10
-2.05831
 20
-19.2638
 30
0
 10
-2.05831
 20
-19.3462
 30
0
 10
-2.05831
 20
-19.4411
 30
0
 10
-2.05831
 20
-19.536
 30
0
 10
-2.05831
 20
-19.6422
 30
0
 10
-2.05831
 20
-19.7484
 30
0
 10
-2.05831
 20
-19.8646
 30
0
 10
-2.05831
 20
-19.9807
 30
0
 10
-2.05831
 20
-20.1054
 30
0
 10
-2.05831
 20
-20.23
 30
0
 10
-2.05831
 20
-20.3616
 30
0
 10
-2.05831
 20
-20.4932
 30
0
 10
-2.05831
 20
-20.63
 30
0
 10
-2.05831
 20
-20.7669
 30
0
 10
-2.05831
 20
-21.0467
 30
0
 10
-2.05831
 20
-21.3321
 30
0
  0
SPLINE
  5
CB7
330
A02
100
AcDbEntity
  8
Shape2DView
100
AcDbSpline
210
0
220
0
230
1
 70
8
 71
2
 72
30
 73
27
 74
0
 40
1.5708
 40
1.5708
 40
1.5708
 40
1.683
 40
1.683
 40
1.9074
 40
1.9074
 40
2.0196
 40
2.0196
 40
2.1318
 40
2.1318
 40
2.24399
 40
2.24399
 40
2.35619
 40
2.35619
 40
2.46839
 40
2.46839
 40
2.58059
 40
2.58059
 40
2.69279
 40
2.69279
 40
2.80499
 40
2.80499
 40
2.91719
 40
2.91719
 40
3.02939
 40
3.02939
 40
3.14159
 40
3.14159
 40
3.14159
 10
-0.153314
 20
-21.3321
 30
0
 10
-0.153314
 20
-21.1899
 30
0
 10
-0.153314
 20
-21.0477
 30
0
 10
-0.153314
 20
-20.7649
 30
0
 10
-0.153314
 20
-20.4932
 30
0
 10
-0.153314
 20
-20.3616
 30
0
 10
-0.153314
 20
-20.23
 30
0
 10
-0.153314
 20
-20.1054
 30
0
 10
-0.153314
 20
-19.9807
 30
0
 10
-0.153314
 20
-19.8646
 30
0
 10
-0.153314
 20
-19.7484
 30
0
 10
-0.153314
 20
-19.6422
 30
0
 10
-0.153314
 20
-19.536
 30
0
 10
-0.153314
 20
-19.4411
 30
0
 10
-0.153314
 20
-19.3462
 30
0
 10
-0.153314
 20
-19.2638
 30
0
 10
-0.153314
 20
-19.1814
 30
0
 10
-0.153314
 20
-19.1125
 30
0
 10
-0.153314
 20
-19.0436
 30
0
 10
-0.153314
 20
-18.9891
 30
0
 10
-0.153314
 20
-18.9346
 30
0
 10
-0.153314
 20
-18.8952
 30
0
 10
-0.153314
 20
-18.8558
 30
0
 10
-0.153314
 20
-18.8319
 30
0
 10
-0.153314
 20
-18.8081
 30
0
 10
-0.153314
 20
-18.8001
 30
0
 10
-0.153314
 20
-18.7921
 30
0
  0
SPLINE
  5
CB8
330
A02
100
AcDbEntity
  8
Shape2DView
100
AcDbSpline
210
0
220
0
230
1
 70
8
 71
3
 72
29
 73
25
 74
0
 40
1.5708
 40
1.5708
 40
1.5708
 40
1.5708
 40
2.35619
 40
2.35619
 40
2.35619
 40
2.46839
 40
2.46839
 40
2.46839
 40
2.58059
 40
2.58059
 40
2.58059
 40
2.69279
 40
2.69279
 40
2.69279
 40
2.80499
 40
2.80499
 40
2.80499
 40
2.91719
 40
2.91719
 40
2.91719
 40
3.02939
 40
3.02939
 40
3.02939
 40
3.14159
 40
3.14159
 40
3.14159
 40
3.14159
 10
-2.05831
 20
-53.9711
 30
0
 10
-2.05831
 20
-54.1711
 30
0
 10
-2.05831
 20
-54.3681
 30
0
 10
-2.05831
 20
-54.5099
 30
0
 10
-2.05831
 20
-54.5289
 30
0
 10
-2.05831
 20
-54.5479
 30
0
 10
-2.05831
 20
-54.5669
 30
0
 10
-2.05831
 20
-54.5833
 30
0
 10
-2.05831
 20
-54.5998
 30
0
 10
-2.05831
 20
-54.6163
 30
0
 10
-2.05831
 20
-54.6301
 30
0
 10
-2.05831
 20
-54.6439
 30
0
 10
-2.05831
 20
-54.6576
 30
0
 10
-2.05831
 20
-54.6685
 30
0
 10
-2.05831
 20
-54.6794
 30
0
 10
-2.05831
 20
-54.6903
 30
0
 10
-2.05831
 20
-54.6982
 30
0
 10
-2.05831
 20
-54.7061
 30
0
 10
-2.05831
 20
-54.714
 30
0
 10
-2.05831
 20
-54.7188
 30
0
 10
-2.05831
 20
-54.7235
 30
0
 10
-2.05831
 20
-54.7283
 30
0
 10
-2.05831
 20
-54.7299
 30
0
 10
-2.05831
 20
-54.7315
 30
0
 10
-2.05831
 20
-54.7331
 30
0
  0
SPLINE
  5
CB9
330
A02
100
AcDbEntity
  8
Shape2DView
100
AcDbSpline
210
0
220
0
230
1
 70
8
 71
3
 72
26
 73
22
 74
0
 40
3.14159
 40
3.14159
 40
3.14159
 40
3.14159
 40
3.25379
 40
3.25379
 40
3.25379
 40
3.36599
 40
3.36599
 40
3.36599
 40
3.47819
 40
3.47819
 40
3.47819
 40
3.59039
 40
3.59039
 40
3.59039
 40
3.70259
 40
3.70259
 40
3.70259
 40
3.92699
 40
3.92699
 40
3.92699
 40
4.71239
 40
4.71239
 40
4.71239
 40
4.71239
 10
-0.153314
 20
-54.7331
 30
0
 10
-0.153314
 20
-54.7315
 30
0
 10
-0.153314
 20
-54.7299
 30
0
 10
-0.153314
 20
-54.7283
 30
0
 10
-0.153314
 20
-54.7235
 30
0
 10
-0.153314
 20
-54.7188
 30
0
 10
-0.153314
 20
-54.714
 30
0
 10
-0.153314
 20
-54.7061
 30
0
 10
-0.153314
 20
-54.6982
 30
0
 10
-0.153314
 20
-54.6903
 30
0
 10
-0.153314
 20
-54.6794
 30
0
 10
-0.153314
 20
-54.6685
 30
0
 10
-0.153314
 20
-54.6576
 30
0
 10
-0.153314
 20
-54.6439
 30
0
 10
-0.153314
 20
-54.6301
 30
0
 10
-0.153314
 20
-54.6163
 30
0
 10
-0.153314
 20
-54.5847
 30
0
 10
-0.153314
 20
-54.5493
 30
0
 10
-0.153314
 20
-54.5099
 30
0
 10
-0.153314
 20
-54.3681
 30
0
 10
-0.153314
 20
-54.1711
 30
0
 10
-0.153314
 20
-53.9711
 30
0
  0
ARC
  5
CBA
330
A02
100
AcDbEntity
  8
Shape2DView
100
AcDbCircle
 10
-2.05831
 20
-19.5541
 30
0
 40
0.762
100
AcDbArc
 50
90
 51
180
  0
ARC
  5
CBB
330
A02
100
AcDbEntity
  8
Shape2DView
100
AcDbCircle
 10
-2.05831
 20
-19.5541
 30
0
 40
0.762
100
AcDbArc
 50
90
 51
180
  0
SPLINE
  5
CBC
330
A02
100
AcDbEntity
  8
Shape2DView
100
AcDbSpline
210
0
220
0
230
1
 70
8
 71
3
 72
29
 73
25
 74
0
 40
4.71239
 40
4.71239
 40
4.71239
 40
4.71239
 40
5.49779
 40
5.49779
 40
5.49779
 40
5.60999
 40
5.60999
 40
5.60999
 40
5.72219
 40
5.72219
 40
5.72219
 40
5.83439
 40
5.83439
 40
5.83439
 40
5.94659
 40
5.94659
 40
5.94659
 40
6.05879
 40
6.05879
 40
6.05879
 40
6.17099
 40
6.17099
 40
6.17099
 40
6.28319
 40
6.28319
 40
6.28319
 40
6.28319
 10
-2.05831
 20
-21.3321
 30
0
 10
-2.25827
 20
-21.3321
 30
0
 10
-2.45527
 20
-21.3321
 30
0
 10
-2.59713
 20
-21.3321
 30
0
 10
-2.61611
 20
-21.3321
 30
0
 10
-2.63509
 20
-21.3321
 30
0
 10
-2.65407
 20
-21.3321
 30
0
 10
-2.67055
 20
-21.3321
 30
0
 10
-2.68704
 20
-21.3321
 30
0
 10
-2.70352
 20
-21.3321
 30
0
 10
-2.7173
 20
-21.3321
 30
0
 10
-2.73107
 20
-21.3321
 30
0
 10
-2.74485
 20
-21.3321
 30
0
 10
-2.75575
 20
-21.3321
 30
0
 10
-2.76665
 20
-21.3321
 30
0
 10
-2.77755
 20
-21.3321
 30
0
 10
-2.78544
 20
-21.3321
 30
0
 10
-2.79332
 20
-21.3321
 30
0
 10
-2.80121
 20
-21.3321
 30
0
 10
-2.80598
 20
-21.3321
 30
0
 10
-2.81075
 20
-21.3321
 30
0
 10
-2.81552
 20
-21.3321
 30
0
 10
-2.81712
 20
-21.3321
 30
0
 10
-2.81872
 20
-21.3321
 30
0
 10
-2.82031
 20
-21.3321
 30
0
  0
SPLINE
  5
CBD
330
A02
100
AcDbEntity
  8
Shape2DView
100
AcDbSpline
210
0
220
0
230
1
 70
8
 71
3
 72
29
 73
25
 74
0
 40
4.71239
 40
4.71239
 40
4.71239
 40
4.71239
 40
5.49779
 40
5.49779
 40
5.49779
 40
5.60999
 40
5.60999
 40
5.60999
 40
5.72219
 40
5.72219
 40
5.72219
 40
5.83439
 40
5.83439
 40
5.83439
 40
5.94659
 40
5.94659
 40
5.94659
 40
6.05879
 40
6.05879
 40
6.05879
 40
6.17099
 40
6.17099
 40
6.17099
 40
6.28319
 40
6.28319
 40
6.28319
 40
6.28319
 10
-2.05831
 20
-53.9711
 30
0
 10
-2.25827
 20
-53.9711
 30
0
 10
-2.45527
 20
-53.9711
 30
0
 10
-2.59713
 20
-53.9711
 30
0
 10
-2.61611
 20
-53.9711
 30
0
 10
-2.63509
 20
-53.9711
 30
0
 10
-2.65407
 20
-53.9711
 30
0
 10
-2.67055
 20
-53.9711
 30
0
 10
-2.68704
 20
-53.9711
 30
0
 10
-2.70352
 20
-53.9711
 30
0
 10
-2.7173
 20
-53.9711
 30
0
 10
-2.73107
 20
-53.9711
 30
0
 10
-2.74485
 20
-53.9711
 30
0
 10
-2.75575
 20
-53.9711
 30
0
 10
-2.76665
 20
-53.9711
 30
0
 10
-2.77755
 20
-53.9711
 30
0
 10
-2.78544
 20
-53.9711
 30
0
 10
-2.79332
 20
-53.9711
 30
0
 10
-2.80121
 20
-53.9711
 30
0
 10
-2.80598
 20
-53.9711
 30
0
 10
-2.81075
 20
-53.9711
 30
0
 10
-2.81552
 20
-53.9711
 30
0
 10
-2.81712
 20
-53.9711
 30
0
 10
-2.81872
 20
-53.9711
 30
0
 10
-2.82031
 20
-53.9711
 30
0
  0
ARC
  5
CBE
330
A02
100
AcDbEntity
  8
Shape2DView
100
AcDbCircle
 10
-0.153314
 20
-19.5541
 30
0
 40
0.762
100
AcDbArc
 50
0
 51
90
  0
ARC
  5
CBF
330
A02
100
AcDbEntity
  8
Shape2DView
100
AcDbCircle
 10
-0.153314
 20
-53.9711
 30
0
 40
0.762
100
AcDbArc
 50
-90
 51
0
  0
SPLINE
  5
CC0
330
A02
100
AcDbEntity
  8
Shape2DView
100
AcDbSpline
210
0
220
0
230
1
 70
8
 71
3
 72
26
 73
22
 74
0
 40
3.14159
 40
3.14159
 40
3.14159
 40
3.14159
 40
3.25379
 40
3.25379
 40
3.25379
 40
3.36599
 40
3.36599
 40
3.36599
 40
3.47819
 40
3.47819
 40
3.47819
 40
3.59039
 40
3.59039
 40
3.59039
 40
3.70259
 40
3.70259
 40
3.70259
 40
3.92699
 40
3.92699
 40
3.92699
 40
4.71239
 40
4.71239
 40
4.71239
 40
4.71239
 10
0.608686
 20
-21.3321
 30
0
 10
0.607089
 20
-21.3321
 30
0
 10
0.605492
 20
-21.3321
 30
0
 10
0.603895
 20
-21.3321
 30
0
 10
0.599123
 20
-21.3321
 30
0
 10
0.594352
 20
-21.3321
 30
0
 10
0.589581
 20
-21.3321
 30
0
 10
0.581696
 20
-21.3321
 30
0
 10
0.57381
 20
-21.3321
 30
0
 10
0.565925
 20
-21.3321
 30
0
 10
0.555025
 20
-21.3321
 30
0
 10
0.544124
 20
-21.3321
 30
0
 10
0.533224
 20
-21.3321
 30
0
 10
0.519446
 20
-21.3321
 30
0
 10
0.505668
 20
-21.3321
 30
0
 10
0.49189
 20
-21.3321
 30
0
 10
0.460325
 20
-21.3321
 30
0
 10
0.424862
 20
-21.3321
 30
0
 10
0.385501
 20
-21.3321
 30
0
 10
0.243644
 20
-21.3321
 30
0
 10
0.046642
 20
-21.3321
 30
0
 10
-0.153314
 20
-21.3321
 30
0
  0
SPLINE
  5
CC1
330
A02
100
AcDbEntity
  8
Shape2DView
100
AcDbSpline
210
0
220
0
230
1
 70
8
 71
3
 72
29
 73
25
 74
0
 40
3.14159
 40
3.14159
 40
3.14159
 40
3.14159
 40
3.92699
 40
3.92699
 40
3.92699
 40
4.03919
 40
4.03919
 40
4.03919
 40
4.15139
 40
4.15139
 40
4.15139
 40
4.26359
 40
4.26359
 40
4.26359
 40
4.37579
 40
4.37579
 40
4.37579
 40
4.48799
 40
4.48799
 40
4.48799
 40
4.60019
 40
4.60019
 40
4.60019
 40
4.71239
 40
4.71239
 40
4.71239
 40
4.71239
 10
-0.153314
 20
-53.9711
 30
0
 10
0.046642
 20
-53.9711
 30
0
 10
0.243644
 20
-53.9711
 30
0
 10
0.385501
 20
-53.9711
 30
0
 10
0.404481
 20
-53.9711
 30
0
 10
0.423461
 20
-53.9711
 30
0
 10
0.442441
 20
-53.9711
 30
0
 10
0.458924
 20
-53.9711
 30
0
 10
0.475407
 20
-53.9711
 30
0
 10
0.49189
 20
-53.9711
 30
0
 10
0.505668
 20
-53.9711
 30
0
 10
0.519446
 20
-53.9711
 30
0
 10
0.533224
 20
-53.9711
 30
0
 10
0.544124
 20
-53.9711
 30
0
 10
0.555025
 20
-53.9711
 30
0
 10
0.565925
 20
-53.9711
 30
0
 10
0.57381
 20
-53.9711
 30
0
 10
0.581696
 20
-53.9711
 30
0
 10
0.589581
 20
-53.9711
 30
0
 10
0.594352
 20
-53.9711
 30
0
 10
0.599123
 20
-53.9711
 30
0
 10
0.603895
 20
-53.9711
 30
0
 10
0.605492
 20
-53.9711
 30
0
 10
0.607089
 20
-53.9711
 30
0
 10
0.608686
 20
-53.9711
 30
0
  0
LINE
  5
CC2
330
A02
100
AcDbEntity
  8
Shape2DView
100
AcDbLine
 10
204.825
 20
-22.4116
 30
0
 11
204.825
 21
-20.024
 31
0
  0
LINE
  5
CC3
330
A02
100
AcDbEntity
  8
Shape2DView
100
AcDbLine
 10
4.54569
 20
-22.4116
 30
0
 11
4.54569
 21
-20.024
 31
0
  0
LINE
  5
CC4
330
A02
100
AcDbEntity
  8
Shape2DView
100
AcDbLine
 10
426.948
 20
-22.4116
 30
0
 11
426.948
 21
-20.024
 31
0
  0
LINE
  5
CC5
330
A02
100
AcDbEntity
  8
Shape2DView
100
AcDbLine
 10
226.669
 20
-20.024
 30
0
 11
226.669
 21
-22.4116
 31
0
  0
LINE
  5
CC6
330
A02
100
AcDbEntity
  8
Shape2DView
100
AcDbLine
 10
426.567
 20
-18.754
 30
0
 11
426.567
 21
-20.024
 31
0
  0
LINE
  5
CC7
330
A02
100
AcDbEntity
  8
Shape2DView
100
AcDbLine
 10
4.92669
 20
-18.754
 30
0
 11
4.92669
 21
-20.024
 31
0
  0
LINE
  5
CC8
330
A02
100
AcDbEntity
  8
Shape2DView
100
AcDbLine
 10
104.223
 20
-59.0703
 30
0
 11
104.223
 21
-59.1546
 31
0
  0
LINE
  5
CC9
330
A02
100
AcDbEntity
  8
Shape2DView
100
AcDbLine
 10
104.223
 20
-54.1297
 30
0
 11
104.223
 21
-54.0454
 31
0
  0
LINE
  5
CCA
330
A02
100
AcDbEntity
  8
Shape2DView
100
AcDbLine
 10
327.235
 20
-59.0703
 30
0
 11
327.235
 21
-59.1546
 31
0
  0
LINE
  5
CCB
330
A02
100
AcDbEntity
  8
Shape2DView
100
AcDbLine
 10
327.235
 20
-54.1297
 30
0
 11
327.235
 21
-54.0454
 31
0
  0
LINE
  5
CCC
330
A02
100
AcDbEntity
  8
Shape2DView
100
AcDbLine
 10
327.235
 20
-186.07
 30
0
 11
327.235
 21
-186.155
 31
0
  0
LINE
  5
CCD
330
A02
100
AcDbEntity
  8
Shape2DView
100
AcDbLine
 10
327.235
 20
-181.13
 30
0
 11
327.235
 21
-181.045
 31
0
  0
LINE
  5
CCE
330
A02
100
AcDbEntity
  8
Shape2DView
100
AcDbLine
 10
104.223
 20
-186.07
 30
0
 11
104.223
 21
-186.155
 31
0
  0
LINE
  5
CCF
330
A02
100
AcDbEntity
  8
Shape2DView
100
AcDbLine
 10
104.223
 20
-181.13
 30
0
 11
104.223
 21
-181.045
 31
0
  0
LINE
  5
CD0
330
A02
100
AcDbEntity
  8
Shape2DView
100
AcDbLine
 10
24.599
 20
-180.545
 30
0
 11
24.599
 21
-180.196
 31
0
  0
LINE
  5
CD1
330
A02
100
AcDbEntity
  8
Shape2DView
100
AcDbLine
 10
24.599
 20
-187.087
 30
0
 11
24.599
 21
-187.435
 31
0
  0
LINE
  5
CD2
330
A02
100
AcDbEntity
  8
Shape2DView
100
AcDbLine
 10
24.599
 20
-53.1135
 30
0
 11
24.599
 21
-52.7646
 31
0
  0
LINE
  5
CD3
330
A02
100
AcDbEntity
  8
Shape2DView
100
AcDbLine
 10
24.599
 20
-59.6547
 30
0
 11
24.599
 21
-60.0036
 31
0
  0
LINE
  5
CD4
330
A02
100
AcDbEntity
  8
Shape2DView
100
AcDbLine
 10
152.031
 20
-53.1135
 30
0
 11
152.031
 21
-52.7646
 31
0
  0
LINE
  5
CD5
330
A02
100
AcDbEntity
  8
Shape2DView
100
AcDbLine
 10
152.031
 20
-59.6547
 30
0
 11
152.031
 21
-60.0036
 31
0
  0
LINE
  5
CD6
330
A02
100
AcDbEntity
  8
Shape2DView
100
AcDbLine
 10
152.031
 20
-180.545
 30
0
 11
152.031
 21
-180.196
 31
0
  0
LINE
  5
CD7
330
A02
100
AcDbEntity
  8
Shape2DView
100
AcDbLine
 10
152.031
 20
-187.087
 30
0
 11
152.031
 21
-187.435
 31
0
  0
LINE
  5
CD8
330
A02
100
AcDbEntity
  8
Shape2DView
100
AcDbLine
 10
279.463
 20
-187.087
 30
0
 11
279.463
 21
-187.435
 31
0
  0
LINE
  5
CD9
330
A02
100
AcDbEntity
  8
Shape2DView
100
AcDbLine
 10
279.463
 20
-180.545
 30
0
 11
279.463
 21
-180.196
 31
0
  0
LINE
  5
CDA
330
A02
100
AcDbEntity
  8
Shape2DView
100
AcDbLine
 10
279.463
 20
-59.6547
 30
0
 11
279.463
 21
-60.0036
 31
0
  0
LINE
  5
CDB
330
A02
100
AcDbEntity
  8
Shape2DView
100
AcDbLine
 10
279.463
 20
-53.1135
 30
0
 11
279.463
 21
-52.7646
 31
0
  0
LINE
  5
CDC
330
A02
100
AcDbEntity
  8
Shape2DView
100
AcDbLine
 10
406.894
 20
-59.6547
 30
0
 11
406.894
 21
-60.0036
 31
0
  0
LINE
  5
CDD
330
A02
100
AcDbEntity
  8
Shape2DView
100
AcDbLine
 10
406.894
 20
-53.1135
 30
0
 11
406.894
 21
-52.7646
 31
0
  0
LINE
  5
CDE
330
A02
100
AcDbEntity
  8
Shape2DView
100
AcDbLine
 10
406.894
 20
-187.087
 30
0
 11
406.894
 21
-187.435
 31
0
  0
LINE
  5
CDF
330
A02
100
AcDbEntity
  8
Shape2DView
100
AcDbLine
 10
406.894
 20
-180.545
 30
0
 11
406.894
 21
-180.196
 31
0
  0
ENDSEC
  0
SECTION
  2
OBJECTS
  0
DICTIONARY
  5
F000
330
0
100
AcDbDictionary
  3
ACAD_GROUP
350
F001
  0
DICTIONARY
  5
F001
330
F000
100
AcDbDictionary
  0
ENDSEC
  0
EOF