<?xml version="1.0" encoding="UTF-8" standalone="no"?>
<!-- Created with Inkscape (http://www.inkscape.org/) -->

<svg
   width="18in"
   height="12in"
   viewBox="0 0 457.2 304.8"
   version="1.1"
   id="SVGRoot"
   sodipodi:docname="Panel_Back_drawing.svg"
   inkscape:version="1.1.2 (b8e25be833, 2022-02-05)"
   xmlns:inkscape="http://www.inkscape.org/namespaces/inkscape"
   xmlns:sodipodi="http://sodipodi.sourceforge.net/DTD/sodipodi-0.dtd"
   xmlns="http://www.w3.org/2000/svg"
   xmlns:svg="http://www.w3.org/2000/svg">
  <sodipodi:namedview
     id="namedview1633"
     pagecolor="#ffffff"
     bordercolor="#666666"
     borderopacity="1.0"
     inkscape:pageshadow="2"
     inkscape:pageopacity="0.0"
     inkscape:pagecheckerboard="0"
     inkscape:document-units="mm"
     showgrid="false"
     inkscape:zoom="3.6233468"
     inkscape:cx="878.33159"
     inkscape:cy="715.36072"
     inkscape:window-width="1920"
     inkscape:window-height="1009"
     inkscape:window-x="-8"
     inkscape:window-y="-8"
     inkscape:window-maximized="1"
     inkscape:current-layer="layer1"
     units="in" />
  <defs
     id="defs1628">
    <rect
       x="390.32294"
       y="-309.71277"
       width="493.56052"
       height="50.91169"
       id="rect23931" />
    <rect
       x="39.59798"
       y="-45.254833"
       width="258.80109"
       height="29.698484"
       id="rect26619-3" />
    <rect
       x="39.59798"
       y="-45.254833"
       width="258.80109"
       height="29.698484"
       id="rect26619" />
  </defs>
  <g
     inkscape:label="Layer 1"
     inkscape:groupmode="layer"
     id="layer1">
    <rect
       style="fill:#00ffff;fill-rule:evenodd;stroke-width:0.264583"
       id="rect7889"
       width="6.526794"
       height="7.0559936"
       x="130.33614"
       y="51.741821" />
    <rect
       style="fill:none;fill-rule:evenodd;stroke:#ff0000;stroke-width:0.264583;stroke-dasharray:none"
       id="rect7891"
       width="6.526794"
       height="7.0559936"
       x="130.33614"
       y="38.864998" />
    <rect
       style="fill:#000000;fill-rule:evenodd;stroke:none;stroke-width:0.264583"
       id="rect7893"
       width="6.526794"
       height="7.0559936"
       x="130.33614"
       y="64.618652" />
    <text
       xml:space="preserve"
       style="font-size:6.42093px;line-height:1.25;font-family:Comfortaa;-inkscape-font-specification:Comfortaa;text-align:center;letter-spacing:0px;word-spacing:0px;text-anchor:middle;stroke-width:0.264583"
       x="214.60445"
       y="43.896942"
       id="text7897"><tspan
         sodipodi:role="line"
         id="tspan7895"
         style="stroke-width:0.264583"
         x="214.60445"
         y="43.896942"> standard cut  : Power 100 ; Speed : 0.9 ; 1000 PPI</tspan></text>
    <text
       xml:space="preserve"
       style="font-size:6.42093px;line-height:1.25;font-family:Comfortaa;-inkscape-font-specification:Comfortaa;text-align:start;letter-spacing:0px;word-spacing:0px;text-anchor:start;stroke-width:0.264583"
       x="139.24936"
       y="56.97113"
       id="text7901"><tspan
         sodipodi:role="line"
         id="tspan7899"
         style="text-align:start;text-anchor:start;stroke-width:0.264583"
         x="139.24936"
         y="56.97113">Engraving : Power 100 ; Speed : 60 ; 1 pass ; 1000 PPI</tspan></text>
    <text
       xml:space="preserve"
       style="font-size:6.42093px;line-height:1.25;font-family:Comfortaa;-inkscape-font-specification:Comfortaa;text-align:start;letter-spacing:0px;word-spacing:0px;text-anchor:start;stroke-width:0.264583"
       x="139.24936"
       y="69.909195"
       id="text7905"><tspan
         sodipodi:role="line"
         id="tspan7903"
         style="text-align:start;text-anchor:start;stroke-width:0.264583"
         x="139.24936"
         y="69.909195">Engraving : Power 100 ; Speed : 40 ; 2 pass ; 1000 PPI</tspan></text>
    <text
       xml:space="preserve"
       style="font-style:normal;font-weight:normal;font-size:10.5833px;line-height:1.25;font-family:sans-serif;fill:#000000;fill-opacity:1;stroke:none;stroke-width:0.264583"
       x="106.38229"
       y="101.26066"
       id="text52768"><tspan
         sodipodi:role="line"
         id="tspan52766"
         style="stroke-width:0.264583"
         x="106.38229"
         y="101.26066">Panel thickness of 3.175mm </tspan><tspan
         sodipodi:role="line"
         style="stroke-width:0.264583"
         x="106.38229"
         y="114.48978"
         id="tspan3013">Panel Thickness on border (black color) maximum 2.54mm</tspan></text>
    <text
       xml:space="preserve"
       transform="matrix(0.26458333,0,0,0.26458333,55.654228,97.980021)"
       id="text23929"
       style="font-style:normal;font-variant:normal;font-weight:normal;font-stretch:normal;font-size:26.6667px;line-height:1.25;font-family:sans-serif;-inkscape-font-specification:'sans-serif, Normal';font-variant-ligatures:normal;font-variant-caps:normal;font-variant-numeric:normal;font-variant-east-asian:normal;white-space:pre;shape-inside:url(#rect23931)"><tspan
         x="390.32227"
         y="-285.44952"
         id="tspan3830">LASER CUTTER Trotec Speedy 100</tspan></text>
    <path
       id="Shape2DView_nwe0011"
       d="m 17.77014,182.54662 m 0,0 0.004,0.10401 0.0106,0.10351 0.0177,0.10255 0.0246,0.1011 0.0315,0.0992 0.0382,0.0968 0.0447,0.094 0.051,0.0907 0.0571,0.087 0.0629,0.0829 0.0684,0.0784 0.0736,0.0736 0.0784,0.0684 0.0829,0.0629 0.087,0.0571 0.0907,0.051 0.094,0.0447 0.0968,0.0382 0.0992,0.0315 0.1011,0.0246 0.10255,0.0177 0.10352,0.0106 0.104,0.004"
       stroke="#191919"
       stroke-width="0.35 px"
       style="fill:none;fill-opacity:1;fill-rule:evenodd;stroke:#ff0000;stroke-width:0.264583;stroke-linecap:square;stroke-miterlimit:4;stroke-dasharray:none" />
    <text
       xml:space="preserve"
       style="font-style:normal;font-variant:normal;font-weight:normal;font-stretch:normal;font-size:4.23333px;line-height:1.25;font-family:Arial;-inkscape-font-specification:'Arial, Normal';font-variant-ligatures:normal;font-variant-caps:normal;font-variant-numeric:normal;font-variant-east-asian:normal;fill:#000000;fill-opacity:1;stroke:none;stroke-width:0.264583"
       x="29.986616"
       y="181.38033"
       id="text3316"><tspan
         sodipodi:role="line"
         id="tspan3314"
         style="font-style:normal;font-variant:normal;font-weight:normal;font-stretch:normal;font-size:4.23333px;font-family:Arial;-inkscape-font-specification:'Arial, Normal';font-variant-ligatures:normal;font-variant-caps:normal;font-variant-numeric:normal;font-variant-east-asian:normal;stroke-width:0.264583"
         x="29.986616"
         y="181.38033">J27</tspan></text>
    <text
       xml:space="preserve"
       style="font-style:normal;font-variant:normal;font-weight:normal;font-stretch:normal;font-size:4.23333px;line-height:1.25;font-family:Arial;-inkscape-font-specification:'Arial, Normal';font-variant-ligatures:normal;font-variant-caps:normal;font-variant-numeric:normal;font-variant-east-asian:normal;fill:#000000;fill-opacity:1;stroke:none;stroke-width:0.264583"
       x="51.943748"
       y="181.38033"
       id="text3316-7"><tspan
         sodipodi:role="line"
         id="tspan3314-3"
         style="font-style:normal;font-variant:normal;font-weight:normal;font-stretch:normal;font-size:4.23333px;font-family:Arial;-inkscape-font-specification:'Arial, Normal';font-variant-ligatures:normal;font-variant-caps:normal;font-variant-numeric:normal;font-variant-east-asian:normal;stroke-width:0.264583"
         x="51.943748"
         y="181.38033">S1</tspan></text>
    <text
       xml:space="preserve"
       style="font-style:normal;font-variant:normal;font-weight:normal;font-stretch:normal;font-size:4.23333px;line-height:1.25;font-family:Arial;-inkscape-font-specification:'Arial, Normal';font-variant-ligatures:normal;font-variant-caps:normal;font-variant-numeric:normal;font-variant-east-asian:normal;fill:#000000;fill-opacity:1;stroke:none;stroke-width:0.264583"
       x="86.034561"
       y="181.38033"
       id="text3316-9"><tspan
         sodipodi:role="line"
         id="tspan3314-30"
         style="font-style:normal;font-variant:normal;font-weight:normal;font-stretch:normal;font-size:4.23333px;font-family:Arial;-inkscape-font-specification:'Arial, Normal';font-variant-ligatures:normal;font-variant-caps:normal;font-variant-numeric:normal;font-variant-east-asian:normal;stroke-width:0.264583"
         x="86.034561"
         y="181.38033">J28</tspan></text>
    <path
       id="Shape2DView_nwe0000"
       d="m 19.29414,184.07062 h 200.279"
       stroke="#191919"
       stroke-width="0.35 px"
       style="fill:none;fill-opacity:1;fill-rule:evenodd;stroke:#ff0000;stroke-width:0.264583;stroke-linecap:square;stroke-miterlimit:4;stroke-dasharray:none" />
    <path
       id="Shape2DView_nwe0004"
       d="m 241.41714,184.07062 h 200.279"
       stroke="#191919"
       stroke-width="0.35 px"
       style="fill:none;fill-opacity:1;fill-rule:evenodd;stroke:#ff0000;stroke-width:0.264583;stroke-linecap:square;stroke-miterlimit:4;stroke-dasharray:none" />
    <path
       id="Shape2DView_nwe0005"
       d="m 441.69614,184.07062 m 0,0 0.104,-0.004 0.10352,-0.0106 0.10255,-0.0177 0.1011,-0.0246 0.0992,-0.0315 0.0968,-0.0382 0.094,-0.0447 0.0907,-0.051 0.087,-0.0571 0.0829,-0.0629 0.0784,-0.0684 0.0736,-0.0736 0.0684,-0.0784 0.0629,-0.0829 0.0571,-0.087 0.051,-0.0907 0.0447,-0.094 0.0382,-0.0968 0.0315,-0.0992 0.0246,-0.1011 0.0177,-0.10255 0.0106,-0.10351 0.004,-0.10396"
       stroke="#191919"
       stroke-width="0.35 px"
       style="fill:none;fill-opacity:1;fill-rule:evenodd;stroke:#ff0000;stroke-width:0.264583;stroke-linecap:square;stroke-miterlimit:4;stroke-dasharray:none" />
    <path
       id="Shape2DView_nwe0006"
       d="M 443.22014,182.54662 V 145.71663"
       stroke="#191919"
       stroke-width="0.35 px"
       style="fill:none;fill-opacity:1;fill-rule:evenodd;stroke:#ff0000;stroke-width:0.264583;stroke-linecap:square;stroke-miterlimit:4;stroke-dasharray:none" />
    <path
       id="Shape2DView_nwe0007"
       d="m 443.22014,145.71663 m 0,0 -0.004,-0.104 -0.0106,-0.10352 -0.0177,-0.10255 -0.0246,-0.1011 -0.0315,-0.0992 -0.0382,-0.0968 -0.0447,-0.094 -0.051,-0.0907 -0.0571,-0.087 -0.0629,-0.0829 -0.0684,-0.0784 -0.0736,-0.0736 -0.0784,-0.0684 -0.0829,-0.0629 -0.087,-0.0571 -0.0907,-0.051 -0.094,-0.0447 -0.0968,-0.0382 -0.0992,-0.0315 -0.1011,-0.0246 -0.10255,-0.0177 -0.10352,-0.0106 -0.104,-0.004"
       stroke="#191919"
       stroke-width="0.35 px"
       style="fill:none;fill-opacity:1;fill-rule:evenodd;stroke:#ff0000;stroke-width:0.264583;stroke-linecap:square;stroke-miterlimit:4;stroke-dasharray:none" />
    <path
       id="Shape2DView_nwe0008"
       d="M 441.69614,144.19263 H 19.29414"
       stroke="#191919"
       stroke-width="0.35 px"
       style="fill:none;fill-opacity:1;fill-rule:evenodd;stroke:#ff0000;stroke-width:0.264583;stroke-linecap:square;stroke-miterlimit:4;stroke-dasharray:none" />
    <path
       id="Shape2DView_nwe0009"
       d="m 19.29414,144.19263 m 0,0 -0.104,0.004 -0.10352,0.0106 -0.10255,0.0177 -0.1011,0.0246 -0.0992,0.0315 -0.0968,0.0382 -0.094,0.0447 -0.0907,0.051 -0.087,0.0571 -0.0829,0.0629 -0.0784,0.0684 -0.0736,0.0736 -0.0684,0.0784 -0.0629,0.0829 -0.0571,0.087 -0.051,0.0907 -0.0447,0.094 -0.0382,0.0968 -0.0315,0.0992 -0.0246,0.1011 -0.0177,0.10255 -0.0106,0.10352 -0.004,0.10394"
       stroke="#191919"
       stroke-width="0.35 px"
       style="fill:none;fill-opacity:1;fill-rule:evenodd;stroke:#ff0000;stroke-width:0.264583;stroke-linecap:square;stroke-miterlimit:4;stroke-dasharray:none" />
    <path
       id="Shape2DView_nwe0010"
       d="m 17.77014,145.71663 v 36.82999"
       stroke="#191919"
       stroke-width="0.35 px"
       style="fill:none;fill-opacity:1;fill-rule:evenodd;stroke:#ff0000;stroke-width:0.264583;stroke-linecap:square;stroke-miterlimit:4;stroke-dasharray:none" />
    <text
       xml:space="preserve"
       style="font-style:normal;font-variant:normal;font-weight:normal;font-stretch:normal;font-size:4.23333px;line-height:1.25;font-family:Arial;-inkscape-font-specification:'Arial, Normal';font-variant-ligatures:normal;font-variant-caps:normal;font-variant-numeric:normal;font-variant-east-asian:normal;fill:#000000;fill-opacity:1;stroke:none;stroke-width:0.264583"
       x="122.0727"
       y="181.37825"
       id="text3316-8"><tspan
         sodipodi:role="line"
         id="tspan3314-8"
         style="font-style:normal;font-variant:normal;font-weight:normal;font-stretch:normal;font-size:4.23333px;font-family:Arial;-inkscape-font-specification:'Arial, Normal';font-variant-ligatures:normal;font-variant-caps:normal;font-variant-numeric:normal;font-variant-east-asian:normal;stroke-width:0.264583"
         x="122.0727"
         y="181.37825">J23</tspan></text>
    <path
       id="path6525"
       style="fill:#000000;fill-opacity:1;fill-rule:evenodd;stroke-width:0"
       d="m 443.159,167.4446 c -0.009,-4.93129 -0.0322,-9.86283 -0.031,-14.79393 -0.0521,-2.50299 0.0732,-5.01981 -0.14521,-7.51427 -0.18806,-0.58583 -0.82902,-0.8343 -1.4025,-0.73897 -141.6402,0.4799 -296.23931,-0.77339 -421.17894,-0.0935 -0.71829,0.0794 -1.60203,-0.17829 -2.15387,0.42891 -0.53038,0.48559 -0.25384,1.26615 -0.33745,1.89239 -0.0635,11.14494 -0.0476,22.29063 -0.0206,33.43568 0.0407,1.03165 -0.0497,2.08228 0.10904,3.10265 0.24516,0.578 0.88424,0.86088 1.48725,0.78032 73.343237,0.0945 130.32708,0.0729 200.20742,0.0729 0.36087,-0.13979 0.58448,-0.50835 0.59635,-0.88935 h 20.41116 c 0.002,0.53451 0.48115,1.04181 1.04128,0.88935 66.65071,-0.20959 133.36289,-0.0574 200.32674,-0.0574 0.69761,-0.26444 1.14109,-0.97446 1.02991,-1.72134 0.0624,-4.93076 0.069,-9.86212 0.0605,-14.79341 z m -1.27176,-20.86436 c 0.007,0.36017 -0.069,0.75808 -0.0202,1.09916 l -0.0139,34.42735 c -0.32887,0.7615 -1.2975,0.31935 -1.94149,0.43563 l -420.4591,-0.0501 c -0.41119,-0.24448 -0.38351,-0.67074 -0.35552,-1.09709 v -35.2609 c 0.24448,-0.41118 0.67019,-0.38352 1.09657,-0.35553 l 421.21564,-0.0713 c 0.3806,0.19022 0.4709,0.51265 0.478,0.87281 z"
       sodipodi:nodetypes="scccccccccccccccssccccccccs" />
    <path
       id="Shape2DView_nwe0001"
       d="m 219.57314,184.07063 m 0,0 0.10844,-0.0135 0.10624,-0.0391 0.10187,-0.0644 0.0954,-0.0883 0.087,-0.11047 0.0769,-0.13028 0.0652,-0.1474 0.0521,-0.16163 0.038,-0.1726 0.0231,-0.17998 0.008,-0.18367"
       stroke="#191919"
       stroke-width="0.35 px"
       style="fill:none;fill-opacity:1;fill-rule:evenodd;stroke:#ff0000;stroke-width:0.264583;stroke-linecap:square;stroke-miterlimit:4;stroke-dasharray:none" />
    <path
       id="Shape2DView_nwe0002"
       d="m 240.65514,182.77946 v -0.127"
       stroke="#191919"
       stroke-width="0.35 px"
       style="fill:none;fill-opacity:1;fill-rule:evenodd;stroke:#ff0000;stroke-width:0.264583;stroke-linecap:square;stroke-miterlimit:4;stroke-dasharray:none" />
    <path
       id="Shape2DView_nwe0003"
       d="m 240.65514,182.77921 m 0,0 0.008,0.18052 0.0231,0.17685 0.038,0.16957 0.0521,0.15881 0.0652,0.14483 0.0769,0.12801 0.087,0.10838 0.0954,0.0868 0.10187,0.0632 0.10624,0.0385 0.10844,0.0133"
       stroke="#191919"
       stroke-width="0.35 px"
       style="fill:none;fill-opacity:1;fill-rule:evenodd;stroke:#ff0000;stroke-width:0.264584;stroke-linecap:square;stroke-miterlimit:4;stroke-dasharray:none" />
    <path
       id="Shape2DView_nwe0012"
       d="m 220.33514,182.65246 v 0.127"
       stroke="#191919"
       stroke-width="0.35 px"
       style="fill:none;fill-opacity:1;fill-rule:evenodd;stroke:#ff0000;stroke-width:0.264583;stroke-linecap:square;stroke-miterlimit:4;stroke-dasharray:none" />
    <path
       id="Shape2DView_nwe0013"
       d="m 240.65514,182.65246 h -20.32"
       stroke="#191919"
       stroke-width="0.35 px"
       style="fill:none;fill-opacity:1;fill-rule:evenodd;stroke:#ff0000;stroke-width:0.264583;stroke-linecap:square;stroke-miterlimit:4;stroke-dasharray:none" />
    <path
       id="Shape2DView_nwe0014"
       d="m 29.02014,175.68093 h 11"
       stroke="#191919"
       stroke-width="0.35 px"
       style="fill:none;fill-opacity:1;fill-rule:evenodd;stroke:#ff0000;stroke-width:0.264583;stroke-linecap:square;stroke-miterlimit:4;stroke-dasharray:none" />
    <path
       id="Shape2DView_nwe0015"
       d="m 40.02014,164.68093 v 11"
       stroke="#191919"
       stroke-width="0.35 px"
       style="fill:none;fill-opacity:1;fill-rule:evenodd;stroke:#ff0000;stroke-width:0.264583;stroke-linecap:square;stroke-miterlimit:4;stroke-dasharray:none" />
    <path
       id="Shape2DView_nwe0016"
       d="m 29.02014,164.68093 v 11"
       stroke="#191919"
       stroke-width="0.35 px"
       style="fill:none;fill-opacity:1;fill-rule:evenodd;stroke:#ff0000;stroke-width:0.264583;stroke-linecap:square;stroke-miterlimit:4;stroke-dasharray:none" />
    <path
       id="Shape2DView_nwe0017"
       d="m 29.02014,164.68093 h 11"
       stroke="#191919"
       stroke-width="0.35 px"
       style="fill:none;fill-opacity:1;fill-rule:evenodd;stroke:#ff0000;stroke-width:0.264583;stroke-linecap:square;stroke-miterlimit:4;stroke-dasharray:none" />
    <path
       id="Shape2DView_nwe0018"
       d="m 73.77014,176.05176 h 32.5"
       stroke="#191919"
       stroke-width="0.35 px"
       style="fill:none;fill-opacity:1;fill-rule:evenodd;stroke:#ff0000;stroke-width:0.264583;stroke-linecap:square;stroke-miterlimit:4;stroke-dasharray:none" />
    <path
       id="Shape2DView_nwe0019"
       d="m 106.27014,160.78093 v 15.8"
       stroke="#191919"
       stroke-width="0.35 px"
       style="fill:none;fill-opacity:1;fill-rule:evenodd;stroke:#ff0000;stroke-width:0.264583;stroke-linecap:square;stroke-miterlimit:4;stroke-dasharray:none" />
    <path
       id="Shape2DView_nwe0020"
       d="m 73.77014,160.78093 h 32.5"
       stroke="#191919"
       stroke-width="0.35 px"
       style="fill:none;fill-opacity:1;fill-rule:evenodd;stroke:#ff0000;stroke-width:0.264583;stroke-linecap:square;stroke-miterlimit:4;stroke-dasharray:none" />
    <path
       id="Shape2DView_nwe0021"
       d="m 73.77014,160.78093 v 15.8"
       stroke="#191919"
       stroke-width="0.35 px"
       style="fill:none;fill-opacity:1;fill-rule:evenodd;stroke:#ff0000;stroke-width:0.264583;stroke-linecap:square;stroke-miterlimit:4;stroke-dasharray:none" />
    <path
       id="Shape2DView_nwe0022"
       d="m 115.87014,174.58063 h 18.5"
       stroke="#191919"
       stroke-width="0.35 px"
       style="fill:none;fill-opacity:1;fill-rule:evenodd;stroke:#ff0000;stroke-width:0.264583;stroke-linecap:square;stroke-miterlimit:4;stroke-dasharray:none" />
    <path
       id="Shape2DView_nwe0023"
       d="m 134.37014,165.58063 v 9"
       stroke="#191919"
       stroke-width="0.35 px"
       style="fill:none;fill-opacity:1;fill-rule:evenodd;stroke:#ff0000;stroke-width:0.264583;stroke-linecap:square;stroke-miterlimit:4;stroke-dasharray:none" />
    <path
       id="Shape2DView_nwe0024"
       d="m 115.87014,165.58063 v 9"
       stroke="#191919"
       stroke-width="0.35 px"
       style="fill:none;fill-opacity:1;fill-rule:evenodd;stroke:#ff0000;stroke-width:0.264583;stroke-linecap:square;stroke-miterlimit:4;stroke-dasharray:none" />
    <path
       id="Shape2DView_nwe0025"
       d="m 115.87014,165.58063 h 18.5"
       stroke="#191919"
       stroke-width="0.35 px"
       style="fill:none;fill-opacity:1;fill-rule:evenodd;stroke:#ff0000;stroke-width:0.264583;stroke-linecap:square;stroke-miterlimit:4;stroke-dasharray:none" />
    <path
       id="Shape2DView_nwe0026"
       d="m 190.87014,174.38063 h 21.5"
       stroke="#191919"
       stroke-width="0.35 px"
       style="fill:none;fill-opacity:1;fill-rule:evenodd;stroke:#ff0000;stroke-width:0.264583;stroke-linecap:square;stroke-miterlimit:4;stroke-dasharray:none" />
    <path
       id="Shape2DView_nwe0027"
       d="m 212.37014,163.88063 v 10.5"
       stroke="#191919"
       stroke-width="0.35 px"
       style="fill:none;fill-opacity:1;fill-rule:evenodd;stroke:#ff0000;stroke-width:0.264583;stroke-linecap:square;stroke-miterlimit:4;stroke-dasharray:none" />
    <path
       id="Shape2DView_nwe0028"
       d="m 190.87014,163.88063 v 10.5"
       stroke="#191919"
       stroke-width="0.35 px"
       style="fill:none;fill-opacity:1;fill-rule:evenodd;stroke:#ff0000;stroke-width:0.264583;stroke-linecap:square;stroke-miterlimit:4;stroke-dasharray:none" />
    <path
       id="Shape2DView_nwe0029"
       d="m 190.87014,163.88063 h 21.5"
       stroke="#191919"
       stroke-width="0.35 px"
       style="fill:none;fill-opacity:1;fill-rule:evenodd;stroke:#ff0000;stroke-width:0.264583;stroke-linecap:square;stroke-miterlimit:4;stroke-dasharray:none" />
    <path
       id="Shape2DView_nwe0030"
       d="m 218.57014,174.78063 h 21.5"
       stroke="#191919"
       stroke-width="0.35 px"
       style="fill:none;fill-opacity:1;fill-rule:evenodd;stroke:#ff0000;stroke-width:0.264583;stroke-linecap:square;stroke-miterlimit:4;stroke-dasharray:none" />
    <path
       id="Shape2DView_nwe0031"
       d="m 240.07014,164.28063 v 10.5"
       stroke="#191919"
       stroke-width="0.35 px"
       style="fill:none;fill-opacity:1;fill-rule:evenodd;stroke:#ff0000;stroke-width:0.264583;stroke-linecap:square;stroke-miterlimit:4;stroke-dasharray:none" />
    <path
       id="Shape2DView_nwe0032"
       d="m 218.57014,164.28063 v 10.5"
       stroke="#191919"
       stroke-width="0.35 px"
       style="fill:none;fill-opacity:1;fill-rule:evenodd;stroke:#ff0000;stroke-width:0.264583;stroke-linecap:square;stroke-miterlimit:4;stroke-dasharray:none" />
    <path
       id="Shape2DView_nwe0033"
       d="m 218.57014,164.28063 h 21.5"
       stroke="#191919"
       stroke-width="0.35 px"
       style="fill:none;fill-opacity:1;fill-rule:evenodd;stroke:#ff0000;stroke-width:0.264583;stroke-linecap:square;stroke-miterlimit:4;stroke-dasharray:none" />
    <path
       id="Shape2DView_nwe0034"
       d="m 299.57014,174.78063 h 26.5"
       stroke="#191919"
       stroke-width="0.35 px"
       style="fill:none;fill-opacity:1;fill-rule:evenodd;stroke:#ff0000;stroke-width:0.264583;stroke-linecap:square;stroke-miterlimit:4;stroke-dasharray:none" />
    <path
       id="Shape2DView_nwe0035"
       d="m 326.07014,165.28063 v 9.5"
       stroke="#191919"
       stroke-width="0.35 px"
       style="fill:none;fill-opacity:1;fill-rule:evenodd;stroke:#ff0000;stroke-width:0.264583;stroke-linecap:square;stroke-miterlimit:4;stroke-dasharray:none" />
    <path
       id="Shape2DView_nwe0036"
       d="m 299.57014,165.28063 v 9.5"
       stroke="#191919"
       stroke-width="0.35 px"
       style="fill:none;fill-opacity:1;fill-rule:evenodd;stroke:#ff0000;stroke-width:0.264583;stroke-linecap:square;stroke-miterlimit:4;stroke-dasharray:none" />
    <path
       id="Shape2DView_nwe0037"
       d="m 299.57014,165.28063 h 26.5"
       stroke="#191919"
       stroke-width="0.35 px"
       style="fill:none;fill-opacity:1;fill-rule:evenodd;stroke:#ff0000;stroke-width:0.264583;stroke-linecap:square;stroke-miterlimit:4;stroke-dasharray:none" />
    <path
       id="Shape2DView_nwe0038"
       d="m 60.27014,168.78084 m 0,0 -9.4e-4,-0.1 -0.003,-0.1 -0.005,-0.0999 -0.007,-0.0998 -0.009,-0.0996 -0.0104,-0.0995 -0.0122,-0.0992 -0.0141,-0.099 -0.016,-0.0987 -0.0178,-0.0984 -0.0197,-0.098 -0.0215,-0.0977 -0.0234,-0.0972 -0.0252,-0.0968 -0.027,-0.0963 -0.0288,-0.0958 -0.0306,-0.0952 -0.0324,-0.0946 -0.0342,-0.094 -0.036,-0.0933 -0.0377,-0.0926 -0.0395,-0.0919 -0.0412,-0.0911 -0.0429,-0.0903 -0.0446,-0.0895 -0.0463,-0.0887 -0.0479,-0.0878 -0.0496,-0.0868 -0.0512,-0.0859 -0.0528,-0.0849 -0.0544,-0.0839 -0.056,-0.0828 -0.0575,-0.0818 -0.0591,-0.0807 -0.0606,-0.0796 -0.0621,-0.0784 -0.0635,-0.0772 -0.065,-0.076 -0.0664,-0.0748 -0.0678,-0.0735 -0.0692,-0.0722 -0.0705,-0.0709 -0.0719,-0.0695 -0.0732,-0.0682 -0.0744,-0.0668 -0.0757,-0.0654 -0.0769,-0.0639 -0.0781,-0.0624 -0.0793,-0.061 -0.0804,-0.0595 -0.0815,-0.0579 -0.0826,-0.0564 -0.0836,-0.0548 -0.0847,-0.0532 -0.0856,-0.0516 -0.0866,-0.05 -0.0875,-0.0484 -0.0884,-0.0467 -0.0893,-0.045 -0.0901,-0.0433 -0.0909,-0.0416 -0.0917,-0.0399 -0.0924,-0.0382 -0.0931,-0.0364 -0.0938,-0.0346 -0.0944,-0.0329 -0.0951,-0.0311 -0.0956,-0.0293 -0.0961,-0.0275 -0.0967,-0.0256 -0.0971,-0.0238 -0.0976,-0.022 -0.0979,-0.0201 -0.0983,-0.0183 -0.0986,-0.0164 -0.0989,-0.0146 -0.0992,-0.0127 -0.0994,-0.0108 -0.0996,-0.009 -0.0997,-0.007 -0.0999,-0.005 -0.1,-0.003 -0.1,-0.001 -0.1,4.7e-4 -0.1,0.002 -0.0999,0.004 -0.0998,0.006 -0.0997,0.008 -0.0995,0.01 -0.0993,0.0118 -0.0991,0.0136 -0.0988,0.0155 -0.0985,0.0174 -0.0981,0.0192 -0.0978,0.0211 -0.0973,0.0229 -0.0969,0.0247 -0.0964,0.0266 -0.0959,0.0284 -0.0953,0.0302 -0.0947,0.032 -0.0941,0.0338 -0.0935,0.0355 -0.0928,0.0373 -0.0921,0.039 -0.0913,0.0408 -0.0905,0.0425 -0.0897,0.0442 -0.0889,0.0459 -0.088,0.0475 -0.0871,0.0492 -0.0861,0.0508 -0.0851,0.0524 -0.0841,0.054 -0.0831,0.0556 -0.082,0.0572 -0.081,0.0587 -0.0798,0.0602 -0.0787,0.0617 -0.0775,0.0632 -0.0763,0.0646 -0.0751,0.0661 -0.0738,0.0675 -0.0725,0.0688 -0.0712,0.0702 -0.0699,0.0715 -0.0685,0.0729 -0.0671,0.0741 -0.0657,0.0754 -0.0643,0.0766 -0.0628,0.0778 -0.0613,0.079 -0.0598,0.0801 -0.0583,0.0812 -0.0568,0.0823 -0.0552,0.0834 -0.0536,0.0844 -0.052,0.0854 -0.0504,0.0864 -0.0488,0.0873 -0.0471,0.0882 -0.0454,0.0891 -0.0437,0.0899 -0.0421,0.0907 -0.0403,0.0915 -0.0386,0.0922 -0.0369,0.093 -0.0351,0.0936 -0.0333,0.0943 -0.0315,0.0949 -0.0297,0.0955 -0.0279,0.096 -0.0261,0.0965 -0.0243,0.097 -0.0224,0.0974 -0.0206,0.0978 -0.0188,0.0982 -0.0169,0.0986 -0.015,0.0989 -0.0132,0.0991 -0.0113,0.0994 -0.009,0.0996 -0.007,0.0997 -0.006,0.0998 -0.004,0.0999 -0.002,0.1 v 0.1 l 0.002,0.1 0.004,0.0999 0.006,0.0998 0.007,0.0997 0.009,0.0996 0.0113,0.0994 0.0132,0.0991 0.015,0.0989 0.0169,0.0986 0.0188,0.0982 0.0206,0.0979 0.0224,0.0974 0.0243,0.097 0.0261,0.0965 0.0279,0.096 0.0297,0.0955 0.0315,0.0949 0.0333,0.0943 0.0351,0.0936 0.0369,0.093 0.0386,0.0923 0.0403,0.0915 0.0421,0.0907 0.0437,0.0899 0.0454,0.0891 0.0471,0.0882 0.0488,0.0873 0.0504,0.0864 0.052,0.0854 0.0536,0.0844 0.0552,0.0834 0.0568,0.0823 0.0583,0.0812 0.0598,0.0801 0.0613,0.079 0.0628,0.0778 0.0643,0.0766 0.0657,0.0754 0.0671,0.0741 0.0685,0.0729 0.0699,0.0715 0.0712,0.0702 0.0725,0.0688 0.0738,0.0675 0.0751,0.0661 0.0763,0.0646 0.0775,0.0632 0.0787,0.0617 0.0798,0.0602 0.081,0.0587 0.082,0.0572 0.0831,0.0556 0.0841,0.054 0.0851,0.0524 0.0861,0.0508 0.0871,0.0492 0.088,0.0475 0.0889,0.0459 0.0897,0.0442 0.0905,0.0425 0.0913,0.0408 0.0921,0.039 0.0928,0.0373 0.0935,0.0355 0.0941,0.0338 0.0947,0.032 0.0953,0.0302 0.0959,0.0284 0.0964,0.0266 0.0969,0.0247 0.0973,0.0229 0.0978,0.0211 0.0981,0.0192 0.0985,0.0174 0.0988,0.0155 0.0991,0.0136 0.0993,0.0118 0.0995,0.01 0.0997,0.008 0.0998,0.006 0.0999,0.004 0.1,0.002 0.1,4.7e-4 0.1,-10e-4 0.1,-0.003 0.0999,-0.005 0.0997,-0.007 0.0996,-0.009 0.0994,-0.0108 0.0992,-0.0127 0.0989,-0.0146 0.0986,-0.0164 0.0983,-0.0183 0.0979,-0.0201 0.0976,-0.022 0.0971,-0.0238 0.0967,-0.0257 0.0961,-0.0275 0.0956,-0.0293 0.0951,-0.0311 0.0944,-0.0329 0.0938,-0.0346 0.0931,-0.0364 0.0924,-0.0382 0.0917,-0.0399 0.0909,-0.0416 0.0901,-0.0433 0.0893,-0.045 0.0884,-0.0467 0.0875,-0.0484 0.0866,-0.05 0.0856,-0.0516 0.0847,-0.0532 0.0836,-0.0548 0.0826,-0.0564 0.0815,-0.0579 0.0804,-0.0595 0.0793,-0.061 0.0781,-0.0625 0.0769,-0.0639 0.0757,-0.0654 0.0744,-0.0668 0.0732,-0.0682 0.0719,-0.0695 0.0705,-0.0709 0.0692,-0.0722 0.0678,-0.0735 0.0664,-0.0748 0.065,-0.076 0.0635,-0.0772 0.0621,-0.0784 0.0606,-0.0796 0.0591,-0.0807 0.0575,-0.0818 0.056,-0.0828 0.0544,-0.0839 0.0528,-0.0849 0.0512,-0.0859 0.0496,-0.0868 0.0479,-0.0878 0.0463,-0.0886 0.0446,-0.0895 0.0429,-0.0903 0.0412,-0.0911 0.0395,-0.0919 0.0377,-0.0926 0.036,-0.0933 0.0342,-0.094 0.0324,-0.0946 0.0306,-0.0952 0.0288,-0.0958 0.027,-0.0963 0.0252,-0.0968 0.0234,-0.0972 0.0215,-0.0977 0.0197,-0.098 0.0178,-0.0984 0.016,-0.0987 0.0141,-0.099 0.0122,-0.0993 0.0104,-0.0995 0.009,-0.0996 0.007,-0.0998 0.005,-0.0999 0.003,-0.1 9.4e-4,-0.0999"
       stroke="#191919"
       stroke-width="0.35 px"
       style="fill:none;fill-opacity:1;fill-rule:evenodd;stroke:#ff0000;stroke-width:0.264583;stroke-linecap:square;stroke-miterlimit:4;stroke-dasharray:none" />
    <path
       id="Shape2DView_nwe0039"
       d="m 169.87014,175.08063 h 14.5"
       stroke="#191919"
       stroke-width="0.35 px"
       style="fill:none;fill-opacity:1;fill-rule:evenodd;stroke:#ff0000;stroke-width:0.264583;stroke-linecap:square;stroke-miterlimit:4;stroke-dasharray:none" />
    <path
       id="Shape2DView_nwe0040"
       d="m 184.37014,160.58063 v 14.5"
       stroke="#191919"
       stroke-width="0.35 px"
       style="fill:none;fill-opacity:1;fill-rule:evenodd;stroke:#ff0000;stroke-width:0.264583;stroke-linecap:square;stroke-miterlimit:4;stroke-dasharray:none" />
    <path
       id="Shape2DView_nwe0041"
       d="m 169.87014,160.58063 v 14.5"
       stroke="#191919"
       stroke-width="0.35 px"
       style="fill:none;fill-opacity:1;fill-rule:evenodd;stroke:#ff0000;stroke-width:0.264583;stroke-linecap:square;stroke-miterlimit:4;stroke-dasharray:none" />
    <path
       id="Shape2DView_nwe0042"
       d="m 169.87014,160.58063 h 14.5"
       stroke="#191919"
       stroke-width="0.35 px"
       style="fill:none;fill-opacity:1;fill-rule:evenodd;stroke:#ff0000;stroke-width:0.264583;stroke-linecap:square;stroke-miterlimit:4;stroke-dasharray:none" />
    <path
       id="Shape2DView_nwe0043"
       d="m 142.87014,176.08094 h 18.5"
       stroke="#191919"
       stroke-width="0.35 px"
       style="fill:none;fill-opacity:1;fill-rule:evenodd;stroke:#ff0000;stroke-width:0.264583;stroke-linecap:square;stroke-miterlimit:4;stroke-dasharray:none" />
    <path
       id="Shape2DView_nwe0044"
       d="m 161.37014,160.58093 v 15.50001"
       stroke="#191919"
       stroke-width="0.35 px"
       style="fill:none;fill-opacity:1;fill-rule:evenodd;stroke:#ff0000;stroke-width:0.264583;stroke-linecap:square;stroke-miterlimit:4;stroke-dasharray:none" />
    <path
       id="Shape2DView_nwe0045"
       d="m 142.87014,160.58093 v 15.50001"
       stroke="#191919"
       stroke-width="0.35 px"
       style="fill:none;fill-opacity:1;fill-rule:evenodd;stroke:#ff0000;stroke-width:0.264583;stroke-linecap:square;stroke-miterlimit:4;stroke-dasharray:none" />
    <path
       id="Shape2DView_nwe0046"
       d="m 142.87014,160.58093 h 18.5"
       stroke="#191919"
       stroke-width="0.35 px"
       style="fill:none;fill-opacity:1;fill-rule:evenodd;stroke:#ff0000;stroke-width:0.264583;stroke-linecap:square;stroke-miterlimit:4;stroke-dasharray:none" />
    <path
       id="Shape2DView_nwe0047"
       d="m 351.97014,168.38071 m 0,0 -7.2e-4,-0.10018 -0.002,-0.10017 -0.004,-0.10012 -0.005,-0.10006 -0.006,-0.1 -0.008,-0.0999 -0.009,-0.0997 -0.0107,-0.0996 -0.0122,-0.0995 -0.0136,-0.0993 -0.015,-0.0991 -0.0164,-0.0988 -0.0178,-0.0986 -0.0192,-0.0983 -0.0206,-0.098 -0.022,-0.0977 -0.0234,-0.0974 -0.0248,-0.0971 -0.0262,-0.0967 -0.0276,-0.0963 -0.029,-0.0959 -0.0303,-0.0955 -0.0317,-0.095 -0.0331,-0.0946 -0.0344,-0.0941 -0.0358,-0.0936 -0.0371,-0.0931 -0.0384,-0.0925 -0.0397,-0.092 -0.041,-0.0914 -0.0424,-0.0908 -0.0437,-0.0902 -0.0448,-0.0895 -0.0462,-0.0889 -0.0476,-0.0882 -0.0487,-0.0875 -0.0499,-0.0868 -0.0512,-0.0861 -0.0525,-0.0854 -0.0537,-0.0846 -0.0549,-0.0838 -0.0561,-0.083 -0.0573,-0.0822 -0.0584,-0.0814 -0.0596,-0.0805 -0.0607,-0.0797 -0.0619,-0.0788 -0.063,-0.0779 -0.0641,-0.077 -0.0652,-0.0761 -0.0663,-0.0751 -0.0673,-0.0742 -0.0684,-0.0732 -0.0694,-0.0722 -0.0705,-0.0712 -0.0715,-0.0702 -0.0725,-0.0692 -0.0734,-0.0681 -0.0744,-0.0671 -0.0754,-0.066 -0.0763,-0.0649 -0.0772,-0.0638 -0.0781,-0.0627 -0.079,-0.0616 -0.0799,-0.0604 -0.0808,-0.0593 -0.0816,-0.0581 -0.0824,-0.057 -0.0832,-0.0558 -0.084,-0.0546 -0.0848,-0.0534 -0.0855,-0.0522 -0.0863,-0.0509 -0.087,-0.0497 -0.0877,-0.0484 -0.0884,-0.0472 -0.0891,-0.0459 -0.0897,-0.0446 -0.0903,-0.0433 -0.0909,-0.042 -0.0915,-0.0407 -0.0921,-0.0394 -0.0927,-0.0381 -0.0932,-0.0368 -0.0937,-0.0354 -0.0942,-0.0341 -0.0947,-0.0327 -0.0951,-0.0314 -0.0956,-0.03 -0.096,-0.0286 -0.0964,-0.0273 -0.0968,-0.0259 -0.0971,-0.0245 -0.0975,-0.0231 -0.0978,-0.0217 -0.0981,-0.0203 -0.0984,-0.0189 -0.0987,-0.0175 -0.0989,-0.0161 -0.0991,-0.0146 -0.0993,-0.0132 -0.0995,-0.0118 -0.0996,-0.0104 -0.0998,-0.009 -0.0999,-0.008 -0.1,-0.006 -0.10008,-0.005 -0.10013,-0.003 -0.10017,-0.002 -0.10019,-3.6e-4 -0.10018,0.001 -0.10016,0.002 -0.10011,0.004 -0.10004,0.005 -0.1,0.007 -0.0999,0.008 -0.0997,0.01 -0.0996,0.0111 -0.0994,0.0125 -0.0992,0.0139 -0.099,0.0153 -0.0988,0.0168 -0.0985,0.0182 -0.0983,0.0196 -0.098,0.021 -0.0977,0.0224 -0.0973,0.0238 -0.097,0.0252 -0.0966,0.0266 -0.0962,0.0279 -0.0958,0.0293 -0.0954,0.0307 -0.0949,0.032 -0.0945,0.0334 -0.094,0.0347 -0.0935,0.0361 -0.0929,0.0374 -0.0924,0.0388 -0.0918,0.0401 -0.0912,0.0414 -0.0906,0.0427 -0.09,0.044 -0.0894,0.0453 -0.0887,0.0465 -0.0881,0.0478 -0.0874,0.049 -0.0866,0.0503 -0.0859,0.0515 -0.0852,0.0528 -0.0844,0.054 -0.0836,0.0552 -0.0828,0.0564 -0.082,0.0576 -0.0812,0.0587 -0.0803,0.0599 -0.0795,0.061 -0.0786,0.0621 -0.0777,0.0633 -0.0768,0.0644 -0.0759,0.0655 -0.0749,0.0665 -0.0739,0.0676 -0.073,0.0687 -0.072,0.0697 -0.071,0.0707 -0.07,0.0717 -0.0689,0.0727 -0.0679,0.0737 -0.0668,0.0747 -0.0657,0.0756 -0.0647,0.0765 -0.0635,0.0775 -0.0624,0.0784 -0.0613,0.0793 -0.0602,0.0801 -0.059,0.081 -0.0578,0.0818 -0.0567,0.0826 -0.0555,0.0834 -0.0543,0.0842 -0.0531,0.085 -0.0518,0.0857 -0.0507,0.0865 -0.0493,0.0872 -0.0482,0.0879 -0.0469,0.0886 -0.0456,0.0892 -0.0444,0.0899 -0.0429,0.0905 -0.0417,0.0911 -0.0405,0.0917 -0.0391,0.0922 -0.0378,0.0928 -0.0364,0.0933 -0.0351,0.0938 -0.0337,0.0943 -0.0324,0.0948 -0.031,0.0953 -0.0297,0.0957 -0.0283,0.0961 -0.0269,0.0965 -0.0255,0.0969 -0.0241,0.0972 -0.0227,0.0976 -0.0213,0.0979 -0.0199,0.0982 -0.0185,0.0985 -0.0171,0.0987 -0.0157,0.099 -0.0143,0.0992 -0.0129,0.0994 -0.0115,0.0995 -0.01,0.0997 -0.009,0.0998 -0.007,0.0999 -0.006,0.10002 -0.004,0.1001 -0.003,0.10014 -10e-4,0.10018 v 0.10019 l 10e-4,0.10017 0.003,0.10015 0.004,0.10009 0.006,0.10002 0.007,0.0999 0.009,0.0998 0.01,0.0997 0.0115,0.0995 0.0129,0.0994 0.0143,0.0992 0.0157,0.099 0.0171,0.0987 0.0185,0.0985 0.0199,0.0982 0.0213,0.0979 0.0227,0.0976 0.0241,0.0972 0.0255,0.0969 0.0269,0.0965 0.0283,0.0961 0.0297,0.0957 0.031,0.0953 0.0324,0.0948 0.0337,0.0943 0.0351,0.0938 0.0364,0.0933 0.0378,0.0928 0.0391,0.0922 0.0405,0.0917 0.0417,0.0911 0.0429,0.0905 0.0444,0.0899 0.0456,0.0892 0.0469,0.0886 0.0482,0.0879 0.0493,0.0872 0.0507,0.0865 0.0518,0.0857 0.0531,0.085 0.0543,0.0842 0.0555,0.0834 0.0567,0.0826 0.0578,0.0818 0.059,0.081 0.0602,0.0801 0.0613,0.0793 0.0624,0.0784 0.0635,0.0775 0.0647,0.0765 0.0657,0.0756 0.0668,0.0747 0.0679,0.0737 0.0689,0.0727 0.07,0.0717 0.071,0.0707 0.072,0.0697 0.073,0.0687 0.0739,0.0676 0.0749,0.0665 0.0759,0.0655 0.0768,0.0644 0.0777,0.0633 0.0786,0.0621 0.0795,0.061 0.0803,0.0599 0.0812,0.0587 0.082,0.0575 0.0828,0.0564 0.0836,0.0552 0.0844,0.054 0.0852,0.0528 0.0859,0.0515 0.0866,0.0503 0.0874,0.0491 0.0881,0.0478 0.0887,0.0465 0.0894,0.0453 0.09,0.044 0.0906,0.0427 0.0912,0.0414 0.0918,0.0401 0.0924,0.0387 0.0929,0.0374 0.0935,0.0361 0.094,0.0347 0.0945,0.0334 0.0949,0.0321 0.0954,0.0307 0.0958,0.0293 0.0962,0.0279 0.0966,0.0266 0.097,0.0252 0.0973,0.0238 0.0977,0.0224 0.098,0.021 0.0983,0.0196 0.0985,0.0182 0.0988,0.0168 0.099,0.0154 0.0992,0.0139 0.0994,0.0125 0.0996,0.0111 0.0997,0.01 0.0999,0.008 0.1,0.007 0.10004,0.005 0.10011,0.004 0.10016,0.002 0.10018,0.001 0.10019,-3.5e-4 0.10017,-0.002 0.10013,-0.003 0.10008,-0.005 0.1,-0.006 0.0999,-0.007 0.0998,-0.009 0.0996,-0.0104 0.0995,-0.0118 0.0993,-0.0132 0.0991,-0.0147 0.0989,-0.0161 0.0987,-0.0175 0.0984,-0.0189 0.0981,-0.0203 0.0978,-0.0217 0.0975,-0.0231 0.0971,-0.0245 0.0968,-0.0259 0.0964,-0.0273 0.096,-0.0286 0.0956,-0.03 0.0951,-0.0314 0.0947,-0.0327 0.0942,-0.0341 0.0937,-0.0354 0.0932,-0.0368 0.0927,-0.0381 0.0921,-0.0394 0.0915,-0.0407 0.0909,-0.042 0.0903,-0.0433 0.0897,-0.0446 0.0891,-0.0459 0.0884,-0.0472 0.0877,-0.0484 0.087,-0.0497 0.0863,-0.0509 0.0855,-0.0521 0.0848,-0.0534 0.084,-0.0546 0.0832,-0.0558 0.0824,-0.057 0.0816,-0.0581 0.0808,-0.0593 0.0799,-0.0604 0.079,-0.0616 0.0781,-0.0627 0.0772,-0.0638 0.0763,-0.0649 0.0754,-0.066 0.0744,-0.0671 0.0734,-0.0681 0.0725,-0.0692 0.0715,-0.0702 0.0705,-0.0712 0.0694,-0.0722 0.0684,-0.0732 0.0673,-0.0742 0.0663,-0.0751 0.0652,-0.0761 0.0641,-0.077 0.063,-0.0779 0.0619,-0.0788 0.0607,-0.0797 0.0596,-0.0805 0.0584,-0.0814 0.0573,-0.0822 0.0561,-0.083 0.0549,-0.0838 0.0537,-0.0846 0.0525,-0.0854 0.0512,-0.0861 0.0499,-0.0868 0.0487,-0.0875 0.0476,-0.0882 0.0462,-0.0889 0.0448,-0.0895 0.0437,-0.0902 0.0424,-0.0908 0.041,-0.0914 0.0397,-0.092 0.0384,-0.0925 0.0371,-0.0931 0.0358,-0.0936 0.0344,-0.0941 0.0331,-0.0946 0.0317,-0.095 0.0303,-0.0955 0.029,-0.0959 0.0276,-0.0963 0.0262,-0.0967 0.0248,-0.0971 0.0234,-0.0974 0.022,-0.0977 0.0206,-0.098 0.0192,-0.0983 0.0178,-0.0986 0.0164,-0.0988 0.015,-0.0991 0.0136,-0.0993 0.0122,-0.0994 0.0107,-0.0996 0.009,-0.0998 0.008,-0.0999 0.006,-0.1 0.005,-0.10007 0.004,-0.10012 0.002,-0.10016 7.2e-4,-0.1001"
       stroke="#191919"
       stroke-width="0.35 px"
       style="fill:none;fill-opacity:1;fill-rule:evenodd;stroke:#ff0000;stroke-width:0.264583;stroke-linecap:square;stroke-miterlimit:4;stroke-dasharray:none" />
    <path
       id="Shape2DView_nwe0048"
       d="m 377.38013,168.38071 m 0,0 -7.2e-4,-0.10018 -0.002,-0.10017 -0.004,-0.10012 -0.005,-0.10006 -0.006,-0.1 -0.008,-0.0999 -0.009,-0.0997 -0.0107,-0.0996 -0.0122,-0.0995 -0.0136,-0.0993 -0.015,-0.0991 -0.0164,-0.0988 -0.0178,-0.0986 -0.0192,-0.0983 -0.0206,-0.098 -0.022,-0.0977 -0.0234,-0.0974 -0.0248,-0.0971 -0.0262,-0.0967 -0.0276,-0.0963 -0.029,-0.0959 -0.0303,-0.0955 -0.0317,-0.095 -0.0331,-0.0946 -0.0344,-0.0941 -0.0358,-0.0936 -0.0371,-0.0931 -0.0384,-0.0925 -0.0397,-0.092 -0.041,-0.0914 -0.0424,-0.0908 -0.0437,-0.0902 -0.0449,-0.0895 -0.0462,-0.0889 -0.0475,-0.0882 -0.0487,-0.0875 -0.05,-0.0868 -0.0512,-0.0861 -0.0525,-0.0854 -0.0536,-0.0846 -0.0549,-0.0838 -0.0561,-0.083 -0.0573,-0.0822 -0.0584,-0.0814 -0.0596,-0.0805 -0.0607,-0.0797 -0.0619,-0.0788 -0.063,-0.0779 -0.0641,-0.077 -0.0652,-0.0761 -0.0663,-0.0751 -0.0673,-0.0742 -0.0684,-0.0732 -0.0694,-0.0722 -0.0705,-0.0712 -0.0715,-0.0702 -0.0725,-0.0692 -0.0734,-0.0681 -0.0744,-0.0671 -0.0754,-0.066 -0.0763,-0.0649 -0.0772,-0.0638 -0.0781,-0.0627 -0.079,-0.0616 -0.0799,-0.0604 -0.0808,-0.0593 -0.0816,-0.0581 -0.0824,-0.057 -0.0832,-0.0558 -0.084,-0.0546 -0.0848,-0.0534 -0.0856,-0.0522 -0.0863,-0.0509 -0.087,-0.0497 -0.0877,-0.0484 -0.0884,-0.0472 -0.0891,-0.0459 -0.0897,-0.0446 -0.0903,-0.0433 -0.0909,-0.042 -0.0915,-0.0407 -0.0921,-0.0394 -0.0927,-0.0381 -0.0932,-0.0368 -0.0937,-0.0354 -0.0942,-0.0341 -0.0947,-0.0327 -0.0951,-0.0314 -0.0956,-0.03 -0.096,-0.0286 -0.0964,-0.0273 -0.0968,-0.0259 -0.0971,-0.0245 -0.0975,-0.0231 -0.0978,-0.0217 -0.0981,-0.0203 -0.0984,-0.0189 -0.0986,-0.0175 -0.0989,-0.0161 -0.0991,-0.0146 -0.0993,-0.0132 -0.0995,-0.0118 -0.0996,-0.0104 -0.0998,-0.009 -0.0999,-0.008 -0.1,-0.006 -0.10008,-0.005 -0.10013,-0.003 -0.10016,-0.002 -0.10019,-3.6e-4 -0.10018,0.001 -0.10015,0.002 -0.10011,0.004 -0.10005,0.005 -0.1,0.007 -0.0999,0.008 -0.0997,0.01 -0.0996,0.0111 -0.0994,0.0125 -0.0992,0.0139 -0.099,0.0153 -0.0988,0.0168 -0.0985,0.0182 -0.0982,0.0196 -0.098,0.021 -0.0976,0.0224 -0.0973,0.0238 -0.097,0.0252 -0.0966,0.0266 -0.0962,0.0279 -0.0958,0.0293 -0.0954,0.0307 -0.0949,0.032 -0.0944,0.0334 -0.094,0.0347 -0.0935,0.0361 -0.0929,0.0374 -0.0924,0.0388 -0.0918,0.0401 -0.0912,0.0414 -0.0906,0.0427 -0.09,0.044 -0.0894,0.0453 -0.0887,0.0465 -0.088,0.0478 -0.0874,0.049 -0.0866,0.0503 -0.0859,0.0515 -0.0852,0.0528 -0.0844,0.054 -0.0836,0.0552 -0.0828,0.0564 -0.082,0.0576 -0.0812,0.0587 -0.0803,0.0599 -0.0795,0.061 -0.0786,0.0621 -0.0777,0.0633 -0.0768,0.0644 -0.0759,0.0655 -0.0749,0.0665 -0.0739,0.0676 -0.073,0.0687 -0.072,0.0697 -0.071,0.0707 -0.0699,0.0717 -0.0689,0.0727 -0.0679,0.0737 -0.0668,0.0747 -0.0657,0.0756 -0.0646,0.0765 -0.0635,0.0775 -0.0624,0.0784 -0.0613,0.0793 -0.0602,0.0801 -0.059,0.081 -0.0578,0.0818 -0.0567,0.0826 -0.0555,0.0834 -0.0543,0.0842 -0.0531,0.085 -0.0519,0.0857 -0.0505,0.0865 -0.0494,0.0872 -0.0482,0.0879 -0.0469,0.0886 -0.0455,0.0892 -0.0444,0.0899 -0.0429,0.0905 -0.0418,0.0911 -0.0403,0.0917 -0.0392,0.0922 -0.0378,0.0928 -0.0363,0.0933 -0.0351,0.0938 -0.0337,0.0943 -0.0324,0.0948 -0.031,0.0953 -0.0297,0.0957 -0.0283,0.0961 -0.0269,0.0965 -0.0255,0.0969 -0.0241,0.0972 -0.0227,0.0976 -0.0214,0.0979 -0.0199,0.0982 -0.0185,0.0985 -0.0171,0.0987 -0.0157,0.099 -0.0143,0.0992 -0.0129,0.0994 -0.0114,0.0995 -0.01,0.0997 -0.009,0.0998 -0.007,0.0999 -0.006,0.10002 -0.004,0.1001 -0.003,0.10014 -9.9e-4,0.10018 v 0.10019 l 9.9e-4,0.10017 0.003,0.10015 0.004,0.10009 0.006,0.10002 0.007,0.0999 0.009,0.0998 0.01,0.0997 0.0114,0.0995 0.0129,0.0994 0.0143,0.0992 0.0157,0.099 0.0171,0.0987 0.0185,0.0985 0.0199,0.0982 0.0214,0.0979 0.0227,0.0976 0.0241,0.0972 0.0255,0.0969 0.0269,0.0965 0.0283,0.0961 0.0297,0.0957 0.031,0.0953 0.0324,0.0948 0.0337,0.0943 0.0351,0.0938 0.0363,0.0933 0.0378,0.0928 0.0392,0.0922 0.0403,0.0917 0.0418,0.0911 0.0429,0.0905 0.0444,0.0899 0.0455,0.0892 0.0469,0.0886 0.0482,0.0879 0.0494,0.0872 0.0505,0.0865 0.0519,0.0857 0.0531,0.085 0.0543,0.0842 0.0555,0.0834 0.0567,0.0826 0.0578,0.0818 0.059,0.081 0.0602,0.0801 0.0613,0.0793 0.0624,0.0784 0.0635,0.0775 0.0646,0.0765 0.0657,0.0756 0.0668,0.0747 0.0679,0.0737 0.0689,0.0727 0.0699,0.0717 0.071,0.0707 0.072,0.0697 0.073,0.0687 0.0739,0.0676 0.0749,0.0665 0.0759,0.0655 0.0768,0.0644 0.0777,0.0633 0.0786,0.0621 0.0795,0.061 0.0803,0.0599 0.0812,0.0587 0.082,0.0575 0.0828,0.0564 0.0836,0.0552 0.0844,0.054 0.0852,0.0528 0.0859,0.0515 0.0866,0.0503 0.0874,0.0491 0.088,0.0478 0.0887,0.0465 0.0894,0.0453 0.09,0.044 0.0906,0.0427 0.0912,0.0414 0.0918,0.0401 0.0924,0.0387 0.0929,0.0374 0.0935,0.0361 0.094,0.0347 0.0944,0.0334 0.0949,0.0321 0.0954,0.0307 0.0958,0.0293 0.0962,0.0279 0.0966,0.0266 0.097,0.0252 0.0973,0.0238 0.0976,0.0224 0.098,0.021 0.0982,0.0196 0.0985,0.0182 0.0988,0.0168 0.099,0.0154 0.0992,0.0139 0.0994,0.0125 0.0996,0.0111 0.0997,0.01 0.0999,0.008 0.1,0.007 0.10005,0.005 0.10011,0.004 0.10015,0.002 0.10018,0.001 0.10019,-3.5e-4 0.10016,-0.002 0.10013,-0.003 0.10008,-0.005 0.1,-0.006 0.0999,-0.007 0.0998,-0.009 0.0996,-0.0104 0.0995,-0.0118 0.0993,-0.0132 0.0991,-0.0147 0.0989,-0.0161 0.0986,-0.0175 0.0984,-0.0189 0.0981,-0.0203 0.0978,-0.0217 0.0975,-0.0231 0.0971,-0.0245 0.0968,-0.0259 0.0964,-0.0273 0.096,-0.0286 0.0956,-0.03 0.0951,-0.0314 0.0947,-0.0327 0.0942,-0.0341 0.0937,-0.0354 0.0932,-0.0368 0.0927,-0.0381 0.0921,-0.0394 0.0915,-0.0407 0.0909,-0.042 0.0903,-0.0433 0.0897,-0.0446 0.0891,-0.0459 0.0884,-0.0472 0.0877,-0.0484 0.087,-0.0497 0.0863,-0.0509 0.0856,-0.0521 0.0848,-0.0534 0.084,-0.0546 0.0832,-0.0558 0.0824,-0.057 0.0816,-0.0581 0.0808,-0.0593 0.0799,-0.0604 0.079,-0.0616 0.0781,-0.0627 0.0772,-0.0638 0.0763,-0.0649 0.0754,-0.066 0.0744,-0.0671 0.0734,-0.0681 0.0725,-0.0692 0.0715,-0.0702 0.0705,-0.0712 0.0694,-0.0722 0.0684,-0.0732 0.0673,-0.0742 0.0663,-0.0751 0.0652,-0.0761 0.0641,-0.077 0.063,-0.0779 0.0619,-0.0788 0.0607,-0.0797 0.0596,-0.0805 0.0584,-0.0814 0.0573,-0.0822 0.0561,-0.083 0.0549,-0.0838 0.0536,-0.0846 0.0525,-0.0854 0.0512,-0.0861 0.05,-0.0868 0.0487,-0.0875 0.0475,-0.0882 0.0462,-0.0889 0.0449,-0.0895 0.0437,-0.0902 0.0424,-0.0908 0.041,-0.0914 0.0397,-0.092 0.0384,-0.0925 0.0371,-0.0931 0.0358,-0.0936 0.0344,-0.0941 0.0331,-0.0946 0.0317,-0.095 0.0303,-0.0955 0.029,-0.0959 0.0276,-0.0963 0.0262,-0.0967 0.0248,-0.0971 0.0234,-0.0974 0.022,-0.0977 0.0206,-0.098 0.0192,-0.0983 0.0178,-0.0986 0.0164,-0.0988 0.015,-0.0991 0.0136,-0.0993 0.0122,-0.0994 0.0107,-0.0996 0.009,-0.0998 0.008,-0.0999 0.006,-0.1 0.005,-0.10007 0.004,-0.10012 0.002,-0.10016 7.2e-4,-0.1001"
       stroke="#191919"
       stroke-width="0.35 px"
       style="fill:none;fill-opacity:1;fill-rule:evenodd;stroke:#ff0000;stroke-width:0.264583;stroke-linecap:square;stroke-miterlimit:4;stroke-dasharray:none" />
    <path
       id="Shape2DView_nwe0049"
       d="m 403.07013,168.38071 m 0,0 -7.2e-4,-0.10018 -0.002,-0.10017 -0.004,-0.10012 -0.005,-0.10006 -0.006,-0.1 -0.008,-0.0999 -0.009,-0.0997 -0.0107,-0.0996 -0.0121,-0.0995 -0.0136,-0.0993 -0.015,-0.0991 -0.0164,-0.0988 -0.0178,-0.0986 -0.0192,-0.0983 -0.0206,-0.098 -0.022,-0.0977 -0.0234,-0.0974 -0.0248,-0.0971 -0.0262,-0.0967 -0.0276,-0.0963 -0.029,-0.0959 -0.0303,-0.0955 -0.0317,-0.095 -0.0331,-0.0946 -0.0344,-0.0941 -0.0358,-0.0936 -0.0371,-0.0931 -0.0384,-0.0925 -0.0396,-0.092 -0.0411,-0.0914 -0.0424,-0.0908 -0.0437,-0.0902 -0.0448,-0.0895 -0.0462,-0.0889 -0.0476,-0.0882 -0.0486,-0.0875 -0.05,-0.0868 -0.0512,-0.0861 -0.0525,-0.0854 -0.0537,-0.0846 -0.0549,-0.0838 -0.0561,-0.083 -0.0572,-0.0822 -0.0584,-0.0814 -0.0596,-0.0805 -0.0607,-0.0797 -0.0619,-0.0788 -0.063,-0.0779 -0.0641,-0.077 -0.0652,-0.0761 -0.0663,-0.0751 -0.0673,-0.0742 -0.0684,-0.0732 -0.0694,-0.0722 -0.0705,-0.0712 -0.0715,-0.0702 -0.0725,-0.0692 -0.0734,-0.0681 -0.0744,-0.0671 -0.0754,-0.066 -0.0763,-0.0649 -0.0772,-0.0638 -0.0781,-0.0627 -0.079,-0.0616 -0.0799,-0.0604 -0.0808,-0.0593 -0.0816,-0.0581 -0.0824,-0.057 -0.0832,-0.0558 -0.084,-0.0546 -0.0848,-0.0534 -0.0856,-0.0522 -0.0863,-0.0509 -0.087,-0.0497 -0.0877,-0.0484 -0.0884,-0.0472 -0.0891,-0.0459 -0.0897,-0.0446 -0.0903,-0.0433 -0.0909,-0.042 -0.0915,-0.0407 -0.0921,-0.0394 -0.0927,-0.0381 -0.0932,-0.0368 -0.0937,-0.0354 -0.0942,-0.0341 -0.0947,-0.0327 -0.0952,-0.0314 -0.0956,-0.03 -0.096,-0.0286 -0.0964,-0.0273 -0.0968,-0.0259 -0.0971,-0.0245 -0.0975,-0.0231 -0.0978,-0.0217 -0.0981,-0.0203 -0.0984,-0.0189 -0.0986,-0.0175 -0.0989,-0.0161 -0.0991,-0.0146 -0.0993,-0.0132 -0.0995,-0.0118 -0.0996,-0.0104 -0.0998,-0.009 -0.0999,-0.008 -0.1,-0.006 -0.10008,-0.005 -0.10014,-0.003 -0.10017,-0.002 -0.10019,-3.6e-4 -0.10018,0.001 -0.10014,0.002 -0.10011,0.004 -0.10004,0.005 -0.1,0.007 -0.0999,0.008 -0.0997,0.01 -0.0996,0.0111 -0.0994,0.0125 -0.0992,0.0139 -0.099,0.0153 -0.0988,0.0168 -0.0985,0.0182 -0.0983,0.0196 -0.098,0.021 -0.0976,0.0224 -0.0973,0.0238 -0.097,0.0252 -0.0966,0.0266 -0.0962,0.0279 -0.0958,0.0293 -0.0954,0.0307 -0.0949,0.032 -0.0944,0.0334 -0.094,0.0347 -0.0935,0.0361 -0.0929,0.0374 -0.0924,0.0388 -0.0918,0.0401 -0.0912,0.0414 -0.0906,0.0427 -0.09,0.044 -0.0894,0.0453 -0.0887,0.0465 -0.088,0.0478 -0.0874,0.049 -0.0866,0.0503 -0.0859,0.0515 -0.0852,0.0528 -0.0844,0.054 -0.0836,0.0552 -0.0828,0.0564 -0.082,0.0576 -0.0812,0.0587 -0.0803,0.0599 -0.0795,0.061 -0.0786,0.0621 -0.0777,0.0633 -0.0768,0.0644 -0.0759,0.0655 -0.0749,0.0665 -0.0739,0.0676 -0.073,0.0687 -0.072,0.0697 -0.071,0.0707 -0.07,0.0717 -0.0689,0.0727 -0.0679,0.0737 -0.0668,0.0747 -0.0657,0.0756 -0.0647,0.0765 -0.0635,0.0775 -0.0624,0.0784 -0.0613,0.0793 -0.0602,0.0801 -0.059,0.081 -0.0578,0.0818 -0.0567,0.0826 -0.0555,0.0834 -0.0543,0.0842 -0.0531,0.085 -0.0518,0.0857 -0.0506,0.0865 -0.0494,0.0872 -0.0481,0.0879 -0.0468,0.0886 -0.0457,0.0892 -0.0444,0.0899 -0.043,0.0905 -0.0417,0.0911 -0.0403,0.0917 -0.0391,0.0922 -0.0378,0.0928 -0.0365,0.0933 -0.0351,0.0938 -0.0337,0.0943 -0.0324,0.0948 -0.031,0.0953 -0.0297,0.0957 -0.0283,0.0961 -0.0269,0.0965 -0.0255,0.0969 -0.0241,0.0972 -0.0227,0.0976 -0.0214,0.0979 -0.0199,0.0982 -0.0185,0.0985 -0.0171,0.0987 -0.0157,0.099 -0.0143,0.0992 -0.0129,0.0994 -0.0114,0.0995 -0.01,0.0997 -0.009,0.0998 -0.007,0.0999 -0.006,0.10002 -0.004,0.1001 -0.003,0.10014 -10e-4,0.10018 v 0.10019 l 10e-4,0.10017 0.003,0.10015 0.004,0.10009 0.006,0.10002 0.007,0.0999 0.009,0.0998 0.01,0.0997 0.0114,0.0995 0.0129,0.0994 0.0143,0.0992 0.0157,0.099 0.0171,0.0987 0.0185,0.0985 0.0199,0.0982 0.0214,0.0979 0.0227,0.0976 0.0241,0.0972 0.0255,0.0969 0.0269,0.0965 0.0283,0.0961 0.0297,0.0957 0.031,0.0953 0.0324,0.0948 0.0337,0.0943 0.0351,0.0938 0.0365,0.0933 0.0378,0.0928 0.0391,0.0922 0.0403,0.0917 0.0417,0.0911 0.043,0.0905 0.0444,0.0899 0.0457,0.0892 0.0468,0.0886 0.0481,0.0879 0.0494,0.0872 0.0506,0.0865 0.0518,0.0857 0.0531,0.085 0.0543,0.0842 0.0555,0.0834 0.0567,0.0826 0.0578,0.0818 0.059,0.081 0.0602,0.0801 0.0613,0.0793 0.0624,0.0784 0.0635,0.0775 0.0647,0.0765 0.0657,0.0756 0.0668,0.0747 0.0679,0.0737 0.0689,0.0727 0.07,0.0717 0.071,0.0707 0.072,0.0697 0.073,0.0687 0.0739,0.0676 0.0749,0.0665 0.0759,0.0655 0.0768,0.0644 0.0777,0.0633 0.0786,0.0621 0.0795,0.061 0.0803,0.0599 0.0812,0.0587 0.082,0.0575 0.0828,0.0564 0.0836,0.0552 0.0844,0.054 0.0852,0.0528 0.0859,0.0515 0.0866,0.0503 0.0874,0.0491 0.088,0.0478 0.0887,0.0465 0.0894,0.0453 0.09,0.044 0.0906,0.0427 0.0912,0.0414 0.0918,0.0401 0.0924,0.0387 0.0929,0.0374 0.0935,0.0361 0.094,0.0347 0.0944,0.0334 0.0949,0.0321 0.0954,0.0307 0.0958,0.0293 0.0962,0.0279 0.0966,0.0266 0.097,0.0252 0.0973,0.0238 0.0976,0.0224 0.098,0.021 0.0983,0.0196 0.0985,0.0182 0.0988,0.0168 0.099,0.0154 0.0992,0.0139 0.0994,0.0125 0.0996,0.0111 0.0997,0.01 0.0999,0.008 0.1,0.007 0.10004,0.005 0.10011,0.004 0.10014,0.002 0.10018,0.001 0.10019,-3.5e-4 0.10017,-0.002 0.10014,-0.003 0.10008,-0.005 0.1,-0.006 0.0999,-0.007 0.0998,-0.009 0.0996,-0.0104 0.0995,-0.0118 0.0993,-0.0132 0.0991,-0.0147 0.0989,-0.0161 0.0986,-0.0175 0.0984,-0.0189 0.0981,-0.0203 0.0978,-0.0217 0.0975,-0.0231 0.0971,-0.0245 0.0968,-0.0259 0.0964,-0.0273 0.096,-0.0286 0.0956,-0.03 0.0952,-0.0314 0.0947,-0.0327 0.0942,-0.0341 0.0937,-0.0354 0.0932,-0.0368 0.0927,-0.0381 0.0921,-0.0394 0.0915,-0.0407 0.0909,-0.042 0.0903,-0.0433 0.0897,-0.0446 0.0891,-0.0459 0.0884,-0.0472 0.0877,-0.0484 0.087,-0.0497 0.0863,-0.0509 0.0856,-0.0521 0.0848,-0.0534 0.084,-0.0546 0.0832,-0.0558 0.0824,-0.057 0.0816,-0.0581 0.0808,-0.0593 0.0799,-0.0604 0.079,-0.0616 0.0781,-0.0627 0.0772,-0.0638 0.0763,-0.0649 0.0754,-0.066 0.0744,-0.0671 0.0734,-0.0681 0.0725,-0.0692 0.0715,-0.0702 0.0705,-0.0712 0.0694,-0.0722 0.0684,-0.0732 0.0673,-0.0742 0.0663,-0.0751 0.0652,-0.0761 0.0641,-0.077 0.063,-0.0779 0.0619,-0.0788 0.0607,-0.0797 0.0596,-0.0805 0.0584,-0.0814 0.0572,-0.0822 0.0561,-0.083 0.0549,-0.0838 0.0537,-0.0846 0.0525,-0.0854 0.0512,-0.0861 0.05,-0.0868 0.0486,-0.0875 0.0476,-0.0882 0.0462,-0.0889 0.0448,-0.0895 0.0437,-0.0902 0.0424,-0.0908 0.0411,-0.0914 0.0396,-0.092 0.0384,-0.0925 0.0371,-0.0931 0.0358,-0.0936 0.0344,-0.0941 0.0331,-0.0946 0.0317,-0.095 0.0303,-0.0955 0.029,-0.0959 0.0276,-0.0963 0.0262,-0.0967 0.0248,-0.0971 0.0234,-0.0974 0.022,-0.0977 0.0206,-0.098 0.0192,-0.0983 0.0178,-0.0986 0.0164,-0.0988 0.015,-0.0991 0.0136,-0.0993 0.0121,-0.0994 0.0107,-0.0996 0.009,-0.0998 0.008,-0.0999 0.006,-0.1 0.005,-0.10007 0.004,-0.10012 0.002,-0.10016 7.2e-4,-0.1001"
       stroke="#191919"
       stroke-width="0.35 px"
       style="fill:none;fill-opacity:1;fill-rule:evenodd;stroke:#ff0000;stroke-width:0.264583;stroke-linecap:square;stroke-miterlimit:4;stroke-dasharray:none" />
    <path
       id="Shape2DView_nwe0050"
       d="m 428.19013,168.38071 m 0,0 -7.2e-4,-0.10018 -0.002,-0.10017 -0.004,-0.10012 -0.005,-0.10006 -0.006,-0.1 -0.008,-0.0999 -0.009,-0.0997 -0.0107,-0.0996 -0.0122,-0.0995 -0.0136,-0.0993 -0.015,-0.0991 -0.0164,-0.0988 -0.0178,-0.0986 -0.0192,-0.0983 -0.0206,-0.098 -0.022,-0.0977 -0.0234,-0.0974 -0.0248,-0.0971 -0.0262,-0.0967 -0.0276,-0.0963 -0.029,-0.0959 -0.0303,-0.0955 -0.0317,-0.095 -0.0331,-0.0946 -0.0344,-0.0941 -0.0358,-0.0936 -0.0371,-0.0931 -0.0384,-0.0925 -0.0396,-0.092 -0.0412,-0.0914 -0.0423,-0.0908 -0.0437,-0.0902 -0.0449,-0.0895 -0.0462,-0.0889 -0.0476,-0.0882 -0.0487,-0.0875 -0.05,-0.0868 -0.0511,-0.0861 -0.0525,-0.0854 -0.0537,-0.0846 -0.0549,-0.0838 -0.0561,-0.083 -0.0573,-0.0822 -0.0584,-0.0814 -0.0596,-0.0805 -0.0607,-0.0797 -0.0619,-0.0788 -0.063,-0.0779 -0.0641,-0.077 -0.0652,-0.0761 -0.0663,-0.0751 -0.0673,-0.0742 -0.0684,-0.0732 -0.0694,-0.0722 -0.0705,-0.0712 -0.0715,-0.0702 -0.0725,-0.0692 -0.0734,-0.0681 -0.0744,-0.0671 -0.0754,-0.066 -0.0763,-0.0649 -0.0772,-0.0638 -0.0781,-0.0627 -0.079,-0.0616 -0.0799,-0.0604 -0.0808,-0.0593 -0.0816,-0.0581 -0.0824,-0.057 -0.0832,-0.0558 -0.084,-0.0546 -0.0848,-0.0534 -0.0856,-0.0522 -0.0863,-0.0509 -0.087,-0.0497 -0.0877,-0.0484 -0.0884,-0.0472 -0.0891,-0.0459 -0.0897,-0.0446 -0.0903,-0.0433 -0.0909,-0.042 -0.0915,-0.0407 -0.0921,-0.0394 -0.0927,-0.0381 -0.0932,-0.0368 -0.0937,-0.0354 -0.0942,-0.0341 -0.0947,-0.0327 -0.0951,-0.0314 -0.0956,-0.03 -0.096,-0.0286 -0.0964,-0.0273 -0.0968,-0.0259 -0.0971,-0.0245 -0.0975,-0.0231 -0.0978,-0.0217 -0.0981,-0.0203 -0.0984,-0.0189 -0.0986,-0.0175 -0.0989,-0.0161 -0.0991,-0.0146 -0.0993,-0.0132 -0.0995,-0.0118 -0.0996,-0.0104 -0.0998,-0.009 -0.0999,-0.008 -0.1,-0.006 -0.10008,-0.005 -0.10013,-0.003 -0.10018,-0.002 -0.10019,-3.6e-4 -0.10018,0.001 -0.10015,0.002 -0.1001,0.004 -0.10004,0.005 -0.1,0.007 -0.0999,0.008 -0.0997,0.01 -0.0996,0.0111 -0.0994,0.0125 -0.0992,0.0139 -0.099,0.0153 -0.0988,0.0168 -0.0985,0.0182 -0.0982,0.0196 -0.098,0.021 -0.0976,0.0224 -0.0973,0.0238 -0.097,0.0252 -0.0966,0.0266 -0.0962,0.0279 -0.0958,0.0293 -0.0954,0.0307 -0.0949,0.032 -0.0944,0.0334 -0.094,0.0347 -0.0935,0.0361 -0.0929,0.0374 -0.0924,0.0388 -0.0918,0.0401 -0.0912,0.0414 -0.0906,0.0427 -0.09,0.044 -0.0894,0.0453 -0.0887,0.0465 -0.088,0.0478 -0.0874,0.049 -0.0866,0.0503 -0.0859,0.0515 -0.0852,0.0528 -0.0844,0.054 -0.0836,0.0552 -0.0828,0.0564 -0.082,0.0576 -0.0812,0.0587 -0.0803,0.0599 -0.0795,0.061 -0.0786,0.0621 -0.0777,0.0633 -0.0768,0.0644 -0.0759,0.0655 -0.0749,0.0665 -0.0739,0.0676 -0.073,0.0687 -0.072,0.0697 -0.071,0.0707 -0.0699,0.0717 -0.0689,0.0727 -0.0679,0.0737 -0.0668,0.0747 -0.0657,0.0756 -0.0646,0.0765 -0.0635,0.0775 -0.0624,0.0784 -0.0613,0.0793 -0.0602,0.0801 -0.059,0.081 -0.0578,0.0818 -0.0567,0.0826 -0.0555,0.0834 -0.0543,0.0842 -0.0531,0.085 -0.0518,0.0857 -0.0506,0.0865 -0.0494,0.0872 -0.0481,0.0879 -0.0468,0.0886 -0.0456,0.0892 -0.0443,0.0899 -0.0431,0.0905 -0.0417,0.0911 -0.0405,0.0917 -0.0391,0.0922 -0.0378,0.0928 -0.0364,0.0933 -0.0351,0.0938 -0.0337,0.0943 -0.0324,0.0948 -0.031,0.0953 -0.0297,0.0957 -0.0283,0.0961 -0.0269,0.0965 -0.0255,0.0969 -0.0241,0.0972 -0.0227,0.0976 -0.0214,0.0979 -0.0199,0.0982 -0.0185,0.0985 -0.0171,0.0987 -0.0157,0.099 -0.0143,0.0992 -0.0129,0.0994 -0.0114,0.0995 -0.01,0.0997 -0.009,0.0998 -0.007,0.0999 -0.006,0.10002 -0.004,0.1001 -0.003,0.10014 -10e-4,0.10018 v 0.10019 l 10e-4,0.10017 0.003,0.10015 0.004,0.10009 0.006,0.10002 0.007,0.0999 0.009,0.0998 0.01,0.0997 0.0114,0.0995 0.0129,0.0994 0.0143,0.0992 0.0157,0.099 0.0171,0.0987 0.0185,0.0985 0.0199,0.0982 0.0214,0.0979 0.0227,0.0976 0.0241,0.0972 0.0255,0.0969 0.0269,0.0965 0.0283,0.0961 0.0297,0.0957 0.031,0.0953 0.0324,0.0948 0.0337,0.0943 0.0351,0.0938 0.0364,0.0933 0.0378,0.0928 0.0391,0.0922 0.0405,0.0917 0.0417,0.0911 0.0431,0.0905 0.0443,0.0899 0.0456,0.0892 0.0468,0.0886 0.0481,0.0879 0.0494,0.0872 0.0506,0.0865 0.0518,0.0857 0.0531,0.085 0.0543,0.0842 0.0555,0.0834 0.0567,0.0826 0.0578,0.0818 0.059,0.081 0.0602,0.0801 0.0613,0.0793 0.0624,0.0784 0.0635,0.0775 0.0646,0.0765 0.0657,0.0756 0.0668,0.0747 0.0679,0.0737 0.0689,0.0727 0.0699,0.0717 0.071,0.0707 0.072,0.0697 0.073,0.0687 0.0739,0.0676 0.0749,0.0665 0.0759,0.0655 0.0768,0.0644 0.0777,0.0633 0.0786,0.0621 0.0795,0.061 0.0803,0.0599 0.0812,0.0587 0.082,0.0575 0.0828,0.0564 0.0836,0.0552 0.0844,0.054 0.0852,0.0528 0.0859,0.0515 0.0866,0.0503 0.0874,0.0491 0.088,0.0478 0.0887,0.0465 0.0894,0.0453 0.09,0.044 0.0906,0.0427 0.0912,0.0414 0.0918,0.0401 0.0924,0.0387 0.0929,0.0374 0.0935,0.0361 0.094,0.0347 0.0944,0.0334 0.0949,0.0321 0.0954,0.0307 0.0958,0.0293 0.0962,0.0279 0.0966,0.0266 0.097,0.0252 0.0973,0.0238 0.0976,0.0224 0.098,0.021 0.0982,0.0196 0.0985,0.0182 0.0988,0.0168 0.099,0.0154 0.0992,0.0139 0.0994,0.0125 0.0996,0.0111 0.0997,0.01 0.0999,0.008 0.1,0.007 0.10004,0.005 0.1001,0.004 0.10015,0.002 0.10018,0.001 0.10019,-3.5e-4 0.10018,-0.002 0.10013,-0.003 0.10008,-0.005 0.1,-0.006 0.0999,-0.007 0.0998,-0.009 0.0996,-0.0104 0.0995,-0.0118 0.0993,-0.0132 0.0991,-0.0147 0.0989,-0.0161 0.0986,-0.0175 0.0984,-0.0189 0.0981,-0.0203 0.0978,-0.0217 0.0975,-0.0231 0.0971,-0.0245 0.0968,-0.0259 0.0964,-0.0273 0.096,-0.0286 0.0956,-0.03 0.0951,-0.0314 0.0947,-0.0327 0.0942,-0.0341 0.0937,-0.0354 0.0932,-0.0368 0.0927,-0.0381 0.0921,-0.0394 0.0915,-0.0407 0.0909,-0.042 0.0903,-0.0433 0.0897,-0.0446 0.0891,-0.0459 0.0884,-0.0472 0.0877,-0.0484 0.087,-0.0497 0.0863,-0.0509 0.0856,-0.0521 0.0848,-0.0534 0.084,-0.0546 0.0832,-0.0558 0.0824,-0.057 0.0816,-0.0581 0.0808,-0.0593 0.0799,-0.0604 0.079,-0.0616 0.0781,-0.0627 0.0772,-0.0638 0.0763,-0.0649 0.0754,-0.066 0.0744,-0.0671 0.0734,-0.0681 0.0725,-0.0692 0.0715,-0.0702 0.0705,-0.0712 0.0694,-0.0722 0.0684,-0.0732 0.0673,-0.0742 0.0663,-0.0751 0.0652,-0.0761 0.0641,-0.077 0.063,-0.0779 0.0619,-0.0788 0.0607,-0.0797 0.0596,-0.0805 0.0584,-0.0814 0.0573,-0.0822 0.0561,-0.083 0.0549,-0.0838 0.0537,-0.0846 0.0525,-0.0854 0.0511,-0.0861 0.05,-0.0868 0.0487,-0.0875 0.0476,-0.0882 0.0462,-0.0889 0.0449,-0.0895 0.0437,-0.0902 0.0423,-0.0908 0.0412,-0.0914 0.0396,-0.092 0.0384,-0.0925 0.0371,-0.0931 0.0358,-0.0936 0.0344,-0.0941 0.0331,-0.0946 0.0317,-0.095 0.0303,-0.0955 0.029,-0.0959 0.0276,-0.0963 0.0262,-0.0967 0.0248,-0.0971 0.0234,-0.0974 0.022,-0.0977 0.0206,-0.098 0.0192,-0.0983 0.0178,-0.0986 0.0164,-0.0988 0.015,-0.0991 0.0136,-0.0993 0.0122,-0.0994 0.0107,-0.0996 0.009,-0.0998 0.008,-0.0999 0.006,-0.1 0.005,-0.10007 0.004,-0.10012 0.002,-0.10016 7.2e-4,-0.1001"
       stroke="#191919"
       stroke-width="0.35 px"
       style="fill:none;fill-opacity:1;fill-rule:evenodd;stroke:#ff0000;stroke-width:0.264583;stroke-linecap:square;stroke-miterlimit:4;stroke-dasharray:none" />
    <text
       xml:space="preserve"
       style="font-style:normal;font-variant:normal;font-weight:bold;font-stretch:normal;font-size:4.23332px;line-height:1.25;font-family:Arial;-inkscape-font-specification:'Arial, Bold';font-variant-ligatures:normal;font-variant-caps:normal;font-variant-numeric:normal;font-variant-east-asian:normal;fill:#000000;fill-opacity:1;stroke:none;stroke-width:0.264583"
       x="22.247976"
       y="159.88507"
       id="text22330"
       transform="scale(1.0537593,0.94898333)"><tspan
         sodipodi:role="line"
         id="tspan22328"
         style="font-style:normal;font-variant:normal;font-weight:bold;font-stretch:normal;font-size:4.23332px;font-family:Arial;-inkscape-font-specification:'Arial, Bold';font-variant-ligatures:normal;font-variant-caps:normal;font-variant-numeric:normal;font-variant-east-asian:normal;fill:#000000;fill-opacity:1;stroke-width:0.264583"
         x="22.247976"
         y="159.88507">5 VOLT</tspan><tspan
         sodipodi:role="line"
         style="font-style:normal;font-variant:normal;font-weight:bold;font-stretch:normal;font-size:4.23332px;font-family:Arial;-inkscape-font-specification:'Arial, Bold';font-variant-ligatures:normal;font-variant-caps:normal;font-variant-numeric:normal;font-variant-east-asian:normal;fill:#000000;fill-opacity:1;stroke-width:0.264583"
         x="22.247976"
         y="165.17673"
         id="tspan27590">POWER</tspan></text>
    <text
       xml:space="preserve"
       style="font-style:normal;font-variant:normal;font-weight:bold;font-stretch:normal;font-size:4.23332px;line-height:1.25;font-family:Arial;-inkscape-font-specification:'Arial, Bold';font-variant-ligatures:normal;font-variant-caps:normal;font-variant-numeric:normal;font-variant-east-asian:normal;fill:#000000;fill-opacity:1;stroke:none;stroke-width:0.264583"
       x="43.938351"
       y="159.88507"
       id="text22330-0"
       transform="scale(1.0537593,0.94898333)"><tspan
         sodipodi:role="line"
         style="font-style:normal;font-variant:normal;font-weight:bold;font-stretch:normal;font-size:4.23332px;font-family:Arial;-inkscape-font-specification:'Arial, Bold';font-variant-ligatures:normal;font-variant-caps:normal;font-variant-numeric:normal;font-variant-east-asian:normal;fill:#000000;fill-opacity:1;stroke-width:0.264583"
         x="43.938351"
         y="159.88507"
         id="tspan27590-8">ON / OFF</tspan><tspan
         sodipodi:role="line"
         style="font-style:normal;font-variant:normal;font-weight:bold;font-stretch:normal;font-size:4.23332px;font-family:Arial;-inkscape-font-specification:'Arial, Bold';font-variant-ligatures:normal;font-variant-caps:normal;font-variant-numeric:normal;font-variant-east-asian:normal;fill:#000000;fill-opacity:1;stroke-width:0.264583"
         x="43.938351"
         y="165.17673"
         id="tspan36289">POWER</tspan></text>
    <text
       xml:space="preserve"
       style="font-style:normal;font-variant:normal;font-weight:bold;font-stretch:normal;font-size:4.23332px;line-height:1.25;font-family:Arial;-inkscape-font-specification:'Arial, Bold';font-variant-ligatures:normal;font-variant-caps:normal;font-variant-numeric:normal;font-variant-east-asian:normal;fill:#000000;fill-opacity:1;stroke:none;stroke-width:0.264583"
       x="71.762245"
       y="160.15463"
       id="text22330-0-4"
       transform="scale(1.0537593,0.94898333)"><tspan
         sodipodi:role="line"
         style="font-style:normal;font-variant:normal;font-weight:bold;font-stretch:normal;font-size:4.23332px;font-family:Arial;-inkscape-font-specification:'Arial, Bold';font-variant-ligatures:normal;font-variant-caps:normal;font-variant-numeric:normal;font-variant-east-asian:normal;fill:#000000;fill-opacity:1;stroke-width:0.264583"
         x="71.762245"
         y="160.15463"
         id="tspan27590-8-6">SERIAL COM</tspan><tspan
         sodipodi:role="line"
         style="font-style:normal;font-variant:normal;font-weight:bold;font-stretch:normal;font-size:4.23332px;font-family:Arial;-inkscape-font-specification:'Arial, Bold';font-variant-ligatures:normal;font-variant-caps:normal;font-variant-numeric:normal;font-variant-east-asian:normal;fill:#000000;fill-opacity:1;stroke-width:0.264583"
         x="71.762245"
         y="165.44629"
         id="tspan36289-1" /></text>
    <text
       xml:space="preserve"
       style="font-style:normal;font-variant:normal;font-weight:bold;font-stretch:normal;font-size:4.23332px;line-height:1.25;font-family:Arial;-inkscape-font-specification:'Arial, Bold';font-variant-ligatures:normal;font-variant-caps:normal;font-variant-numeric:normal;font-variant-east-asian:normal;fill:#000000;fill-opacity:1;stroke:none;stroke-width:0.264583"
       x="111.87228"
       y="159.88507"
       id="text22330-0-6"
       transform="scale(1.0537593,0.94898333)"><tspan
         sodipodi:role="line"
         style="font-style:normal;font-variant:normal;font-weight:bold;font-stretch:normal;font-size:4.23332px;font-family:Arial;-inkscape-font-specification:'Arial, Bold';font-variant-ligatures:normal;font-variant-caps:normal;font-variant-numeric:normal;font-variant-east-asian:normal;fill:#000000;fill-opacity:1;stroke-width:0.264583"
         x="111.87228"
         y="159.88507"
         id="tspan27590-8-0">CTRL</tspan><tspan
         sodipodi:role="line"
         style="font-style:normal;font-variant:normal;font-weight:bold;font-stretch:normal;font-size:4.23332px;font-family:Arial;-inkscape-font-specification:'Arial, Bold';font-variant-ligatures:normal;font-variant-caps:normal;font-variant-numeric:normal;font-variant-east-asian:normal;fill:#000000;fill-opacity:1;stroke-width:0.264583"
         x="111.87228"
         y="165.17673"
         id="tspan36289-15">INST</tspan></text>
    <text
       xml:space="preserve"
       style="font-style:normal;font-variant:normal;font-weight:bold;font-stretch:normal;font-size:4.23332px;line-height:1.25;font-family:Arial;-inkscape-font-specification:'Arial, Bold';font-variant-ligatures:normal;font-variant-caps:normal;font-variant-numeric:normal;font-variant-east-asian:normal;fill:#000000;fill-opacity:1;stroke:none;stroke-width:0.264583"
       x="133.9619"
       y="159.8334"
       id="text22330-0-4-4"
       transform="scale(1.0537593,0.94898333)"><tspan
         sodipodi:role="line"
         style="font-style:normal;font-variant:normal;font-weight:bold;font-stretch:normal;font-size:4.23332px;font-family:Arial;-inkscape-font-specification:'Arial, Bold';font-variant-ligatures:normal;font-variant-caps:normal;font-variant-numeric:normal;font-variant-east-asian:normal;fill:#000000;fill-opacity:1;stroke-width:0.264583"
         x="133.9619"
         y="159.8334"
         id="tspan27590-8-6-8">ETHERNET</tspan><tspan
         sodipodi:role="line"
         style="font-style:normal;font-variant:normal;font-weight:bold;font-stretch:normal;font-size:4.23332px;font-family:Arial;-inkscape-font-specification:'Arial, Bold';font-variant-ligatures:normal;font-variant-caps:normal;font-variant-numeric:normal;font-variant-east-asian:normal;fill:#000000;fill-opacity:1;stroke-width:0.264583"
         x="133.9619"
         y="165.12506"
         id="tspan36289-1-4" /></text>
    <text
       xml:space="preserve"
       style="font-style:normal;font-variant:normal;font-weight:bold;font-stretch:normal;font-size:4.23332px;line-height:1.25;font-family:Arial;-inkscape-font-specification:'Arial, Bold';font-variant-ligatures:normal;font-variant-caps:normal;font-variant-numeric:normal;font-variant-east-asian:normal;fill:#000000;fill-opacity:1;stroke:none;stroke-width:0.264583"
       x="164.51602"
       y="159.88507"
       id="text22330-0-4-4-8"
       transform="scale(1.0537593,0.94898333)"><tspan
         sodipodi:role="line"
         style="font-style:normal;font-variant:normal;font-weight:bold;font-stretch:normal;font-size:4.23332px;font-family:Arial;-inkscape-font-specification:'Arial, Bold';font-variant-ligatures:normal;font-variant-caps:normal;font-variant-numeric:normal;font-variant-east-asian:normal;fill:#000000;fill-opacity:1;stroke-width:0.264583"
         x="164.51602"
         y="159.88507"
         id="tspan27590-8-6-8-5">USB</tspan><tspan
         sodipodi:role="line"
         style="font-style:normal;font-variant:normal;font-weight:bold;font-stretch:normal;font-size:4.23332px;font-family:Arial;-inkscape-font-specification:'Arial, Bold';font-variant-ligatures:normal;font-variant-caps:normal;font-variant-numeric:normal;font-variant-east-asian:normal;fill:#000000;fill-opacity:1;stroke-width:0.264583"
         x="164.51602"
         y="165.17673"
         id="tspan36289-1-4-0" /></text>
    <text
       xml:space="preserve"
       style="font-style:normal;font-variant:normal;font-weight:bold;font-stretch:normal;font-size:4.23332px;line-height:1.25;font-family:Arial;-inkscape-font-specification:'Arial, Bold';font-variant-ligatures:normal;font-variant-caps:normal;font-variant-numeric:normal;font-variant-east-asian:normal;fill:#000000;fill-opacity:1;stroke:none;stroke-width:0.264583"
       x="183.55222"
       y="159.88507"
       id="text22330-0-4-4-8-0"
       transform="scale(1.0537593,0.94898333)"><tspan
         sodipodi:role="line"
         style="font-style:normal;font-variant:normal;font-weight:bold;font-stretch:normal;font-size:4.23332px;font-family:Arial;-inkscape-font-specification:'Arial, Bold';font-variant-ligatures:normal;font-variant-caps:normal;font-variant-numeric:normal;font-variant-east-asian:normal;fill:#000000;fill-opacity:1;stroke-width:0.264583"
         x="183.55222"
         y="159.88507"
         id="tspan27590-8-6-8-5-5">JTAG</tspan><tspan
         sodipodi:role="line"
         style="font-style:normal;font-variant:normal;font-weight:bold;font-stretch:normal;font-size:4.23332px;font-family:Arial;-inkscape-font-specification:'Arial, Bold';font-variant-ligatures:normal;font-variant-caps:normal;font-variant-numeric:normal;font-variant-east-asian:normal;fill:#000000;fill-opacity:1;stroke-width:0.264583"
         x="183.55222"
         y="165.17673"
         id="tspan36289-1-4-0-0" /></text>
    <text
       xml:space="preserve"
       style="font-style:normal;font-variant:normal;font-weight:bold;font-stretch:normal;font-size:4.23332px;line-height:1.25;font-family:Arial;-inkscape-font-specification:'Arial, Bold';font-variant-ligatures:normal;font-variant-caps:normal;font-variant-numeric:normal;font-variant-east-asian:normal;fill:#000000;fill-opacity:1;stroke:none;stroke-width:0.264583"
       x="201.15884"
       y="160.07568"
       id="text22330-0-4-4-8-0-0"
       transform="scale(1.0537593,0.94898333)"><tspan
         sodipodi:role="line"
         style="font-style:normal;font-variant:normal;font-weight:bold;font-stretch:normal;font-size:4.23332px;font-family:Arial;-inkscape-font-specification:'Arial, Bold';font-variant-ligatures:normal;font-variant-caps:normal;font-variant-numeric:normal;font-variant-east-asian:normal;fill:#000000;fill-opacity:1;stroke-width:0.264583"
         x="201.15884"
         y="160.07568"
         id="tspan72137">POWER SUPPLY</tspan><tspan
         sodipodi:role="line"
         style="font-style:normal;font-variant:normal;font-weight:bold;font-stretch:normal;font-size:4.23332px;font-family:Arial;-inkscape-font-specification:'Arial, Bold';font-variant-ligatures:normal;font-variant-caps:normal;font-variant-numeric:normal;font-variant-east-asian:normal;fill:#000000;fill-opacity:1;stroke-width:0.264583"
         x="201.15884"
         y="165.36734"
         id="tspan36289-1-4-0-0-2" /></text>
    <text
       xml:space="preserve"
       style="font-style:normal;font-variant:normal;font-weight:bold;font-stretch:normal;font-size:4.23332px;line-height:1.25;font-family:Arial;-inkscape-font-specification:'Arial, Bold';font-variant-ligatures:normal;font-variant-caps:normal;font-variant-numeric:normal;font-variant-east-asian:normal;fill:#000000;fill-opacity:1;stroke:none;stroke-width:0.264583"
       x="283.32867"
       y="159.8334"
       id="text22330-0-4-4-8-0-8"
       transform="scale(1.0537593,0.94898333)"><tspan
         sodipodi:role="line"
         style="font-style:normal;font-variant:normal;font-weight:bold;font-stretch:normal;font-size:4.23332px;font-family:Arial;-inkscape-font-specification:'Arial, Bold';font-variant-ligatures:normal;font-variant-caps:normal;font-variant-numeric:normal;font-variant-east-asian:normal;fill:#000000;fill-opacity:1;stroke-width:0.264583"
         x="283.32867"
         y="159.8334"
         id="tspan27590-8-6-8-5-5-0">MULTIMETER</tspan><tspan
         sodipodi:role="line"
         style="font-style:normal;font-variant:normal;font-weight:bold;font-stretch:normal;font-size:4.23332px;font-family:Arial;-inkscape-font-specification:'Arial, Bold';font-variant-ligatures:normal;font-variant-caps:normal;font-variant-numeric:normal;font-variant-east-asian:normal;fill:#000000;fill-opacity:1;stroke-width:0.264583"
         x="283.32867"
         y="165.12506"
         id="tspan36289-1-4-0-0-3" /></text>
    <text
       xml:space="preserve"
       style="font-style:normal;font-variant:normal;font-weight:bold;font-stretch:normal;font-size:4.23332px;line-height:1.25;font-family:Arial;-inkscape-font-specification:'Arial, Bold';font-variant-ligatures:normal;font-variant-caps:normal;font-variant-numeric:normal;font-variant-east-asian:normal;fill:#000000;fill-opacity:1;stroke:none;stroke-width:0.264583"
       x="322.29367"
       y="159.88507"
       id="text22330-0-4-4-8-3"
       transform="scale(1.0537593,0.94898333)"><tspan
         sodipodi:role="line"
         style="font-style:normal;font-variant:normal;font-weight:bold;font-stretch:normal;font-size:4.23332px;font-family:Arial;-inkscape-font-specification:'Arial, Bold';font-variant-ligatures:normal;font-variant-caps:normal;font-variant-numeric:normal;font-variant-east-asian:normal;fill:#000000;fill-opacity:1;stroke-width:0.264583"
         x="322.29367"
         y="159.88507"
         id="tspan27590-8-6-8-5-3">AWG</tspan><tspan
         sodipodi:role="line"
         style="font-style:normal;font-variant:normal;font-weight:bold;font-stretch:normal;font-size:4.23332px;font-family:Arial;-inkscape-font-specification:'Arial, Bold';font-variant-ligatures:normal;font-variant-caps:normal;font-variant-numeric:normal;font-variant-east-asian:normal;fill:#000000;fill-opacity:1;stroke-width:0.264583"
         x="322.29367"
         y="165.17673"
         id="tspan36289-1-4-0-5" /></text>
    <text
       xml:space="preserve"
       style="font-style:normal;font-variant:normal;font-weight:bold;font-stretch:normal;font-size:4.23332px;line-height:1.25;font-family:Arial;-inkscape-font-specification:'Arial, Bold';font-variant-ligatures:normal;font-variant-caps:normal;font-variant-numeric:normal;font-variant-east-asian:normal;fill:#000000;fill-opacity:1;stroke:none;stroke-width:0.264583"
       x="392.41275"
       y="159.88507"
       id="text22330-0-4-4-8-8"
       transform="scale(1.0537593,0.94898333)"><tspan
         sodipodi:role="line"
         style="font-style:normal;font-variant:normal;font-weight:bold;font-stretch:normal;font-size:4.23332px;font-family:Arial;-inkscape-font-specification:'Arial, Bold';font-variant-ligatures:normal;font-variant-caps:normal;font-variant-numeric:normal;font-variant-east-asian:normal;fill:#000000;fill-opacity:1;stroke-width:0.264583"
         x="392.41275"
         y="159.88507"
         id="tspan27590-8-6-8-5-4">SPARE</tspan><tspan
         sodipodi:role="line"
         style="font-style:normal;font-variant:normal;font-weight:bold;font-stretch:normal;font-size:4.23332px;font-family:Arial;-inkscape-font-specification:'Arial, Bold';font-variant-ligatures:normal;font-variant-caps:normal;font-variant-numeric:normal;font-variant-east-asian:normal;fill:#000000;fill-opacity:1;stroke-width:0.264583"
         x="392.41275"
         y="165.17673"
         id="tspan36289-1-4-0-3" /></text>
    <text
       xml:space="preserve"
       style="font-style:normal;font-variant:normal;font-weight:bold;font-stretch:normal;font-size:4.23332px;line-height:1.25;font-family:Arial;-inkscape-font-specification:'Arial, Bold';font-variant-ligatures:normal;font-variant-caps:normal;font-variant-numeric:normal;font-variant-east-asian:normal;fill:#000000;fill-opacity:1;stroke:none;stroke-width:0.264583"
       x="368.12668"
       y="159.88507"
       id="text22330-0-4-4-8-1"
       transform="scale(1.0537593,0.94898333)"><tspan
         sodipodi:role="line"
         style="font-style:normal;font-variant:normal;font-weight:bold;font-stretch:normal;font-size:4.23332px;font-family:Arial;-inkscape-font-specification:'Arial, Bold';font-variant-ligatures:normal;font-variant-caps:normal;font-variant-numeric:normal;font-variant-east-asian:normal;fill:#000000;fill-opacity:1;stroke-width:0.264583"
         x="368.12668"
         y="159.88507"
         id="tspan27590-8-6-8-5-1">SCOPE</tspan><tspan
         sodipodi:role="line"
         style="font-style:normal;font-variant:normal;font-weight:bold;font-stretch:normal;font-size:4.23332px;font-family:Arial;-inkscape-font-specification:'Arial, Bold';font-variant-ligatures:normal;font-variant-caps:normal;font-variant-numeric:normal;font-variant-east-asian:normal;fill:#000000;fill-opacity:1;stroke-width:0.264583"
         x="368.12668"
         y="165.17673"
         id="tspan90213">CH2</tspan><tspan
         sodipodi:role="line"
         style="font-style:normal;font-variant:normal;font-weight:bold;font-stretch:normal;font-size:4.23332px;font-family:Arial;-inkscape-font-specification:'Arial, Bold';font-variant-ligatures:normal;font-variant-caps:normal;font-variant-numeric:normal;font-variant-east-asian:normal;fill:#000000;fill-opacity:1;stroke-width:0.264583"
         x="368.12668"
         y="170.46838"
         id="tspan36289-1-4-0-4" /></text>
    <text
       xml:space="preserve"
       style="font-style:normal;font-variant:normal;font-weight:bold;font-stretch:normal;font-size:4.23332px;line-height:1.25;font-family:Arial;-inkscape-font-specification:'Arial, Bold';font-variant-ligatures:normal;font-variant-caps:normal;font-variant-numeric:normal;font-variant-east-asian:normal;fill:#000000;fill-opacity:1;stroke:none;stroke-width:0.264583"
       x="344.06894"
       y="159.88507"
       id="text22330-0-4-4-8-85"
       transform="scale(1.0537593,0.94898333)"><tspan
         sodipodi:role="line"
         style="font-style:normal;font-variant:normal;font-weight:bold;font-stretch:normal;font-size:4.23332px;font-family:Arial;-inkscape-font-specification:'Arial, Bold';font-variant-ligatures:normal;font-variant-caps:normal;font-variant-numeric:normal;font-variant-east-asian:normal;fill:#000000;fill-opacity:1;stroke-width:0.264583"
         x="344.06894"
         y="159.88507"
         id="tspan27590-8-6-8-5-9">SCOPE</tspan><tspan
         sodipodi:role="line"
         style="font-style:normal;font-variant:normal;font-weight:bold;font-stretch:normal;font-size:4.23332px;font-family:Arial;-inkscape-font-specification:'Arial, Bold';font-variant-ligatures:normal;font-variant-caps:normal;font-variant-numeric:normal;font-variant-east-asian:normal;fill:#000000;fill-opacity:1;stroke-width:0.264583"
         x="344.06894"
         y="165.17673"
         id="tspan88117">CH1</tspan><tspan
         sodipodi:role="line"
         style="font-style:normal;font-variant:normal;font-weight:bold;font-stretch:normal;font-size:4.23332px;font-family:Arial;-inkscape-font-specification:'Arial, Bold';font-variant-ligatures:normal;font-variant-caps:normal;font-variant-numeric:normal;font-variant-east-asian:normal;fill:#000000;fill-opacity:1;stroke-width:0.264583"
         x="344.06894"
         y="170.46838"
         id="tspan36289-1-4-0-42" /></text>
    <path
       style="fill:#241c1c;stroke-width:0.0254129"
       d="m 263.60896,174.54739 v -0.49077 h 0.48172 c 0.26494,0 0.60888,-0.0348 0.7643,-0.0774 0.27299,-0.0747 0.2826,-0.16695 0.2826,-2.71288 v -2.63549 l -0.36396,-0.0148 c -0.91834,-0.0372 -1.92433,0.39539 -2.62467,1.12873 l -0.45754,0.47911 -0.79969,-0.16224 c -0.68804,-0.13959 -0.78794,-0.17976 -0.71555,-0.2878 0.0463,-0.0691 0.38199,-0.61215 0.74604,-1.20687 0.36405,-0.59472 0.69608,-1.12425 0.73785,-1.17673 0.0556,-0.0699 0.22921,-0.0954 0.64847,-0.0954 0.51363,0 0.57252,0.014 0.57252,0.13632 v 0.13633 h 3.84215 3.84215 l 0.0914,-0.13633 c 0.0783,-0.11685 0.17412,-0.13632 0.6709,-0.13632 0.31876,0 0.57955,0.0118 0.57955,0.0262 0,0.0345 1.44701,2.37283 1.54295,2.49341 0.0548,0.0689 -0.11539,0.12898 -0.65683,0.23176 -0.40197,0.0763 -0.78817,0.13872 -0.85823,0.13872 -0.07,0 -0.21031,-0.10368 -0.31166,-0.23039 -0.66179,-0.82735 -2.08649,-1.4614 -2.9915,-1.33132 -0.19033,0.0274 -0.2187,0.37009 -0.2187,2.64214 0,2.45996 0.0154,2.61593 0.26623,2.70096 0.14643,0.0497 0.50675,0.0902 0.80071,0.0902 h 0.53446 v 0.49077 0.49078 h -3.20282 -3.20281 z"
       id="path1348"
       inkscape:export-filename="C:\Users\Daniel\Downloads\lock8test.tiff"
       inkscape:export-xdpi="96"
       inkscape:export-ydpi="96" />
    <text
       xml:space="preserve"
       style="font-style:normal;font-weight:normal;font-size:9.12541px;line-height:1.25;font-family:sans-serif;fill:#00ffff;fill-opacity:1;stroke:none;stroke-width:0.264583"
       x="-188.41992"
       y="-234.86969"
       id="text18073"
       transform="scale(-1.4412464,-0.69384389)"
       inkscape:export-filename="C:\Users\Daniel\Downloads\lock8test.tiff"
       inkscape:export-xdpi="96"
       inkscape:export-ydpi="96"><tspan
         sodipodi:role="line"
         id="tspan18071"
         style="fill:#00ffff;stroke-width:0.264583"
         x="-188.41992"
         y="-234.86969">U</tspan></text>
    <text
       xml:space="preserve"
       style="font-style:normal;font-weight:normal;font-size:4.79334px;line-height:1.25;font-family:sans-serif;fill:#000000;fill-opacity:1;stroke:none;stroke-width:0.264583"
       x="262.16531"
       y="169.24651"
       id="text28611"
       transform="scale(1.0114869,0.98864356)"
       inkscape:export-filename="C:\Users\Daniel\Downloads\lock8test.tiff"
       inkscape:export-xdpi="96"
       inkscape:export-ydpi="96"><tspan
         sodipodi:role="line"
         id="tspan28609"
         style="stroke-width:0.264583"
         x="262.16531"
         y="169.24651">8</tspan></text>
    <ellipse
       style="fill:none;fill-opacity:1;fill-rule:evenodd;stroke-width:0.065"
       id="path52734"
       cx="267.043"
       cy="169.08089"
       rx="8.5154305"
       ry="6.8717756"
       inkscape:export-filename="C:\Users\Daniel\Downloads\lock8test.tiff"
       inkscape:export-xdpi="96"
       inkscape:export-ydpi="96" />
    <path
       style="color:#000000;fill:#000000;fill-opacity:1;fill-rule:evenodd;-inkscape-stroke:none"
       d="m 266.80423,161.26134 c -4.53981,0 -8.24804,3.54707 -8.24804,7.93359 0,4.38653 3.70823,7.93555 8.24804,7.93555 4.53981,0 8.2461,-3.54902 8.2461,-7.93555 0,-4.38652 -3.70629,-7.93359 -8.2461,-7.93359 z m 0,0.86524 c 4.091,0 7.38086,3.16875 7.38086,7.06835 0,3.8996 -3.28986,7.07031 -7.38086,7.07031 -4.091,0 -7.38281,-3.17071 -7.38281,-7.07031 0,-3.8996 3.29181,-7.06835 7.38281,-7.06835 z"
       id="path56981" />
    <text
       xml:space="preserve"
       style="font-style:normal;font-variant:normal;font-weight:bold;font-stretch:normal;font-size:4.58611px;line-height:1.25;font-family:Arial;-inkscape-font-specification:'Arial, Bold';font-variant-ligatures:normal;font-variant-caps:normal;font-variant-numeric:normal;font-variant-east-asian:normal;fill:#000000;fill-opacity:1;stroke:none;stroke-width:0.264583"
       x="252.3116"
       y="151.94276"
       id="text10125-2"><tspan
         sodipodi:role="line"
         id="tspan10123-2"
         style="font-style:normal;font-variant:normal;font-weight:bold;font-stretch:normal;font-size:4.58611px;font-family:Arial;-inkscape-font-specification:'Arial, Bold';font-variant-ligatures:normal;font-variant-caps:normal;font-variant-numeric:normal;font-variant-east-asian:normal;fill:#000000;fill-opacity:1;stroke-width:0.264583"
         x="252.3116"
         y="151.94276">INTERCONNECT</tspan><tspan
         sodipodi:role="line"
         style="font-style:normal;font-variant:normal;font-weight:bold;font-stretch:normal;font-size:4.58611px;font-family:Arial;-inkscape-font-specification:'Arial, Bold';font-variant-ligatures:normal;font-variant-caps:normal;font-variant-numeric:normal;font-variant-east-asian:normal;fill:#000000;fill-opacity:1;stroke-width:0.264583"
         x="252.3116"
         y="157.6754"
         id="tspan10127-9">     IO BOX</tspan><tspan
         sodipodi:role="line"
         style="font-style:normal;font-variant:normal;font-weight:bold;font-stretch:normal;font-size:4.58611px;font-family:Arial;-inkscape-font-specification:'Arial, Bold';font-variant-ligatures:normal;font-variant-caps:normal;font-variant-numeric:normal;font-variant-east-asian:normal;fill:#000000;fill-opacity:1;stroke-width:0.264583"
         x="252.3116"
         y="163.40804"
         id="tspan24745-6" /></text>
    <text
       xml:space="preserve"
       style="font-style:normal;font-variant:normal;font-weight:normal;font-stretch:normal;font-size:4.23333px;line-height:1.25;font-family:Arial;-inkscape-font-specification:'Arial, Normal';font-variant-ligatures:normal;font-variant-caps:normal;font-variant-numeric:normal;font-variant-east-asian:normal;fill:#000000;fill-opacity:1;stroke:none;stroke-width:0.264583"
       x="252.45056"
       y="181.38033"
       id="text36503-8"
       inkscape:transform-center-x="30.096535"
       inkscape:transform-center-y="46.228277"><tspan
         sodipodi:role="line"
         id="tspan36501-0"
         style="font-style:normal;font-variant:normal;font-weight:normal;font-stretch:normal;font-size:4.23333px;font-family:Arial;-inkscape-font-specification:'Arial, Normal';font-variant-ligatures:normal;font-variant-caps:normal;font-variant-numeric:normal;font-variant-east-asian:normal;fill:#000000;fill-opacity:1;stroke-width:0.264583"
         x="252.45056"
         y="181.38033">512-1010-010</tspan></text>
    <text
       xml:space="preserve"
       style="font-style:normal;font-variant:normal;font-weight:bold;font-stretch:normal;font-size:4.45312px;line-height:1.25;font-family:sans-serif;-inkscape-font-specification:'sans-serif, Bold';font-variant-ligatures:normal;font-variant-caps:normal;font-variant-numeric:normal;font-variant-east-asian:normal;fill:#000000;fill-opacity:1;stroke:none;stroke-width:0.264582"
       x="170.84222"
       y="205.18607"
       id="text4454"
       transform="scale(1.2816201,0.78026242)"><tspan
         sodipodi:role="line"
         id="tspan4452"
         style="font-style:normal;font-variant:normal;font-weight:bold;font-stretch:normal;font-size:4.45312px;font-family:sans-serif;-inkscape-font-specification:'sans-serif, Bold';font-variant-ligatures:normal;font-variant-caps:normal;font-variant-numeric:normal;font-variant-east-asian:normal;fill:#000000;fill-opacity:1;stroke-width:0.264582"
         x="170.84222"
         y="205.18607">1 2 1 2</tspan></text>
    <text
       xml:space="preserve"
       style="font-style:normal;font-variant:normal;font-weight:bold;font-stretch:normal;font-size:4.23333px;line-height:1.25;font-family:Arial;-inkscape-font-specification:'Arial, Bold';font-variant-ligatures:normal;font-variant-caps:normal;font-variant-numeric:normal;font-variant-east-asian:normal;fill:#000000;fill-opacity:1;stroke:none;stroke-width:0.264583"
       x="183.29948"
       y="188.467"
       id="text21256"
       transform="scale(1.2064225,0.82889701)"><tspan
         sodipodi:role="line"
         id="tspan21254"
         style="font-style:normal;font-variant:normal;font-weight:bold;font-stretch:normal;font-size:4.23333px;font-family:Arial;-inkscape-font-specification:'Arial, Bold';font-variant-ligatures:normal;font-variant-caps:normal;font-variant-numeric:normal;font-variant-east-asian:normal;fill:#000000;fill-opacity:1;stroke-width:0.264583"
         x="183.29948"
         y="188.467">HI    LO</tspan></text>
    <text
       xml:space="preserve"
       style="font-style:normal;font-variant:normal;font-weight:bold;font-stretch:normal;font-size:4.23333px;line-height:1.25;font-family:'Book Antiqua';-inkscape-font-specification:'Book Antiqua, Bold';font-variant-ligatures:normal;font-variant-caps:normal;font-variant-numeric:normal;font-variant-east-asian:normal;fill:#000000;fill-opacity:1;stroke:none;stroke-width:0.264583"
       x="300.1391"
       y="163.06496"
       id="text39588"><tspan
         sodipodi:role="line"
         id="tspan39586"
         style="font-style:normal;font-variant:normal;font-weight:bold;font-stretch:normal;font-size:4.23333px;font-family:'Book Antiqua';-inkscape-font-specification:'Book Antiqua, Bold';font-variant-ligatures:normal;font-variant-caps:normal;font-variant-numeric:normal;font-variant-east-asian:normal;fill:#000000;fill-opacity:1;stroke-width:0.264583"
         x="300.1391"
         y="163.06496">L H TG L H I</tspan></text>
    <text
       xml:space="preserve"
       style="font-style:normal;font-variant:normal;font-weight:bold;font-stretch:normal;font-size:4.58611px;line-height:1.25;font-family:sans-serif;-inkscape-font-specification:'sans-serif, Bold';font-variant-ligatures:normal;font-variant-caps:normal;font-variant-numeric:normal;font-variant-east-asian:normal;fill:#000000;fill-opacity:1;stroke:none;stroke-width:0.264583"
       x="117.18974"
       y="163.20195"
       id="text52566"><tspan
         sodipodi:role="line"
         id="tspan52564"
         style="font-style:normal;font-variant:normal;font-weight:bold;font-stretch:normal;font-size:4.58611px;font-family:sans-serif;-inkscape-font-specification:'sans-serif, Bold';font-variant-ligatures:normal;font-variant-caps:normal;font-variant-numeric:normal;font-variant-east-asian:normal;fill:#000000;fill-opacity:1;stroke-width:0.264583"
         x="117.18974"
         y="163.20195">1 0 T G</tspan></text>
    <text
       xml:space="preserve"
       style="font-style:normal;font-variant:normal;font-weight:normal;font-stretch:normal;font-size:4.23333px;line-height:1.25;font-family:sans-serif;-inkscape-font-specification:'sans-serif, Normal';font-variant-ligatures:normal;font-variant-caps:normal;font-variant-numeric:normal;font-variant-east-asian:normal;fill:#000000;fill-opacity:1;stroke:none;stroke-width:0.264583"
       x="302.55038"
       y="157.35744"
       id="text12444"><tspan
         sodipodi:role="line"
         id="tspan12442"
         style="font-style:normal;font-variant:normal;font-weight:bold;font-stretch:normal;font-size:4.23333px;font-family:Arial;-inkscape-font-specification:'Arial, Bold';font-variant-ligatures:normal;font-variant-caps:normal;font-variant-numeric:normal;font-variant-east-asian:normal;stroke-width:0.264583"
         x="302.55038"
         y="157.35744">SE        IN  </tspan></text>
    <rect
       style="fill:#ff0000;fill-opacity:0.620047;fill-rule:evenodd;stroke:#0e0000;stroke-width:0.264999"
       id="rect46694"
       width="7.2908311"
       height="0.063954659"
       x="300.95151"
       y="158.95631" />
    <rect
       style="fill:#ff0000;fill-opacity:0.620047;fill-rule:evenodd;stroke:#0e0000;stroke-width:0.264999"
       id="rect46694-7"
       width="7.2908311"
       height="0.063954659"
       x="315.789"
       y="159.05223" />
    <text
       xml:space="preserve"
       style="font-style:normal;font-variant:normal;font-weight:normal;font-stretch:normal;font-size:4.23333px;line-height:1.25;font-family:Arial;-inkscape-font-specification:'Arial, Normal';font-variant-ligatures:normal;font-variant-caps:normal;font-variant-numeric:normal;font-variant-east-asian:normal;fill:#000000;fill-opacity:1;stroke:none;stroke-width:0.264583"
       x="147.73726"
       y="181.38033"
       id="text3316-8-9"><tspan
         sodipodi:role="line"
         id="tspan3314-8-5"
         style="font-style:normal;font-variant:normal;font-weight:normal;font-stretch:normal;font-size:4.23333px;font-family:Arial;-inkscape-font-specification:'Arial, Normal';font-variant-ligatures:normal;font-variant-caps:normal;font-variant-numeric:normal;font-variant-east-asian:normal;stroke-width:0.264583"
         x="147.73726"
         y="181.38033">J24</tspan></text>
    <text
       xml:space="preserve"
       style="font-style:normal;font-variant:normal;font-weight:normal;font-stretch:normal;font-size:4.23333px;line-height:1.25;font-family:Arial;-inkscape-font-specification:'Arial, Normal';font-variant-ligatures:normal;font-variant-caps:normal;font-variant-numeric:normal;font-variant-east-asian:normal;fill:#000000;fill-opacity:1;stroke:none;stroke-width:0.264583"
       x="172.47581"
       y="181.38033"
       id="text3316-8-1"><tspan
         sodipodi:role="line"
         id="tspan3314-8-1"
         style="font-style:normal;font-variant:normal;font-weight:normal;font-stretch:normal;font-size:4.23333px;font-family:Arial;-inkscape-font-specification:'Arial, Normal';font-variant-ligatures:normal;font-variant-caps:normal;font-variant-numeric:normal;font-variant-east-asian:normal;stroke-width:0.264583"
         x="172.47581"
         y="181.38033">J25</tspan></text>
    <text
       xml:space="preserve"
       style="font-style:normal;font-variant:normal;font-weight:normal;font-stretch:normal;font-size:4.23333px;line-height:1.25;font-family:Arial;-inkscape-font-specification:'Arial, Normal';font-variant-ligatures:normal;font-variant-caps:normal;font-variant-numeric:normal;font-variant-east-asian:normal;fill:#000000;fill-opacity:1;stroke:none;stroke-width:0.264583"
       x="196.6852"
       y="181.38033"
       id="text3316-8-90"><tspan
         sodipodi:role="line"
         id="tspan3314-8-6"
         style="font-style:normal;font-variant:normal;font-weight:normal;font-stretch:normal;font-size:4.23333px;font-family:Arial;-inkscape-font-specification:'Arial, Normal';font-variant-ligatures:normal;font-variant-caps:normal;font-variant-numeric:normal;font-variant-east-asian:normal;stroke-width:0.264583"
         x="196.6852"
         y="181.38033">J26</tspan></text>
    <text
       xml:space="preserve"
       style="font-style:normal;font-variant:normal;font-weight:normal;font-stretch:normal;font-size:4.23333px;line-height:1.25;font-family:Arial;-inkscape-font-specification:'Arial, Normal';font-variant-ligatures:normal;font-variant-caps:normal;font-variant-numeric:normal;font-variant-east-asian:normal;fill:#000000;fill-opacity:1;stroke:none;stroke-width:0.264583"
       x="225.1279"
       y="181.38033"
       id="text3316-8-0"><tspan
         sodipodi:role="line"
         id="tspan3314-8-7"
         style="font-style:normal;font-variant:normal;font-weight:normal;font-stretch:normal;font-size:4.23333px;font-family:Arial;-inkscape-font-specification:'Arial, Normal';font-variant-ligatures:normal;font-variant-caps:normal;font-variant-numeric:normal;font-variant-east-asian:normal;stroke-width:0.264583"
         x="225.1279"
         y="181.38033">J17</tspan></text>
    <text
       xml:space="preserve"
       style="font-style:normal;font-variant:normal;font-weight:normal;font-stretch:normal;font-size:4.23333px;line-height:1.25;font-family:Arial;-inkscape-font-specification:'Arial, Normal';font-variant-ligatures:normal;font-variant-caps:normal;font-variant-numeric:normal;font-variant-east-asian:normal;fill:#000000;fill-opacity:1;stroke:none;stroke-width:0.264583"
       x="307.54559"
       y="181.38033"
       id="text3316-8-2"><tspan
         sodipodi:role="line"
         id="tspan3314-8-78"
         style="font-style:normal;font-variant:normal;font-weight:normal;font-stretch:normal;font-size:4.23333px;font-family:Arial;-inkscape-font-specification:'Arial, Normal';font-variant-ligatures:normal;font-variant-caps:normal;font-variant-numeric:normal;font-variant-east-asian:normal;stroke-width:0.264583"
         x="307.54559"
         y="181.38033">J20</tspan></text>
    <text
       xml:space="preserve"
       style="font-style:normal;font-variant:normal;font-weight:normal;font-stretch:normal;font-size:4.23333px;line-height:1.25;font-family:Arial;-inkscape-font-specification:'Arial, Normal';font-variant-ligatures:normal;font-variant-caps:normal;font-variant-numeric:normal;font-variant-east-asian:normal;fill:#000000;fill-opacity:1;stroke:none;stroke-width:0.264583"
       x="341.14767"
       y="181.38033"
       id="text3316-8-6"><tspan
         sodipodi:role="line"
         id="tspan3314-8-17"
         style="font-style:normal;font-variant:normal;font-weight:normal;font-stretch:normal;font-size:4.23333px;font-family:Arial;-inkscape-font-specification:'Arial, Normal';font-variant-ligatures:normal;font-variant-caps:normal;font-variant-numeric:normal;font-variant-east-asian:normal;stroke-width:0.264583"
         x="341.14767"
         y="181.38033">J21</tspan></text>
    <text
       xml:space="preserve"
       style="font-style:normal;font-variant:normal;font-weight:normal;font-stretch:normal;font-size:4.23333px;line-height:1.25;font-family:Arial;-inkscape-font-specification:'Arial, Normal';font-variant-ligatures:normal;font-variant-caps:normal;font-variant-numeric:normal;font-variant-east-asian:normal;fill:#000000;fill-opacity:1;stroke:none;stroke-width:0.264583"
       x="366.28"
       y="181.38033"
       id="text3316-8-6-6"><tspan
         sodipodi:role="line"
         id="tspan3314-8-17-9"
         style="font-style:normal;font-variant:normal;font-weight:normal;font-stretch:normal;font-size:4.23333px;font-family:Arial;-inkscape-font-specification:'Arial, Normal';font-variant-ligatures:normal;font-variant-caps:normal;font-variant-numeric:normal;font-variant-east-asian:normal;stroke-width:0.264583"
         x="366.28"
         y="181.38033">J18</tspan></text>
    <text
       xml:space="preserve"
       style="font-style:normal;font-variant:normal;font-weight:normal;font-stretch:normal;font-size:4.23333px;line-height:1.25;font-family:Arial;-inkscape-font-specification:'Arial, Normal';font-variant-ligatures:normal;font-variant-caps:normal;font-variant-numeric:normal;font-variant-east-asian:normal;fill:#000000;fill-opacity:1;stroke:none;stroke-width:0.264583"
       x="391.81229"
       y="181.38033"
       id="text3316-8-6-8"><tspan
         sodipodi:role="line"
         id="tspan3314-8-17-97"
         style="font-style:normal;font-variant:normal;font-weight:normal;font-stretch:normal;font-size:4.23333px;font-family:Arial;-inkscape-font-specification:'Arial, Normal';font-variant-ligatures:normal;font-variant-caps:normal;font-variant-numeric:normal;font-variant-east-asian:normal;stroke-width:0.264583"
         x="391.81229"
         y="181.38033">J19</tspan></text>
    <text
       xml:space="preserve"
       style="font-style:normal;font-variant:normal;font-weight:normal;font-stretch:normal;font-size:4.23333px;line-height:1.25;font-family:Arial;-inkscape-font-specification:'Arial, Normal';font-variant-ligatures:normal;font-variant-caps:normal;font-variant-numeric:normal;font-variant-east-asian:normal;fill:#000000;fill-opacity:1;stroke:none;stroke-width:0.264583"
       x="418.13834"
       y="181.38033"
       id="text3316-8-6-4"><tspan
         sodipodi:role="line"
         id="tspan3314-8-17-6"
         style="font-style:normal;font-variant:normal;font-weight:normal;font-stretch:normal;font-size:4.23333px;font-family:Arial;-inkscape-font-specification:'Arial, Normal';font-variant-ligatures:normal;font-variant-caps:normal;font-variant-numeric:normal;font-variant-east-asian:normal;stroke-width:0.264583"
         x="418.13834"
         y="181.38033">J22</tspan></text>
    <text
       xml:space="preserve"
       transform="matrix(0.26458333,0,0,0.26458333,17.63239,144.05488)"
       id="text26617"
       style="font-style:normal;font-variant:normal;font-weight:normal;font-stretch:normal;font-size:24px;line-height:1.25;font-family:sans-serif;-inkscape-font-specification:'sans-serif, Normal';font-variant-ligatures:normal;font-variant-caps:normal;font-variant-numeric:normal;font-variant-east-asian:normal;white-space:pre;shape-inside:url(#rect26619)"><tspan
         x="39.597656"
         y="-23.416902"
         id="tspan3832">Back Panel</tspan></text>
  </g>
</svg>
